<svg width="36" height="40" viewBox="0 0 36 40" fill="none" xmlns="http://www.w3.org/2000/svg">
<g clip-path="url(#clip0_4175_195759)">
<path d="M35.1296 27.6866V12.3134C35.1296 11.5933 34.94 10.8858 34.5799 10.2622C34.2199 9.63854 33.702 9.12066 33.0783 8.76059L19.745 1.06258C19.1213 0.702503 18.4139 0.512939 17.6937 0.512939C16.9736 0.512939 16.2661 0.702503 15.6424 1.06258L2.30909 8.76049C1.68544 9.12055 1.16755 9.63844 0.807478 10.2621C0.447404 10.8857 0.257831 11.5932 0.257812 12.3133V27.6865C0.257831 28.4067 0.447404 29.1141 0.807478 29.7377C1.16755 30.3614 1.68544 30.8793 2.30909 31.2393L15.6424 38.9376C16.2661 39.2976 16.9736 39.4872 17.6937 39.4872C18.4139 39.4872 19.1213 39.2976 19.745 38.9376L33.0783 31.2395C33.702 30.8795 34.2199 30.3616 34.58 29.7379C34.94 29.1142 35.1296 28.4068 35.1296 27.6866V27.6866Z" fill="url(#paint0_linear_4175_195759)"/>
<path d="M17.6895 20V29.2308M17.6895 20L25.8946 14.8718M17.6895 20L9.48438 14.8718" stroke="white" stroke-width="4" stroke-linecap="round" stroke-linejoin="round"/>
</g>
<defs>
<linearGradient id="paint0_linear_4175_195759" x1="0.401911" y1="10.2565" x2="32.0578" y2="27.6146" gradientUnits="userSpaceOnUse">
<stop stop-color="#FE5170"/>
<stop offset="1" stop-color="#F87AA3"/>
</linearGradient>
<clipPath id="clip0_4175_195759">
<rect width="35.3846" height="40" fill="white"/>
</clipPath>
</defs>
</svg>
