<svg width="35" height="40" viewBox="0 0 35 40" fill="none" xmlns="http://www.w3.org/2000/svg">
<rect x="0.664062" width="34" height="40" rx="4" fill="url(#paint0_linear_4175_195786)"/>
<path d="M17.6641 21V25" stroke="white" stroke-width="3" stroke-linecap="round" stroke-linejoin="round"/>
<path d="M16.7385 8.36705L12.0452 12.8606C11.8629 13.0362 11.7387 13.2608 11.6887 13.5054C11.6387 13.7501 11.6652 14.0037 11.7646 14.2337C11.8641 14.4636 12.0321 14.6595 12.247 14.796C12.4619 14.9325 12.7139 15.0035 12.9707 14.9999H22.3574C22.6142 15.0035 22.8662 14.9325 23.0811 14.796C23.296 14.6595 23.464 14.4637 23.5635 14.2337C23.663 14.0037 23.6894 13.7501 23.6394 13.5055C23.5894 13.2608 23.4653 13.0362 23.2829 12.8606L18.5895 8.36705C18.3424 8.13178 18.0101 8 17.664 8C17.318 8 16.9857 8.13178 16.7385 8.36705Z" fill="white"/>
<path d="M15.1522 15L10.948 20.0149C10.8003 20.1902 10.7056 20.404 10.6749 20.6312C10.6442 20.8583 10.6789 21.0895 10.7748 21.2978C10.8707 21.506 11.024 21.6826 11.2166 21.8069C11.4092 21.9313 11.6332 21.9983 11.8625 22H23.4657C23.695 21.9982 23.919 21.9313 24.1116 21.8069C24.3042 21.6826 24.4574 21.506 24.5533 21.2977C24.6492 21.0895 24.6839 20.8583 24.6532 20.6311C24.6225 20.404 24.5278 20.1902 24.3801 20.0149L20.176 15" fill="white"/>
<path d="M12 32H24" stroke="white" stroke-width="3" stroke-linecap="round" stroke-linejoin="round"/>
<defs>
<linearGradient id="paint0_linear_4175_195786" x1="0.804558" y1="10" x2="32.3808" y2="26.4486" gradientUnits="userSpaceOnUse">
<stop stop-color="#FE5170"/>
<stop offset="1" stop-color="#F87AA3"/>
</linearGradient>
</defs>
</svg>
