<svg width="41" height="40" viewBox="0 0 41 40" fill="none" xmlns="http://www.w3.org/2000/svg">
<path fill-rule="evenodd" clip-rule="evenodd" d="M20.3304 40C21.7289 40 23.0939 39.8565 24.4114 39.5833C24.9015 39.4817 24.941 38.6271 24.5574 38.3056L23.8078 37.6773C22.6971 36.7462 22.1579 35.2359 22.8288 33.9512C23.8002 32.0912 25.5238 30.3136 28.1066 31.0353C30.4944 31.7025 33.297 29.9364 35.6501 28.4536C36.6259 27.8386 37.5245 27.2724 38.2841 26.9486C38.6992 26.7717 39.2437 26.5352 39.3814 26.1055C39.9977 24.1808 40.3304 22.1293 40.3304 20C40.3304 8.9543 31.3761 0 20.3304 0C17.7004 0 15.1889 0.507658 12.8886 1.43033C11.1312 2.13529 11.0572 5.29719 11.0572 7.19079C11.0572 9.86161 10.4872 11.0169 10.1558 11.6887C9.90315 12.2007 9.78916 12.4318 10.172 12.839C10.4226 13.1055 10.9567 13.3719 11.5337 13.6597C12.9952 14.3887 14.7312 15.2547 12.8274 16.6045C11.027 17.8811 9.94713 20.1495 9.48009 21.5756C9.33507 22.0185 9.31871 22.4896 9.38074 22.9514L10.1551 28.716C10.1664 28.8002 10.1848 28.8832 10.2102 28.9643C10.5698 30.1115 9.49785 31.1928 8.34754 30.8432L5.52167 29.9845C5.08688 29.8524 4.68739 29.6272 4.35594 29.3163C3.63362 28.6388 2.6009 29.3171 3.10519 30.1694C6.58675 36.0539 12.9977 40 20.3304 40ZM23.2518 5.00005C21.9998 6.50013 20.7518 9.66672 24.0851 11.6667C26.2736 12.9798 26.9056 14.8436 26.9243 16.3621C26.9399 17.6217 26.9649 19.012 27.9299 19.8217C29.4198 21.0717 31.6802 21.9241 34.0853 20C36.8002 17.8281 37.0289 16.8355 37.0203 15.4913C37.0162 14.8412 36.8387 14.2036 36.5392 13.6265C36.4655 13.4846 36.3894 13.3372 36.3108 13.1848C34.8164 10.2893 32.4153 5.63704 29.0041 4.49997L27.0924 4.02208C27.0336 4.00737 26.9758 3.99423 26.9159 3.9848C26.4616 3.91331 24.3641 3.66738 23.2518 5.00005Z" fill="url(#paint0_linear_4175_195823)"/>
<path fill-rule="evenodd" clip-rule="evenodd" d="M20.3359 37C29.7248 37 37.3359 29.3888 37.3359 20C37.3359 10.6112 29.7248 3 20.3359 3C10.9471 3 3.33594 10.6112 3.33594 20C3.33594 29.3888 10.9471 37 20.3359 37ZM20.3359 40C31.3816 40 40.3359 31.0457 40.3359 20C40.3359 8.9543 31.3816 0 20.3359 0C9.29024 0 0.335938 8.9543 0.335938 20C0.335938 31.0457 9.29024 40 20.3359 40Z" fill="url(#paint1_linear_4175_195823)"/>
<defs>
<linearGradient id="paint0_linear_4175_195823" x1="0.501227" y1="10" x2="34.8351" y2="31.0413" gradientUnits="userSpaceOnUse">
<stop stop-color="#FE5170"/>
<stop offset="1" stop-color="#F87AA3"/>
</linearGradient>
<linearGradient id="paint1_linear_4175_195823" x1="0.501227" y1="10" x2="34.8351" y2="31.0413" gradientUnits="userSpaceOnUse">
<stop stop-color="#FE5170"/>
<stop offset="1" stop-color="#F87AA3"/>
</linearGradient>
</defs>
</svg>
