<svg width="568" height="562" viewBox="0 0 568 562" fill="none" xmlns="http://www.w3.org/2000/svg">
<mask id="mask0_3987_154262" style="mask-type:alpha" maskUnits="userSpaceOnUse" x="127" y="102" width="295" height="332">
<path d="M261.437 106.523C269.629 101.794 279.721 101.794 287.912 106.523L408.174 175.957C416.366 180.686 421.412 189.426 421.412 198.885V337.752C421.412 347.21 416.366 355.95 408.174 360.68L287.912 430.113C279.721 434.842 269.629 434.842 261.437 430.113L141.175 360.68C132.984 355.95 127.938 347.21 127.938 337.752V198.885C127.938 189.426 132.984 180.686 141.175 175.957L261.437 106.523Z" fill="#C4C4C4" fill-opacity="0.01"/>
</mask>
<g mask="url(#mask0_3987_154262)">
<circle opacity="0.6" cx="284" cy="278" r="279.047" fill="url(#paint0_linear_3987_154262)"/>
</g>
<g filter="url(#filter0_d_3987_154262)">
<path d="M261.445 106.524C269.636 101.795 279.728 101.795 287.92 106.524L408.182 175.958C416.373 180.687 421.419 189.427 421.419 198.885V337.752C421.419 347.211 416.373 355.951 408.182 360.68L287.92 430.114C279.728 434.843 269.636 434.843 261.445 430.114L141.183 360.68C132.991 355.951 127.945 347.211 127.945 337.752V198.885C127.945 189.427 132.991 180.687 141.183 175.958L261.445 106.524Z" fill="url(#paint1_linear_3987_154262)"/>
<path fill-rule="evenodd" clip-rule="evenodd" d="M328.433 264.069C325.935 261.678 323.138 259.598 320.102 257.891C321.832 254.923 323.202 251.72 324.153 248.341C325.156 244.778 325.693 241.019 325.693 237.134C325.693 214.336 307.211 195.855 284.414 195.855H231.877C226.695 195.855 222.495 200.055 222.495 205.237V324.852C222.495 330.552 227.115 335.172 232.815 335.172H299.893C322.691 335.172 341.172 316.691 341.172 293.893C341.172 282.167 336.284 271.584 328.433 264.069Z" fill="black" fill-opacity="0.01"/>
<path d="M222.495 205.237C222.495 200.055 226.695 195.855 231.877 195.855H284.414C307.211 195.855 325.693 214.336 325.693 237.134C325.693 259.932 307.211 278.413 284.414 278.413H222.495V205.237Z" fill="white"/>
<path d="M222.495 252.614H299.893C322.691 252.614 341.172 271.095 341.172 293.893C341.172 316.691 322.691 335.172 299.893 335.172H232.815C227.115 335.172 222.495 330.552 222.495 324.852V252.614Z" fill="url(#paint2_linear_3987_154262)"/>
<path d="M222.493 252.614V278.413H284.412C299.642 278.413 312.947 270.165 320.1 257.891C314.127 254.531 307.233 252.614 299.891 252.614H222.493Z" fill="url(#paint3_linear_3987_154262)"/>
</g>
<defs>
<filter id="filter0_d_3987_154262" x="109.886" y="92.1413" width="329.596" height="366.803" filterUnits="userSpaceOnUse" color-interpolation-filters="sRGB">
<feFlood flood-opacity="0" result="BackgroundImageFix"/>
<feColorMatrix in="SourceAlpha" type="matrix" values="0 0 0 0 0 0 0 0 0 0 0 0 0 0 0 0 0 0 127 0" result="hardAlpha"/>
<feOffset dy="7.22384"/>
<feGaussianBlur stdDeviation="9.0298"/>
<feComposite in2="hardAlpha" operator="out"/>
<feColorMatrix type="matrix" values="0 0 0 0 0 0 0 0 0 0 0 0 0 0 0 0 0 0 0.1 0"/>
<feBlend mode="normal" in2="BackgroundImageFix" result="effect1_dropShadow_3987_154262"/>
<feBlend mode="normal" in="SourceGraphic" in2="effect1_dropShadow_3987_154262" result="shape"/>
</filter>
<linearGradient id="paint0_linear_3987_154262" x1="32.7117" y1="-1.04663" x2="529.444" y2="-1.04663" gradientUnits="userSpaceOnUse">
<stop stop-color="#30C976"/>
<stop offset="1" stop-color="#3684CC"/>
</linearGradient>
<linearGradient id="paint1_linear_3987_154262" x1="274.682" y1="97.8164" x2="274.682" y2="438.821" gradientUnits="userSpaceOnUse">
<stop/>
<stop offset="1" stop-color="#2D3749"/>
</linearGradient>
<linearGradient id="paint2_linear_3987_154262" x1="219.656" y1="471.767" x2="447.45" y2="243.512" gradientUnits="userSpaceOnUse">
<stop stop-color="#30FFB4"/>
<stop offset="1" stop-color="#00B68A"/>
</linearGradient>
<linearGradient id="paint3_linear_3987_154262" x1="227.347" y1="252.613" x2="419.267" y2="252.613" gradientUnits="userSpaceOnUse">
<stop stop-color="#FFE353"/>
<stop offset="1" stop-color="#00FF94"/>
</linearGradient>
</defs>
</svg>
