<svg width="94" height="41" viewBox="0 0 94 41" fill="none" xmlns="http://www.w3.org/2000/svg">
<path d="M8.77822 16.4838H11.9944C14.2179 16.4838 14.9459 15.2 14.9459 13.7177C14.9459 12.4603 14.2709 11.6662 13.2253 11.5206V11.4941C14.165 11.2294 14.6547 10.4486 14.6547 9.42944C14.6547 7.6162 13.5297 7.03385 11.9679 7.03385H8.77822V16.4838ZM10.6841 8.43679H11.3723C12.312 8.43679 12.7488 8.76767 12.7488 9.66767C12.7488 10.5544 12.2723 10.9118 11.2267 10.9118H10.6841V8.43679ZM10.6841 12.2353H11.5047C12.3385 12.2353 12.9606 12.553 12.9606 13.6515C12.9606 14.75 12.3385 15.0809 11.4253 15.0809H10.6841V12.2353Z" fill="#344054"/>
<path d="M16.1789 16.4838H18.0054V7.03385H16.1789V16.4838Z" fill="#344054"/>
<path d="M19.0872 12.9236C19.0872 15.3986 19.696 16.7088 21.893 16.6691C23.9842 16.6691 24.6989 15.3588 24.6989 12.9236C24.6989 10.4486 24.0901 9.13826 21.893 9.17796C19.8019 9.17796 19.0872 10.4883 19.0872 12.9236ZM20.9136 12.9236C20.9136 11.4677 20.993 10.4221 21.893 10.4221C22.6342 10.4221 22.8725 11.15 22.8725 12.9236C22.8725 14.6971 22.6342 15.425 21.893 15.425C20.993 15.425 20.9136 14.3794 20.9136 12.9236Z" fill="#344054"/>
<path d="M30.8926 11.9309C30.8926 10.25 30.0191 9.17796 28.3382 9.17796C26.6573 9.17796 25.4529 9.99855 25.4529 12.9236C25.4529 15.7824 26.3529 16.6691 28.1794 16.6691C30.1118 16.6691 30.8926 15.6236 30.8926 13.7574H29.1456C29.1456 14.9088 28.8676 15.425 28.2588 15.425C27.4382 15.425 27.2794 14.6971 27.2794 12.9368C27.2794 11.2956 27.425 10.5015 28.325 10.5015C29.0132 10.5015 29.1456 11.2427 29.1456 11.9309H30.8926Z" fill="#344054"/>
<path d="M31.9434 7.03385V16.4838H33.7699V14.4059L34.4184 13.5588L35.9405 16.4838H37.9522L35.5963 12.1691L37.6478 9.36326H35.636L33.7963 12.0236H33.7699V7.03385H31.9434Z" fill="#344054"/>
<path d="M43.703 11.9309C43.703 10.25 42.8294 9.17796 41.1485 9.17796C39.4677 9.17796 38.2632 9.99855 38.2632 12.9236C38.2632 15.7824 39.1633 16.6691 40.9897 16.6691C42.9221 16.6691 43.703 15.6236 43.703 13.7574H41.9559C41.9559 14.9088 41.678 15.425 41.0691 15.425C40.2485 15.425 40.0897 14.6971 40.0897 12.9368C40.0897 11.2956 40.2353 10.5015 41.1353 10.5015C41.8235 10.5015 41.9559 11.2427 41.9559 11.9309H43.703Z" fill="#344054"/>
<path d="M44.6875 16.4838H46.514V11.7588C46.514 10.9647 46.8581 10.5809 47.4802 10.5809C48.0228 10.5809 48.2611 10.8588 48.2611 11.5736V16.4838H50.0875V11.203C50.0875 9.80002 49.4125 9.17796 48.2743 9.17796C47.5067 9.17796 46.8846 9.48238 46.5405 10.0912H46.514V7.03385H44.6875V16.4838Z" fill="#344054"/>
<path d="M52.9662 11.5471V11.3486C52.9662 10.7927 53.2574 10.4221 53.8133 10.4221C54.4221 10.4221 54.6603 10.753 54.6603 11.2956C54.6603 11.7721 54.475 11.9838 53.9324 12.1294L52.9 12.4074C51.6427 12.7515 51.1 13.2941 51.1 14.6309C51.1 15.5838 51.55 16.6691 52.8206 16.6691C53.6942 16.6691 54.2103 16.4838 54.6339 15.7427H54.6603C54.7133 15.9809 54.7662 16.2588 54.8853 16.4838H56.6324C56.4471 16.0736 56.4074 15.7691 56.4074 15.1074V11.3618C56.4074 10.078 55.9971 9.17796 53.8265 9.17796C52.45 9.17796 51.325 9.73385 51.325 11.375V11.5471H52.9662ZM54.6603 14.3265C54.6603 15.1074 54.025 15.425 53.5353 15.425C53.0456 15.425 52.8471 14.975 52.8471 14.4324C52.8471 13.7971 53.1383 13.4397 53.8795 13.2809C54.1045 13.228 54.4089 13.1088 54.6603 12.9236V14.3265Z" fill="#344054"/>
<path d="M57.8096 16.4838H59.6361V9.36326H57.8096V16.4838ZM57.8096 8.48973H59.6361V6.92796H57.8096V8.48973Z" fill="#344054"/>
<path d="M60.9561 16.4838H62.7826V11.7588C62.7826 10.9647 63.1267 10.5809 63.7487 10.5809C64.2914 10.5809 64.5296 10.8588 64.5296 11.5736V16.4838H66.3561V11.203C66.3561 9.80002 65.6811 9.17796 64.5429 9.17796C63.7752 9.17796 63.1134 9.49561 62.7296 10.1971H62.7031V9.36326H60.9561V16.4838Z" fill="#344054"/>
<path d="M71.7857 10.6338L70.5151 16.4838H71.6401L72.8974 10.6338H74.221L74.4063 9.6412H73.096C73.1577 9.42944 73.2063 9.22208 73.2415 9.01914C73.2857 8.8162 73.3474 8.63532 73.4268 8.47649C73.5151 8.30885 73.6342 8.17649 73.7842 8.07944C73.9342 7.97355 74.146 7.92061 74.4195 7.92061C74.4989 7.92061 74.5827 7.92944 74.671 7.94708C74.7592 7.95591 74.8518 7.96914 74.9489 7.98679L75.1342 7.03385C74.9842 6.98973 74.8298 6.96326 74.671 6.95444C74.5121 6.93679 74.3533 6.92796 74.1945 6.92796C73.7445 6.92796 73.3915 7.00738 73.1357 7.1662C72.8886 7.3162 72.6945 7.51914 72.5533 7.77502C72.4121 8.02208 72.3018 8.30885 72.2224 8.63532C72.1518 8.96179 72.0724 9.29708 71.9842 9.6412H70.8195L70.621 10.6338H71.7857Z" fill="#344054"/>
<path d="M74.3851 13.7838C74.3851 14.1986 74.4512 14.5824 74.5836 14.9353C74.7159 15.2794 74.9056 15.5794 75.1527 15.8353C75.3998 16.0824 75.6998 16.2765 76.0527 16.4177C76.4145 16.5588 76.8203 16.6294 77.2703 16.6294C77.8703 16.6294 78.4042 16.5103 78.8718 16.2721C79.3395 16.0338 79.7365 15.7162 80.063 15.3191C80.3895 14.9133 80.6365 14.45 80.8042 13.9294C80.9718 13.4088 81.0556 12.8706 81.0556 12.3147C81.0556 11.3883 80.813 10.6868 80.3277 10.2103C79.8424 9.72502 79.1365 9.48238 78.2101 9.48238C77.6101 9.48238 77.0718 9.60149 76.5954 9.83973C76.1277 10.078 75.7262 10.3956 75.3909 10.7927C75.0645 11.1897 74.813 11.6486 74.6365 12.1691C74.4689 12.6897 74.3851 13.228 74.3851 13.7838ZM75.5101 13.7706C75.5101 13.4177 75.563 13.0471 75.6689 12.6588C75.7836 12.2706 75.9512 11.9177 76.1718 11.6C76.3924 11.2736 76.6659 11.0044 76.9924 10.7927C77.3189 10.5809 77.6983 10.475 78.1306 10.475C78.4395 10.475 78.7042 10.528 78.9248 10.6338C79.1542 10.7309 79.3439 10.8677 79.4939 11.0441C79.6439 11.2118 79.7542 11.4147 79.8248 11.653C79.8953 11.8912 79.9306 12.1427 79.9306 12.4074C79.9306 12.7427 79.8733 13.1 79.7586 13.4794C79.6527 13.8588 79.4895 14.2118 79.2689 14.5383C79.0571 14.8559 78.7924 15.1206 78.4748 15.3324C78.1659 15.5441 77.8042 15.65 77.3895 15.65C76.7718 15.65 76.3042 15.478 75.9865 15.1338C75.6689 14.7897 75.5101 14.3353 75.5101 13.7706Z" fill="#344054"/>
<path d="M83.1563 9.6412L81.7402 16.4838H82.8519L83.5004 13.453C83.5534 13.1971 83.624 12.9236 83.7122 12.6324C83.8005 12.3324 83.9196 12.0721 84.0696 11.8515C84.246 11.578 84.4534 11.3441 84.6916 11.15C84.9387 10.9559 85.2166 10.8191 85.5255 10.7397C85.6578 10.7044 85.7681 10.6868 85.8563 10.6868C85.9446 10.678 86.0593 10.6736 86.2004 10.6736H86.3593C86.4387 10.6736 86.496 10.678 86.5313 10.6868L86.796 9.48238C86.7255 9.46473 86.6593 9.46032 86.5975 9.46914C86.5357 9.47796 86.4696 9.48238 86.399 9.48238C85.8255 9.48238 85.3313 9.63679 84.9166 9.94561C84.5107 10.2544 84.1755 10.6427 83.9108 11.1103H83.8843L84.2152 9.6412H83.1563Z" fill="#344054"/>
<path d="M8.40763 30.2971V30.6809C8.40763 32.428 9.25469 33.4338 11.412 33.4338C13.4767 33.4338 14.6944 32.5339 14.6944 30.5353C14.6944 29.3838 14.3238 28.6559 12.8944 28.0338L11.4253 27.3986C10.6179 27.0544 10.4459 26.6971 10.4459 26.1147C10.4459 25.5588 10.6709 25.0162 11.5312 25.0162C12.2591 25.0162 12.5635 25.5324 12.5635 26.4191H14.39V26.1544C14.39 24.3412 13.1591 23.6133 11.465 23.6133C9.66498 23.6133 8.53998 24.553 8.53998 26.3927C8.53998 27.9677 9.32086 28.6691 11.015 29.2515C12.2723 29.6883 12.7091 30.0059 12.7091 30.8662C12.7091 31.6603 12.1532 32.0309 11.5709 32.0309C10.565 32.0309 10.3135 31.4618 10.3135 30.575V30.2971H8.40763Z" fill="#344054"/>
<path d="M15.3834 29.6883C15.3834 32.1633 15.9922 33.4736 18.1892 33.4338C20.2804 33.4338 20.9951 32.1236 20.9951 29.6883C20.9951 27.2133 20.3863 25.903 18.1892 25.9427C16.0981 25.9427 15.3834 27.253 15.3834 29.6883ZM17.2098 29.6883C17.2098 28.2324 17.2892 27.1868 18.1892 27.1868C18.9304 27.1868 19.1686 27.9147 19.1686 29.6883C19.1686 31.4618 18.9304 32.1897 18.1892 32.1897C17.2892 32.1897 17.2098 31.1441 17.2098 29.6883Z" fill="#344054"/>
<path d="M27.1888 28.6956C27.1888 27.0147 26.3153 25.9427 24.6344 25.9427C22.9535 25.9427 21.7491 26.7633 21.7491 29.6883C21.7491 32.5471 22.6491 33.4338 24.4756 33.4338C26.4079 33.4338 27.1888 32.3883 27.1888 30.5221H25.4418C25.4418 31.6736 25.1638 32.1897 24.555 32.1897C23.7344 32.1897 23.5756 31.4618 23.5756 29.7015C23.5756 28.0603 23.7212 27.2662 24.6212 27.2662C25.3094 27.2662 25.4418 28.0074 25.4418 28.6956H27.1888Z" fill="#344054"/>
<path d="M28.2396 33.2486H30.0661V26.128H28.2396V33.2486ZM28.2396 25.2544H30.0661V23.6927H28.2396V25.2544Z" fill="#344054"/>
<path d="M33.014 28.3118V28.1133C33.014 27.5574 33.3052 27.1868 33.8611 27.1868C34.4699 27.1868 34.7081 27.5177 34.7081 28.0603C34.7081 28.5368 34.5228 28.7486 33.9802 28.8941L32.9478 29.1721C31.6905 29.5162 31.1478 30.0588 31.1478 31.3956C31.1478 32.3486 31.5978 33.4338 32.8684 33.4338C33.7419 33.4338 34.2581 33.2486 34.6817 32.5074H34.7081C34.7611 32.7456 34.814 33.0236 34.9331 33.2486H36.6802C36.4949 32.8383 36.4552 32.5338 36.4552 31.8721V28.1265C36.4552 26.8427 36.0449 25.9427 33.8743 25.9427C32.4978 25.9427 31.3728 26.4986 31.3728 28.1397V28.3118H33.014ZM34.7081 31.0912C34.7081 31.8721 34.0728 32.1897 33.5831 32.1897C33.0934 32.1897 32.8949 31.7397 32.8949 31.1971C32.8949 30.5618 33.1861 30.2044 33.9272 30.0456C34.1522 29.9927 34.4567 29.8736 34.7081 29.6883V31.0912Z" fill="#344054"/>
<path d="M37.8574 33.2486H39.6839V23.7986H37.8574V33.2486Z" fill="#344054"/>
<path d="M46.268 33.2486V23.7986H44.3621V33.2486H46.268Z" fill="#344054"/>
<path d="M47.6619 33.2486H49.4883V28.5633C49.4883 27.7427 49.8589 27.3456 50.4413 27.3456C50.9574 27.3456 51.156 27.6765 51.156 28.2721V33.2486H52.9824V28.5633C52.9824 27.7427 53.353 27.3456 53.9354 27.3456C54.4516 27.3456 54.6501 27.6765 54.6501 28.2721V33.2486H56.4766V28.0736C56.4766 26.6971 55.9074 25.9427 54.703 25.9427C53.8427 25.9427 53.181 26.3265 52.903 27.0809H52.8766C52.678 26.353 52.0692 25.9427 51.2354 25.9427C50.4677 25.9427 49.8986 26.2074 49.4354 26.8559H49.4089V26.128H47.6619V33.2486Z" fill="#344054"/>
<path d="M59.5513 29.6883C59.5513 28.1397 59.7101 27.3456 60.5175 27.3456C61.3116 27.3456 61.4704 28.1397 61.4704 29.6883C61.4704 31.2368 61.3116 32.0309 60.5175 32.0309C59.7101 32.0309 59.5513 31.2368 59.5513 29.6883ZM57.7248 35.578H59.5513V32.5868H59.5778C59.9616 33.1559 60.4248 33.4338 61.1131 33.4338C62.6086 33.4338 63.2969 32.3353 63.2969 29.6883C63.2969 27.0412 62.6086 25.9427 61.1131 25.9427C60.3983 25.9427 59.8954 26.2206 59.4983 26.8824H59.4719V26.128H57.7248V35.578Z" fill="#344054"/>
<path d="M66.0035 28.3118V28.1133C66.0035 27.5574 66.2947 27.1868 66.8506 27.1868C67.4594 27.1868 67.6976 27.5177 67.6976 28.0603C67.6976 28.5368 67.5123 28.7486 66.9697 28.8941L65.9373 29.1721C64.68 29.5162 64.1373 30.0588 64.1373 31.3956C64.1373 32.3486 64.5873 33.4338 65.8579 33.4338C66.7314 33.4338 67.2476 33.2486 67.6711 32.5074H67.6976C67.7506 32.7456 67.8035 33.0236 67.9226 33.2486H69.6697C69.4844 32.8383 69.4447 32.5338 69.4447 31.8721V28.1265C69.4447 26.8427 69.0344 25.9427 66.8638 25.9427C65.4873 25.9427 64.3623 26.4986 64.3623 28.1397V28.3118H66.0035ZM67.6976 31.0912C67.6976 31.8721 67.0623 32.1897 66.5726 32.1897C66.0829 32.1897 65.8844 31.7397 65.8844 31.1971C65.8844 30.5618 66.1756 30.2044 66.9167 30.0456C67.1417 29.9927 67.4461 29.8736 67.6976 29.6883V31.0912Z" fill="#344054"/>
<path d="M75.9557 28.6956C75.9557 27.0147 75.0822 25.9427 73.4013 25.9427C71.7204 25.9427 70.516 26.7633 70.516 29.6883C70.516 32.5471 71.416 33.4338 73.2425 33.4338C75.1748 33.4338 75.9557 32.3883 75.9557 30.5221H74.2087C74.2087 31.6736 73.9307 32.1897 73.3219 32.1897C72.5013 32.1897 72.3425 31.4618 72.3425 29.7015C72.3425 28.0603 72.4881 27.2662 73.3881 27.2662C74.0763 27.2662 74.2087 28.0074 74.2087 28.6956H75.9557Z" fill="#344054"/>
<path d="M77.3374 26.128H76.4109V27.3721H77.3374V31.4486C77.3374 32.8912 77.6021 33.328 79.0315 33.328C79.455 33.328 79.8256 33.2883 80.2226 33.2486V31.978C80.1035 31.9912 79.9579 32.0044 79.8124 32.0044C79.2829 32.0044 79.1638 31.7794 79.1638 31.2236V27.3721H80.2226V26.128H79.1638V24.0897H77.3374V26.128Z" fill="#344054"/>
<path fill-rule="evenodd" clip-rule="evenodd" d="M90.4688 4.13097H3.99816V37.0722H90.4688V4.13097ZM0.46875 0.601562V40.6016H93.9982V0.601562H0.46875Z" fill="#344054"/>
</svg>
