<svg width="18" height="18" viewBox="0 0 18 18" fill="none" xmlns="http://www.w3.org/2000/svg">
<path d="M10.6937 12.4822C13.5523 12.4822 15.8694 10.1651 15.8694 7.30645C15.8694 4.44776 13.5523 2.13072 10.6937 2.13072C7.83497 2.13072 5.51793 4.44776 5.51793 7.30645C5.51793 10.1651 7.83497 12.4822 10.6937 12.4822ZM10.6937 14.3629C6.79681 14.3629 3.63721 11.2033 3.63721 7.30645C3.63721 3.4096 6.79681 0.25 10.6937 0.25C14.5905 0.25 17.7501 3.4096 17.7501 7.30645C17.7501 11.2033 14.5905 14.3629 10.6937 14.3629Z" fill="#32D17F"/>
<path d="M7.30645 15.8694C10.1651 15.8694 12.4822 13.5523 12.4822 10.6937C12.4822 7.83497 10.1651 5.51792 7.30645 5.51792C4.44776 5.51792 2.13072 7.83497 2.13072 10.6937C2.13072 13.5523 4.44776 15.8694 7.30645 15.8694ZM7.30645 17.7501C3.40961 17.7501 0.25 14.5905 0.25 10.6937C0.25 6.79681 3.40961 3.63721 7.30645 3.63721C11.2033 3.63721 14.3629 6.79681 14.3629 10.6937C14.3629 14.5905 11.2033 17.7501 7.30645 17.7501Z" fill="#F9CB5A"/>
</svg>
