<svg width="64" height="65" viewBox="0 0 64 65" fill="none" xmlns="http://www.w3.org/2000/svg">
<g clip-path="url(#clip0_4545_153294)">
<path d="M30.9698 23.0035L25.7591 28.139C25.5566 28.3398 25.4188 28.5964 25.3633 28.876C25.3078 29.1557 25.3372 29.4455 25.4476 29.7083C25.5581 29.9712 25.7446 30.195 25.9832 30.351C26.2218 30.507 26.5016 30.5882 26.7866 30.584H37.2079C37.493 30.5882 37.7728 30.507 38.0114 30.351C38.25 30.195 38.4365 29.9712 38.547 29.7083C38.6574 29.4455 38.6868 29.1557 38.6313 28.876C38.5758 28.5964 38.4379 28.3398 38.2355 28.139L33.0248 23.0035C32.7504 22.7346 32.3815 22.584 31.9973 22.584C31.6131 22.584 31.2442 22.7346 30.9698 23.0035Z" stroke="url(#paint0_linear_4545_153294)" stroke-width="3" stroke-linecap="round" stroke-linejoin="round"/>
<path d="M14.6693 56.6714V55.1714H14.6693L14.6693 56.6714ZM11.2667 54.7743L9.9907 55.5629L11.2667 54.7743ZM10.6733 52.8512L12.1718 52.7838L10.6733 52.8512ZM11.0916 50.8825L9.74992 50.2117L9.74992 50.2117L11.0916 50.8825ZM12.7934 47.4788L14.1351 48.1497L14.1351 48.1496L12.7934 47.4788ZM13.7766 46.403L12.988 45.127L13.7766 46.403ZM34.9975 47.5047C35.8259 47.5047 36.4975 46.8331 36.4975 46.0047C36.4975 45.1763 35.8259 44.5047 34.9975 44.5047V47.5047ZM34.9975 58.1714C35.8259 58.1714 36.4975 57.4998 36.4975 56.6714C36.4975 55.843 35.8259 55.1714 34.9975 55.1714V58.1714ZM52.5941 21.84L51.2314 22.467H51.2315L52.5941 21.84ZM44.2301 12.2288L43.4209 13.4919L44.2301 12.2288ZM19.7752 12.2288L20.5843 13.4919L19.7752 12.2288ZM13.6491 47.0364C14.188 47.6656 15.135 47.7387 15.7641 47.1998C16.3933 46.6608 16.4664 45.7139 15.9275 45.0848L13.6491 47.0364ZM33.5026 38.5841C33.5026 37.7557 32.831 37.0841 32.0026 37.0841C31.1742 37.0841 30.5026 37.7557 30.5026 38.5841H33.5026ZM30.5026 44.3673C30.5026 45.1957 31.1742 45.8673 32.0026 45.8673C32.831 45.8673 33.5026 45.1957 33.5026 44.3673H30.5026ZM30.2806 31.5477C30.8128 30.9128 30.7296 29.9668 30.0947 29.4346C29.4598 28.9024 28.5137 28.9857 27.9815 29.6206L30.2806 31.5477ZM24.327 36.3154L25.4744 37.2817L25.4766 37.279L24.327 36.3154ZM25.372 38.5841L25.3605 40.0841H25.372V38.5841ZM38.6306 38.5841V40.0842L38.6421 40.0841L38.6306 38.5841ZM39.6756 36.3154L38.526 37.279L38.5282 37.2817L39.6756 36.3154ZM36.0212 29.6206C35.489 28.9857 34.5429 28.9024 33.908 29.4346C33.2731 29.9667 33.1899 30.9128 33.722 31.5477L36.0212 29.6206ZM53.1667 31.6478C53.1536 32.4761 53.8146 33.1582 54.6429 33.1712C55.4712 33.1842 56.1533 32.5233 56.1663 31.695L53.1667 31.6478ZM14.6693 55.1714C14.2431 55.1714 13.8241 55.0625 13.4519 54.8549L11.991 57.4752C12.8098 57.9318 13.7318 58.1714 14.6693 58.1714L14.6693 55.1714ZM13.4519 54.8549C13.0797 54.6474 12.7667 54.3482 12.5426 53.9857L9.9907 55.5629C10.4836 56.3604 11.1721 57.0187 11.991 57.4752L13.4519 54.8549ZM12.5426 53.9857C12.3186 53.6232 12.191 53.2095 12.1718 52.7838L9.17483 52.9186C9.21697 53.8552 9.49782 54.7654 9.9907 55.5629L12.5426 53.9857ZM12.1718 52.7838C12.1526 52.358 12.2426 51.9345 12.4332 51.5533L9.74992 50.2117C9.33065 51.0503 9.13269 51.982 9.17483 52.9186L12.1718 52.7838ZM12.4332 51.5534L14.1351 48.1497L11.4518 46.808L9.74992 50.2117L12.4332 51.5534ZM14.1351 48.1496C14.232 47.9558 14.3809 47.7929 14.5652 47.679L12.988 45.127C12.3298 45.5338 11.7978 46.1159 11.4518 46.808L14.1351 48.1496ZM14.5652 47.679C14.7495 47.5651 14.9619 47.5047 15.1786 47.5047V44.5047C14.4048 44.5047 13.6463 44.7202 12.988 45.127L14.5652 47.679ZM15.1786 47.5047H34.9975V44.5047H15.1786V47.5047ZM34.9975 55.1714H14.6693V58.1714H34.9975V55.1714ZM53.9568 21.213C52.0252 17.0149 48.9304 13.4587 45.0392 10.9658L43.4209 13.4919C46.829 15.6753 49.5396 18.7901 51.2314 22.467L53.9568 21.213ZM45.0392 10.9658C41.1481 8.47291 36.6238 7.14795 32.0026 7.14795V10.1479C36.0501 10.1479 40.0128 11.3084 43.4209 13.4919L45.0392 10.9658ZM32.0026 7.14795C27.3814 7.14795 22.8571 8.47291 18.966 10.9658L20.5843 13.4919C23.9924 11.3084 27.9551 10.1479 32.0026 10.1479V7.14795ZM18.966 10.9658C15.0749 13.4587 11.9801 17.0149 10.0484 21.213L12.7738 22.467C14.4656 18.7901 17.1763 15.6753 20.5843 13.4919L18.966 10.9658ZM10.0484 21.213C8.1168 25.4111 7.42933 30.0751 8.0675 34.652L11.0388 34.2377C10.4798 30.2289 11.0819 26.144 12.7738 22.467L10.0484 21.213ZM8.0675 34.652C8.70567 39.2289 10.6427 43.5268 13.6491 47.0364L15.9275 45.0848C13.2943 42.0108 11.5977 38.2464 11.0388 34.2377L8.0675 34.652ZM30.5026 38.5841V44.3673H33.5026V38.5841H30.5026ZM27.9815 29.6206L23.1775 35.3518L25.4766 37.279L30.2806 31.5477L27.9815 29.6206ZM23.1797 35.3492C22.8275 35.7674 22.6016 36.2773 22.5285 36.8191L25.5015 37.2204C25.4985 37.243 25.4891 37.2642 25.4744 37.2817L23.1797 35.3492ZM22.5285 36.8191C22.4554 37.361 22.538 37.9124 22.7667 38.4091L25.4916 37.154C25.5011 37.1748 25.5046 37.1978 25.5015 37.2204L22.5285 36.8191ZM22.7667 38.4091C22.9955 38.9057 23.3608 39.3269 23.8202 39.6236L25.4477 37.1034C25.4668 37.1158 25.482 37.1333 25.4916 37.154L22.7667 38.4091ZM23.8202 39.6236C24.2795 39.9202 24.8138 40.0799 25.3605 40.0841L25.3834 37.0842C25.4062 37.0844 25.4285 37.091 25.4477 37.1034L23.8202 39.6236ZM25.372 40.0841H38.6306V37.0841H25.372V40.0841ZM38.6421 40.0841C39.1888 40.0799 39.7231 39.9202 40.1824 39.6236L38.5549 37.1034C38.5741 37.091 38.5964 37.0844 38.6192 37.0842L38.6421 40.0841ZM40.1824 39.6236C40.6417 39.3269 41.0071 38.9057 41.2359 38.4091L38.511 37.154C38.5205 37.1333 38.5358 37.1158 38.5549 37.1034L40.1824 39.6236ZM41.2359 38.4091C41.4646 37.9124 41.5472 37.361 41.4741 36.8191L38.5011 37.2204C38.498 37.1978 38.5015 37.1748 38.511 37.154L41.2359 38.4091ZM41.4741 36.8191C41.401 36.2773 41.1751 35.7674 40.8229 35.3492L38.5282 37.2817C38.5135 37.2642 38.5041 37.243 38.5011 37.2204L41.4741 36.8191ZM40.8251 35.3519L36.0212 29.6206L33.722 31.5477L38.526 37.279L40.8251 35.3519ZM56.1663 31.695C56.223 28.0923 55.4734 24.5091 53.9568 21.213L51.2315 22.467C52.5598 25.3539 53.2164 28.4922 53.1667 31.6478L56.1663 31.695Z" fill="url(#paint1_linear_4545_153294)"/>
<path d="M52.0667 39.6714L61.1333 45.0047V55.6714L52.0667 61.0047L43 55.6714V45.0047L52.0667 39.6714Z" stroke="url(#paint2_linear_4545_153294)" stroke-width="3" stroke-linecap="round" stroke-linejoin="round"/>
</g>
<defs>
<linearGradient id="paint0_linear_4545_153294" x1="25.391" y1="24.584" x2="33.0961" y2="32.4476" gradientUnits="userSpaceOnUse">
<stop stop-color="#FE5170"/>
<stop offset="1" stop-color="#F87AA3"/>
</linearGradient>
<linearGradient id="paint1_linear_4545_153294" x1="9.52327" y1="20.6538" x2="49.6274" y2="43.8547" gradientUnits="userSpaceOnUse">
<stop stop-color="#FE5170"/>
<stop offset="1" stop-color="#F87AA3"/>
</linearGradient>
<linearGradient id="paint2_linear_4545_153294" x1="43.0749" y1="45.0047" x2="59.9156" y2="53.7773" gradientUnits="userSpaceOnUse">
<stop stop-color="#FE5170"/>
<stop offset="1" stop-color="#F87AA3"/>
</linearGradient>
<clipPath id="clip0_4545_153294">
<rect width="64" height="64" fill="white" transform="translate(0 0.671387)"/>
</clipPath>
</defs>
</svg>
