<svg width="100" height="75" viewBox="0 0 100 75" fill="none" xmlns="http://www.w3.org/2000/svg">
<path d="M29.818 31.4757C29.0926 31.6207 28.592 31.3071 28.3009 30.7432C28.022 30.2007 28.0271 29.6091 28.4429 29.1086C28.7054 28.7959 28.7289 28.5078 28.6053 28.1298C28.0679 26.4809 27.552 24.8259 27.0443 23.1688C27.0084 23.0129 26.9283 22.8707 26.8136 22.7593C26.6989 22.6478 26.5544 22.5718 26.3976 22.5405C26.0741 22.4474 25.7906 22.2497 25.5915 21.9783C25.3924 21.7069 25.2888 21.3772 25.2969 21.0407C25.3051 20.7042 25.4246 20.3799 25.6367 20.1186C25.8488 19.8572 26.1415 19.6735 26.4691 19.5962C26.9288 19.5022 27.1842 19.2784 27.315 18.8381C27.3985 18.5794 27.5045 18.3285 27.6317 18.0882C27.8095 17.7276 27.8095 17.4313 27.5704 17.0544C26.9748 16.1145 27.506 14.9651 28.6319 14.7536C29.0783 14.6699 29.301 14.4625 29.489 14.0824C30.0448 12.9586 30.6271 11.8348 31.2115 10.7254C31.3678 10.4281 31.3984 10.1921 31.1839 9.88762C30.811 9.35842 30.8774 8.79346 31.2237 8.26323C31.5701 7.73301 32.0615 7.48986 32.6622 7.591C33.079 7.66149 33.3395 7.5675 33.5623 7.22117C33.7156 6.99711 33.8942 6.79144 34.0945 6.60819C34.5481 6.17502 34.7903 5.73163 34.6053 5.04612C34.4449 4.46481 34.7453 3.93561 35.2725 3.61584C35.7996 3.29607 36.3881 3.25316 36.9071 3.61584C37.2667 3.86614 37.5721 3.84673 37.9481 3.68531C39.3079 3.10401 40.6748 2.54109 42.0448 1.98226C42.4014 1.83718 42.6221 1.64614 42.6813 1.22421C42.7835 0.536651 43.2575 0.165799 43.9134 0.0309441C44.2155 -0.0310918 44.5295 0.00374168 44.8107 0.130487C45.0919 0.257231 45.3259 0.469431 45.4796 0.73689C45.6471 1.03521 45.8443 1.13226 46.1681 1.13124C48.9742 1.1217 51.7803 1.1217 54.5864 1.13124C54.9061 1.13124 55.1156 1.03521 55.2923 0.748128C55.6744 0.126978 56.2884 -0.109018 56.9545 0.0462694C57.2808 0.114359 57.5748 0.289832 57.7896 0.544657C58.0044 0.799481 58.1277 1.11895 58.1396 1.45203C58.1631 1.80858 58.3173 2.00575 58.6095 2.16717C61.4524 3.73367 64.2925 5.3063 67.1299 6.88505C67.4201 7.04545 67.6561 7.08938 67.9738 6.89936C68.6389 6.50807 69.5297 6.71342 69.9476 7.29473C70.4584 8.00987 70.4022 8.85271 69.7197 9.39315C69.3223 9.70781 69.2467 10.0521 69.2937 10.4986C69.3571 11.0891 69.4122 11.6806 69.45 12.2731C69.4715 12.6123 69.6227 12.8146 69.92 12.9883C70.629 13.4061 70.8701 14.1407 70.5943 14.8773C70.3419 15.5485 69.685 15.9418 68.9147 15.811C68.6152 15.7663 68.3368 15.63 68.1178 15.4208C67.8114 15.0887 67.5049 15.0591 67.1125 15.1429C66.4996 15.2747 65.8723 15.3666 65.2675 15.5331C65.0392 15.6071 64.8482 15.7663 64.7342 15.9776C64.3174 16.8439 63.5307 17.2219 62.6909 16.9042C61.9268 16.614 61.5671 15.7926 61.7899 14.9243C61.8358 14.7424 61.8113 14.4502 61.6938 14.3338C60.8534 13.4994 59.9908 12.6865 59.106 11.8951C58.9906 11.793 58.6739 11.7858 58.5268 11.8696C57.6073 12.3957 56.2056 11.8297 56.1648 10.6436C56.1648 10.4965 55.9186 10.2758 55.749 10.235C54.8796 10.0061 54.0061 9.7589 53.1183 9.63732C51.4346 9.40643 49.7663 9.58113 48.1215 10.0133C47.7128 10.1216 47.4625 10.2891 47.3481 10.7519C47.0835 11.8185 45.9658 12.2517 45.0106 11.6806C44.7562 11.5284 44.5928 11.5559 44.3731 11.7041C42.9132 12.6813 41.6753 13.955 40.7402 15.4422C40.5625 15.7252 40.5798 15.9479 40.7402 16.237C41.3093 17.2812 40.873 18.2568 39.7523 18.5868C39.6511 18.6265 39.56 18.6882 39.4854 18.7673C39.4109 18.8465 39.3548 18.9411 39.3212 19.0445C38.9074 20.8916 39.0269 22.7223 39.5674 24.5306C39.6542 24.8238 39.7993 24.9669 40.1272 25.0149C41.1867 25.1681 41.7384 26.1612 41.2909 27.147C41.1141 27.5393 41.1448 27.8285 41.4247 28.1104C42.1521 28.846 42.8839 29.5771 43.6202 30.3039C43.8572 30.5378 44.1034 30.5828 44.4457 30.4336C45.4949 29.979 46.4419 30.5133 46.6381 31.6524C46.6498 31.7861 46.7024 31.9131 46.7886 32.0159C46.8749 32.1188 46.9907 32.1927 47.1203 32.2276C50.2996 33.3412 53.4544 33.2707 56.5898 32.0498C56.8809 31.9374 56.9984 31.7648 57.025 31.4481C57.1353 30.3376 58.0905 29.7409 59.1234 30.1496C59.482 30.2916 59.7446 30.2518 60 30.0055C60.4628 29.554 60.9133 29.0912 61.3833 28.6478C61.6182 28.4251 61.4997 28.2391 61.3976 28.0134C61.2432 27.6885 61.2051 27.3205 61.2895 26.9709C61.3739 26.6213 61.5758 26.3113 61.8614 26.0927C62.4294 25.6697 63.2825 25.6463 63.7831 26.1693C64.0732 26.4758 64.1692 26.9621 64.3593 27.3646C64.4512 27.5587 64.5105 27.8233 64.6658 27.9214C65.53 28.4663 66.4107 28.9805 67.3077 29.4641C67.4074 29.5078 67.5149 29.5309 67.6238 29.532C67.7326 29.533 67.8406 29.512 67.9411 29.4702C68.8013 29.0748 69.6707 29.319 70.0865 30.1128C70.487 30.8729 70.2163 31.7709 69.4051 32.1949C69.0823 32.3635 68.9637 32.5586 68.9617 32.9039C68.9513 33.2603 68.9199 33.6157 68.8677 33.9684C68.7727 34.7571 68.6419 35.4927 69.4296 36.119C69.9006 36.4939 69.7851 37.4144 69.4224 37.8649C68.9556 38.4442 68.2711 38.672 67.6019 38.3849C67.2454 38.2327 67.0073 38.2991 66.7192 38.5024C65.0121 39.71 63.2896 40.8951 61.5917 42.1149C61.4975 42.198 61.4211 42.2991 61.3669 42.4123C61.3126 42.5255 61.2817 42.6485 61.276 42.7739C61.2627 43.4982 60.85 44.1572 60.2074 44.3502C59.4922 44.5638 58.7607 44.3083 58.397 43.6678C58.2285 43.3715 58.0241 43.2765 57.7023 43.2775C54.3344 43.283 50.9667 43.2806 47.5994 43.2704C47.2511 43.2704 47.0457 43.3889 46.8628 43.6862C46.4797 44.3104 45.8616 44.529 45.1424 44.3523C44.554 44.2082 44.1484 43.6892 44.0339 43.0364C43.9992 42.8392 43.846 42.5798 43.6764 42.5011C41.6883 41.5762 39.6907 40.6727 37.6835 39.7907C37.5725 39.7548 37.4554 39.7414 37.3391 39.7512C37.2228 39.7611 37.1096 39.7939 37.0062 39.8479C36.3574 40.1973 35.6515 40.1994 35.1345 39.7907C34.6176 39.3821 34.4531 38.7251 34.6421 37.9896C34.6963 37.7771 34.6779 37.4645 34.5553 37.2979C33.2088 35.459 31.8425 33.6371 30.4565 31.8322C30.3288 31.6545 30.0376 31.5901 29.818 31.4757ZM39.689 5.42413V5.32196C39.1281 5.32196 38.5652 5.31379 38.0074 5.32196C37.5844 5.33014 36.902 6.13109 37.0092 6.50807C37.3089 7.55218 37.6225 8.5922 37.9501 9.62813C38.0002 9.78342 38.1606 9.9244 38.3016 10.0266C38.6663 10.2881 39.0433 10.5312 39.4254 10.7652C39.5359 10.835 39.6659 10.8672 39.7962 10.8571C41.1744 10.66 42.5546 10.4567 43.9236 10.2288C44.0912 10.2013 44.318 10.0531 44.3721 9.90703C44.6878 9.06112 45.31 8.81695 46.1477 8.86701C46.3744 8.87842 46.5966 8.80069 46.7668 8.65043C47.4942 7.84539 48.1971 7.01582 48.8836 6.17604C48.996 6.03915 49.1114 5.74594 49.0461 5.65706C48.9439 5.51811 48.6875 5.42821 48.4964 5.42719C45.5613 5.418 42.6251 5.42208 39.689 5.42208V5.42413ZM30.3421 16.9542C30.489 17.1482 30.6484 17.3325 30.8192 17.5059C31.5343 18.1781 32.2883 18.8167 32.9912 19.5042C33.3068 19.8107 33.5949 19.92 34.0312 19.8015C34.2876 19.732 34.589 19.8485 34.8699 19.8454C35.0855 19.8454 35.3552 19.8597 35.5054 19.7433C36.2587 19.165 36.9912 18.5606 37.7029 17.9299C37.8565 17.7681 37.9398 17.5522 37.9348 17.3292C37.9144 16.7744 38.0176 16.2994 38.4272 15.8866C38.5488 15.7651 38.5958 15.4902 38.5621 15.3063C38.4599 14.7557 38.3036 14.2163 38.1647 13.6717C37.9941 13.0046 37.0297 12.5571 36.4126 12.8698C34.6247 13.7739 32.8532 14.7148 31.045 15.5781C30.478 15.8509 30.3349 16.2432 30.3421 16.9542ZM67.1503 8.09262L67.1596 7.93018C67.0359 7.85049 66.9164 7.76366 66.7887 7.69214C63.9206 6.10181 61.0516 4.51556 58.1815 2.93339C57.9915 2.83123 57.6349 2.75563 57.5184 2.85677C57.3591 2.99469 57.2732 3.32059 57.2967 3.55148C57.4275 4.83465 57.6032 6.1127 57.7585 7.3928C57.8546 8.18559 57.7841 9.05704 58.7679 9.40439C58.7831 9.41189 58.7959 9.42359 58.8047 9.4381C59.009 9.76911 59.3022 9.76503 59.6485 9.69147C61.6918 9.25728 63.7422 8.84352 65.7875 8.41648C66.2442 8.32453 66.6967 8.205 67.1503 8.09262ZM40.3489 34.4067C40.5032 34.7132 40.5747 34.9175 40.6912 35.082C41.9335 36.8862 43.1901 38.6812 44.4263 40.4895C44.7777 41.0003 45.0975 41.5173 45.8484 41.3507C45.884 41.3463 45.9201 41.3542 45.9505 41.3732C46.2897 41.5632 46.5094 41.3865 46.7454 41.1536C47.8089 40.1054 48.8908 39.0786 49.9492 38.0192C50.1359 37.8252 50.2496 37.5725 50.271 37.3041C50.2843 36.9199 49.9522 36.8076 49.6151 36.7217C46.7658 35.9994 43.9206 35.2649 41.0733 34.5375C40.8812 34.4905 40.6861 34.468 40.3489 34.4067ZM53.3134 37.3419C53.3524 37.4255 53.403 37.5032 53.4636 37.5727C55.1503 38.86 56.835 40.1473 58.537 41.4182C58.6123 41.4635 58.6966 41.4917 58.784 41.5007C58.8714 41.5097 58.9598 41.4993 59.0427 41.4703C59.5178 41.2659 59.9622 41.3221 60.4291 41.4805C60.5281 41.5107 60.6323 41.5207 60.7353 41.5098C60.8384 41.499 60.9382 41.4674 61.0288 41.4171C62.7655 40.2259 64.4859 39.0132 66.2084 37.8036C66.3494 37.7015 66.4771 37.5871 66.6109 37.4777L66.5588 37.3419H53.3134ZM58.2663 42.4081C58.1832 42.3078 58.0942 42.2126 57.9996 42.1231C56.3374 40.8542 54.6783 39.5813 53.0008 38.3328C52.8506 38.2225 52.5748 38.2624 52.3572 38.2654C52.0241 38.2654 51.6757 38.3768 51.3631 38.3083C51.2266 38.2674 51.0811 38.2674 50.9446 38.3082C50.808 38.3491 50.6865 38.429 50.5949 38.5382C50.1208 39.0245 49.6335 39.4995 49.1513 39.9797C48.4995 40.6274 47.8456 41.271 47.202 41.9208C47.1172 42.0076 47.0253 42.1701 47.0539 42.259C47.0825 42.3478 47.2582 42.3969 47.3788 42.4326C47.48 42.4498 47.5832 42.4529 47.6853 42.4418C50.9851 42.4418 54.2846 42.4418 57.5838 42.4418C57.7626 42.4429 57.9434 42.4255 58.2663 42.4081ZM53.2031 36.1506C53.2613 36.2446 53.3195 36.3386 53.3767 36.4326H66.3382C65.9939 36.2375 65.716 36.0791 65.4371 35.9218C63.6441 34.9155 61.8614 33.902 60.051 32.9172C59.8723 32.8201 59.5954 32.8855 59.3666 32.9029C58.9222 32.9366 58.4614 33.0847 58.0384 33.005C57.6727 32.9366 57.4255 32.9836 57.1588 33.1961C56.0078 34.0951 54.8499 34.9877 53.6853 35.8738C53.5312 35.9772 53.3701 36.0697 53.2031 36.1506ZM35.0508 22.6253C34.6513 22.7745 34.0618 22.8071 33.8973 23.0881C32.8461 24.8913 31.8858 26.7476 30.904 28.5916C30.8396 28.7132 30.8498 28.8746 30.8253 29.0176C30.9837 29.0238 31.1573 29.0779 31.2963 29.0299C33.5173 28.2766 35.7356 27.5152 37.9512 26.7455C38.4957 26.5555 38.6285 25.9364 38.2168 25.5349C37.3045 24.6461 36.3779 23.7675 35.4584 22.8909C35.3305 22.7907 35.1941 22.7018 35.0508 22.6253ZM31.2707 29.9677C31.2656 30.0198 31.2595 30.0699 31.2544 30.123C31.3754 30.2 31.5017 30.2683 31.6324 30.3274C33.6021 31.0711 35.5728 31.8108 37.5446 32.5463C37.9665 32.7037 38.889 32.1264 38.9411 31.6688C39.0637 30.6083 39.1802 29.5458 39.2681 28.4823C39.3334 27.6956 38.8441 27.3411 38.083 27.5976C36.2324 28.2221 34.384 28.8508 32.5376 29.4835C32.1044 29.6326 31.6865 29.8063 31.2646 29.9677H31.2707ZM29.2009 21.6445C29.2009 21.6098 29.2009 21.5751 29.2009 21.5424H28.8944C28.0935 21.5475 27.6174 22.1911 27.8575 22.9532C28.2539 24.2173 28.652 25.4801 29.0518 26.7414C29.1999 27.2104 29.3296 27.6864 29.5023 28.1472C29.5346 28.2199 29.5812 28.2854 29.6393 28.3398C29.6973 28.3942 29.7658 28.4364 29.8405 28.4639C29.9161 28.4864 30.0938 28.328 30.1561 28.2136C31.1444 26.3944 32.1252 24.5712 33.0984 22.7438C33.1529 22.6306 33.1786 22.5057 33.1732 22.3802C33.1679 22.2547 33.1317 22.1324 33.0679 22.0242C33.004 21.916 32.9145 21.8253 32.8072 21.7599C32.6999 21.6946 32.5782 21.6567 32.4528 21.6496C31.3637 21.6323 30.2798 21.6445 29.1948 21.6445H29.2009ZM67.4098 9.15716L67.322 8.9937L59.3134 10.6467L59.1459 10.9614C59.3053 11.0257 59.5004 11.0523 59.6189 11.1657C60.5312 12.0003 61.4394 12.8412 62.3252 13.7024C62.7073 14.0743 63.7647 14.0732 64.0906 13.6442C65.1204 12.2915 66.1457 10.9365 67.1667 9.57909C67.2543 9.44415 67.3321 9.30315 67.3996 9.15716H67.4098ZM66.7969 35.6643L66.899 35.5622C66.7448 35.2833 66.5925 35.0044 66.4373 34.7255C65.4292 32.9151 64.4199 31.1052 63.4091 29.2955C63.1129 28.7673 62.5387 28.7275 62.1158 29.1576C61.5709 29.7154 61.009 30.2579 60.4301 30.785C59.9479 31.2243 59.9724 31.8394 60.5394 32.1632C61.8215 32.8978 63.1129 33.618 64.4032 34.3403C65.1888 34.7827 65.9867 35.222 66.7846 35.6643H66.7969ZM57.0648 8.75872C56.836 6.90038 56.6276 5.18302 56.4089 3.46668C56.3456 2.96915 55.5916 2.6218 55.1544 2.87209C54.2819 3.36452 53.4115 3.86103 52.539 4.35346C51.8545 4.73963 51.7973 5.44251 52.4287 5.92881C53.7479 6.94431 55.072 7.95266 56.4008 8.95385C56.5479 9.06521 56.7532 9.09995 56.931 9.16942C56.976 8.99267 57.0342 8.81593 57.0526 8.75872H57.0648ZM44.132 41.7492L44.2076 41.6634C42.76 39.5731 41.3164 37.4747 39.8586 35.3957C39.5521 34.9533 38.8073 34.987 38.5131 35.4416C38.272 35.8104 38.0707 36.2068 37.8224 36.5705C37.4741 37.0813 37.1165 37.5799 37.5885 38.2051C37.6334 38.2654 37.5967 38.3849 37.6406 38.4493C37.7703 38.6404 37.8827 38.8958 38.0697 38.9877C38.982 39.4393 39.9147 39.8489 40.8434 40.2688C41.9386 40.766 43.0348 41.2595 44.132 41.7492ZM31.0807 31.0374L31.0031 31.16C32.4592 33.0759 33.9168 34.9904 35.3756 36.9036C35.4097 36.9498 35.4528 36.9885 35.5024 37.0175C35.5519 37.0465 35.6068 37.0651 35.6637 37.0722C36.149 37.0578 36.6537 37.0916 36.8897 36.4929C37.0062 36.1976 37.2156 35.9371 37.3934 35.6684C37.7489 35.1311 38.0697 34.6407 37.6876 33.9235C37.5119 33.5925 37.3658 33.3779 37.0286 33.2543C35.9917 32.8753 34.9619 32.4789 33.928 32.0938C32.9789 31.7392 32.0298 31.3858 31.0807 31.0374ZM29.9426 15.15C30.0569 15.1259 30.1695 15.0945 30.2798 15.056C32.2484 14.0569 34.2192 13.0608 36.1827 12.0504C36.6333 11.8185 36.6292 11.4497 36.1705 11.2239C35.5463 10.9174 34.8934 10.6671 34.2702 10.3586C33.9076 10.1798 33.6072 10.0715 33.2609 10.4087C33.1209 10.5456 32.8522 10.613 32.6479 10.613C32.2597 10.613 32.0768 10.8081 31.9215 11.1238C31.3709 12.2537 30.7977 13.3714 30.2379 14.4952C30.1469 14.6729 30.0754 14.8558 29.9426 15.15ZM48.5526 4.52509L48.6119 4.45051C47.5555 3.88453 46.5042 3.30935 45.4366 2.7638C45.3273 2.70761 45.1148 2.8016 44.9728 2.87312C44.3731 3.1745 43.8123 3.13568 43.2289 2.79752C43.0028 2.67713 42.7389 2.64859 42.4923 2.71783C41.818 2.94872 41.1642 3.24805 40.5093 3.52389C39.8173 3.81404 39.1267 4.1052 38.4375 4.39739L38.4661 4.52509H48.5526ZM54.946 8.95487L51.7636 6.5234C51.4939 6.31907 49.7612 6.50501 49.5385 6.76246C49.1401 7.22423 48.7375 7.68192 48.3411 8.14472C48.0602 8.47369 47.7884 8.8098 47.5116 9.14183L47.5606 9.25728C49.9642 8.57333 52.4958 8.47038 54.947 8.95692L54.946 8.95487ZM46.0956 1.99349L46.0752 2.08953C47.0876 2.64223 48.097 3.20208 49.1176 3.73844C49.1924 3.76911 49.2729 3.7836 49.3537 3.78096C49.4345 3.77832 49.5138 3.7586 49.5865 3.72311C50.1882 3.38087 50.7726 3.36656 51.3774 3.71085C51.4796 3.77011 51.6594 3.81302 51.7483 3.76704C52.7535 3.21741 53.7486 2.64325 54.7468 2.0834L54.7171 1.99349H46.0956ZM32.8635 20.815C32.8818 20.7588 32.8992 20.7036 32.9176 20.6484C32.8111 20.4904 32.6926 20.3408 32.5631 20.201C31.6968 19.3932 30.8233 18.5922 29.9426 17.7981C29.8517 17.7153 29.6995 17.6224 29.5942 17.6418C29.0518 17.744 28.4848 17.8063 28.3397 18.5173C28.2763 18.8238 28.0996 19.1119 27.976 19.4092C27.915 19.5521 27.8904 19.7079 27.9041 19.8627C27.9179 20.0174 27.9697 20.1664 28.0549 20.2963C28.1402 20.4262 28.2562 20.5331 28.3927 20.6073C28.5291 20.6816 28.6818 20.721 28.8372 20.722C29.7843 20.7486 30.7313 20.7894 31.6784 20.816C32.0758 20.8242 32.4701 20.815 32.8635 20.815ZM40.354 28.1329C40.2764 28.1911 40.2294 28.2075 40.2274 28.2299C40.0792 29.4702 39.9076 30.7094 39.8064 31.9538C39.7738 32.3624 40.4194 32.7772 40.7882 32.6689C41.5698 32.4421 42.3503 32.2112 43.1216 31.9538C43.2922 31.8966 43.5129 31.7372 43.5436 31.5891C43.5722 31.4573 43.3954 31.2509 43.2657 31.1222C42.5087 30.3744 41.7312 29.649 40.9762 28.8971C40.7544 28.6544 40.5467 28.3993 40.354 28.1329ZM38.4293 18.4693C37.6232 19.1354 36.8131 19.7974 36.0131 20.4717C35.9209 20.5485 35.8629 20.6587 35.8517 20.7782C35.865 21.5015 35.6719 22.3014 36.5321 22.7407C36.6619 22.8071 36.7497 22.9532 36.8611 23.0574C37.4489 23.6064 38.0377 24.154 38.6275 24.7002C38.1248 22.6212 38.0881 20.5779 38.4293 18.4693ZM49.47 35.7951C49.4915 35.7634 49.514 35.7318 49.5364 35.7011C48.525 34.9318 47.5065 34.1687 46.5063 33.3882C46.2345 33.1757 46.0047 33.1767 45.6716 33.2359C45.263 33.3085 44.6725 33.3647 44.4242 33.1389C43.8347 32.6005 43.3004 32.767 42.7028 32.9734C42.2533 33.1266 41.7905 33.2441 41.3369 33.3882C41.1864 33.4529 41.0407 33.528 40.9006 33.6129L49.47 35.7951ZM64.5013 14.5697C64.677 14.6413 64.727 14.6821 64.7689 14.6719C65.6373 14.5217 66.5057 14.3736 67.37 14.2009C67.4722 14.1795 67.561 14.0293 67.6407 13.9282C67.8859 13.6155 68.1321 13.3019 68.362 12.9781C68.4519 12.8514 68.5592 12.693 68.5551 12.552C68.5316 11.7347 68.4815 10.9246 68.4264 10.1124C68.4182 9.99489 68.3375 9.88251 68.2302 9.62302L64.5013 14.5697ZM67.7603 35.3006L67.8982 35.269C67.9738 34.3321 68.0627 33.3974 68.1107 32.4595C68.1178 32.3359 67.9452 32.1755 67.8205 32.0774C67.609 31.919 67.438 31.7127 67.3215 31.4755C67.205 31.2382 67.1463 30.9768 67.1503 30.7125C67.1503 30.5807 67.0942 30.3866 66.9981 30.3284C66.0511 29.7532 65.0907 29.2046 64.1376 28.6406L64.0773 28.7132L67.7603 35.3006ZM37.1717 10.1543C37.1615 10.095 37.1584 10.0603 37.1492 10.0276C36.8294 8.93751 36.5301 7.84028 36.1797 6.75837C36.0274 6.28944 35.5013 6.24756 35.1683 6.63373C34.8137 7.04238 34.4705 7.46432 34.1088 7.86786C33.7778 8.23769 33.8769 9.23276 34.3254 9.45241C35.0865 9.8253 35.8711 10.1492 36.6527 10.474C36.9765 10.6171 37.1206 10.4291 37.1717 10.1543ZM39.5306 15.4759L39.6859 15.5045C40.6718 13.9139 41.8211 12.4693 43.4414 11.3159C43.2371 11.275 43.1564 11.2372 43.0838 11.2484C42.0275 11.4068 40.9711 11.5682 39.9168 11.7398C39.7982 11.7517 39.6886 11.8083 39.6103 11.8982C39.2241 12.5408 38.6203 13.1354 39.1077 13.9966C39.1965 14.1539 39.2016 14.3562 39.2527 14.536C39.3416 14.8487 39.4438 15.1613 39.5306 15.4759ZM55.3454 33.5046C53.0173 34.0241 50.6054 34.0425 48.2696 33.5588C49.0563 34.2392 49.8613 34.8491 50.6766 35.4457C50.7268 35.4727 50.7823 35.4886 50.8392 35.4923C50.8962 35.496 50.9532 35.4874 51.0066 35.4672C51.5031 35.2628 51.9853 35.2342 52.4849 35.4672C52.5453 35.4886 52.6099 35.4963 52.6737 35.4896C52.7375 35.4828 52.799 35.4619 52.8537 35.4284C53.6914 34.7949 54.5169 34.1442 55.3454 33.5046Z" fill="#344054"/>
<path d="M4.40118 62.9878C6.05622 62.9878 7.03698 62.3994 7.91967 61.4554L6.71823 60.2417C6.04396 60.8547 5.44324 61.247 4.46248 61.247C2.99133 61.247 1.97379 60.021 1.97379 58.5499V58.5254C1.97379 57.0542 3.01585 55.8528 4.46248 55.8528C5.32064 55.8528 5.99492 56.2206 6.65694 56.8213L7.85837 55.436C7.0615 54.6513 6.093 54.1119 4.47474 54.1119C1.83893 54.1119 0 56.1102 0 58.5499V58.5744C0 61.0386 1.87571 62.9878 4.40118 62.9878Z" fill="#344054"/>
<path d="M9.43104 62.8407H15.5976V61.1244H11.319V54.259H9.43104V62.8407Z" fill="#344054"/>
<path d="M17.1072 62.8407H18.9952V54.259H17.1072V62.8407Z" fill="#344054"/>
<path d="M21.1399 62.8407H22.9911V57.2749L25.3817 60.9037H25.4307L27.8458 57.2381V62.8407H29.7216V54.259H27.6865L25.4307 57.8879L23.175 54.259H21.1399V62.8407Z" fill="#344054"/>
<path d="M31.0476 62.8407H32.9723L33.757 60.916H37.3858L38.1704 62.8407H40.1442L36.4663 54.1977H34.7255L31.0476 62.8407ZM34.4312 59.2487L35.5714 56.4658L36.7115 59.2487H34.4312Z" fill="#344054"/>
<path d="M42.3656 62.8407H44.2535V55.9999H46.8648V54.259H39.7543V55.9999H42.3656V62.8407Z" fill="#344054"/>
<path d="M48.3168 62.8407H54.8511V61.1612H50.1925V59.359H54.2382V57.6795H50.1925V55.9386H54.7898V54.259H48.3168V62.8407Z" fill="#344054"/>
<path d="M64.2263 62.9878C65.8814 62.9878 66.8621 62.3994 67.7448 61.4554L66.5434 60.2417C65.8691 60.8547 65.2684 61.247 64.2876 61.247C62.8165 61.247 61.799 60.021 61.799 58.5499V58.5254C61.799 57.0542 62.841 55.8528 64.2876 55.8528C65.1458 55.8528 65.8201 56.2206 66.4821 56.8213L67.6835 55.436C66.8867 54.6513 65.9182 54.1119 64.2999 54.1119C61.6641 54.1119 59.8252 56.1102 59.8252 58.5499V58.5744C59.8252 61.0386 61.7009 62.9878 64.2263 62.9878Z" fill="#344054"/>
<path d="M69.2562 62.8407H71.1442V59.3958H74.6259V62.8407H76.5139V54.259H74.6259V57.6549H71.1442V54.259H69.2562V62.8407Z" fill="#344054"/>
<path d="M77.835 62.8407H79.7598L80.5444 60.916H84.1732L84.9578 62.8407H86.9316L83.2537 54.1977H81.5129L77.835 62.8407ZM81.2187 59.2487L82.3588 56.4658L83.4989 59.2487H81.2187Z" fill="#344054"/>
<path d="M88.3419 62.8407H90.2299V54.259H88.3419V62.8407Z" fill="#344054"/>
<path d="M92.3746 62.8407H94.238V57.3852L98.394 62.8407H100V54.259H98.1365V59.5429L94.1154 54.259H92.3746V62.8407Z" fill="#344054"/>
<path d="M19.121 74.5322C20.7761 74.5322 21.7568 73.9438 22.6395 72.9998L21.4381 71.7861C20.7638 72.3991 20.1631 72.7914 19.1823 72.7914C17.7112 72.7914 16.6936 71.5654 16.6936 70.0943V70.0698C16.6936 68.5986 17.7357 67.3972 19.1823 67.3972C20.0405 67.3972 20.7148 67.765 21.3768 68.3657L22.5782 66.9804C21.7813 66.1958 20.8128 65.6563 19.1946 65.6563C16.5588 65.6563 14.7198 67.6546 14.7198 70.0943V70.1188C14.7198 72.583 16.5956 74.5322 19.121 74.5322Z" fill="#344054"/>
<path d="M28.0797 74.5322C30.7277 74.5322 32.6525 72.5339 32.6525 70.0943V70.0698C32.6525 67.6301 30.7523 65.6563 28.1042 65.6563C25.4561 65.6563 23.5314 67.6546 23.5314 70.0943V70.1188C23.5314 72.5585 25.4316 74.5322 28.0797 74.5322ZM28.1042 72.7914C26.584 72.7914 25.5052 71.5654 25.5052 70.0943V70.0698C25.5052 68.5986 26.5595 67.3972 28.0797 67.3972C29.5999 67.3972 30.6787 68.6231 30.6787 70.0943V70.1188C30.6787 71.59 29.6244 72.7914 28.1042 72.7914Z" fill="#344054"/>
<path d="M33.041 74.3851H34.9657L35.7503 72.4604H39.3792L40.1638 74.3851H42.1376L38.4597 65.7422H36.7188L33.041 74.3851ZM36.4246 70.7931L37.5647 68.0102L38.7049 70.7931H36.4246Z" fill="#344054"/>
<path d="M43.4621 74.3851H49.6286V72.6688H45.35V65.8034H43.4621V74.3851Z" fill="#344054"/>
<path d="M51.1383 74.3851H53.0262V65.8034H51.1383V74.3851Z" fill="#344054"/>
<path d="M57.1692 74.3851H59.0572V67.5443H61.6685V65.8034H54.5579V67.5443H57.1692V74.3851Z" fill="#344054"/>
<path d="M63.2063 74.3851H65.0942V65.8034H63.2063V74.3851Z" fill="#344054"/>
<path d="M71.4071 74.5322C74.0552 74.5322 75.9799 72.5339 75.9799 70.0943V70.0698C75.9799 67.6301 74.0797 65.6563 71.4317 65.6563C68.7836 65.6563 66.8588 67.6546 66.8588 70.0943V70.1188C66.8588 72.5585 68.7591 74.5322 71.4071 74.5322ZM71.4317 72.7914C69.9115 72.7914 68.8326 71.5654 68.8326 70.0943V70.0698C68.8326 68.5986 69.887 67.3972 71.4071 67.3972C72.9273 67.3972 74.0062 68.6231 74.0062 70.0943V70.1188C74.0062 71.59 72.9518 72.7914 71.4317 72.7914Z" fill="#344054"/>
<path d="M77.6547 74.3851H79.5182V68.9296L83.6742 74.3851H85.2802V65.8034H83.4167V71.0873L79.3956 65.8034H77.6547V74.3851Z" fill="#344054"/>
</svg>
