<svg width="171" height="37" viewBox="0 0 171 37" fill="none" xmlns="http://www.w3.org/2000/svg">
<g clip-path="url(#clip0_3987_154402)">
<path d="M7.36963 27.3268V25.4272L0.789062 29.2216V31.092L2.3923 32.0151L8.94615 28.2378L7.36963 27.3268Z" fill="#344054"/>
<path d="M39.2421 26.2586V9.47314L24.7109 17.8586L39.2421 26.2586Z" fill="#344054"/>
<path d="M24.2344 17.0637L38.7826 8.67097L24.2344 0.266113V17.0637Z" fill="#344054"/>
<path d="M31.7158 31.1412L38.7798 27.0603L23.7846 18.3931L16.7109 22.474L31.7158 31.1412Z" fill="#344054"/>
<path d="M15.7829 23.0063L8.75781 27.0606L23.7675 35.7327L30.7878 31.676L15.7829 23.0063Z" fill="#344054"/>
<path d="M16.2344 21.6742L23.3008 17.5981V0.266113L16.2344 4.34951V21.6742Z" fill="#344054"/>
<path d="M15.3147 4.88379L8.29688 8.93804V26.2579L15.3147 22.2085V4.88379Z" fill="#344054"/>
<path d="M50.0388 21.7791H48.6226C48.367 21.8065 48.1085 21.7764 47.8659 21.6912C47.6234 21.6059 47.403 21.4675 47.2207 21.2862C47.0385 21.1049 46.899 20.8852 46.8125 20.6431C46.7259 20.401 46.6946 20.1426 46.7206 19.8868V15.8204C46.6934 15.5653 46.7237 15.3073 46.8092 15.0653C46.8947 14.8234 47.0332 14.6036 47.2147 14.4222C47.3961 14.2407 47.6159 14.1022 47.8578 14.0167C48.0998 13.9312 48.3578 13.901 48.6129 13.9281H50.0291C50.2818 13.9121 50.5351 13.9469 50.7742 14.0303C51.0132 14.1138 51.2332 14.2442 51.421 14.414C51.595 14.6005 51.7292 14.8206 51.8152 15.0607C51.9013 15.3009 51.9374 15.5561 51.9214 15.8107V16.4083C51.9254 16.4383 51.9225 16.4688 51.9128 16.4974C51.9031 16.526 51.8869 16.5521 51.8655 16.5734C51.8441 16.5948 51.8181 16.611 51.7895 16.6207C51.7608 16.6304 51.7303 16.6333 51.7004 16.6293H50.9328C50.7919 16.6293 50.7238 16.5565 50.7238 16.4083V15.869C50.7238 15.2666 50.4307 14.9654 49.8445 14.9654H48.783C48.1983 14.9654 47.9052 15.2666 47.9036 15.869V19.8383C47.9036 20.4407 48.1967 20.7419 48.783 20.7419H49.8445C50.4291 20.7419 50.7222 20.4407 50.7238 19.8383V19.3014C50.7238 19.1532 50.7919 19.0804 50.9328 19.0804H51.7004C51.7303 19.0764 51.7608 19.0793 51.7895 19.089C51.8181 19.0987 51.8441 19.1149 51.8655 19.1363C51.8869 19.1576 51.9031 19.1837 51.9128 19.2123C51.9225 19.2409 51.9254 19.2714 51.9214 19.3014V19.8868C51.9459 20.1414 51.9137 20.3982 51.8273 20.6389C51.7408 20.8796 51.6022 21.0982 51.4214 21.2791C51.2405 21.4599 51.0219 21.5985 50.7812 21.685C50.5405 21.7714 50.2837 21.8036 50.0291 21.7791H50.0388Z" fill="#344054"/>
<path d="M54.4236 21.7785H53.6536C53.6254 21.7822 53.5968 21.7793 53.5699 21.77C53.543 21.7608 53.5186 21.7454 53.4986 21.7252C53.4786 21.705 53.4636 21.6804 53.4547 21.6534C53.4457 21.6265 53.4432 21.5978 53.4471 21.5696V14.1364C53.4432 14.1083 53.4457 14.0796 53.4547 14.0526C53.4636 14.0256 53.4786 14.001 53.4986 13.9808C53.5186 13.9606 53.543 13.9453 53.5699 13.936C53.5968 13.9268 53.6254 13.9239 53.6536 13.9275H56.5103C56.7662 13.9044 57.024 13.9378 57.2655 14.0253C57.5071 14.1129 57.7265 14.2524 57.9081 14.4341C58.0898 14.6158 58.2294 14.8351 58.3169 15.0767C58.4044 15.3182 58.4378 15.5761 58.4147 15.832V16.8571C58.4147 17.7947 58.0285 18.385 57.256 18.6279V18.6765L58.6115 21.5332C58.7014 21.6959 58.6479 21.7761 58.4512 21.7761H57.6957C57.6185 21.7867 57.5399 21.7722 57.4716 21.7345C57.4033 21.6969 57.349 21.6382 57.3168 21.5672L56.0099 18.7591H54.7783C54.6787 18.7591 54.6301 18.8004 54.6301 18.883V21.555C54.6367 21.5843 54.6361 21.6146 54.6284 21.6436C54.6207 21.6725 54.606 21.6991 54.5857 21.7211C54.5653 21.7431 54.54 21.7598 54.5117 21.7698C54.4835 21.7798 54.4533 21.7828 54.4236 21.7785V21.7785ZM54.7662 17.785H56.3159C56.9184 17.785 57.2196 17.4878 57.2196 16.8935V15.8684C57.2196 15.266 56.9184 14.9648 56.3159 14.9648H54.7662C54.6763 14.9648 54.6301 15.0061 54.6301 15.0886V17.6635C54.6301 17.7461 54.6763 17.785 54.7662 17.785V17.785Z" fill="#344054"/>
<path d="M62.6633 21.7778H61.8835C61.8551 21.7818 61.8262 21.7792 61.799 21.7702C61.7718 21.7611 61.7471 21.7458 61.7268 21.7255C61.7065 21.7053 61.6913 21.6806 61.6822 21.6534C61.6731 21.6262 61.6705 21.5972 61.6746 21.5689V18.8725L59.3912 14.1478C59.3755 14.124 59.3672 14.0961 59.3672 14.0676C59.3672 14.0391 59.3755 14.0113 59.3912 13.9875C59.4079 13.9678 59.4288 13.9522 59.4523 13.9417C59.4759 13.9312 59.5015 13.9261 59.5272 13.9267H60.4989C60.6034 13.9267 60.6859 13.9972 60.7418 14.1357L62.243 17.4927H62.3159L63.7952 14.1357C63.8438 13.9972 63.924 13.9267 64.0382 13.9267H65.0098C65.0365 13.9247 65.0632 13.9292 65.0877 13.9398C65.1123 13.9503 65.1339 13.9667 65.1507 13.9875C65.1661 14.0114 65.1743 14.0392 65.1743 14.0676C65.1743 14.0961 65.1661 14.1239 65.1507 14.1478L62.8697 18.8725V21.5689C62.8737 21.597 62.8711 21.6257 62.8622 21.6527C62.8533 21.6797 62.8382 21.7042 62.8182 21.7244C62.7983 21.7447 62.7739 21.76 62.747 21.7692C62.7201 21.7785 62.6915 21.7814 62.6633 21.7778V21.7778Z" fill="#344054"/>
<path d="M67.2361 21.7774H66.4661C66.4379 21.781 66.4093 21.7781 66.3824 21.7688C66.3555 21.7596 66.3311 21.7443 66.3111 21.724C66.2911 21.7038 66.2761 21.6793 66.2672 21.6523C66.2582 21.6253 66.2557 21.5966 66.2596 21.5684V14.1352C66.2557 14.1071 66.2582 14.0784 66.2672 14.0514C66.2761 14.0244 66.2911 13.9999 66.3111 13.9797C66.3311 13.9594 66.3555 13.9441 66.3824 13.9349C66.4093 13.9256 66.4379 13.9227 66.4661 13.9263H69.3811C69.6338 13.9099 69.8872 13.9445 70.1264 14.0279C70.3655 14.1114 70.5854 14.2421 70.773 14.4122C70.9475 14.5984 71.0819 14.8184 71.168 15.0587C71.2541 15.2989 71.2899 15.5543 71.2734 15.8089V17.0794C71.2978 17.334 71.2657 17.5908 71.1792 17.8315C71.0928 18.0722 70.9542 18.2908 70.7733 18.4716C70.5925 18.6525 70.3739 18.7911 70.1332 18.8775C69.8925 18.964 69.6357 18.9961 69.3811 18.9717H67.6005C67.5009 18.9717 67.4523 19.013 67.4523 19.0931V21.5684C67.4567 21.5975 67.454 21.6272 67.4446 21.6551C67.4352 21.683 67.4192 21.7081 67.398 21.7286C67.3769 21.749 67.3512 21.7641 67.323 21.7726C67.2948 21.7811 67.2651 21.7827 67.2361 21.7774V21.7774ZM67.5787 17.932H69.2013C69.7795 17.932 70.0685 17.6308 70.0685 17.0284V15.8672C70.0685 15.2648 69.7795 14.9636 69.2013 14.9636H67.5787C67.4888 14.9636 67.4426 15.0049 67.4426 15.0875V17.8081C67.4426 17.8907 67.4888 17.932 67.5787 17.932V17.932Z" fill="#344054"/>
<path d="M74.861 21.7792H74.091C73.9452 21.7792 73.8724 21.7088 73.8724 21.5703V15.0894C73.8747 15.0727 73.8732 15.0558 73.868 15.0399C73.8628 15.0239 73.8539 15.0094 73.8422 14.9975C73.8304 14.9855 73.8161 14.9764 73.8003 14.9708C73.7844 14.9653 73.7675 14.9634 73.7509 14.9655H72.2108C72.0651 14.9655 71.9922 14.8975 71.9922 14.759V14.1371C71.9922 13.9987 72.0651 13.9282 72.2108 13.9282H76.7412C76.8869 13.9282 76.9598 13.9987 76.9598 14.1371V14.759C76.9598 14.8975 76.8869 14.9655 76.7412 14.9655H75.2035C75.1136 14.9655 75.0675 15.0068 75.0675 15.0894V21.5703C75.0715 21.5985 75.0689 21.6272 75.06 21.6542C75.051 21.6811 75.036 21.7057 75.016 21.7259C74.996 21.7461 74.9716 21.7615 74.9447 21.7707C74.9179 21.78 74.8892 21.7829 74.861 21.7792V21.7792Z" fill="#344054"/>
<path d="M81.2007 21.7788H79.7845C79.5297 21.8042 79.2725 21.7727 79.0314 21.6865C78.7903 21.6004 78.5713 21.4618 78.3903 21.2808C78.2092 21.0997 78.0706 20.8807 77.9845 20.6396C77.8984 20.3985 77.8668 20.1413 77.8922 19.8865V15.8201C77.8655 15.5651 77.896 15.3073 77.9817 15.0655C78.0673 14.8238 78.2059 14.6042 78.3872 14.4229C78.5686 14.2416 78.7881 14.103 79.0299 14.0173C79.2716 13.9317 79.5294 13.9011 79.7845 13.9278H81.2007C81.4553 13.9107 81.7108 13.9449 81.952 14.0284C82.1931 14.1118 82.4151 14.2428 82.6047 14.4137C82.7792 14.5999 82.9137 14.8199 82.9997 15.0602C83.0858 15.3004 83.1217 15.5558 83.1051 15.8104V19.8865C83.1202 20.1403 83.0836 20.3945 82.9975 20.6338C82.9115 20.873 82.7779 21.0923 82.6047 21.2784C82.4165 21.4522 82.1951 21.5861 81.9538 21.6721C81.7125 21.7581 81.4564 21.7944 81.2007 21.7788V21.7788ZM79.957 20.7416H81.0185C81.6112 20.7416 81.91 20.4404 81.91 19.8379V15.8687C81.91 15.2663 81.6112 14.9651 81.0185 14.9651H79.957C79.3691 14.9651 79.0776 15.2663 79.0776 15.8687V19.8379C79.0776 20.4404 79.3691 20.7416 79.957 20.7416Z" fill="#344054"/>
<path d="M90.8416 21.7791H89.4254C89.1706 21.8049 88.9131 21.7737 88.6718 21.6878C88.4305 21.6018 88.2113 21.4632 88.0302 21.2821C87.8491 21.1009 87.7105 20.8818 87.6245 20.6404C87.5385 20.3991 87.5073 20.1417 87.5331 19.8868V15.8204C87.5059 15.5653 87.5362 15.3073 87.6217 15.0653C87.7072 14.8234 87.8457 14.6036 88.0272 14.4222C88.2086 14.2407 88.4284 14.1022 88.6703 14.0167C88.9123 13.9312 89.1703 13.901 89.4254 13.9281H90.8416C91.0939 13.9119 91.347 13.9466 91.5857 14.03C91.8244 14.1135 92.0438 14.244 92.2311 14.414C92.406 14.6 92.5409 14.8199 92.6274 15.0602C92.7139 15.3004 92.7502 15.5559 92.7339 15.8107V16.4083C92.7379 16.4383 92.735 16.4688 92.7253 16.4974C92.7156 16.526 92.6994 16.5521 92.678 16.5734C92.6566 16.5948 92.6306 16.611 92.602 16.6207C92.5733 16.6304 92.5428 16.6333 92.5129 16.6293H91.7428C91.6044 16.6293 91.5364 16.5565 91.5364 16.4083V15.869C91.5364 15.2666 91.2432 14.9654 90.657 14.9654H89.5955C89.0092 14.9654 88.7161 15.2666 88.7161 15.869V19.8383C88.7161 20.4407 89.0092 20.7419 89.5955 20.7419H90.657C91.2416 20.7419 91.5347 20.4407 91.5364 19.8383V19.3014C91.5364 19.1532 91.6044 19.0804 91.7428 19.0804H92.5129C92.5428 19.0764 92.5733 19.0793 92.602 19.089C92.6306 19.0987 92.6566 19.1149 92.678 19.1363C92.6994 19.1576 92.7156 19.1837 92.7253 19.2123C92.735 19.2409 92.7379 19.2714 92.7339 19.3014V19.8868C92.7575 20.1412 92.7247 20.3977 92.638 20.638C92.5512 20.8783 92.4126 21.0965 92.2319 21.2771C92.0513 21.4578 91.833 21.5964 91.5927 21.6832C91.3525 21.7699 91.096 21.8027 90.8416 21.7791V21.7791Z" fill="#344054"/>
<path d="M98.4076 21.7788H94.4505C94.4223 21.7824 94.3936 21.7795 94.3667 21.7703C94.3399 21.761 94.3155 21.7457 94.2955 21.7255C94.2755 21.7053 94.2605 21.6807 94.2515 21.6537C94.2426 21.6267 94.24 21.598 94.244 21.5699V14.1367C94.24 14.1086 94.2426 14.0799 94.2515 14.0529C94.2605 14.0259 94.2755 14.0013 94.2955 13.9811C94.3155 13.9609 94.3399 13.9456 94.3667 13.9363C94.3936 13.9271 94.4223 13.9241 94.4505 13.9278H95.2205C95.2487 13.9241 95.2774 13.9271 95.3043 13.9363C95.3311 13.9456 95.3555 13.9609 95.3755 13.9811C95.3955 14.0013 95.4105 14.0259 95.4195 14.0529C95.4284 14.0799 95.431 14.1086 95.427 14.1367V20.5934C95.427 20.676 95.4756 20.7173 95.5752 20.7173H98.4076C98.5436 20.7173 98.6141 20.7901 98.6141 20.9359V21.5699C98.618 21.598 98.6154 21.6267 98.6065 21.6537C98.5976 21.6807 98.5825 21.7053 98.5626 21.7255C98.5426 21.7457 98.5182 21.761 98.4913 21.7703C98.4644 21.7795 98.4358 21.7824 98.4076 21.7788V21.7788Z" fill="#344054"/>
<path d="M100.984 14.1366V21.5698C100.988 21.5981 100.986 21.6271 100.977 21.6543C100.968 21.6815 100.952 21.7062 100.932 21.7264C100.912 21.7467 100.887 21.762 100.86 21.7711C100.833 21.7801 100.804 21.7827 100.775 21.7787H100.008C99.9793 21.7827 99.9503 21.7801 99.9231 21.7711C99.8959 21.762 99.8712 21.7467 99.8509 21.7264C99.8307 21.7062 99.8154 21.6815 99.8063 21.6543C99.7973 21.6271 99.7947 21.5981 99.7987 21.5698V14.1366C99.7947 14.1082 99.7973 14.0792 99.8063 14.052C99.8154 14.0248 99.8307 14.0001 99.8509 13.9799C99.8712 13.9596 99.8959 13.9443 99.9231 13.9352C99.9503 13.9262 99.9793 13.9236 100.008 13.9276H100.775C100.804 13.9236 100.833 13.9262 100.86 13.9352C100.887 13.9443 100.912 13.9596 100.932 13.9799C100.952 14.0001 100.968 14.0248 100.977 14.052C100.986 14.0792 100.988 14.1082 100.984 14.1366V14.1366Z" fill="#344054"/>
<path d="M108.201 13.928H109.568C109.597 13.9244 109.625 13.9273 109.652 13.9366C109.679 13.9458 109.703 13.9611 109.723 13.9814C109.743 14.0016 109.758 14.0261 109.767 14.0531C109.776 14.0801 109.779 14.1088 109.775 14.137V21.5702C109.779 21.5983 109.776 21.627 109.767 21.654C109.758 21.681 109.743 21.7055 109.723 21.7257C109.703 21.746 109.679 21.7613 109.652 21.7705C109.625 21.7798 109.597 21.7827 109.568 21.7791H108.811C108.782 21.7827 108.754 21.7798 108.727 21.7705C108.7 21.7613 108.676 21.746 108.656 21.7257C108.636 21.7055 108.62 21.681 108.612 21.654C108.603 21.627 108.6 21.5983 108.604 21.5702V15.405H108.555L106.967 19.8746C106.95 19.9323 106.915 19.9828 106.867 20.018C106.818 20.0533 106.759 20.0712 106.7 20.0689H105.917C105.859 20.0697 105.803 20.051 105.756 20.0158C105.71 19.9806 105.677 19.9309 105.662 19.8746L104.037 15.3928H103.989V21.5702C103.995 21.6284 103.981 21.6871 103.947 21.7353C103.899 21.7694 103.841 21.785 103.782 21.7791H103.036C103.008 21.7827 102.98 21.7798 102.953 21.7705C102.926 21.7613 102.901 21.746 102.881 21.7257C102.861 21.7055 102.846 21.681 102.837 21.654C102.829 21.627 102.826 21.5983 102.83 21.5702V14.137C102.826 14.1088 102.829 14.0801 102.837 14.0531C102.846 14.0261 102.861 14.0016 102.881 13.9814C102.901 13.9611 102.926 13.9458 102.953 13.9366C102.98 13.9273 103.008 13.9244 103.036 13.928H104.404C104.446 13.9271 104.488 13.9395 104.523 13.9635C104.558 13.9875 104.584 14.0218 104.598 14.0617L106.272 18.7742H106.333L108.019 14.0617C108.025 14.0198 108.048 13.9823 108.082 13.9573C108.116 13.9323 108.159 13.9218 108.201 13.928V13.928Z" fill="#344054"/>
<path d="M111.982 21.7795H111.093C110.979 21.7795 110.94 21.7091 110.972 21.5706L113.097 14.1374C113.112 14.0732 113.15 14.0166 113.203 13.9781C113.257 13.9397 113.323 13.9221 113.389 13.9285H114.603C114.669 13.9198 114.736 13.9366 114.79 13.9754C114.844 14.0142 114.882 14.0721 114.895 14.1374L117.02 21.5706C117.052 21.7091 117.008 21.7795 116.887 21.7795H116.019C115.965 21.7852 115.91 21.7695 115.866 21.7358C115.829 21.688 115.805 21.6309 115.798 21.5706L115.334 19.9844H112.662L112.198 21.5706C112.169 21.7091 112.096 21.7795 111.982 21.7795ZM113.984 15.1018L112.91 19.0079H115.12L114.032 15.1018H113.984Z" fill="#344054"/>
<path d="M120.392 21.7787H119.622C119.476 21.7787 119.404 21.7083 119.404 21.5698V15.0889C119.406 15.072 119.405 15.0549 119.399 15.0387C119.394 15.0226 119.385 15.0079 119.373 14.9959C119.361 14.9838 119.346 14.9748 119.33 14.9694C119.314 14.9641 119.297 14.9625 119.28 14.965H117.742C117.596 14.965 117.523 14.897 117.523 14.7585V14.1366C117.523 13.9982 117.596 13.9277 117.742 13.9277H122.265C122.411 13.9277 122.484 13.9982 122.484 14.1366V14.7585C122.484 14.897 122.411 14.965 122.265 14.965H120.735C120.645 14.965 120.599 15.0063 120.599 15.0889V21.5698C120.603 21.598 120.6 21.6267 120.591 21.6537C120.582 21.6807 120.567 21.7052 120.547 21.7254C120.527 21.7457 120.503 21.761 120.476 21.7702C120.449 21.7795 120.42 21.7824 120.392 21.7787V21.7787Z" fill="#344054"/>
<path d="M127.656 21.7787H123.75C123.721 21.7827 123.693 21.7801 123.665 21.7711C123.638 21.762 123.613 21.7467 123.593 21.7264C123.573 21.7062 123.558 21.6815 123.549 21.6543C123.539 21.6271 123.537 21.5981 123.541 21.5698V14.1366C123.537 14.1082 123.539 14.0792 123.549 14.052C123.558 14.0248 123.573 14.0001 123.593 13.9799C123.613 13.9596 123.638 13.9443 123.665 13.9352C123.693 13.9262 123.721 13.9236 123.75 13.9276H127.656C127.787 13.9276 127.853 13.9981 127.853 14.1366V14.7584C127.853 14.8969 127.787 14.9649 127.656 14.9649H124.872C124.775 14.9649 124.726 15.0062 124.726 15.0888V17.1511C124.726 17.2337 124.775 17.2726 124.872 17.2726H127.228C127.377 17.2726 127.449 17.343 127.449 17.4815V18.1082C127.449 18.2467 127.377 18.3147 127.228 18.3147H124.872C124.775 18.3147 124.726 18.356 124.726 18.4386V20.6102C124.726 20.7001 124.775 20.7463 124.872 20.7463H127.656C127.787 20.7463 127.853 20.8143 127.853 20.9527V21.5746C127.853 21.7082 127.787 21.7787 127.656 21.7787Z" fill="#344054"/>
<path d="M132.739 21.7796H131.86C131.745 21.7796 131.704 21.7091 131.738 21.5706L133.861 14.1375C133.877 14.073 133.915 14.0164 133.969 13.978C134.023 13.9396 134.089 13.922 134.155 13.9285H135.37C135.436 13.9198 135.503 13.9365 135.558 13.9752C135.612 14.014 135.65 14.0719 135.664 14.1375L137.789 21.5706C137.821 21.7091 137.789 21.7796 137.653 21.7796H136.786C136.759 21.7827 136.732 21.7804 136.706 21.7729C136.68 21.7654 136.656 21.7528 136.635 21.7358C136.598 21.6881 136.574 21.6309 136.567 21.5706L136.115 19.9844H133.422L132.958 21.5706C132.926 21.7091 132.853 21.7796 132.739 21.7796ZM134.741 15.1018L133.667 19.0079H135.873L134.787 15.1018H134.741Z" fill="#344054"/>
<path d="M142.186 21.7791H140.77C140.515 21.7949 140.259 21.7587 140.019 21.6726C139.778 21.5866 139.558 21.4526 139.371 21.2787C139.201 21.0906 139.071 20.8706 138.988 20.6316C138.904 20.3927 138.869 20.1395 138.885 19.8868V15.8204C138.857 15.5653 138.888 15.3073 138.973 15.0653C139.059 14.8234 139.197 14.6036 139.379 14.4222C139.56 14.2407 139.78 14.1022 140.022 14.0167C140.264 13.9312 140.522 13.901 140.777 13.9281H142.186C142.439 13.9121 142.692 13.9469 142.931 14.0303C143.17 14.1138 143.39 14.2442 143.578 14.414C143.752 14.6005 143.886 14.8206 143.972 15.0607C144.058 15.3009 144.094 15.5561 144.078 15.8107V16.4083C144.083 16.4384 144.08 16.4691 144.071 16.498C144.061 16.5268 144.045 16.5531 144.023 16.5746C144.002 16.5961 143.976 16.6122 143.947 16.6218C143.918 16.6313 143.887 16.6339 143.857 16.6293H143.09C142.951 16.6293 142.881 16.5565 142.881 16.4083V15.869C142.881 15.2666 142.589 14.9654 142.001 14.9654H140.94C140.355 14.9654 140.062 15.2666 140.06 15.869V19.8383C140.06 20.4407 140.354 20.7419 140.94 20.7419H142.001C142.589 20.7419 142.881 20.4407 142.881 19.8383V19.3014C142.881 19.1532 142.951 19.0804 143.09 19.0804H143.857C143.887 19.0758 143.918 19.0784 143.947 19.0879C143.976 19.0975 144.002 19.1136 144.023 19.1351C144.045 19.1566 144.061 19.1829 144.071 19.2117C144.08 19.2406 144.083 19.2713 144.078 19.3014V19.8868C144.103 20.1414 144.071 20.3983 143.984 20.6389C143.898 20.8796 143.759 21.0982 143.578 21.2791C143.397 21.4599 143.179 21.5985 142.938 21.685C142.697 21.7714 142.44 21.8036 142.186 21.7791V21.7791Z" fill="#344054"/>
<path d="M148.78 21.7791H147.363C147.108 21.7949 146.853 21.7587 146.612 21.6726C146.372 21.5866 146.151 21.4526 145.964 21.2787C145.795 21.0906 145.665 20.8706 145.581 20.6316C145.498 20.3927 145.463 20.1395 145.478 19.8868V15.8204C145.451 15.5653 145.482 15.3073 145.567 15.0653C145.652 14.8234 145.791 14.6036 145.972 14.4222C146.154 14.2407 146.374 14.1022 146.616 14.0167C146.858 13.9312 147.116 13.901 147.371 13.9281H148.787C149.04 13.9121 149.293 13.9469 149.532 14.0303C149.771 14.1138 149.991 14.2442 150.179 14.414C150.353 14.6005 150.487 14.8206 150.573 15.0607C150.659 15.3009 150.695 15.5561 150.679 15.8107V16.4083C150.683 16.4383 150.68 16.4688 150.671 16.4974C150.661 16.526 150.645 16.5521 150.623 16.5734C150.602 16.5948 150.576 16.611 150.547 16.6207C150.519 16.6304 150.488 16.6333 150.458 16.6293H149.691C149.552 16.6293 149.482 16.5565 149.482 16.4083V15.869C149.482 15.2666 149.189 14.9654 148.602 14.9654H147.531C146.945 14.9654 146.652 15.2666 146.652 15.869V19.8383C146.652 20.4407 146.945 20.7419 147.531 20.7419H148.593C149.177 20.7419 149.47 20.4407 149.472 19.8383V19.3014C149.472 19.1532 149.542 19.0804 149.681 19.0804H150.446C150.476 19.0764 150.506 19.0793 150.535 19.089C150.564 19.0987 150.59 19.1149 150.611 19.1363C150.633 19.1576 150.649 19.1837 150.658 19.2123C150.668 19.2409 150.671 19.2714 150.667 19.3014V19.8868C150.692 20.1414 150.659 20.3983 150.573 20.6389C150.486 20.8796 150.348 21.0982 150.167 21.2791C149.986 21.4599 149.768 21.5985 149.527 21.685C149.286 21.7714 149.029 21.8036 148.775 21.7791H148.78Z" fill="#344054"/>
<path d="M155.373 21.7791H153.957C153.702 21.8049 153.444 21.7737 153.203 21.6878C152.962 21.6018 152.743 21.4632 152.561 21.2821C152.38 21.1009 152.242 20.8818 152.156 20.6404C152.07 20.3991 152.039 20.1417 152.064 19.8868V15.8204C152.037 15.5653 152.067 15.3073 152.153 15.0653C152.238 14.8234 152.377 14.6036 152.558 14.4222C152.74 14.2407 152.96 14.1022 153.202 14.0167C153.444 13.9312 153.702 13.901 153.957 13.9281H155.373C155.627 13.9114 155.882 13.9457 156.123 14.0292C156.364 14.1126 156.585 14.2434 156.774 14.414C156.949 14.6 157.084 14.8199 157.171 15.0602C157.257 15.3004 157.294 15.5559 157.277 15.8107V19.8868C157.301 20.1423 157.268 20.4 157.181 20.6412C157.093 20.8825 156.954 21.1014 156.771 21.2822C156.589 21.4631 156.37 21.6015 156.128 21.6874C155.886 21.7733 155.628 21.8046 155.373 21.7791V21.7791ZM154.127 20.7419H155.188C155.784 20.7419 156.081 20.4407 156.08 19.8383V15.869C156.08 15.2666 155.783 14.9654 155.188 14.9654H154.127C153.542 14.9654 153.249 15.2666 153.247 15.869V19.8383C153.247 20.4407 153.54 20.7419 154.127 20.7419Z" fill="#344054"/>
<path d="M159.9 21.7785H159.13C159.102 21.7821 159.073 21.7792 159.046 21.77C159.02 21.7607 158.995 21.7454 158.975 21.7252C158.955 21.705 158.94 21.6804 158.931 21.6534C158.922 21.6264 158.92 21.5977 158.924 21.5696V14.1364C158.92 14.1082 158.922 14.0796 158.931 14.0526C158.94 14.0256 158.955 14.001 158.975 13.9808C158.995 13.9606 159.02 13.9452 159.046 13.936C159.073 13.9268 159.102 13.9238 159.13 13.9275H161.987C162.243 13.9044 162.501 13.9379 162.742 14.0254C162.984 14.1129 163.204 14.2524 163.385 14.434C163.567 14.6156 163.707 14.835 163.795 15.0765C163.883 15.3181 163.916 15.5759 163.894 15.8319V16.857C163.894 17.7947 163.507 18.385 162.733 18.6279V18.6765L164.088 21.5332C164.178 21.6959 164.124 21.7761 163.93 21.7761H163.172C163.095 21.7859 163.017 21.771 162.949 21.7334C162.881 21.6959 162.826 21.6377 162.793 21.5672L161.486 18.7591H160.255C160.158 18.7591 160.109 18.8004 160.109 18.883V21.555C160.116 21.5845 160.115 21.6151 160.107 21.6442C160.1 21.6734 160.085 21.7002 160.064 21.7222C160.043 21.7443 160.018 21.761 159.989 21.7708C159.961 21.7806 159.93 21.7832 159.9 21.7785V21.7785ZM160.243 17.785H161.793C162.395 17.785 162.696 17.4878 162.696 16.8935V15.8684C162.696 15.2659 162.395 14.9647 161.793 14.9647H160.243C160.153 14.9647 160.109 15.006 160.109 15.0886V17.6635C160.109 17.7461 160.163 17.785 160.243 17.785V17.785Z" fill="#344054"/>
<path d="M165.541 21.5701V14.1369C165.537 14.1087 165.54 14.08 165.548 14.0531C165.557 14.0261 165.572 14.0015 165.592 13.9813C165.612 13.9611 165.637 13.9457 165.664 13.9365C165.691 13.9272 165.719 13.9243 165.747 13.928H168.752C169.006 13.9123 169.26 13.9472 169.499 14.0306C169.739 14.114 169.96 14.2442 170.149 14.4138C170.325 14.5992 170.461 14.8189 170.549 15.0592C170.636 15.2996 170.673 15.5553 170.657 15.8106V19.8867C170.671 20.141 170.634 20.3956 170.546 20.635C170.459 20.8743 170.324 21.0933 170.149 21.2786C169.961 21.4512 169.741 21.5844 169.501 21.6704C169.261 21.7564 169.007 21.7933 168.752 21.779H165.75C165.721 21.783 165.693 21.7804 165.665 21.7714C165.638 21.7623 165.613 21.747 165.593 21.7268C165.573 21.7065 165.558 21.6818 165.549 21.6546C165.539 21.6274 165.537 21.5985 165.541 21.5701V21.5701ZM166.86 20.7417H168.58C169.168 20.7417 169.459 20.4405 169.459 19.8381V15.8689C169.459 15.2664 169.168 14.9652 168.58 14.9652H166.86C166.77 14.9652 166.724 15.0065 166.724 15.0891V20.6057C166.722 20.6241 166.723 20.6429 166.729 20.6605C166.735 20.6781 166.745 20.694 166.758 20.7072C166.772 20.7203 166.788 20.7303 166.805 20.7363C166.823 20.7422 166.842 20.7441 166.86 20.7417V20.7417Z" fill="#344054"/>
</g>
<defs>
<clipPath id="clip0_3987_154402">
<rect width="169.868" height="36" fill="white" transform="translate(0.789062 0.266113)"/>
</clipPath>
</defs>
</svg>
