<svg width="64" height="65" viewBox="0 0 64 65" fill="none" xmlns="http://www.w3.org/2000/svg">
<path d="M56 28.6714V15.6714C56 14.5668 55.1046 13.6714 54 13.6714H10C8.89543 13.6714 8 14.5668 8 15.6714V45.6714C8 46.776 8.89543 47.6714 10 47.6714H21.5H33.5" stroke="url(#paint0_linear_4545_153086)" stroke-width="3" stroke-linecap="round" stroke-linejoin="round"/>
<path d="M52.9964 36.6714L62.063 42.0047V52.6714L52.9964 58.0047L43.9297 52.6714V42.0047L52.9964 36.6714Z" stroke="url(#paint1_linear_4545_153086)" stroke-width="3" stroke-linecap="round" stroke-linejoin="round"/>
<path d="M16 40.0049C17.0414 40.0049 19.6253 40.0049 20.6667 40.0049" stroke="url(#paint2_linear_4545_153086)" stroke-width="3" stroke-linecap="round" stroke-linejoin="round"/>
<path d="M43.3359 20.6714H48.0026" stroke="url(#paint3_linear_4545_153086)" stroke-width="3" stroke-linecap="round" stroke-linejoin="round"/>
<path d="M31.9995 21.9717V23.7221C32.9038 23.6654 33.8024 23.9015 34.5628 24.3943C35.3231 24.8871 35.905 25.6112 36.2226 26.4598M31.9995 39.3057V37.5553C33.036 37.6536 34.0698 37.3419 34.8797 36.6877C35.6896 36.0334 36.2112 35.0881 36.3329 34.0541M27.7847 34.8174C28.1022 35.666 28.6841 36.3901 29.4445 36.8829C30.2048 37.3757 31.1034 37.6111 32.0077 37.5544M36.3308 34.0536C36.3308 33.3349 36.0818 32.6383 35.6261 32.0824C35.1704 31.5266 34.5362 31.1458 33.8314 31.0048L30.1635 30.2712C29.4587 30.1303 28.8245 29.7495 28.3688 29.1936C27.9131 28.6377 27.6641 27.9412 27.6641 27.2224C27.7858 26.1884 28.3074 25.2439 29.1173 24.5896C29.9271 23.9354 30.9609 23.6241 31.9974 23.7224" stroke="url(#paint4_linear_4545_153086)" stroke-width="3" stroke-linecap="round" stroke-linejoin="round"/>
<defs>
<linearGradient id="paint0_linear_4545_153086" x1="8.19835" y1="22.1714" x2="40.6106" y2="50.2143" gradientUnits="userSpaceOnUse">
<stop stop-color="#FE5170"/>
<stop offset="1" stop-color="#F87AA3"/>
</linearGradient>
<linearGradient id="paint1_linear_4545_153086" x1="44.0046" y1="42.0047" x2="60.8453" y2="50.7773" gradientUnits="userSpaceOnUse">
<stop stop-color="#FE5170"/>
<stop offset="1" stop-color="#F87AA3"/>
</linearGradient>
<linearGradient id="paint2_linear_4545_153086" x1="16.0193" y1="40.2549" x2="16.6196" y2="41.9716" gradientUnits="userSpaceOnUse">
<stop stop-color="#FE5170"/>
<stop offset="1" stop-color="#F87AA3"/>
</linearGradient>
<linearGradient id="paint3_linear_4545_153086" x1="43.3552" y1="20.9214" x2="43.9555" y2="22.6381" gradientUnits="userSpaceOnUse">
<stop stop-color="#FE5170"/>
<stop offset="1" stop-color="#F87AA3"/>
</linearGradient>
<linearGradient id="paint4_linear_4545_153086" x1="27.6999" y1="26.3052" x2="37.0565" y2="29.1729" gradientUnits="userSpaceOnUse">
<stop stop-color="#FE5170"/>
<stop offset="1" stop-color="#F87AA3"/>
</linearGradient>
</defs>
</svg>
