<svg width="41" height="49" viewBox="0 0 41 49" fill="none" xmlns="http://www.w3.org/2000/svg">
<path d="M26.9525 6.58158C26.9369 6.65292 26.9742 6.72523 27.0412 6.75431C27.5355 6.96898 28.0247 7.19711 28.5272 7.38772C30.1271 7.98831 31.6039 8.87598 32.885 10.0071C35.3752 12.2046 36.7432 15.0217 36.7572 18.2682C36.7743 22.4984 34.2857 25.6594 30.1162 26.2508C26.8899 26.7099 24.0884 25.7496 21.6839 23.5832C18.9213 21.093 17.4646 17.9507 17.0537 14.2886C17.0175 13.9631 16.9717 13.6394 16.9209 13.2688C16.8937 13.0702 16.6887 12.947 16.4998 13.0141C16.1809 13.1273 15.8878 13.2289 15.6078 13.3626C12.0453 15.0668 9.50847 17.7484 8.02526 21.4074C6.62453 24.8734 6.15763 28.4421 6.99339 32.1245C7.6813 35.1656 9.06802 37.7896 11.6127 39.7071C13.1629 40.8907 14.9947 41.6502 16.9276 41.9109C19.1868 42.2375 21.4874 42.1319 23.7071 41.5996C26.3078 40.9599 28.4727 39.6401 30.1038 37.4908C30.9769 36.3438 32.1006 35.8893 33.5153 36.2815C35.3378 36.7873 36.2358 38.683 35.4436 40.4028C34.7448 41.9202 33.6056 43.0781 32.3029 44.0867C29.4019 46.3294 26.0915 47.5387 22.4714 47.9682C21.7041 48.0585 20.9368 48.2795 20.1726 48.2655C16.1588 48.2126 12.3177 47.4468 8.83768 45.3177C6.18409 43.6945 4.21996 41.4268 2.80523 38.6876C0.895914 35.0133 0.084397 30.8672 0.467578 26.7442C0.859781 22.1311 2.25739 17.8869 5.08997 14.1797C8.20268 10.1124 12.2643 7.54439 17.2747 6.47569C17.9128 6.34029 18.442 6.11928 18.8093 5.54188C20.6115 2.72331 23.2107 1.12804 26.4666 0.461918C28.2234 0.105836 30.0442 0.23716 31.7317 0.84167C33.176 1.33504 33.9106 2.65483 33.6632 4.23298C33.4531 5.57145 32.3294 6.48347 30.8384 6.49437C29.8049 6.49437 28.77 6.47258 27.735 6.46168C27.5237 6.46168 27.3125 6.46168 27.1013 6.46168C27.0297 6.46168 26.9677 6.51159 26.9525 6.58158ZM13.0925 11.9948C13.0921 11.9952 13.0913 11.9949 13.0913 11.9942L13.0971 11.8617C13.0982 11.8367 13.1168 11.816 13.1416 11.8123C13.4265 11.7704 13.7138 11.7379 13.9955 11.6786C14.9573 11.4747 15.7759 11.7409 16.5043 12.379C17.3012 13.0762 18.1214 13.7454 18.912 14.4489C19.1441 14.655 19.338 14.9006 19.4847 15.1742C20.5991 17.3054 21.7015 19.4422 22.792 21.5848C23.0628 22.1202 23.1967 22.6867 23.0223 23.3093C22.9427 23.561 22.9546 23.8328 23.056 24.0766C23.1574 24.3204 23.3417 24.5205 23.5764 24.6415C24.0906 24.9393 24.6271 25.1969 25.181 25.4119C25.6619 25.5987 25.9016 25.4212 25.9934 24.903C26.0167 24.7485 26.025 24.5921 26.0183 24.4361C26.0059 23.5863 25.6386 22.9046 25.0612 22.2976C24.4838 21.6907 23.8161 21.0946 23.3818 20.3786C21.8846 17.9009 20.4621 15.3781 19.0349 12.8599C18.6568 12.1953 18.7517 11.7393 19.3135 11.1837C19.754 10.7495 20.2193 10.3355 20.7002 9.93859C21.9049 8.9612 23.1546 8.03672 24.3328 7.02975C26.5957 5.0952 28.868 3.17932 31.5496 1.82685C31.6262 1.78041 31.7012 1.73162 31.7747 1.68055C31.9405 1.56526 31.9336 1.32138 31.7641 1.21153C31.3071 0.915239 31.1281 0.953118 30.6641 1.31014C28.8198 2.72642 26.9444 4.11158 25.1685 5.6088C22.9179 7.51276 20.572 9.30125 18.14 10.9673C17.7027 11.2677 17.2747 11.4016 16.7611 11.2179C15.6607 10.821 14.5729 10.9642 13.4927 11.3004C11.7807 11.8296 10.4236 12.8848 9.21742 14.1532C4.23707 19.3966 2.33988 25.5707 3.70948 32.6972C4.2044 35.2668 5.28451 37.6106 6.66656 39.8253C7.48676 41.1483 8.25093 42.4945 8.46415 44.0758C8.47567 44.2054 8.51325 44.3314 8.57466 44.4462C8.67738 44.6174 8.78164 44.8322 8.94506 44.9131C10.1403 45.5232 11.347 46.1146 12.5652 46.6873C12.6359 46.7201 12.7241 46.7158 12.8177 46.7005C12.9885 46.6727 13.1313 46.5038 13.1189 46.3312C13.1138 46.2595 13.1004 46.1929 13.0663 46.1395C12.7231 45.5643 12.3354 45.0169 11.9068 44.5022C11.1286 43.64 10.2726 42.8462 9.46799 42.012C7.18326 39.6261 5.41213 36.9305 4.43785 33.7415C3.63919 31.1234 3.62082 28.4509 3.79267 25.7582C3.79323 25.7494 3.79454 25.7407 3.79668 25.7321C3.80006 25.7185 3.80361 25.705 3.80733 25.6915C3.83917 25.5758 3.98171 25.5838 4.00031 25.7024C4.00151 25.71 4.00199 25.7177 4.00182 25.7254C3.97496 26.934 3.87308 28.1472 3.93048 29.3511C4.01922 31.5849 4.66727 33.7608 5.81523 35.6792C5.91965 35.8741 6.07367 36.0378 6.26153 36.1539C6.27516 36.1623 6.28955 36.1695 6.30466 36.1748C6.38742 36.2041 6.47568 36.215 6.56325 36.2065C6.64922 36.1982 6.73228 36.1716 6.80686 36.1285C6.82351 36.1189 6.8386 36.1068 6.85246 36.0935C7.26696 35.6952 7.57776 35.1976 7.4354 34.5991C7.16615 33.4692 6.83931 32.3517 6.52492 31.2327C6.43154 30.9027 6.21365 30.6911 5.8448 30.7175C5.22225 30.7611 4.96546 30.3751 4.83006 29.86C4.73684 29.5376 4.67021 29.2081 4.63084 28.8748C4.0581 23.0136 6.002 18.1001 10.2586 14.0785C10.659 13.7127 11.104 13.3989 11.5831 13.1447C12.6321 12.5688 12.8904 12.6186 13.7324 13.4793C13.9503 13.7019 14.1371 13.775 14.3985 13.582C14.5231 13.4902 14.6958 13.4451 14.7861 13.3314C14.9526 13.1229 15.1845 12.8817 15.1907 12.6467C15.2016 12.3043 14.8608 12.1533 14.5495 12.0708C14.3743 12.0261 14.1948 12 14.0141 11.993C13.6967 11.9852 13.398 11.9945 13.0931 11.9945C13.0929 11.9945 13.0927 11.9946 13.0925 11.9948ZM24.7626 47.2043C24.7629 47.2046 24.7635 47.2043 24.7634 47.2038C24.7341 47.0985 24.6985 46.9952 24.6565 46.8943C24.1647 45.9138 24.2098 45.7629 25.1794 45.2166C25.3133 45.1403 25.458 45.0796 25.5903 44.9987C26.8214 44.2407 28.1085 43.5559 29.2696 42.6999C31.0469 41.3895 32.8959 40.2269 34.93 39.3616C35.0468 39.3118 35.2086 39.2511 35.2413 39.1546C35.316 38.9585 35.3969 38.711 35.3253 38.532C35.2897 38.4309 35.0054 38.3611 34.8308 38.374C34.8149 38.3752 34.7994 38.3785 34.7841 38.3832C34.595 38.4408 34.4189 38.5347 34.2655 38.6596C33.5079 39.1445 32.7666 39.6352 32.0185 40.1232C31.9836 40.146 31.9372 40.1392 31.9102 40.1074C31.8799 40.0715 31.8855 40.0177 31.9226 39.9889C32.0552 39.8861 32.1857 39.7852 32.3013 39.6775C32.9239 39.1312 33.5464 38.588 34.169 38.0324C34.5783 37.6605 34.6639 37.3725 34.4631 37.192C34.2624 37.0115 33.9417 37.136 33.6102 37.4924C33.576 37.5297 33.5449 37.5717 33.5091 37.6107C32.7309 38.4449 31.9714 39.2869 31.187 40.1117C29.8719 41.4984 28.3622 42.6019 26.5693 43.3054C23.8814 44.3528 21.1034 44.608 18.2583 44.2672C16.5045 44.061 14.8209 43.4573 13.3356 42.5023C12.6585 42.0712 12.1325 41.5498 11.9675 40.7109C11.8844 40.4417 11.7282 40.2008 11.5162 40.0152C11.0041 39.5047 10.4625 39.0238 9.92869 38.5336C9.80064 38.4058 9.661 38.2901 9.51158 38.1881C9.25011 38.0324 9.04467 38.1102 9.01977 38.4231C8.9653 39.0129 8.89215 39.623 9.25789 40.1522C9.80417 40.9412 10.3909 41.6961 11.1925 42.2533C13.5325 43.9039 16.2997 44.8432 19.161 44.9582C21.2496 45.0516 23.2822 44.6983 25.2868 44.1442C25.3407 44.1337 25.3949 44.1247 25.4492 44.1172C25.5873 44.098 25.7041 44.274 25.5701 44.3123C23.497 44.882 21.4115 45.3675 19.2373 45.31C18.5649 45.2928 17.891 45.3006 17.214 45.3271C17.0222 45.3477 16.8313 45.3756 16.6418 45.4108C16.4389 45.4484 16.3399 45.6755 16.4499 45.8501C16.9704 46.6766 17.5804 47.2909 18.3875 47.7067C18.5778 47.7865 18.784 47.8206 18.9898 47.8063C19.8442 47.8063 20.7018 47.8064 21.55 47.7612C22.6419 47.7307 23.7237 47.5431 24.762 47.2041C24.7622 47.2041 24.7624 47.2041 24.7626 47.2043ZM23.2745 13.1649C23.2978 15.1399 24.3359 17.5679 25.7646 18.9328C26.5257 19.6581 27.3941 20.2121 28.468 20.3242C29.6664 20.4487 30.3357 19.8573 30.3839 18.6558C30.4399 17.034 29.8252 15.6816 28.6532 14.5843C27.3841 13.3895 25.7819 12.6085 24.0589 12.3447C23.2962 12.2202 23.2807 12.2311 23.2714 13.0093L23.2745 13.1649ZM32.5804 19.6648C32.5809 19.6652 32.5817 19.665 32.5819 19.6644C32.6238 19.4999 32.6672 19.3354 32.7076 19.1709C32.9644 18.1484 33.0002 17.1274 32.6702 16.1142C32.2142 14.7135 31.3535 13.5384 30.5037 12.379C29.9372 11.6008 28.412 11.691 27.8004 12.4272C27.5685 12.7058 27.4424 12.9999 27.6696 13.3423C27.7799 13.4868 27.9333 13.5925 28.1076 13.644C28.282 13.6955 28.4681 13.6901 28.6392 13.6287C28.784 13.5774 28.9116 13.4824 29.0532 13.4202C29.2621 13.3122 29.4997 13.2726 29.7323 13.307C29.9649 13.3413 30.1809 13.4479 30.3497 13.6116C31.5076 14.6481 32.292 15.8963 32.4305 17.4729C32.6686 20.181 30.5349 22.6603 27.5716 21.8447C26.5288 21.5568 25.8035 20.995 25.6712 19.8635C25.615 19.3812 25.3873 19.0346 25.0565 18.7466C24.933 18.6391 24.7462 18.665 24.6447 18.7935C24.2313 19.317 24.1183 19.5693 24.2363 19.8822C24.6705 21.0261 25.2744 22.0362 26.5708 22.3848C27.7731 22.734 29.059 22.6593 30.2127 22.1731C30.3607 22.1195 30.4624 22.2684 30.3324 22.3572C30.2869 22.3883 30.2379 22.4148 30.1862 22.4361C29.6415 22.6727 29.0734 22.8641 28.5505 23.1412C28.275 23.2859 27.928 23.5427 27.8704 23.8042C27.7147 24.517 27.7474 25.317 28.1817 25.8882C28.5847 26.4111 29.2976 26.0438 29.875 26.0438C29.9009 26.0435 29.9266 26.0393 29.9512 26.0313C30.2625 25.9348 30.4446 25.759 30.3076 25.401C30.2329 25.208 30.1722 25.0119 30.1022 24.8174C29.9948 24.5374 29.967 24.2332 30.022 23.9384C30.0769 23.6437 30.2124 23.3699 30.4135 23.1474C30.5598 22.9684 30.7154 22.7941 30.8804 22.6276C32.1893 21.2876 33.3939 19.8853 33.934 18.027C34.0772 17.5352 34.46 17.2799 35.0047 17.3188C35.2123 17.3344 35.4209 17.3286 35.6273 17.3017C36.1627 17.2239 36.3852 16.9796 36.2872 16.4597C36.1661 15.8802 36.0102 15.3085 35.8203 14.7477C35.7222 14.4365 35.481 14.3182 35.1495 14.3509C34.7121 14.3944 34.2733 14.4147 33.8344 14.4427C33.0717 14.4894 32.969 14.617 33.0282 15.4076C33.078 16.052 33.1371 16.6963 33.1558 17.3422C33.162 18.1497 33.0625 18.951 32.5803 19.6637C32.5801 19.664 32.5801 19.6645 32.5804 19.6648ZM26.0666 6.69669C26.0674 6.69757 26.0689 6.69761 26.0698 6.69681C26.1933 6.59174 26.2646 6.51744 26.3467 6.45857C28.2953 5.06718 30.3434 3.88746 32.7278 3.37542C33.2538 3.26181 33.3892 3.03147 33.2492 2.63148C33.0935 2.19726 32.7994 2.04785 32.3356 2.25018C31.6679 2.52326 31.0181 2.83827 30.3901 3.19333C27.2715 5.03361 24.3653 7.21219 21.7243 9.68957C21.1983 10.186 20.6349 10.6421 20.1135 11.1432C19.6746 11.5665 19.4583 12.0973 19.7042 12.6996C20.2754 14.0847 20.8434 15.473 21.4862 16.8239C21.673 17.2161 22.0698 17.5445 22.4403 17.8013C22.8107 18.0581 23.5406 17.8184 23.827 17.4293C23.9997 17.1943 23.9484 16.7243 23.7351 16.4084C23.5219 16.0924 23.178 16.0644 22.8356 16.0971C22.565 16.1436 22.2866 16.1033 22.0403 15.9819C21.7941 15.8606 21.5925 15.6645 21.4644 15.4216C20.9422 14.553 20.6727 13.5558 20.6862 12.5424C20.7117 12.2089 20.8146 11.886 20.9866 11.5992C21.4629 10.7432 22.1741 10.1222 23.0099 9.62265C24.0075 9.03123 24.988 8.40713 25.967 7.77369C26.5942 7.35815 26.5817 7.34569 26.0666 6.69669ZM6.49763 23.2356C6.52403 23.2365 6.55012 23.2304 6.57442 23.2201C6.636 23.1938 6.69333 23.1585 6.7445 23.1153C6.75811 23.1038 6.77006 23.0905 6.78104 23.0765C6.99411 22.8039 7.24714 22.5417 7.37003 22.2307C8.34586 19.7732 9.69056 17.5616 11.6111 15.7189C11.7718 15.5883 11.9019 15.4242 11.9924 15.238C12.0783 15.0282 12.0952 14.7966 12.0407 14.5765C11.8539 14.0178 11.4103 13.9291 10.8656 14.3306C8.99146 15.6936 7.55328 17.5713 6.7257 19.7359C6.41443 20.5545 6.15607 21.3996 5.90238 22.2401C5.78537 22.6421 6.14405 23.2234 6.49763 23.2356ZM28.7933 7.75969C28.1708 7.68031 27.8984 7.89042 27.9124 8.34332C27.9498 8.64985 28.0054 8.95388 28.0789 9.25379C28.1817 9.91991 27.9949 10.1549 27.3132 10.2063C26.9272 10.2359 26.535 10.2156 26.1537 10.267C25.8299 10.3054 25.5317 10.4626 25.317 10.7081C25.1023 10.9536 24.9861 11.27 24.9911 11.5961C25.0036 12.0366 25.2479 12.3385 25.7039 12.5081C26.0712 12.6467 26.2954 12.5159 26.5771 12.2451C26.9399 11.9249 27.3498 11.6624 27.7926 11.4669C28.0883 11.3222 28.4525 11.3222 28.7575 11.1899C29.0626 11.0576 29.4579 10.8926 29.6446 10.6265C30.0135 10.1051 30.2672 9.50436 30.5582 8.9254C30.5765 8.87129 30.5809 8.81346 30.5712 8.75719C30.5651 8.72226 30.5536 8.68861 30.5373 8.65741C30.5176 8.61959 30.4828 8.59282 30.4451 8.57283C29.8617 8.26334 29.2621 7.98234 28.8139 7.76441C28.8075 7.76128 28.8005 7.75969 28.7933 7.75969ZM32.0712 22.9342C32.0667 22.9342 32.0638 22.9388 32.0656 22.9428C32.2191 23.2798 32.3264 23.6512 32.5286 23.9614C32.9784 24.6477 33.3457 24.6866 33.9838 24.1824C35.0125 23.3715 35.6382 22.2961 36.007 21.0603C36.0592 20.9286 36.0708 20.7844 36.0406 20.6463C36.0372 20.6307 36.032 20.6155 36.0254 20.601C35.6733 19.8217 34.4734 19.5893 33.9028 20.2323C33.327 20.8813 32.857 21.5677 32.3589 22.2556C32.243 22.4705 32.1485 22.6964 32.077 22.9299C32.0762 22.9324 32.0738 22.9342 32.0712 22.9342ZM33.9509 40.9093C33.9191 40.9006 33.886 40.897 33.853 40.8984C33.5737 40.9101 33.42 40.898 33.2803 40.9304C32.0648 41.156 31.0205 41.6478 30.4711 42.8431C30.2501 43.3256 30.3559 43.7769 30.6921 44.0368C31.0282 44.2968 31.4703 44.3045 31.8905 43.9466C32.6686 43.2758 33.4297 42.5832 34.1627 41.8626C34.2798 41.7474 34.3499 41.5858 34.4138 41.4176C34.4824 41.2369 34.3796 41.0268 34.1932 40.9757L33.9509 40.9093ZM33.4181 11.7105C33.4803 11.6138 33.4702 11.4877 33.3985 11.3978C32.9364 10.8182 32.6394 10.9544 32.0881 11.2257C31.9316 11.2935 31.7851 11.3825 31.6528 11.4901C31.64 11.5005 31.6282 11.5121 31.6175 11.5246C31.5746 11.575 31.534 11.6271 31.4956 11.6808C31.4025 11.8111 31.4415 11.9954 31.5678 12.094C31.6513 12.1592 31.7365 12.2155 31.8251 12.2311C32.4296 12.3189 33.0222 12.3255 33.4181 11.7105ZM22.834 14.0868C22.834 14.0864 22.8341 14.0861 22.8341 14.0858C23.0339 13.441 23.0297 12.8144 22.9231 12.1298C22.8901 11.9177 22.65 11.8114 22.4842 11.9477C22.1131 12.2528 21.9111 12.6143 21.9111 13.098C21.9018 13.6461 22.2549 13.9231 22.8299 14.0898C22.832 14.0904 22.834 14.0889 22.834 14.0868Z" fill="#344054"/>
<path d="M34.1419 31.6498C34.1537 30.8007 34.4984 29.9901 35.1018 29.3926C35.7052 28.795 36.5191 28.4582 37.3683 28.4546C39.0118 28.4546 40.6366 29.9814 40.6024 31.6047C40.565 33.2015 39.3806 34.8559 37.334 34.873C36.4838 34.8673 35.6705 34.5248 35.0722 33.9207C34.474 33.3166 34.1394 32.5 34.1419 31.6498ZM37.5784 30.3765C37.5784 30.3761 37.5789 30.3759 37.5791 30.3763C37.6551 30.498 37.7345 30.7288 37.8896 30.8421C37.9815 30.9105 38.2227 30.8218 38.3737 30.7533C38.5335 30.6708 38.6807 30.566 38.811 30.4421C39.4522 29.8771 39.4335 29.6437 38.6912 29.197C38.1667 28.8857 37.9737 28.9448 37.7947 29.5083C37.7249 29.7565 37.6643 30.0141 37.5791 30.3765C37.579 30.377 37.5784 30.3769 37.5784 30.3765ZM36.5232 31.3097C36.5232 31.3092 36.5233 31.3088 36.5236 31.3084L36.5703 31.252C36.6332 31.1758 36.633 31.0656 36.5701 30.9894C36.284 30.6427 36.0018 30.2919 35.7061 29.9534C35.5707 29.7977 35.3948 29.6421 35.1878 29.8615C35.0057 30.0514 35.0633 30.2537 35.2485 30.3938C35.6599 30.7059 36.093 31.0009 36.52 31.3113C36.5213 31.3123 36.5232 31.3113 36.5232 31.3097ZM38.2833 31.9577C38.2804 31.9589 38.2781 31.9612 38.277 31.9641L38.2488 32.0393C38.2151 32.1293 38.2526 32.2303 38.3368 32.2765C38.7231 32.4886 39.108 32.7029 39.4989 32.9073C39.7169 33.0231 39.9189 32.953 39.9619 32.7349C39.965 32.7192 39.9659 32.7032 39.9648 32.6873C39.96 32.615 39.9383 32.5447 39.9014 32.482C39.8661 32.4219 39.8178 32.3707 39.7603 32.3318C39.7421 32.3196 39.7219 32.3109 39.701 32.3043C39.24 32.1581 38.7576 32.0679 38.2899 31.9572C38.2877 31.9567 38.2854 31.9569 38.2833 31.9577ZM36.8484 30.6355C36.8484 30.6369 36.8497 30.6378 36.851 30.6375L36.9892 30.6015C37.0369 30.5891 37.0712 30.547 37.072 30.4977C37.08 30.0312 36.9797 29.5689 36.7784 29.1472C36.7302 29.0553 36.4671 29.032 36.3224 29.0538C36.2695 29.0616 36.1823 29.3262 36.2259 29.4227C36.4095 29.8349 36.6366 30.2239 36.8482 30.6346C36.8484 30.6349 36.8484 30.6352 36.8484 30.6355ZM38.6694 31.433C38.6694 31.4333 38.6694 31.4336 38.6695 31.4339L38.6756 31.4592C38.6987 31.5538 38.7812 31.6224 38.8785 31.6253C39.1872 31.6346 39.4962 31.6262 39.804 31.6C39.8386 31.5953 39.8698 31.5654 39.8993 31.5225C40.0064 31.3663 39.9351 31.0837 39.7501 31.0429C39.7256 31.0375 39.7024 31.0369 39.681 31.0428C39.3381 31.1541 39.0013 31.2831 38.6718 31.4293C38.6703 31.4299 38.6694 31.4314 38.6694 31.433Z" fill="#344054"/>
</svg>
