<svg width="64" height="41" viewBox="0 0 64 41" fill="none" xmlns="http://www.w3.org/2000/svg">
<path d="M10.0179 5.74319C10.0179 7.46902 9.52552 8.79088 8.5407 9.70877C7.56065 10.6267 6.14318 11.0856 4.28828 11.0856H1.31947V0.601562H4.61097C6.32246 0.601562 7.65149 1.05334 8.59806 1.95689C9.54464 2.86044 10.0179 4.12254 10.0179 5.74319ZM7.70886 5.80056C7.70886 3.54886 6.71447 2.423 4.72571 2.423H3.54249V9.24982H4.49624C6.63798 9.24982 7.70886 8.10007 7.70886 5.80056Z" fill="#344054"/>
<path d="M15.0451 4.47392C14.5814 4.47392 14.218 4.62212 13.9551 4.91852C13.6922 5.21014 13.5416 5.62606 13.5033 6.16628H16.5725C16.563 5.62606 16.4219 5.21014 16.1494 4.91852C15.8769 4.62212 15.5088 4.47392 15.0451 4.47392ZM15.3535 11.229C14.0627 11.229 13.0539 10.8729 12.3273 10.1605C11.6006 9.44822 11.2373 8.4395 11.2373 7.13437C11.2373 5.791 11.5719 4.75359 12.2412 4.02214C12.9153 3.28592 13.8452 2.9178 15.0308 2.9178C16.1638 2.9178 17.0458 3.2405 17.6769 3.88589C18.3079 4.53129 18.6234 5.42288 18.6234 6.56069V7.622H13.4531C13.477 8.24349 13.6611 8.72873 14.0053 9.07772C14.3495 9.42671 14.8324 9.6012 15.4539 9.6012C15.9367 9.6012 16.3933 9.55101 16.8235 9.45061C17.2538 9.35022 17.7032 9.19006 18.1717 8.97015V10.6625C17.7892 10.8537 17.3805 10.9948 16.9454 11.0856C16.5104 11.1812 15.9797 11.229 15.3535 11.229Z" fill="#344054"/>
<path d="M23.4283 4.47392C22.9646 4.47392 22.6013 4.62212 22.3383 4.91852C22.0754 5.21014 21.9248 5.62606 21.8866 6.16628H24.9558C24.9462 5.62606 24.8052 5.21014 24.5327 4.91852C24.2602 4.62212 23.8921 4.47392 23.4283 4.47392ZM23.7367 11.229C22.4459 11.229 21.4372 10.8729 20.7105 10.1605C19.9838 9.44822 19.6205 8.4395 19.6205 7.13437C19.6205 5.791 19.9552 4.75359 20.6245 4.02214C21.2985 3.28592 22.2284 2.9178 23.414 2.9178C24.547 2.9178 25.429 3.2405 26.0601 3.88589C26.6911 4.53129 27.0067 5.42288 27.0067 6.56069V7.622H21.8364C21.8603 8.24349 22.0443 8.72873 22.3885 9.07772C22.7327 9.42671 23.2156 9.6012 23.8371 9.6012C24.3199 9.6012 24.7765 9.55101 25.2067 9.45061C25.637 9.35022 26.0864 9.19006 26.5549 8.97015V10.6625C26.1724 10.8537 25.7637 10.9948 25.3286 11.0856C24.8936 11.1812 24.3629 11.229 23.7367 11.229Z" fill="#344054"/>
<path d="M32.8944 11.229C31.9526 11.229 31.214 10.8872 30.6785 10.2036H30.5638C30.6403 10.8729 30.6785 11.2601 30.6785 11.3653V14.6138H28.4914V3.0684H30.2698L30.5781 4.1082H30.6785C31.1901 3.3146 31.9478 2.9178 32.9517 2.9178C33.8983 2.9178 34.6393 3.28353 35.1748 4.01497C35.7102 4.74642 35.9779 5.76231 35.9779 7.06266C35.9779 7.9184 35.8512 8.6618 35.5978 9.29285C35.3493 9.9239 34.9931 10.4044 34.5294 10.7342C34.0656 11.0641 33.5206 11.229 32.8944 11.229ZM32.249 4.66754C31.7088 4.66754 31.3144 4.83486 31.0658 5.16951C30.8172 5.49938 30.6881 6.04676 30.6785 6.81167V7.04832C30.6785 7.90884 30.8052 8.52555 31.0586 8.89844C31.3167 9.27134 31.7231 9.45778 32.2777 9.45778C33.2577 9.45778 33.7477 8.64985 33.7477 7.03398C33.7477 6.24516 33.6258 5.65475 33.382 5.26273C33.143 4.86593 32.7653 4.66754 32.249 4.66754Z" fill="#344054"/>
<path d="M7.50807 22.8604C7.50807 23.807 7.16625 24.5528 6.48261 25.0978C5.80375 25.6428 4.85718 25.9153 3.64288 25.9153C2.5242 25.9153 1.5346 25.7049 0.674077 25.2842V23.219C1.38162 23.5345 1.9792 23.7568 2.46683 23.8859C2.95924 24.015 3.40863 24.0795 3.81499 24.0795C4.30262 24.0795 4.67551 23.9863 4.93367 23.7998C5.19661 23.6134 5.32807 23.3361 5.32807 22.968C5.32807 22.7624 5.27071 22.5808 5.15597 22.423C5.04123 22.2605 4.87152 22.1051 4.64683 21.9569C4.42692 21.8087 3.97514 21.572 3.2915 21.247C2.65089 20.9458 2.17043 20.6565 1.85013 20.3793C1.52982 20.102 1.27405 19.7793 1.08283 19.4112C0.891598 19.0431 0.795984 18.6128 0.795984 18.1204C0.795984 17.1929 1.10912 16.4639 1.73539 15.9332C2.36644 15.4026 3.23652 15.1372 4.34564 15.1372C4.89064 15.1372 5.40935 15.2018 5.90176 15.3309C6.39895 15.4599 6.91765 15.6416 7.45787 15.8759L6.74077 17.6041C6.18143 17.3746 5.7177 17.2144 5.34959 17.1236C4.98626 17.0328 4.6277 16.9874 4.27393 16.9874C3.85323 16.9874 3.53054 17.0854 3.30584 17.2814C3.08115 17.4774 2.96881 17.7332 2.96881 18.0487C2.96881 18.2447 3.01422 18.4168 3.10506 18.565C3.19589 18.7084 3.33931 18.8494 3.53532 18.9881C3.73611 19.1219 4.207 19.3658 4.94801 19.7195C5.92805 20.188 6.59974 20.6589 6.96307 21.1322C7.3264 21.6007 7.50807 22.1768 7.50807 22.8604Z" fill="#344054"/>
<path d="M12.1982 25.9153C9.70269 25.9153 8.45493 24.5456 8.45493 21.8063C8.45493 20.4438 8.79436 19.404 9.47322 18.6869C10.1521 17.965 11.1249 17.6041 12.3918 17.6041C13.3193 17.6041 14.1511 17.7857 14.8873 18.1491L14.242 19.8414C13.8977 19.7028 13.5774 19.5904 13.281 19.5044C12.9846 19.4136 12.6882 19.3681 12.3918 19.3681C11.254 19.3681 10.6851 20.1761 10.6851 21.792C10.6851 23.36 11.254 24.1441 12.3918 24.1441C12.8125 24.1441 13.2022 24.0891 13.5607 23.9791C13.9193 23.8644 14.2778 23.6875 14.6364 23.4485V25.3201C14.2826 25.5448 13.924 25.7002 13.5607 25.7862C13.2022 25.8723 12.748 25.9153 12.1982 25.9153Z" fill="#344054"/>
<path d="M16.1139 15.6822C16.1139 14.9699 16.5107 14.6138 17.3043 14.6138C18.0979 14.6138 18.4947 14.9699 18.4947 15.6822C18.4947 16.0217 18.3943 16.287 18.1935 16.4782C17.9975 16.6647 17.7011 16.7579 17.3043 16.7579C16.5107 16.7579 16.1139 16.3993 16.1139 15.6822ZM18.3943 25.7719H16.2071V17.7547H18.3943V25.7719Z" fill="#344054"/>
<path d="M23.7226 19.1602C23.2589 19.1602 22.8956 19.3084 22.6326 19.6048C22.3697 19.8964 22.2191 20.3123 22.1809 20.8525H25.2501C25.2405 20.3123 25.0995 19.8964 24.827 19.6048C24.5545 19.3084 24.1864 19.1602 23.7226 19.1602ZM24.031 25.9153C22.7402 25.9153 21.7315 25.5591 21.0048 24.8468C20.2781 24.1345 19.9148 23.1258 19.9148 21.8206C19.9148 20.4773 20.2495 19.4399 20.9188 18.7084C21.5928 17.9722 22.5227 17.6041 23.7083 17.6041C24.8413 17.6041 25.7233 17.9268 26.3544 18.5722C26.9854 19.2176 27.301 20.1092 27.301 21.247V22.3083H22.1307C22.1546 22.9298 22.3386 23.415 22.6828 23.764C23.027 24.113 23.5099 24.2875 24.1314 24.2875C24.6142 24.2875 25.0708 24.2373 25.501 24.1369C25.9313 24.0365 26.3807 23.8763 26.8492 23.6564V25.3488C26.4667 25.54 26.058 25.681 25.6229 25.7719C25.1879 25.8675 24.6572 25.9153 24.031 25.9153Z" fill="#344054"/>
<path d="M36.1862 25.7719H33.999V21.0892C33.999 20.5107 33.8962 20.0781 33.6906 19.7912C33.4851 19.4996 33.1576 19.3538 32.7082 19.3538C32.0963 19.3538 31.6541 19.5594 31.3816 19.9705C31.1091 20.3769 30.9728 21.0533 30.9728 21.9999V25.7719H28.7857V17.7547H30.4565L30.7505 18.7801H30.8724C31.1162 18.3929 31.4509 18.1013 31.8764 17.9053C32.3066 17.7045 32.7943 17.6041 33.3393 17.6041C34.2715 17.6041 34.979 17.8574 35.4619 18.3642C35.9447 18.8662 36.1862 19.5928 36.1862 20.5442V25.7719Z" fill="#344054"/>
<path d="M41.3998 25.9153C38.9043 25.9153 37.6565 24.5456 37.6565 21.8063C37.6565 20.4438 37.9959 19.404 38.6748 18.6869C39.3537 17.965 40.3265 17.6041 41.5934 17.6041C42.5209 17.6041 43.3527 17.7857 44.0889 18.1491L43.4435 19.8414C43.0993 19.7028 42.779 19.5904 42.4826 19.5044C42.1862 19.4136 41.8898 19.3681 41.5934 19.3681C40.4556 19.3681 39.8867 20.1761 39.8867 21.792C39.8867 23.36 40.4556 24.1441 41.5934 24.1441C42.0141 24.1441 42.4037 24.0891 42.7623 23.9791C43.1208 23.8644 43.4794 23.6875 43.8379 23.4485V25.3201C43.4842 25.5448 43.1256 25.7002 42.7623 25.7862C42.4037 25.8723 41.9496 25.9153 41.3998 25.9153Z" fill="#344054"/>
<path d="M48.7289 19.1602C48.2651 19.1602 47.9018 19.3084 47.6389 19.6048C47.3759 19.8964 47.2253 20.3123 47.1871 20.8525H50.2563C50.2467 20.3123 50.1057 19.8964 49.8332 19.6048C49.5607 19.3084 49.1926 19.1602 48.7289 19.1602ZM49.0372 25.9153C47.7464 25.9153 46.7377 25.5591 46.011 24.8468C45.2844 24.1345 44.921 23.1258 44.921 21.8206C44.921 20.4773 45.2557 19.4399 45.925 18.7084C46.5991 17.9722 47.5289 17.6041 48.7145 17.6041C49.8475 17.6041 50.7296 17.9268 51.3606 18.5722C51.9917 19.2176 52.3072 20.1092 52.3072 21.247V22.3083H47.1369C47.1608 22.9298 47.3449 23.415 47.6891 23.764C48.0333 24.113 48.5161 24.2875 49.1376 24.2875C49.6205 24.2875 50.077 24.2373 50.5073 24.1369C50.9375 24.0365 51.3869 23.8763 51.8554 23.6564V25.3488C51.473 25.54 51.0642 25.681 50.6292 25.7719C50.1941 25.8675 49.6635 25.9153 49.0372 25.9153Z" fill="#344054"/>
<path d="M7.30011 29.9741H9.54464L5.98064 40.4581H3.55683L0 29.9741H2.24453L4.21657 36.2129C4.32652 36.581 4.43887 37.0113 4.5536 37.5037C4.67312 37.9913 4.74722 38.3307 4.77591 38.522C4.82849 38.0821 5.00777 37.3125 5.31373 36.2129L7.30011 29.9741Z" fill="#344054"/>
<path d="M13.7256 33.8465C13.2619 33.8465 12.8986 33.9947 12.6356 34.2911C12.3727 34.5827 12.2221 34.9986 12.1839 35.5388H15.2531C15.2435 34.9986 15.1025 34.5827 14.83 34.2911C14.5575 33.9947 14.1894 33.8465 13.7256 33.8465ZM14.034 40.6016C12.7432 40.6016 11.7345 40.2454 11.0078 39.5331C10.2812 38.8208 9.91782 37.812 9.91782 36.5069C9.91782 35.1635 10.2525 34.1261 10.9218 33.3947C11.5958 32.6585 12.5257 32.2903 13.7113 32.2903C14.8443 32.2903 15.7264 32.613 16.3574 33.2584C16.9885 33.9038 17.304 34.7954 17.304 35.9332V36.9945H12.1337C12.1576 37.616 12.3416 38.1013 12.6858 38.4503C13.03 38.7992 13.5129 38.9737 14.1344 38.9737C14.6172 38.9737 15.0738 38.9235 15.5041 38.8231C15.9343 38.7228 16.3837 38.5626 16.8522 38.3427V40.0351C16.4698 40.2263 16.061 40.3673 15.626 40.4581C15.1909 40.5538 14.6603 40.6016 14.034 40.6016Z" fill="#344054"/>
<path d="M26.1892 40.4581H24.002V35.7755C24.002 35.197 23.8992 34.7643 23.6937 34.4775C23.4881 34.1859 23.1606 34.0401 22.7112 34.0401C22.0993 34.0401 21.6571 34.2456 21.3846 34.6568C21.1121 35.0631 20.9758 35.7396 20.9758 36.6862V40.4581H18.7887V32.4409H20.4595L20.7535 33.4664H20.8754C21.1193 33.0792 21.4539 32.7875 21.8794 32.5915C22.3096 32.3907 22.7973 32.2903 23.3423 32.2903C24.2745 32.2903 24.982 32.5437 25.4649 33.0505C25.9477 33.5524 26.1892 34.2791 26.1892 35.2305V40.4581Z" fill="#344054"/>
<path d="M31.5247 38.859C31.9072 38.859 32.3661 38.7753 32.9015 38.608V40.2358C32.3565 40.4797 31.6872 40.6016 30.8937 40.6016C30.0188 40.6016 29.3806 40.3817 28.979 39.9418C28.5822 39.4972 28.3838 38.8327 28.3838 37.9483V34.0831H27.3368V33.158L28.5416 32.4266L29.1726 30.7342H30.571V32.4409H32.8155V34.0831H30.571V37.9483C30.571 38.259 30.657 38.4885 30.8291 38.6367C31.006 38.7849 31.2379 38.859 31.5247 38.859Z" fill="#344054"/>
<path d="M39.9151 40.4581L39.6211 39.4327H39.5063C39.2721 39.8056 38.9398 40.0948 38.5096 40.3004C38.0793 40.5012 37.5893 40.6016 37.0395 40.6016C36.0977 40.6016 35.3878 40.3506 34.9097 39.8486C34.4316 39.3419 34.1926 38.6152 34.1926 37.6686V32.4409H36.3798V37.1236C36.3798 37.7021 36.4826 38.1371 36.6881 38.4287C36.8937 38.7156 37.2212 38.859 37.6706 38.859C38.2825 38.859 38.7247 38.6558 38.9972 38.2495C39.2697 37.8383 39.406 37.1595 39.406 36.2129V32.4409H41.5931V40.4581H39.9151Z" fill="#344054"/>
<path d="M48.0688 32.2903C48.3652 32.2903 48.6114 32.3119 48.8075 32.3549L48.6425 34.4058C48.4656 34.358 48.2505 34.3341 47.9971 34.3341C47.2992 34.3341 46.7542 34.5134 46.3621 34.8719C45.9749 35.2305 45.7813 35.7324 45.7813 36.3778V40.4581H43.5941V32.4409H45.2506L45.5733 33.7891H45.6809C45.9295 33.3397 46.2641 32.9788 46.6848 32.7063C47.1103 32.429 47.5717 32.2903 48.0688 32.2903Z" fill="#344054"/>
<path d="M53.2896 33.8465C52.8259 33.8465 52.4626 33.9947 52.1996 34.2911C51.9367 34.5827 51.7861 34.9986 51.7479 35.5388H54.8171C54.8075 34.9986 54.6665 34.5827 54.394 34.2911C54.1215 33.9947 53.7534 33.8465 53.2896 33.8465ZM53.598 40.6016C52.3072 40.6016 51.2985 40.2454 50.5718 39.5331C49.8452 38.8208 49.4818 37.812 49.4818 36.5069C49.4818 35.1635 49.8165 34.1261 50.4858 33.3947C51.1598 32.6585 52.0897 32.2903 53.2753 32.2903C54.4083 32.2903 55.2904 32.613 55.9214 33.2584C56.5525 33.9038 56.868 34.7954 56.868 35.9332V36.9945H51.6977C51.7216 37.616 51.9056 38.1013 52.2498 38.4503C52.594 38.7992 53.0769 38.9737 53.6984 38.9737C54.1812 38.9737 54.6378 38.9235 55.0681 38.8231C55.4983 38.7228 55.9477 38.5626 56.4162 38.3427V40.0351C56.0338 40.2263 55.625 40.3673 55.19 40.4581C54.7549 40.5538 54.2243 40.6016 53.598 40.6016Z" fill="#344054"/>
<path d="M63.9461 38.0774C63.9461 38.8996 63.6592 39.5259 63.0856 39.9562C62.5166 40.3864 61.6633 40.6016 60.5255 40.6016C59.9423 40.6016 59.4451 40.5609 59.0339 40.4797C58.6228 40.4032 58.2379 40.2884 57.8794 40.1354V38.3283C58.2857 38.5196 58.7423 38.6797 59.2491 38.8088C59.7606 38.9379 60.21 39.0024 60.5972 39.0024C61.3908 39.0024 61.7876 38.7729 61.7876 38.314C61.7876 38.1419 61.735 38.0033 61.6298 37.8981C61.5247 37.7881 61.343 37.6662 61.0848 37.5324C60.8267 37.3937 60.4825 37.2336 60.0522 37.0519C59.4355 36.7937 58.9813 36.5547 58.6897 36.3348C58.4029 36.1149 58.1925 35.8639 58.0587 35.5818C57.9296 35.295 57.865 34.9436 57.865 34.5277C57.865 33.8154 58.1399 33.2656 58.6897 32.8784C59.2443 32.4863 60.0283 32.2903 61.0418 32.2903C62.0075 32.2903 62.9469 32.5007 63.86 32.9214L63.2003 34.499C62.7987 34.3269 62.4234 34.1859 62.0744 34.0759C61.7254 33.966 61.3693 33.911 61.006 33.911C60.3606 33.911 60.0379 34.0855 60.0379 34.4345C60.0379 34.6305 60.1406 34.8002 60.3462 34.9436C60.5566 35.087 61.0131 35.2998 61.7159 35.5818C62.3422 35.8352 62.8011 36.0719 63.0927 36.2918C63.3843 36.5117 63.5995 36.7651 63.7381 37.0519C63.8768 37.3387 63.9461 37.6806 63.9461 38.0774Z" fill="#344054"/>
</svg>
