<svg width="110" height="33" viewBox="0 0 110 33" fill="none" xmlns="http://www.w3.org/2000/svg">
<g clip-path="url(#clip0_3987_154434)">
<path d="M39.216 17.4271H45.0355C45.0355 18.0224 45.0057 18.5731 44.9611 19.0643C44.9164 19.5555 44.8123 20.002 44.6634 20.4187C44.455 21.0141 44.1723 21.535 43.815 21.9964C43.4578 22.4429 43.0262 22.8299 42.5499 23.1275C42.0737 23.4252 41.5378 23.6634 40.9574 23.8122C40.3769 23.9759 39.7667 24.0503 39.1267 24.0503C38.2485 24.0503 37.4448 23.9015 36.7155 23.6187C36.0011 23.3359 35.376 22.9192 34.855 22.4131C34.3341 21.8773 33.9323 21.2522 33.6495 20.5229C33.3667 19.7787 33.2178 18.975 33.2178 18.082C33.2178 17.2038 33.3518 16.4001 33.6346 15.6708C33.9174 14.9266 34.3341 14.3015 34.8402 13.7806C35.376 13.2596 36.0011 12.8578 36.7453 12.575C37.4895 12.2922 38.3081 12.1434 39.216 12.1434C40.3918 12.1434 41.4188 12.3964 42.3118 12.9024C43.2048 13.4085 43.9044 14.1973 44.4253 15.2689L41.642 16.415C41.389 15.7899 41.0467 15.3582 40.6299 15.0903C40.2281 14.8224 39.7518 14.6885 39.2309 14.6885C38.7992 14.6885 38.3974 14.7778 38.0402 14.9415C37.683 15.1052 37.3704 15.3285 37.1174 15.641C36.8643 15.9387 36.6709 16.3108 36.522 16.7275C36.3881 17.1592 36.3137 17.6355 36.3137 18.1564C36.3137 18.6327 36.3732 19.0792 36.4923 19.481C36.6262 19.8829 36.8048 20.2401 37.0578 20.5378C37.3109 20.8355 37.6234 21.0736 37.9806 21.2373C38.3527 21.401 38.7843 21.4755 39.2606 21.4755C39.5434 21.4755 39.8262 21.4457 40.0941 21.3862C40.362 21.3117 40.6002 21.2075 40.8085 21.0736C41.0318 20.9248 41.2104 20.7313 41.3443 20.508C41.4783 20.2848 41.5825 20.002 41.6271 19.6745H39.216V17.4271ZM59.5025 14.8224V24.0503H56.3769V14.8224H53.8467V12.1434H62.0327V14.8224H59.5025ZM72.8978 16.2215C72.2132 15.388 71.3797 14.9713 70.3825 14.9713C69.936 14.9713 69.5341 15.0457 69.1471 15.2094C68.775 15.3731 68.4625 15.5964 68.1797 15.8643C67.9118 16.1322 67.6885 16.4596 67.5397 16.8466C67.3909 17.2336 67.3164 17.6355 67.3164 18.082C67.3164 18.5285 67.3909 18.9452 67.5397 19.3322C67.7034 19.7192 67.9118 20.0466 68.1797 20.3294C68.4625 20.6122 68.7899 20.8355 69.162 20.9843C69.5341 21.148 69.936 21.2224 70.3676 21.2224C71.3053 21.2224 72.1537 20.8206 72.8978 20.0168V23.4996L72.6002 23.6038C72.1537 23.7675 71.7369 23.8717 71.335 23.9462C70.9481 24.0206 70.5611 24.0652 70.1741 24.0652C69.4002 24.0652 68.6411 23.9164 67.9267 23.6336C67.2123 23.3359 66.5871 22.9192 66.0364 22.3834C65.5006 21.8475 65.0541 21.2075 64.7267 20.4782C64.3992 19.7341 64.2355 18.9303 64.2355 18.0671C64.2355 17.2038 64.3992 16.4001 64.7118 15.6857C65.0392 14.9564 65.4709 14.3313 66.0216 13.8103C66.5723 13.2745 67.2123 12.8727 67.9267 12.575C68.6411 12.2773 69.4002 12.1285 70.189 12.1285C70.6355 12.1285 71.082 12.1731 71.5137 12.2773C71.9602 12.3666 72.4216 12.5155 72.8978 12.7089V16.2215ZM79.0299 18.0968C79.0299 18.5434 79.1192 18.9601 79.283 19.3471C79.4467 19.7341 79.6848 20.0615 79.9676 20.3443C80.2504 20.6271 80.5927 20.8503 80.9797 20.9992C81.3667 21.148 81.7834 21.2224 82.215 21.2224C82.6467 21.2224 83.0485 21.148 83.4355 20.9992C83.8225 20.8355 84.1648 20.6122 84.4625 20.3443C84.7602 20.0615 84.9983 19.7341 85.162 19.3471C85.3258 18.9601 85.415 18.5582 85.415 18.0968C85.415 17.6355 85.3258 17.2336 85.162 16.8466C84.9983 16.4596 84.7602 16.1322 84.4625 15.8494C84.1797 15.5666 83.8374 15.3582 83.4355 15.2094C83.0485 15.0457 82.6467 14.9713 82.215 14.9713C81.7834 14.9713 81.3816 15.0457 80.9797 15.2094C80.5927 15.3582 80.2653 15.5815 79.9676 15.8494C79.6848 16.1322 79.4467 16.4596 79.283 16.8466C79.1192 17.2336 79.0299 17.6503 79.0299 18.0968ZM75.9639 18.0968C75.9639 17.2634 76.1127 16.4745 76.4253 15.7601C76.7378 15.0308 77.1695 14.3908 77.7202 13.855C78.2709 13.3192 78.9257 12.8875 79.6848 12.5899C80.4588 12.2773 81.3071 12.1285 82.215 12.1285C83.1229 12.1285 83.9713 12.2773 84.7304 12.5899C85.5044 12.8875 86.1592 13.3043 86.7099 13.855C87.2755 14.3908 87.7071 15.0308 88.0197 15.7601C88.3323 16.4745 88.4811 17.2634 88.4811 18.0968C88.4811 18.9303 88.3323 19.7192 88.0197 20.4485C87.7071 21.1629 87.2755 21.8029 86.7099 22.3387C86.1592 22.8745 85.5044 23.3062 84.7304 23.6187C83.9564 23.9164 83.1229 24.0652 82.215 24.0652C81.2923 24.0652 80.4439 23.9164 79.6848 23.6187C78.9257 23.3062 78.2709 22.8894 77.7202 22.3387C77.1695 21.8029 76.7378 21.1629 76.4253 20.4485C76.1127 19.7192 75.9639 18.9452 75.9639 18.0968ZM94.6281 12.1434V24.0503H91.5025V12.1434H94.6281ZM50.8699 12.1434V24.0503H47.7443V12.1434H50.8699ZM97.9025 24.0503V12.1434H100.879L106.684 19.4215V12.1434H109.809V24.0503H106.803L101.028 16.7722V24.0503H97.9025Z" fill="#344054"/>
<path fill-rule="evenodd" clip-rule="evenodd" d="M21.2415 12.8335C22.2769 14.2846 22.8389 16.0469 22.8241 17.8238C22.8241 19.5712 22.2621 21.3185 21.2415 22.7401L23.4009 24.3837C24.7763 22.4882 25.5306 20.1783 25.5306 17.8386C25.5455 15.3656 24.7319 12.9372 23.2382 10.9825L21.9999 12.0988L21.2415 12.8335Z" fill="#344054"/>
<path fill-rule="evenodd" clip-rule="evenodd" d="M25.3237 25.8395L18.0619 20.3161C18.5796 19.6349 18.8753 18.8057 18.9197 17.9468C18.9493 17.088 18.7275 16.2439 18.269 15.5184L21.7446 12.3791L25.3829 8.97324C25.6196 8.75107 25.6343 8.36607 25.3977 8.12914L24.8949 7.62567C22.3066 5.00466 18.8162 3.47943 15.1483 3.36097L15.1632 1.3619C15.1779 1.22863 15.1632 1.09536 15.1336 0.962091C15.0892 0.828822 15.03 0.710348 14.9413 0.606697C14.8526 0.503047 14.749 0.429001 14.6159 0.369763C14.4976 0.310541 14.3645 0.280922 14.2313 0.280922C14.0983 0.280922 13.9652 0.310541 13.8469 0.369763C13.7285 0.429001 13.6102 0.503047 13.5215 0.606697C13.4327 0.710348 13.3587 0.828822 13.3292 0.947282C13.2849 1.08055 13.27 1.21382 13.2996 1.34709L13.2849 3.4054C12.4122 3.49424 11.5396 3.65713 10.6966 3.90887L10.7113 1.34709C10.7262 1.21382 10.7113 1.08055 10.6818 0.947282C10.6375 0.814013 10.5783 0.695539 10.4896 0.591888C10.4008 0.488238 10.2973 0.414192 10.1642 0.354954C10.0459 0.295732 9.91266 0.266113 9.7796 0.266113C9.64654 0.266113 9.51333 0.295732 9.39515 0.354954C9.27683 0.414192 9.1585 0.488238 9.06964 0.591888C8.98094 0.695539 8.90697 0.814013 8.8775 0.932472C8.83299 1.06574 8.81826 1.19901 8.84788 1.33229L8.80352 4.60485C5.81594 5.93756 3.36083 8.26241 1.86706 11.1796C0.373281 14.0968 -0.100007 17.4434 0.550754 20.6567C1.2015 23.8701 2.93193 26.7724 5.44619 28.8752C7.96051 30.9778 11.1255 32.1625 14.394 32.2218L24.9687 32.2661C25.2942 32.2661 25.5604 31.9995 25.5604 31.6737V26.3281C25.5604 26.1357 25.4717 25.9579 25.3237 25.8395ZM14.6012 29.6451C11.9982 29.6304 9.46898 28.7567 7.41324 27.1722C5.35745 25.5729 3.87847 23.3369 3.21293 20.8195C2.54739 18.3022 2.73966 15.6219 3.73057 13.2231C4.73628 10.8242 6.49626 8.81031 8.75917 7.50721L8.74429 11.4017C8.72955 11.535 8.74429 11.6682 8.7739 11.8014C8.81826 11.9348 8.8775 12.0533 8.9662 12.1569C9.05491 12.2606 9.1585 12.3346 9.29156 12.3938C9.40989 12.4531 9.54295 12.4827 9.67616 12.4827C9.80922 12.4827 9.94228 12.4531 10.0606 12.3938C10.1789 12.3346 10.2973 12.2606 10.386 12.1569C10.4747 12.0533 10.5486 11.9348 10.5783 11.8163C10.6226 11.6831 10.6375 11.5498 10.6079 11.4166L10.6226 6.63353C11.9242 6.15968 13.2996 5.93756 14.6899 5.93756C17.2485 5.93756 19.7332 6.78161 21.7594 8.32164C21.9073 8.4401 21.922 8.64742 21.789 8.78069L16.2576 13.8599C15.7547 13.6525 15.2075 13.5341 14.6603 13.5341C14.0539 13.5341 13.4475 13.6525 12.8855 13.9042C12.3235 14.156 11.8353 14.5262 11.436 14.9852C11.0368 15.4442 10.7409 15.9921 10.5635 16.5697C10.386 17.162 10.3416 17.7691 10.4303 18.3762C10.5192 18.9834 10.7262 19.5609 11.0516 20.0792C11.3769 20.5974 11.8206 21.0268 12.3235 21.3675C12.8412 21.6932 13.4179 21.9154 14.0243 22.0042C14.6306 22.0931 15.2519 22.0486 15.8286 21.8709L22.8983 27.2463C22.9722 27.3055 23.0166 27.3942 23.0166 27.4831L23.0017 29.3785C23.0017 29.5415 22.8686 29.6747 22.706 29.6747L14.6012 29.6451ZM16.3316 17.7987C16.3316 18.1245 16.228 18.4503 16.0506 18.7316C15.8583 19.0131 15.6069 19.2202 15.2962 19.3536C14.9856 19.4868 14.6455 19.5164 14.3349 19.4424C14.0243 19.3683 13.7137 19.2202 13.477 18.9834C13.2405 18.7465 13.0777 18.4503 13.0186 18.1245C12.9595 17.7987 12.989 17.4582 13.1222 17.162C13.2552 16.851 13.4623 16.5994 13.7433 16.4068C14.0243 16.2291 14.3496 16.1255 14.675 16.1255C15.1187 16.1255 15.5476 16.3032 15.8583 16.629C16.154 16.925 16.3316 17.3397 16.3316 17.7987Z" fill="#344054"/>
</g>
<defs>
<clipPath id="clip0_3987_154434">
<rect width="109.544" height="32" fill="white" transform="translate(0.265625 0.266113)"/>
</clipPath>
</defs>
</svg>
