<svg width="25" height="29" viewBox="0 0 25 29" fill="none" xmlns="http://www.w3.org/2000/svg">
<path d="M0 26.4076C0.00806618 26.873 0.144262 27.3274 0.393788 27.7212C0.643313 28.1151 0.996622 28.4334 1.41532 28.6416C1.83342 28.8765 2.30548 29 2.78571 29C3.26593 29 3.738 28.8765 4.1561 28.6416L23.5887 16.6894C24.0115 16.4868 24.3682 16.1697 24.6179 15.7745C24.8676 15.3793 25 14.922 25 14.4553C25 13.9886 24.8676 13.5313 24.6179 13.1361C24.3682 12.7409 24.0115 12.4238 23.5887 12.2213L4.1561 0.358381C3.738 0.123454 3.26593 0 2.78571 0C2.30548 0 1.83342 0.123454 1.41532 0.358381C0.996622 0.566571 0.643313 0.884899 0.393788 1.27877C0.144262 1.67264 0.00806618 2.12699 0 2.59244V26.4076Z" fill="url(#paint0_linear_7_42)"/>
<defs>
<linearGradient id="paint0_linear_7_42" x1="4.25539" y1="34.9697" x2="46.9497" y2="4.46117" gradientUnits="userSpaceOnUse">
<stop stop-color="#66CC6C"/>
<stop offset="1" stop-color="#3BAC4B"/>
</linearGradient>
</defs>
</svg>
