<svg width="25" height="19" viewBox="0 0 25 19" fill="none" xmlns="http://www.w3.org/2000/svg">
<path d="M20.7894 0.838867H4.8937C2.94283 0.838867 1.36133 2.42036 1.36133 4.37124V14.9684C1.36133 16.9192 2.94283 18.5007 4.8937 18.5007H20.7894C22.7403 18.5007 24.3218 16.9192 24.3218 14.9684V4.37124C24.3218 2.42036 22.7403 0.838867 20.7894 0.838867Z" stroke="white" stroke-linecap="round" stroke-linejoin="round"/>
<path d="M9.85674 13.7672V6.34922C9.85306 6.22398 9.8836 6.10011 9.94508 5.99094C10.0066 5.88177 10.0967 5.79144 10.2057 5.72967C10.3147 5.6679 10.4385 5.63703 10.5637 5.64038C10.689 5.64374 10.8109 5.68119 10.9165 5.74871L17.2747 9.4577C17.381 9.52004 17.4691 9.60906 17.5303 9.71595C17.5915 9.82283 17.6237 9.94387 17.6237 10.067C17.6237 10.1902 17.5915 10.3112 17.5303 10.4181C17.4691 10.525 17.381 10.614 17.2747 10.6764L10.9165 14.3854C10.8086 14.4476 10.6862 14.4803 10.5616 14.48C10.4371 14.4798 10.3148 14.4466 10.2072 14.3838C10.0996 14.321 10.0105 14.231 9.949 14.1227C9.88745 14.0144 9.85562 13.8917 9.85674 13.7672V13.7672Z" stroke="white" stroke-linecap="round" stroke-linejoin="round"/>
</svg>
