<svg width="23" height="25" viewBox="0 0 23 25" fill="none" xmlns="http://www.w3.org/2000/svg">
<path d="M19.0933 10.5609H14.7108C14.5914 10.5609 14.4733 10.5851 14.3632 10.6323C14.2531 10.6795 14.1534 10.7486 14.0698 10.8356C13.9862 10.9225 13.9205 11.0257 13.8764 11.1389C13.8323 11.2522 13.8108 11.3732 13.8132 11.495V14.028C13.8132 14.271 13.9078 14.5041 14.0761 14.6759C14.2444 14.8477 14.4727 14.9442 14.7108 14.9442H16.9813C16.994 15.6386 16.8632 16.3279 16.5973 16.9672C16.3314 17.6064 15.9364 18.1813 15.4382 18.6542C14.9399 19.1272 14.3496 19.4876 13.7057 19.712C13.0617 19.9363 12.3787 20.0196 11.7011 19.9564C7.7586 19.9564 5.85774 16.5431 5.85774 12.6627C5.85774 8.7824 7.8994 5.36913 11.7011 5.36913C13.3795 5.31229 15.0241 5.85911 16.3477 6.91408C16.4534 6.98475 16.5732 7.03081 16.6983 7.04901C16.8235 7.06721 16.951 7.05709 17.072 7.01938C17.1929 6.98168 17.3042 6.91729 17.398 6.8308C17.4918 6.7443 17.5659 6.63781 17.6149 6.51886L18.7237 3.93197C18.8149 3.7413 18.8385 3.52423 18.7903 3.31782C18.7422 3.11141 18.6253 2.92846 18.4597 2.8002C16.4414 1.56836 14.1224 0.945485 11.7715 1.00374C5.36493 0.985778 1 6.06975 1 12.6627C1 19.2557 5.38253 24.3397 11.7011 24.3397C18.0197 24.3397 21.839 19.7408 21.839 13.561C21.839 11.5849 21.0646 10.5609 19.0933 10.5609Z" stroke="white" stroke-linecap="round" stroke-linejoin="round"/>
</svg>
