<svg width="36" height="36" viewBox="0 0 36 36" fill="none" xmlns="http://www.w3.org/2000/svg">
<path d="M17.9999 20.6154C21.611 20.6154 24.5383 17.688 24.5383 14.0769C24.5383 10.4658 21.611 7.53845 17.9999 7.53845C14.3888 7.53845 11.4614 10.4658 11.4614 14.0769C11.4614 17.688 14.3888 20.6154 17.9999 20.6154Z" stroke="url(#paint0_linear_49_172)" stroke-width="1.5" stroke-linecap="round" stroke-linejoin="round"/>
<path d="M6.83252 30.8154C7.99961 28.8997 9.63989 27.3164 11.5957 26.2178C13.5515 25.1191 15.757 24.5421 18.0002 24.5421C20.2434 24.5421 22.449 25.1191 24.4047 26.2178C26.3605 27.3164 28.0008 28.8997 29.1679 30.8154" stroke="url(#paint1_linear_49_172)" stroke-width="1.5" stroke-linecap="round" stroke-linejoin="round"/>
<path d="M18 35C27.3888 35 35 27.3888 35 18C35 8.61116 27.3888 1 18 1C8.61116 1 1 8.61116 1 18C1 27.3888 8.61116 35 18 35Z" stroke="url(#paint2_linear_49_172)" stroke-width="1.5" stroke-linecap="round" stroke-linejoin="round"/>
<defs>
<linearGradient id="paint0_linear_49_172" x1="13.6873" y1="23.3073" x2="33.6837" y2="6.73198" gradientUnits="userSpaceOnUse">
<stop stop-color="#269E38"/>
<stop offset="1" stop-color="#FFBE0B"/>
</linearGradient>
<linearGradient id="paint1_linear_49_172" x1="10.6344" y1="32.1068" x2="16.5687" y2="14.5932" gradientUnits="userSpaceOnUse">
<stop stop-color="#269E38"/>
<stop offset="1" stop-color="#FFBE0B"/>
</linearGradient>
<linearGradient id="paint2_linear_49_172" x1="6.78734" y1="41.999" x2="58.778" y2="-1.09683" gradientUnits="userSpaceOnUse">
<stop stop-color="#269E38"/>
<stop offset="1" stop-color="#FFBE0B"/>
</linearGradient>
</defs>
</svg>
