<svg width="36" height="36" viewBox="0 0 36 36" fill="none" xmlns="http://www.w3.org/2000/svg">
<path d="M18 35C27.3888 35 35 27.3888 35 18C35 8.61116 27.3888 1 18 1C8.61116 1 1 8.61116 1 18C1 27.3888 8.61116 35 18 35Z" stroke="url(#paint0_linear_49_173)" stroke-width="1.5" stroke-linecap="round" stroke-linejoin="round"/>
<path d="M16.6923 23.2308C20.3034 23.2308 23.2307 20.3034 23.2307 16.6923C23.2307 13.0812 20.3034 10.1539 16.6923 10.1539C13.0812 10.1539 10.1538 13.0812 10.1538 16.6923C10.1538 20.3034 13.0812 23.2308 16.6923 23.2308Z" stroke="url(#paint1_linear_49_173)" stroke-width="1.5" stroke-linecap="round" stroke-linejoin="round"/>
<path d="M25.8459 25.8462L21.3213 21.3216" stroke="url(#paint2_linear_49_173)" stroke-width="1.5" stroke-linecap="round" stroke-linejoin="round"/>
<defs>
<linearGradient id="paint0_linear_49_173" x1="6.78734" y1="41.999" x2="58.778" y2="-1.09683" gradientUnits="userSpaceOnUse">
<stop stop-color="#139028"/>
<stop offset="1" stop-color="#FFBE0B"/>
</linearGradient>
<linearGradient id="paint1_linear_49_173" x1="12.3797" y1="25.9227" x2="32.3761" y2="9.3474" gradientUnits="userSpaceOnUse">
<stop stop-color="#139028"/>
<stop offset="1" stop-color="#FFBE0B"/>
</linearGradient>
<linearGradient id="paint2_linear_49_173" x1="22.0914" y1="26.7776" x2="29.0102" y2="21.0426" gradientUnits="userSpaceOnUse">
<stop stop-color="#139028"/>
<stop offset="1" stop-color="#FFBE0B"/>
</linearGradient>
</defs>
</svg>
