<svg width="32" height="45" viewBox="0 0 32 45" fill="none" xmlns="http://www.w3.org/2000/svg">
<path d="M13.2594 28.0192C18.4849 28.0192 22.7209 23.7831 22.7209 18.5577C22.7209 13.3322 18.4849 9.09613 13.2594 9.09613C8.03393 9.09613 3.79785 13.3322 3.79785 18.5577C3.79785 23.7831 8.03393 28.0192 13.2594 28.0192Z" stroke="url(#paint0_linear_49_159)" stroke-width="3" stroke-linecap="round" stroke-linejoin="round"/>
<path d="M13.2593 35.1154V43" stroke="url(#paint1_linear_49_159)" stroke-width="3" stroke-linecap="round" stroke-linejoin="round"/>
<path d="M8.52832 42.9999H17.9899" stroke="url(#paint2_linear_49_159)" stroke-width="3" stroke-linecap="round" stroke-linejoin="round"/>
<path d="M13.2592 2C15.9556 2.00035 18.6111 2.65919 20.9949 3.91927C23.3787 5.17934 25.4187 7.00251 26.9376 9.23034C28.4565 11.4582 29.4084 14.0232 29.7105 16.7026C30.0126 19.382 29.6558 22.0946 28.671 24.6047C27.6863 27.1148 26.1035 29.3465 24.0601 31.1057C22.0167 32.8649 19.5746 34.0985 16.946 34.6992C14.3174 35.3 11.5819 35.2496 8.97715 34.5527C6.37243 33.8557 3.97733 32.5332 2 30.7" stroke="url(#paint3_linear_49_159)" stroke-width="3" stroke-linecap="round" stroke-linejoin="round"/>
<defs>
<linearGradient id="paint0_linear_49_159" x1="7.01886" y1="31.9146" x2="35.9548" y2="7.92912" gradientUnits="userSpaceOnUse">
<stop stop-color="#4CBA56"/>
<stop offset="1" stop-color="#AAFFA3"/>
</linearGradient>
<linearGradient id="paint1_linear_49_159" x1="13.4295" y1="44.623" x2="15.9811" y2="44.3548" gradientUnits="userSpaceOnUse">
<stop stop-color="#4CBA56"/>
<stop offset="1" stop-color="#AAFFA3"/>
</linearGradient>
<linearGradient id="paint2_linear_49_159" x1="10.1388" y1="44.2058" x2="10.5293" y2="41.1433" gradientUnits="userSpaceOnUse">
<stop stop-color="#4CBA56"/>
<stop offset="1" stop-color="#AAFFA3"/>
</linearGradient>
<linearGradient id="paint3_linear_49_159" x1="6.73451" y1="41.9322" x2="55.0639" y2="8.2837" gradientUnits="userSpaceOnUse">
<stop stop-color="#4CBA56"/>
<stop offset="1" stop-color="#AAFFA3"/>
</linearGradient>
</defs>
</svg>
