<svg width="64" height="65" viewBox="0 0 64 65" fill="none" xmlns="http://www.w3.org/2000/svg">
<path d="M49.5979 38.0049L58.6646 43.3382V54.0049L49.5979 59.3382L40.5312 54.0049V43.3382L49.5979 38.0049Z" stroke="url(#paint0_linear_4545_152994)" stroke-width="3" stroke-linecap="round" stroke-linejoin="round"/>
<path d="M31.9974 57.2713C28.721 57.2713 23.402 55.871 21.5007 55.3394C21.0371 55.2098 20.5506 55.1852 20.0778 55.2758L14.3811 56.3674C12.2031 56.7848 10.3407 54.7762 10.9211 52.6358L12.5325 46.6939C12.7445 45.9122 12.6281 45.0798 12.2714 44.3527C11.6401 43.0659 10.7307 40.8957 10.7307 39.0713C10.7307 37.3729 11.5188 35.3749 12.1369 34.0689C12.5593 33.1764 12.6141 32.1382 12.2497 31.2205C11.6195 29.6332 10.7307 27.0749 10.7307 25.2713C10.7307 23.6928 11.4115 22.1745 12.0039 21.1521C12.4898 20.3135 12.7135 19.3161 12.4598 18.3806L10.9211 12.7068C10.3407 10.5664 12.2031 8.5578 14.3811 8.97516L20.0778 10.0667C20.5506 10.1573 21.0371 10.1328 21.5007 10.0032C23.402 9.47159 28.721 8.07129 31.9974 8.07129C35.1863 8.07129 39.6468 9.39776 41.3907 9.95877C41.879 10.1158 42.396 10.1582 42.9012 10.0699L49.6839 8.88385C51.8476 8.5055 53.6709 10.5042 53.096 12.6242L51.4921 18.5387C51.2628 19.3844 51.4198 20.285 51.8444 21.0515C52.4645 22.1709 53.2641 23.8832 53.2641 25.2713C53.2641 27.4585 52.627 29.4885 52.0491 30.8046" stroke="url(#paint1_linear_4545_152994)" stroke-width="3" stroke-linecap="round" stroke-linejoin="round"/>
<path d="M42.7323 32.4713V19.0713C42.7323 18.519 42.2846 18.0713 41.7323 18.0713H22.2656C21.7133 18.0713 21.2656 18.519 21.2656 19.0713V46.2713C21.2656 46.8236 21.7133 47.2713 22.2656 47.2713H31.599" stroke="url(#paint2_linear_4545_152994)" stroke-width="3" stroke-linecap="round" stroke-linejoin="round"/>
<defs>
<linearGradient id="paint0_linear_4545_152994" x1="40.6062" y1="43.3382" x2="57.4468" y2="52.1108" gradientUnits="userSpaceOnUse">
<stop stop-color="#FE5170"/>
<stop offset="1" stop-color="#F87AA3"/>
</linearGradient>
<linearGradient id="paint1_linear_4545_152994" x1="9.84864" y1="20.3713" x2="50.1211" y2="42.778" gradientUnits="userSpaceOnUse">
<stop stop-color="#FE5170"/>
<stop offset="1" stop-color="#F87AA3"/>
</linearGradient>
<linearGradient id="paint2_linear_4545_152994" x1="21.3543" y1="25.3713" x2="42.4238" y2="34.8639" gradientUnits="userSpaceOnUse">
<stop stop-color="#FE5170"/>
<stop offset="1" stop-color="#F87AA3"/>
</linearGradient>
</defs>
</svg>
