<svg width="14" height="25" viewBox="0 0 14 25" fill="none" xmlns="http://www.w3.org/2000/svg">
<path d="M8.88313 7.2603C8.88313 5.46247 9.75531 5.46247 10.6275 5.46247H11.6741C11.8488 5.46488 12.0223 5.43119 12.1842 5.36338C12.3461 5.29557 12.4932 5.19502 12.6167 5.06766C12.7403 4.9403 12.8379 4.78871 12.9037 4.62184C12.9695 4.45498 13.0022 4.27621 12.9998 4.09611V2.40615C12.9998 2.2252 12.965 2.04604 12.8973 1.87908C12.8295 1.71213 12.7303 1.5607 12.6054 1.43358C12.4804 1.30647 12.3322 1.2062 12.1693 1.1386C12.0065 1.071 11.8322 1.03742 11.6567 1.0398L9.17967 1.00384C8.45844 0.97509 7.73973 1.10798 7.07317 1.39334C6.4066 1.67869 5.80806 2.10972 5.31883 2.65667C4.82961 3.20363 4.46136 3.85347 4.23951 4.56137C4.01766 5.26926 3.94748 6.01834 4.03383 6.75691V9.36376H2.65579C2.30419 9.36376 1.96699 9.50772 1.71837 9.76396C1.46975 10.0202 1.33008 10.3677 1.33008 10.7301V12.4201C1.33008 12.7825 1.46975 13.13 1.71837 13.3862C1.96699 13.6425 2.30419 13.7864 2.65579 13.7864H4.03383V23.4408C4.03383 23.6792 4.12572 23.9078 4.28928 24.0764C4.45285 24.245 4.67469 24.3397 4.90601 24.3397H8.06329C8.28542 24.3259 8.49404 24.2252 8.64645 24.0581C8.79886 23.891 8.88354 23.6701 8.88313 23.4408V13.7864H10.4182C10.7698 13.7864 11.107 13.6425 11.3556 13.3862C11.6042 13.13 11.7439 12.7825 11.7439 12.4201V10.7301C11.7439 10.3677 11.6042 10.0202 11.3556 9.76396C11.107 9.50772 10.7698 9.36376 10.4182 9.36376H8.88313V7.2603Z" stroke="white" stroke-linecap="round" stroke-linejoin="round"/>
</svg>
