<svg width="24" height="21" viewBox="0 0 24 21" fill="none" xmlns="http://www.w3.org/2000/svg">
<path d="M6.8395 14.8926C5.57968 15.88 4.13368 16.6044 2.58754 17.0227C2.41724 17.0844 2.2701 17.1969 2.16612 17.345C2.06214 17.493 2.00636 17.6694 2.00636 17.8502C2.00636 18.0309 2.06214 18.2073 2.16612 18.3554C2.2701 18.5034 2.41724 18.6159 2.58754 18.6776C14.7965 23.6774 22.5594 15.9488 21.3773 7.37529L23.3533 3.29097H21.0597C18.2016 -0.21239 10.6151 -0.0363416 11.8677 7.42811C11.8677 7.42811 7.80986 8.14991 2.62283 3.06211C2.50284 2.9439 2.35142 2.86249 2.18649 2.8275C2.02157 2.79252 1.85005 2.80543 1.69225 2.86471C1.53445 2.92399 1.39698 3.02715 1.29613 3.16198C1.19527 3.2968 1.13525 3.45765 1.12318 3.62546C0.574712 5.8751 0.849187 8.24621 1.89718 10.3118C2.94516 12.3775 4.6978 14.0019 6.8395 14.8926V14.8926Z" stroke="white" stroke-linecap="round" stroke-linejoin="round"/>
</svg>
