<svg width="123" height="41" viewBox="0 0 123 41" fill="none" xmlns="http://www.w3.org/2000/svg">
<path d="M29.7915 2.88582C28.9462 2.44486 27.9034 2.7727 27.4624 3.61807C27.0214 4.46345 27.3493 5.50623 28.1947 5.94719L29.7915 2.88582ZM12.9258 5.94719C13.7712 5.50623 14.099 4.46345 13.6581 3.61807C13.2171 2.7727 12.1743 2.44486 11.329 2.88582L12.9258 5.94719ZM37.105 20.6427C37.105 29.7896 29.6963 37.2023 20.5602 37.2023V40.6551C31.6059 40.6551 40.5578 31.6939 40.5578 20.6427H37.105ZM20.5602 37.2023C11.4241 37.2023 4.01547 29.7896 4.01547 20.6427H0.562652C0.562652 31.6939 9.51455 40.6551 20.5602 40.6551V37.2023ZM28.1947 5.94719C33.4928 8.71081 37.105 14.2556 37.105 20.6427H40.5578C40.5578 12.9201 36.1863 6.22144 29.7915 2.88582L28.1947 5.94719ZM4.01547 20.6427C4.01547 14.2556 7.62765 8.71081 12.9258 5.94719L11.329 2.88582C4.9342 6.22144 0.562652 12.9201 0.562652 20.6427H4.01547Z" fill="#344054"/>
<path d="M31.5623 18.2995L30.1279 19.2601L31.5623 18.2995ZM9.56555 18.2995L11 19.2601L9.56555 18.2995ZM9.91774 17.7989L8.52898 16.7733V16.7733L9.91774 17.7989ZM31.2101 17.7989L32.5989 16.7733L31.2101 17.7989ZM11.8053 18.1959C12.4234 17.4699 12.336 16.3803 11.61 15.7622C10.884 15.1441 9.79444 15.2315 9.17632 15.9575L11.8053 18.1959ZM31.9516 15.9575C31.3334 15.2315 30.2438 15.1441 29.5179 15.7622C28.7919 16.3803 28.7045 17.4699 29.3226 18.1959L31.9516 15.9575ZM32.0733 25.681C32.0733 32.0562 26.917 37.2181 20.5639 37.2181V40.6709C28.8308 40.6709 35.5262 33.9563 35.5262 25.681H32.0733ZM20.5639 37.2181C14.2109 37.2181 9.05454 32.0562 9.05454 25.681H5.60171C5.60171 33.9563 12.2971 40.6709 20.5639 40.6709V37.2181ZM30.1279 19.2601C31.3564 21.0947 32.0733 23.3012 32.0733 25.681H35.5262C35.5262 22.5965 34.5944 19.7246 32.9968 17.3389L30.1279 19.2601ZM9.05454 25.681C9.05454 23.3012 9.77147 21.0947 11 19.2601L8.13107 17.3389C6.5335 19.7246 5.60171 22.5965 5.60171 25.681H9.05454ZM11 19.2601C11.0989 19.1125 11.2011 18.9673 11.3065 18.8245L8.52898 16.7733C8.39215 16.9586 8.25946 17.1472 8.13107 17.3389L11 19.2601ZM29.8214 18.8245C29.9268 18.9673 30.029 19.1125 30.1279 19.2601L32.9968 17.3389C32.8684 17.1472 32.7357 16.9586 32.5989 16.7733L29.8214 18.8245ZM11.3065 18.8245C11.4656 18.6091 11.632 18.3994 11.8053 18.1959L9.17632 15.9575C8.9514 16.2216 8.73546 16.4937 8.52898 16.7733L11.3065 18.8245ZM29.3226 18.1959C29.4959 18.3994 29.6623 18.6091 29.8214 18.8245L32.5989 16.7733C32.3924 16.4937 32.1765 16.2216 31.9516 15.9575L29.3226 18.1959Z" fill="#344054"/>
<circle cx="20.559" cy="3.84118" r="3.30895" fill="#344054"/>
<path d="M20.5625 33.6217C24.7736 33.6217 28.1875 30.2079 28.1875 25.9967C28.1875 24.8393 27.9296 23.7421 27.4681 22.7594C27.4681 22.7594 23.086 14.0928 22.6124 13.4802C22.1388 12.8676 21.3967 12.4731 20.5625 12.4731C19.7282 12.4731 18.9861 12.8676 18.5125 13.4802C18.0389 14.0928 14.3042 21.1052 13.6568 22.7594C13.0094 24.4136 12.9375 24.8393 12.9375 25.9967C12.9375 30.2079 16.3513 33.6217 20.5625 33.6217Z" fill="#344054"/>
<path d="M52.7315 20.448L58.2455 14.7964H61.0989L54.6949 21.2095L61.1356 28.9622H58.2731L53.1719 22.6592L52.7315 23.0995V28.9622H50.5938V14.7964H52.7315V20.448Z" fill="#344054"/>
<path d="M71.8095 16.8056H66.1303V20.2095H71.6444V22.2188H66.1303V26.953H71.8095V28.9622H63.9926V14.7964H71.8095V16.8056Z" fill="#344054"/>
<path d="M80.3549 22.9252L84.7405 28.9622H82.1257L78.0796 23.1638H77.6943V28.9622H75.5565V14.7964H78.0612C79.9329 14.7964 81.2847 15.1481 82.1165 15.8515C83.034 16.6344 83.4927 17.6681 83.4927 18.9525C83.4927 19.9557 83.2053 20.8181 82.6303 21.5398C82.0553 22.2616 81.2969 22.7234 80.3549 22.9252ZM77.6943 21.3013H78.3732C80.3978 21.3013 81.41 20.5275 81.41 18.9801C81.41 17.5304 80.4253 16.8056 78.4558 16.8056H77.6943V21.3013Z" fill="#344054"/>
<path d="M87.8177 28.9622V13.833L98.1485 24.6409V14.7964H100.286V29.8247L89.9555 19.0443V28.9622H87.8177Z" fill="#344054"/>
<path d="M112.447 16.8056H106.767V20.2095H112.281V22.2188H106.767V26.953H112.447V28.9622H104.63V14.7964H112.447V16.8056Z" fill="#344054"/>
<path d="M118.331 14.7964V26.953H122.497V28.9622H116.194V14.7964H118.331Z" fill="#344054"/>
</svg>
