<svg width="144" height="25" viewBox="0 0 144 25" fill="none" xmlns="http://www.w3.org/2000/svg">
<g clip-path="url(#clip0_3994_148821)">
<path fill-rule="evenodd" clip-rule="evenodd" d="M43.7232 20.9321L37.2672 13.4681V20.9321H34.5312V4.25215H37.2672V11.8601L43.7472 4.25215H47.1792L39.9312 12.6041L47.2992 20.9321H43.7232ZM51.0147 3.17215V20.9321H48.2787V3.17215H51.0147ZM54.5588 5.95615C54.0629 5.95615 53.6468 5.78815 53.3108 5.45215C52.9748 5.11615 52.8068 4.70023 52.8068 4.20415C52.8068 3.70807 52.9748 3.29215 53.3108 2.95615C53.6468 2.62015 54.0629 2.45215 54.5588 2.45215C55.0388 2.45215 55.4468 2.62015 55.7828 2.95615C56.1188 3.29215 56.2868 3.70807 56.2868 4.20415C56.2868 4.70023 56.1188 5.11615 55.7828 5.45215C55.4468 5.78815 55.0388 5.95615 54.5588 5.95615ZM55.9028 7.70815V20.9321H53.1668V7.70815H55.9028ZM74.0631 7.49215C75.103 7.49215 76.0311 7.70815 76.8471 8.14015C77.6789 8.57215 78.3269 9.21223 78.7911 10.0601C79.2711 10.9081 79.5111 11.9321 79.5111 13.1321V20.9321H76.7991V13.5401C76.7991 12.3562 76.5029 11.4521 75.9111 10.8281C75.319 10.1881 74.5109 9.86815 73.4871 9.86815C72.463 9.86815 71.647 10.1881 71.0391 10.8281C70.447 11.4521 70.1511 12.3562 70.1511 13.5401V20.9321H67.4391V13.5401C67.4391 12.3562 67.1429 11.4521 66.5511 10.8281C65.959 10.1881 65.1509 9.86815 64.1271 9.86815C63.103 9.86815 62.287 10.1881 61.6791 10.8281C61.087 11.4521 60.7911 12.3562 60.7911 13.5401V20.9321H58.0551V7.70815H60.7911V9.22015C61.2389 8.67607 61.807 8.25223 62.4951 7.94815C63.1829 7.64407 63.919 7.49215 64.7031 7.49215C65.7591 7.49215 66.703 7.71607 67.5351 8.16415C68.3669 8.61223 69.007 9.26023 69.4551 10.1081C69.8549 9.30823 70.4789 8.67607 71.3271 8.21215C72.175 7.73215 73.087 7.49215 74.0631 7.49215ZM80.6405 14.2601C80.6405 12.9322 80.9124 11.7562 81.4565 10.7321C82.0164 9.70807 82.7686 8.91607 83.7125 8.35615C84.6725 7.78015 85.728 7.49215 86.88 7.49215C87.9216 7.49215 88.824 7.70023 89.592 8.11615C90.3768 8.51623 91.0008 9.02023 91.464 9.62815V7.70815H94.224V20.9321H91.464V18.9641C91.0008 19.5881 90.3696 20.1082 89.568 20.5241C88.7688 20.9401 87.8568 21.1481 86.832 21.1481C85.6968 21.1481 84.6564 20.8601 83.7125 20.2841C82.7686 19.6921 82.0164 18.8761 81.4565 17.8361C80.9124 16.7801 80.6405 15.5881 80.6405 14.2601ZM91.464 14.3081C91.464 13.3961 91.272 12.6041 90.888 11.9321C90.5208 11.2601 90.0336 10.7482 89.424 10.3961C88.8168 10.0441 88.1616 9.86815 87.456 9.86815C86.7528 9.86815 86.0976 10.0441 85.488 10.3961C84.8808 10.7321 84.3845 11.2361 84.0005 11.9081C83.6326 12.5641 83.4485 13.3481 83.4485 14.2601C83.4485 15.1721 83.6326 15.9721 84.0005 16.6601C84.3845 17.3482 84.8808 17.8762 85.488 18.2441C86.112 18.5962 86.7696 18.7721 87.456 18.7721C88.1616 18.7721 88.8168 18.5962 89.424 18.2441C90.0336 17.8921 90.5208 17.3801 90.888 16.7081C91.272 16.0201 91.464 15.2201 91.464 14.3081ZM101.827 4.25215C103.603 4.25215 105.154 4.59607 106.483 5.28415C107.827 5.95615 108.859 6.93223 109.579 8.21215C110.314 9.47623 110.683 10.9561 110.683 12.6521C110.683 14.3482 110.314 15.8201 109.579 17.0681C108.859 18.3161 107.827 19.2761 106.483 19.9481C105.154 20.6041 103.603 20.9321 101.827 20.9321H96.3792V4.25215H101.827ZM101.827 18.7001C103.778 18.7001 105.274 18.1721 106.315 17.1161C107.354 16.0601 107.875 14.5721 107.875 12.6521C107.875 10.7161 107.354 9.20407 106.315 8.11615C105.274 7.02823 103.778 6.48415 101.827 6.48415H99.1152V18.7001H101.827ZM122.009 17.5241H115.025L113.825 20.9321H110.969L116.945 4.22815H120.113L126.089 20.9321H123.209L122.009 17.5241ZM121.241 15.2921L118.529 7.54015L115.793 15.2921H121.241ZM134.856 21.1001C133.303 21.1001 131.873 20.7401 130.56 20.0201C129.264 19.2841 128.232 18.2681 127.464 16.9721C126.713 15.6601 126.336 14.1881 126.336 12.5561C126.336 10.9241 126.713 9.46015 127.464 8.16415C128.232 6.86815 129.264 5.86015 130.56 5.14015C131.873 4.40407 133.303 4.03615 134.856 4.03615C136.423 4.03615 137.856 4.40407 139.152 5.14015C140.465 5.86015 141.497 6.86815 142.248 8.16415C142.999 9.46015 143.376 10.9241 143.376 12.5561C143.376 14.1881 142.999 15.6601 142.248 16.9721C141.497 18.2681 140.465 19.2841 139.152 20.0201C137.856 20.7401 136.423 21.1001 134.856 21.1001ZM134.856 18.7241C135.96 18.7241 136.944 18.4762 137.808 17.9801C138.672 17.4682 139.344 16.7482 139.824 15.8201C140.321 14.8762 140.568 13.7881 140.568 12.5561C140.568 11.3242 140.321 10.2442 139.824 9.31615C139.344 8.38807 138.672 7.67623 137.808 7.18015C136.944 6.68407 135.96 6.43615 134.856 6.43615C133.752 6.43615 132.768 6.68407 131.904 7.18015C131.04 7.67623 130.361 8.38807 129.864 9.31615C129.384 10.2442 129.144 11.3242 129.144 12.5561C129.144 13.7881 129.384 14.8762 129.864 15.8201C130.361 16.7482 131.04 17.4682 131.904 17.9801C132.768 18.4762 133.752 18.7241 134.856 18.7241Z" fill="#344054"/>
<path fill-rule="evenodd" clip-rule="evenodd" d="M24.2904 11.6156H2.23828V13.4571H24.2904V11.6156Z" fill="#344054"/>
<path fill-rule="evenodd" clip-rule="evenodd" d="M7.83665 22.7213V24.4262H0.632812L8.07401 13.343H11.105L13.265 16.5715L15.4022 13.343H18.4783L25.7159 24.4262H18.6592V22.7213H22.6398L16.895 14.0707L13.265 19.5953L9.60089 14.0479L3.84449 22.7213H7.83665Z" fill="#344054"/>
<path fill-rule="evenodd" clip-rule="evenodd" d="M0.632812 0.532227L8.07401 11.6154H11.105L13.265 8.38719L15.4022 11.6154H18.4783L25.7159 0.532227H0.632812ZM3.84473 2.23743H22.6398L16.895 10.8877L13.265 5.36343L9.60089 10.9105L3.84473 2.23743Z" fill="#344054"/>
</g>
<defs>
<clipPath id="clip0_3994_148821">
<rect width="142.8" height="24" fill="white" transform="translate(0.632812 0.532227)"/>
</clipPath>
</defs>
</svg>
