<svg width="116" height="37" viewBox="0 0 116 37" fill="none" xmlns="http://www.w3.org/2000/svg">
<g clip-path="url(#clip0_3987_154458)">
<path d="M45.2734 22.9811V11.3872H47.4519V18.4949L51.0334 14.0272H53.7657L50.0919 18.4949L53.7842 22.9811H51.0519L47.4519 18.4949V22.9811C47.4519 22.9811 45.2734 22.9811 45.2734 22.9811Z" fill="#344054"/>
<path d="M61.3888 18.4951C61.3888 17.7382 61.1303 17.092 60.595 16.5566C60.0596 16.0213 59.4319 15.7443 58.675 15.7443C57.918 15.7443 57.2903 16.0213 56.755 16.5566C56.2196 17.092 55.9611 17.7382 55.9611 18.4951C55.9611 19.2705 56.2196 19.9166 56.755 20.4705C57.2903 21.0059 57.918 21.2828 58.675 21.2828C59.4503 21.2828 60.078 21.0059 60.595 20.4705C61.1303 19.9166 61.3888 19.2705 61.3888 18.4951ZM63.6596 18.4951C63.6596 19.8428 63.1611 20.9689 62.1826 21.8736C61.1857 22.7782 60.0226 23.2397 58.675 23.2397C57.3457 23.2397 56.1642 22.7782 55.1673 21.8736C54.1703 20.9505 53.6719 19.8243 53.6719 18.4951C53.6719 17.1659 54.1703 16.0397 55.1488 15.1351C56.1457 14.212 57.3088 13.7505 58.6565 13.7505C60.0042 13.7505 61.1673 14.212 62.1642 15.1351C63.1611 16.0582 63.6596 17.1659 63.6596 18.4951Z" fill="#344054"/>
<path d="M64.9688 22.9812V10.8335H67.1472V22.9812H64.9688Z" fill="#344054"/>
<path d="M78.0978 18.4952C78.0978 18.7906 78.0609 19.1229 77.9686 19.4921H70.7871C70.9348 20.0275 71.2671 20.4706 71.7471 20.8213C72.2271 21.1721 72.744 21.3383 73.2978 21.3383C73.7963 21.3383 74.2948 21.209 74.7378 20.969C75.1994 20.729 75.5501 20.4152 75.7901 20.0275L77.2671 21.3383C76.8055 21.929 76.2332 22.3906 75.5501 22.7413C74.8486 23.0737 74.1102 23.2398 73.2978 23.2398C71.9502 23.2398 70.7871 22.7783 69.864 21.8737C68.9225 20.9506 68.4609 19.8244 68.4609 18.4952C68.4609 17.1475 68.9409 16.0213 69.864 15.1352C70.824 14.2306 71.9502 13.769 73.2978 13.769C74.6086 13.769 75.7532 14.2306 76.6763 15.1537C77.6548 16.0767 78.0978 17.166 78.0978 18.4952ZM70.8425 17.6275H75.7901C75.6609 17.0552 75.3655 16.5752 74.904 16.206C74.4425 15.8367 73.9255 15.6521 73.3348 15.6521C72.744 15.6521 72.2271 15.8367 71.7471 16.2244C71.2855 16.5752 70.9717 17.0552 70.8425 17.6275Z" fill="#344054"/>
<path d="M79.4297 22.9812V10.8335H81.6082V18.495L85.1897 14.0273H87.922L84.2482 18.495L87.9405 22.9812H85.2082L81.6082 18.495V22.9812H79.4297Z" fill="#344054"/>
<path d="M88.2891 15.8368V14.0276H89.1198V11.9414H91.2798V14.046H92.7936V15.8553H91.2798V20.6368C91.2798 20.8214 91.3537 20.9876 91.5014 21.1168C91.649 21.246 91.8337 21.3199 92.0183 21.3199C92.2767 21.3199 92.4613 21.2829 92.5906 21.1906L93.0152 22.926C92.5721 23.1476 92.0367 23.2583 91.409 23.2583C90.726 23.2583 90.1721 23.0368 89.7475 22.5937C89.3229 22.1506 89.1014 21.5783 89.1014 20.8768V15.8368H88.2891Z" fill="#344054"/>
<path d="M93.9375 14.0274H96.1159V22.9812H93.9375V14.0274ZM94.1221 12.9751C93.8636 12.7166 93.7344 12.4212 93.7344 12.052C93.7344 11.7012 93.8636 11.3874 94.1221 11.1289C94.3805 10.8704 94.6944 10.7412 95.0452 10.7412C95.4144 10.7412 95.7098 10.8704 95.9682 11.1289C96.2267 11.3874 96.3559 11.6828 96.3559 12.052C96.3559 12.4028 96.2267 12.7166 95.9682 12.9751C95.7098 13.2335 95.4144 13.3628 95.0452 13.3628C94.6759 13.3628 94.3805 13.2335 94.1221 12.9751Z" fill="#344054"/>
<path d="M113.118 18.4951C113.118 17.7382 112.86 17.092 112.324 16.5566C111.789 16.0213 111.161 15.7443 110.404 15.7443C109.647 15.7443 109.02 16.0213 108.484 16.5566C107.949 17.092 107.691 17.7382 107.691 18.4951C107.691 19.2705 107.949 19.9166 108.484 20.4705C109.02 21.0059 109.647 21.2828 110.404 21.2828C111.18 21.2828 111.807 21.0059 112.324 20.4705C112.86 19.9166 113.118 19.2705 113.118 18.4951ZM115.37 18.4951C115.37 19.8428 114.872 20.9689 113.894 21.8736C112.897 22.7782 111.734 23.2397 110.386 23.2397C109.057 23.2397 107.875 22.7782 106.878 21.8736C105.881 20.9505 105.383 19.8243 105.383 18.4951C105.383 17.1659 105.881 16.0397 106.86 15.1351C107.857 14.212 109.02 13.7505 110.367 13.7505C111.715 13.7505 112.878 14.212 113.875 15.1351C114.891 16.0582 115.37 17.1659 115.37 18.4951Z" fill="#344054"/>
<path d="M103.426 14.0273L101.303 18.6058H101.248L99.1244 14.0273H96.8906L101.266 23.1104L105.678 14.0273H103.426Z" fill="#344054"/>
<path d="M27.5119 18.6983L34.7119 25.8983C34.3427 26.7106 33.9181 27.5044 33.4381 28.2613L23.875 18.6983L33.5488 9.02441C34.0104 9.78134 34.435 10.5752 34.8042 11.4244L27.5119 18.6983Z" fill="#344054"/>
<path d="M17.6953 34.3167L19.8368 36.4582C20.8892 36.3659 21.9415 36.1813 22.9199 35.9229L17.6953 30.6982V34.3167Z" fill="#344054"/>
<path d="M17.6953 13.9724L28.1445 3.52317C27.4061 3.02471 26.6492 2.58163 25.8184 2.2124L17.6953 10.3539V13.9724Z" fill="#344054"/>
<path d="M17.6953 6.71673L23.1968 1.19673C22.2184 0.919803 21.203 0.698265 20.1692 0.605957L17.6953 3.0798V6.71673Z" fill="#344054"/>
<path d="M17.6953 27.0613L25.6153 34.9813C26.4276 34.6121 27.2215 34.169 27.9599 33.7075L17.6953 23.4429V27.0613Z" fill="#344054"/>
<path d="M32.0215 6.93844C31.4492 6.27382 30.8584 5.66459 30.2122 5.09229L17.6953 17.5907V19.8061L30.0276 32.1384C30.6922 31.5661 31.283 30.9569 31.8553 30.3107L20.243 18.6984L32.0215 6.93844Z" fill="#344054"/>
<path d="M17.6912 34.3168V36.5322C16.8235 36.5138 15.9742 36.403 15.125 36.2553V0.80915C15.9558 0.661457 16.8235 0.56915 17.6912 0.532227V3.07992" fill="#344054"/>
<path d="M17.6912 0.532227C16.8235 0.550688 15.9742 0.661457 15.125 0.80915V36.2738C15.9558 36.4215 16.8235 36.5138 17.6912 36.5507V34.3353V30.7168V27.0984V23.4799V19.8615V17.6461V13.9722V10.3538V6.71684V3.07992V0.532227Z" fill="#344054"/>
<path d="M34.7669 18.6986L36.1884 20.1201C36.0961 21.1724 35.9115 22.2247 35.653 23.2032L31.1484 18.6986L35.7269 14.1201C35.9669 15.1355 36.1515 16.1693 36.2254 17.2586L34.7669 18.6986Z" fill="#344054"/>
<path d="M2.59178 9.70752V27.3568C1.09639 24.7537 0.265625 21.7444 0.265625 18.5321C0.265625 15.3198 1.09639 12.3106 2.59178 9.70752Z" fill="#344054"/>
<path d="M7.74584 3.9292V33.1169C6.8043 32.4523 5.97353 31.6954 5.17969 30.8646V6.18151C5.97353 5.3692 6.82276 4.59381 7.74584 3.9292Z" fill="#344054"/>
<path d="M12.7068 1.3999V35.6461C11.8206 35.3507 10.9529 34.9999 10.1406 34.5937V2.47067C10.9899 2.06452 11.8206 1.69529 12.7068 1.3999Z" fill="#344054"/>
</g>
<defs>
<clipPath id="clip0_3987_154458">
<rect width="115.2" height="36" fill="white" transform="translate(0.265625 0.532227)"/>
</clipPath>
</defs>
</svg>
