<svg width="113" height="32" viewBox="0 0 113 32" fill="none" xmlns="http://www.w3.org/2000/svg">
<path fill-rule="evenodd" clip-rule="evenodd" d="M31.5983 13.258C31.3411 13.5152 30.9923 13.6597 30.6286 13.6597L22.5954 13.6597C28.2493 16.8732 31.3896 23.5695 31.8335 30.5163C31.8808 31.2573 31.3298 31.9014 30.5905 31.9695L30.4648 30.6038C30.4356 30.1457 30.3943 29.6902 30.3412 29.2379C29.4895 21.9907 25.5868 15.6063 19.1083 13.6597C18.4729 13.4688 17.8127 13.3205 17.1281 13.2184C16.7416 13.1607 16.3473 13.1177 15.9453 13.09C15.8817 13.0856 15.818 13.0816 15.754 13.078C15.8133 12.8092 15.8771 12.5457 15.9453 12.2882L30.6286 12.2883C30.6286 11.9012 30.6187 11.5187 30.5794 11.142C30.5716 11.0667 30.563 10.9917 30.5536 10.9168C29.8787 5.53499 25.2765 1.37143 19.7117 1.37143H14.4171L14.417 1.37154C14.3989 1.37147 14.3807 1.37143 14.3625 1.37143C7.18771 1.37143 1.37143 7.1877 1.37143 14.3625C1.37143 19.2563 4.07747 23.5182 8.07488 25.7333C8.49339 25.9652 8.92605 26.1747 9.37124 26.3601L10.0769 21.3765C10.0769 21.3765 10.1621 23.7159 10.8547 25.6652C11.0322 26.1646 11.2495 26.6383 11.5154 27.0406C12.4317 27.2454 13.3844 27.3535 14.3625 27.3535C15.133 27.3535 15.8878 27.2864 16.6214 27.1578C17.0275 27.0866 17.4271 26.9966 17.8193 26.8886C17.9176 26.8615 18.0154 26.8333 18.1127 26.804C17.7838 26.4399 17.4869 26.0463 17.2203 25.6284C15.8532 23.4856 15.2804 20.7008 15.2523 17.9448C15.8964 21.6026 17.2633 24.2111 18.9258 26.0695C19.1056 26.2705 19.2889 26.4628 19.4751 26.6466C22.7631 29.8928 26.9607 30.5205 29.0911 30.6143C29.6343 30.6382 30.043 30.6273 30.2681 30.6164C30.3962 30.6101 30.4648 30.6038 30.4648 30.6038C30.5905 31.9695 30.5897 31.9695 30.5889 31.9696L30.587 31.9698L30.5823 31.9702C30.5788 31.9705 30.5745 31.9709 30.5694 31.9713C30.5592 31.9721 30.546 31.9732 30.5297 31.9744C30.4972 31.9768 30.4527 31.9798 30.3968 31.9829C30.2851 31.9891 30.1278 31.9957 29.9308 31.9986C29.5371 32.0043 28.9823 31.9951 28.3128 31.9377C26.9787 31.8233 25.1615 31.5149 23.2502 30.7305C21.7666 30.1217 20.246 29.2324 18.8597 27.9542C18.7522 28.0241 18.634 28.0793 18.508 28.1172C17.1938 28.5128 15.8017 28.7249 14.3625 28.7249C13.2831 28.7249 12.23 28.6056 11.2162 28.379C10.8699 28.3015 10.5671 28.0929 10.3714 27.7969C10.302 27.6919 10.2356 27.5839 10.1721 27.4734C10.133 27.5015 10.0923 27.5277 10.05 27.5518C9.68114 27.7619 9.23581 27.7893 8.84395 27.6261C3.65321 25.4642 0 20.3415 0 14.3625C0 6.43028 6.43029 0 14.3625 0C14.3764 0 14.3903 1.97928e-05 14.4042 5.94657e-05C14.4085 1.988e-05 14.4128 0 14.4171 0H19.7117C26.0619 0 31.2983 4.8164 31.9435 10.9997C31.9899 11.445 32 11.8814 32 12.2883C32 12.652 31.8555 13.0008 31.5983 13.258ZM15.2522 17.9388L15.2515 17.9402C15.2517 17.9417 15.252 17.9433 15.2523 17.9448C15.2523 17.9434 15.2523 17.942 15.2522 17.9406C15.2522 17.9404 15.2522 17.9402 15.2522 17.94C15.2522 17.9396 15.2522 17.9392 15.2522 17.9388Z" fill="white"/>
<path d="M13.4922 11.9607H19.8473L30.1404 11.9607C30.1404 6.29329 25.532 1.69891 19.8473 1.69891H15.0104L13.4922 11.9607Z" fill="#FFBA7B"/>
<path d="M13.875 7.64856C13.875 7.64856 18.1066 7.64856 21.7624 7.64856C27.6302 7.64856 29.3223 11.2511 29.3223 11.2511H13.875V7.64856Z" fill="#F87AA3"/>
<path d="M4.34375 11.0871C4.34377 6.94483 7.61306 2.59648 11.7463 2.32394C12.3648 2.28316 12.932 2.3709 13.3774 2.62652C14.0819 3.03079 14.36 6.11991 14.0376 8.52161L13.9124 9.19898C13.0666 13.776 11.0115 20.2512 6.73222 18.4202V18.4202C4.56152 17.4914 4.34374 13.7071 4.34375 11.0871V11.0871Z" fill="white"/>
<path d="M10.7899 7.53945C11.5285 7.53945 12.1272 6.94071 12.1272 6.20213C12.1272 5.94965 12.0573 5.71351 11.9357 5.51204C11.8729 5.67619 11.7139 5.79275 11.5277 5.79275C11.2865 5.79275 11.091 5.59725 11.091 5.35608C11.091 5.19097 11.1826 5.04727 11.3178 4.97304C11.1559 4.9034 10.9774 4.86482 10.7899 4.86482C10.0513 4.86482 9.45261 5.46356 9.45261 6.20213C9.45261 6.94071 10.0513 7.53945 10.7899 7.53945Z" fill="#152239"/>
<path fill-rule="evenodd" clip-rule="evenodd" d="M13.52 11.8516L14.8792 1.38138C14.709 1.37477 14.5379 1.37143 14.366 1.37143C7.19129 1.37143 1.375 7.18772 1.375 14.3625C1.375 19.7687 4.67731 24.4036 9.3748 26.3601L10.0805 21.3766C10.0805 21.3766 10.2149 25.068 11.519 27.0406C12.4353 27.2454 13.388 27.3535 14.366 27.3535C15.6699 27.3535 16.9289 27.1614 18.1163 26.804C14.7819 23.1129 14.7429 16.4006 16.0703 11.8516H13.52ZM11.8486 2.77841C13.0857 2.49509 14.0237 3.61339 13.841 4.86934L12.4917 14.1457C12.0482 17.195 9.10782 19.8159 6.85649 17.7119C5.44624 16.394 4.4864 14.0407 5.32411 9.84671C6.30889 4.91643 9.57161 3.29988 11.8486 2.77841Z" fill="#152239"/>
<path fill-rule="evenodd" clip-rule="evenodd" d="M14.1381 11.142L24.4641 11.142H29.4313C29.2504 9.59407 28.7043 8.15667 27.8866 6.91661C26.1391 4.26649 23.1272 2.5177 19.7153 2.5177L15.4102 2.5177L14.1381 11.142ZM12.8104 12.2883L14.4206 1.37143L19.7153 1.37143C25.3574 1.37143 30.0101 5.65156 30.583 11.142C30.6223 11.5187 30.6321 11.9011 30.6321 12.2883L12.8104 12.2883Z" fill="#152239"/>
<path d="M29.6769 11.9608C28.7514 11.8316 24.2205 12.3916 24.4641 11.142C24.8357 9.23644 26.1459 7.66376 27.8866 6.91661C29.6377 6.16495 30.188 12.0321 29.6769 11.9608Z" fill="#152239"/>
<path d="M30.4684 30.6038C30.4684 30.6038 14.8573 32.0401 14.8573 13.0525C24.3502 13.0525 29.875 21.3161 30.4684 30.6038Z" fill="#152239"/>
<path d="M54.9724 12.7876V9.89261H42V12.7876H46.9503V25.5611H50.0221V12.7876H54.9724ZM59.0257 23.2186C57.5893 23.2186 56.2633 22.1578 56.2633 20.1247C56.2633 18.0694 57.5893 17.0307 59.0257 17.0307C60.4622 17.0307 61.7882 18.0694 61.7882 20.1247C61.7882 22.1799 60.4622 23.2186 59.0257 23.2186ZM59.0257 14.3567C55.7771 14.3567 53.3241 16.7655 53.3241 20.1247C53.3241 23.4617 55.7771 25.8926 59.0257 25.8926C62.2744 25.8926 64.7274 23.4617 64.7274 20.1247C64.7274 16.7655 62.2744 14.3567 59.0257 14.3567ZM73.4573 25.5611H76.264C76.2198 25.1854 76.1535 24.434 76.1535 23.5943V14.6882H73.2142V21.0086C73.2142 22.2683 72.4629 23.1523 71.159 23.1523C69.7888 23.1523 69.17 22.1799 69.17 20.9644V14.6882H66.2308V21.5611C66.2308 23.9258 67.7336 25.8484 70.3634 25.8484C71.5126 25.8484 72.7723 25.4064 73.3689 24.3898C73.3689 24.8318 73.4131 25.3401 73.4573 25.5611ZM83.4681 17.0749C84.9266 17.0749 85.6117 18.0031 85.8769 18.9092L88.5067 18.0252C88.0426 16.191 86.3631 14.3567 83.4018 14.3567C80.2415 14.3567 77.7664 16.7655 77.7664 20.1247C77.7664 23.4617 80.2857 25.8926 83.4902 25.8926C86.3852 25.8926 88.0868 24.0363 88.573 22.2241L85.9874 21.3622C85.7443 22.202 84.9929 23.1965 83.4902 23.1965C81.9874 23.1965 80.7056 22.0915 80.7056 20.1247C80.7056 18.1578 81.9653 17.0749 83.4681 17.0749ZM92.1072 20.0805C92.1072 18.0915 93.2563 16.9202 94.8254 16.9202C96.3724 16.9202 97.4994 18.0915 97.4994 20.0805C97.4994 22.0694 96.3503 23.3291 94.8254 23.3291C93.2342 23.3291 92.1072 22.0473 92.1072 20.0805ZM97.5215 24.2131C97.5215 24.7434 97.5878 25.318 97.632 25.5611H100.439C100.417 25.318 100.35 24.5666 100.35 23.5943V14.6882H97.4994V16.0363C97.2342 15.4175 96.3282 14.3788 94.3834 14.3788C91.2232 14.3788 89.1458 16.8981 89.1458 20.0805C89.1458 23.3733 91.2674 25.8705 94.4718 25.8705C95.9304 25.8705 97.0574 25.1191 97.5215 24.0805V24.2131ZM105.771 19.307C105.771 18.0473 106.523 17.0528 107.804 17.0528C109.219 17.0528 109.815 18.0031 109.815 19.2186V25.5611H112.755V18.7103C112.755 16.3235 111.517 14.4009 108.821 14.4009C107.65 14.4009 106.346 14.9092 105.683 16.0363V14.6882H102.832V25.5611H105.771V19.307Z" fill="white"/>
</svg>
