<svg width="36" height="49" viewBox="0 0 36 49" fill="none" xmlns="http://www.w3.org/2000/svg">
<g clip-path="url(#clip0_3987_154436)">
<path d="M17.3143 15.6375C16.5291 14.9103 14.9721 13.9075 12.2711 13.9205C9.56993 13.9337 10.0111 15.3511 10.0111 15.3511C10.0111 15.3511 9.95613 16.5075 11.7203 16.5435C13.4845 16.5795 15.3759 16.6507 16.9105 17.2355C18.4449 17.8203 18.1003 16.3635 17.3143 15.6375Z" fill="#344054"/>
<path d="M10.9292 18.2793C10.7668 18.3789 10.7254 18.6593 10.9136 18.6945C11.9804 18.8925 13.6678 19.2523 15.5504 18.9431C15.7284 18.9139 15.702 18.6661 15.5728 18.5381C14.9052 17.8731 13.1116 16.9409 10.9292 18.2793Z" fill="#344054"/>
<path d="M33.1241 36.8779C33.0995 36.8425 33.0657 36.8145 33.0265 36.7973C32.9873 36.7803 32.9443 36.7745 32.9021 36.7807C32.8597 36.7869 32.8201 36.8049 32.7873 36.8327C32.7545 36.8605 32.7299 36.8971 32.7163 36.9381C31.6183 40.2599 30.7195 39.4461 30.3041 38.7319C30.1597 38.4797 30.0521 38.2073 29.9845 37.9237C28.9369 33.6801 29.8961 29.7713 29.8961 29.7713C30.4665 31.5777 31.9623 32.1133 32.7285 32.2697C32.7721 32.2787 32.8173 32.2751 32.8587 32.2589C32.9003 32.2427 32.9365 32.2149 32.9631 32.1785C32.9895 32.1423 33.0055 32.0989 33.0087 32.0539C33.0119 32.0087 33.0025 31.9635 32.9813 31.9237C30.0457 26.0675 31.7813 23.5859 31.7813 23.5859C32.2865 24.1575 33.1193 24.2087 33.6443 24.1791C33.6883 24.1765 33.7309 24.1611 33.7671 24.1351C33.8031 24.1089 33.8311 24.0731 33.8481 24.0315C33.8649 23.9897 33.8699 23.9441 33.8625 23.8997C33.8551 23.8553 33.8355 23.8139 33.8061 23.7803C31.6787 21.3901 31.5169 20.5791 31.4339 16.5305C31.3885 14.2869 30.6141 13.1071 29.8941 12.4925C29.0701 11.7901 28.4127 10.8953 28.0529 9.86269C25.1825 1.65097 19.8123 0.565851 14.8289 0.873111C8.6421 1.25513 5.3481 6.07449 3.7843 8.47589C2.1303 11.0149 0.841297 14.7693 0.928297 15.9181C1.0153 17.0669 2.0569 16.8869 2.0569 18.2149C2.0569 19.5431 0.0402978 20.6475 0.833098 24.3811C1.1831 26.0261 2.6007 27.2593 1.9631 31.0171C0.822897 37.7707 5.9089 45.9769 7.1763 47.2011C7.3299 47.3485 7.5999 47.2295 7.5719 47.0163C7.3741 45.5091 7.6637 43.4177 7.6637 43.4177C10.2119 48.9769 17.3409 47.9457 19.5737 47.4689C19.6209 47.4591 19.6641 47.4345 19.6971 47.3985C19.7303 47.3627 19.7515 47.3173 19.7583 47.2687C19.7651 47.2199 19.7569 47.1703 19.7349 47.1265C19.7129 47.0827 19.6783 47.0469 19.6355 47.0239C17.3811 45.8053 16.8657 43.3291 16.8657 43.3291C19.1093 44.4101 20.5465 44.2289 21.2393 43.9971C21.2815 43.9827 21.3187 43.9565 21.3469 43.9215C21.3749 43.8865 21.3927 43.8441 21.3979 43.7993C21.4033 43.7543 21.3961 43.7089 21.3769 43.6681C21.3579 43.6273 21.3279 43.5927 21.2903 43.5687C20.6145 43.1367 19.5845 41.3541 18.8055 39.6095C18.4855 38.8895 18.3721 38.0923 18.4781 37.3097C18.5843 36.5269 18.9055 35.7907 19.4051 35.1859C20.3167 34.0787 21.5127 32.5333 22.8723 30.8911C23.1565 30.5451 23.5523 30.8829 23.7019 31.2579C25.6883 36.3201 28.2725 40.1361 30.0539 41.1881C31.3455 41.9997 32.7603 42.1457 33.3961 41.6351C35.1487 40.2281 33.7591 37.8011 33.1241 36.8779ZM11.6185 32.1665C9.4877 32.2973 9.9733 29.4787 8.4081 29.5479C6.7317 29.6239 7.2341 31.7735 6.1095 31.9043C4.9851 32.0351 5.1163 28.7479 5.9055 28.3665C7.1491 27.7673 8.6053 27.6233 9.7713 27.6649C11.1527 27.7133 12.4725 27.6585 13.0917 29.0109C13.8253 30.6059 13.7485 32.0393 11.6185 32.1665ZM25.0929 12.0239C22.2599 13.7375 22.0933 14.5845 21.6873 17.5977C21.5977 18.2599 21.5065 19.0351 21.8043 19.4731C22.4767 20.4621 23.7555 21.1943 23.4047 22.8641C22.5685 26.8385 20.3637 31.4981 17.4063 32.9541C17.0499 33.1291 16.6421 32.7749 16.5591 32.3817C16.2293 30.8067 15.4449 27.9431 15.2327 27.0081C14.1795 21.6523 9.1607 21.5783 9.0201 22.6025C8.9785 22.9071 10.0365 23.3085 10.7081 23.5313C11.3249 23.7389 11.3459 24.6343 10.7319 24.8461C10.5709 24.8981 10.4033 24.9257 10.2343 24.9277C8.9935 24.8413 7.4197 24.9395 6.7099 24.9921C6.4723 25.0103 6.2367 24.9377 6.0489 24.7885C5.8609 24.6393 5.7345 24.4243 5.6941 24.1853C5.4167 22.5457 5.9069 21.9583 6.4997 20.4011C6.7949 19.6261 7.1735 18.0635 7.3047 17.2621C7.3727 16.8323 7.3435 16.3161 7.2993 15.9291C7.2457 15.4719 7.2245 15.0111 7.2361 14.5507C7.2783 13.0649 7.4231 11.8517 8.5347 11.8517C10.5369 11.8517 14.7737 11.8579 15.4449 10.8559C16.1485 9.80669 12.2215 10.8239 8.0017 10.6855C7.9191 10.6827 7.8403 10.6495 7.7801 10.5919C7.7201 10.5343 7.6825 10.4565 7.6745 10.3727C7.6745 10.3465 7.6699 10.3209 7.6671 10.2945C7.6607 10.2195 7.6697 10.1441 7.6933 10.0727C7.7169 10.0015 7.7547 9.93569 7.8043 9.88009C7.8539 9.82429 7.9143 9.77949 7.9817 9.74849C8.0491 9.71749 8.1221 9.70109 8.1961 9.70009C10.4499 9.67169 12.1645 9.51249 12.6151 8.84409C13.0735 8.16029 10.7959 8.46689 8.2145 8.49109C7.8839 8.49109 7.6107 8.48629 7.6277 8.15069V8.13949C7.6347 8.00629 7.6895 7.88049 7.7817 7.78569C7.8739 7.69109 7.9973 7.63429 8.1281 7.62609C9.6469 7.52429 10.2941 7.40669 10.3581 6.91249C10.4219 6.41849 10.2017 6.46829 8.5223 6.56649C8.1573 6.58729 8.2619 6.30569 8.4693 5.99769C8.9935 5.21221 11.3371 2.94647 16.5225 3.11187C25.4055 3.39975 25.1247 9.80389 25.3967 11.3597C25.4187 11.4887 25.4013 11.6215 25.3471 11.7403C25.2927 11.8591 25.2041 11.9581 25.0929 12.0239Z" fill="#344054"/>
</g>
<defs>
<clipPath id="clip0_3987_154436">
<rect width="36" height="48" fill="white" transform="translate(0 0.266113)"/>
</clipPath>
</defs>
</svg>
