<svg width="1506" height="1124" viewBox="0 0 1506 1124" fill="none" xmlns="http://www.w3.org/2000/svg">
<path d="M570.649 311.664L591.049 323.442V346.997L570.649 358.775L550.249 346.997V323.442L570.649 311.664Z" fill="#FB8275"/>
<path d="M530.036 240.997L550.435 252.775V276.331L530.036 288.108L509.636 276.331V252.775L530.036 240.997Z" fill="#FB8275"/>
<path d="M611.262 288.108L631.662 299.886V323.442L611.262 335.22L590.862 323.442V299.886L611.262 288.108Z" fill="white"/>
<path d="M570.649 217.442L591.049 229.22V252.775L570.649 264.553L550.249 252.775V229.22L570.649 217.442Z" fill="#F46780"/>
<path d="M570.649 358.775L591.049 370.553V394.108L570.649 405.886L550.249 394.108V370.553L570.649 358.775Z" fill="#F46780"/>
<path d="M570.649 405.886L591.049 417.664V441.22L570.649 452.997L550.249 441.22V417.664L570.649 405.886Z" fill="white"/>
<path d="M651.875 264.553L672.275 276.331V299.886L651.875 311.664L631.475 299.886V276.331L651.875 264.553Z" fill="#F46780"/>
<path d="M611.262 193.886L631.662 205.664V229.22L611.262 240.997L590.862 229.22V205.664L611.262 193.886Z" fill="#FB8275"/>
<path d="M692.488 240.997L712.888 252.775V276.331L692.488 288.108L672.088 276.331V252.775L692.488 240.997Z" fill="white"/>
<path d="M651.875 170.331L672.275 182.108V205.664L651.875 217.442L631.475 205.664V182.108L651.875 170.331Z" fill="#F46780"/>
<path d="M692.488 146.775L712.888 158.553V182.108L692.488 193.886L672.088 182.108V158.553L692.488 146.775Z" fill="white"/>
<path d="M651.875 311.664L672.275 323.442V346.997L651.875 358.775L631.475 346.997V323.442L651.875 311.664Z" fill="#FB8275"/>
<path d="M611.262 382.331L631.662 394.108V417.664L611.262 429.442L590.862 417.664V394.108L611.262 382.331Z" fill="#FFB5CD"/>
<path d="M570.649 452.997L591.049 464.775V488.331L570.649 500.108L550.249 488.331V464.775L570.649 452.997Z" fill="white"/>
<path d="M733.101 264.553L753.501 276.331V299.886L733.101 311.664L712.701 299.886V276.331L733.101 264.553Z" fill="#FB8275"/>
<path d="M651.875 358.775L672.275 370.553V394.108L651.875 405.886L631.475 394.108V370.553L651.875 358.775Z" fill="#F46780"/>
<path d="M692.488 335.22L712.888 346.997V370.553L692.488 382.331L672.088 370.553V346.997L692.488 335.22Z" fill="#FFB5CD"/>
<path d="M651.875 405.886L672.275 417.664V441.22L651.875 452.997L631.475 441.22V417.664L651.875 405.886Z" fill="#FFB5CD"/>
<path d="M651.875 452.997L672.275 464.775V488.331L651.875 500.108L631.475 488.331V464.775L651.875 452.997Z" fill="#FB8275"/>
<path d="M611.262 476.553L631.662 488.331V511.886L611.262 523.664L590.862 511.886V488.331L611.262 476.553Z" fill="#F46780"/>
<path d="M733.101 311.664L753.501 323.442V346.997L733.101 358.775L712.701 346.997V323.442L733.101 311.664Z" fill="#F46780"/>
<path d="M773.714 288.108L794.114 299.886V323.442L773.714 335.22L753.314 323.442V299.886L773.714 288.108Z" fill="white"/>
<path d="M733.101 358.775L753.501 370.553V394.108L733.101 405.886L712.701 394.108V370.553L733.101 358.775Z" fill="#FB8275"/>
<path d="M692.488 429.442L712.888 441.22V464.775L692.488 476.553L672.088 464.775V441.22L692.488 429.442Z" fill="#F46780"/>
<path d="M651.875 500.108L672.275 511.886V535.442L651.875 547.22L631.475 535.442V511.886L651.875 500.108Z" fill="#FFB5CD"/>
<path d="M814.327 311.664L834.727 323.442V346.997L814.327 358.775L793.927 346.997V323.442L814.327 311.664Z" fill="#F46780"/>
<path d="M733.101 405.886L753.501 417.664V441.22L733.101 452.997L712.701 441.22V417.664L733.101 405.886Z" fill="white"/>
<path d="M773.714 382.331L794.114 394.108V417.664L773.714 429.442L753.314 417.664V394.108L773.714 382.331Z" fill="#FFB5CD"/>
<path d="M733.101 452.997L753.501 464.775V488.331L733.101 500.108L712.701 488.331V464.775L733.101 452.997Z" fill="#FFB5CD"/>
<path d="M733.101 500.108L753.501 511.886V535.442L733.101 547.22L712.701 535.442V511.886L733.101 500.108Z" fill="#FB8275"/>
<path d="M692.488 523.664L712.888 535.442V558.997L692.488 570.775L672.088 558.997V535.442L692.488 523.664Z" fill="white"/>
<path d="M814.327 358.775L834.727 370.553V394.108L814.327 405.886L793.927 394.108V370.553L814.327 358.775Z" fill="#FB8275"/>
<path d="M854.94 335.22L875.34 346.997V370.553L854.94 382.331L834.54 370.553V346.997L854.94 335.22Z" fill="#FFB5CD"/>
<path d="M895.553 358.775L915.953 370.553V394.108L895.553 405.886L875.153 394.108V370.553L895.553 358.775Z" fill="#FFB5CD"/>
<path d="M814.327 405.886L834.727 417.664V441.22L814.327 452.997L793.927 441.22V417.664L814.327 405.886Z" fill="white"/>
<path d="M773.714 476.553L794.114 488.331V511.886L773.714 523.664L753.314 511.886V488.331L773.714 476.553Z" fill="white"/>
<path d="M773.714 570.775L794.114 582.553V606.108L773.714 617.886L753.314 606.108V582.553L773.714 570.775Z" fill="#FFB5CD"/>
<path d="M895.553 405.886L915.953 417.664V441.22L895.553 452.997L875.153 441.22V417.664L895.553 405.886Z" fill="#F46780"/>
<path d="M814.327 452.997L834.727 464.775V488.331L814.327 500.108L793.927 488.331V464.775L814.327 452.997Z" fill="#FB8275"/>
<path d="M570.649 264.553L591.049 276.331V299.886L570.649 311.664L550.249 299.886V276.331L570.649 264.553Z" fill="#FFB5CD"/>
<path d="M651.875 217.442L672.275 229.22V252.775L651.875 264.553L631.475 252.775V229.22L651.875 217.442Z" fill="white"/>
<path d="M733.101 170.331L753.501 182.108V205.664L733.101 217.442L712.701 205.664V182.108L733.101 170.331Z" fill="#FFB5CD"/>
<path d="M733.101 217.442L753.501 229.22V252.775L733.101 264.553L712.701 252.775V229.22L733.101 217.442Z" fill="#F46780"/>
<path d="M773.714 193.886L794.114 205.664V229.22L773.714 240.997L753.314 229.22V205.664L773.714 193.886Z" fill="#FB8275"/>
<path d="M814.327 217.442L834.727 229.22V252.775L814.327 264.553L793.927 252.775V229.22L814.327 217.442Z" fill="#F46780"/>
<path d="M814.327 264.553L834.727 276.331V299.886L814.327 311.664L793.927 299.886V276.331L814.327 264.553Z" fill="#FB8275"/>
<path d="M854.94 240.997L875.34 252.775V276.331L854.94 288.108L834.54 276.331V252.775L854.94 240.997Z" fill="white"/>
<path d="M895.553 264.553L915.953 276.331V299.886L895.553 311.664L875.153 299.886V276.331L895.553 264.553Z" fill="#FFB5CD"/>
<path d="M895.553 311.664L915.953 323.442V346.997L895.553 358.775L875.153 346.997V323.442L895.553 311.664Z" fill="white"/>
<path d="M854.94 429.442L875.34 441.22V464.775L854.94 476.553L834.54 464.775V441.22L854.94 429.442Z" fill="#FFB5CD"/>
<path d="M854.94 523.664L875.34 535.442V558.997L854.94 570.775L834.54 558.997V535.442L854.94 523.664Z" fill="#FB8275"/>
<path d="M895.553 500.108L915.953 511.886V535.442L895.553 547.22L875.153 535.442V511.886L895.553 500.108Z" fill="white"/>
<path d="M814.327 500.108L834.727 511.886V535.442L814.327 547.22L793.927 535.442V511.886L814.327 500.108Z" fill="#FFB5CD"/>
<path d="M814.327 547.22L834.727 558.997V582.553L814.327 594.331L793.927 582.553V558.997L814.327 547.22Z" fill="#F46780"/>
<path d="M733.101 547.22L753.501 558.997V582.553L733.101 594.331L712.701 582.553V558.997L733.101 547.22Z" fill="white"/>
<path d="M733.101 594.331L753.501 606.108V629.664L733.101 641.442L712.701 629.664V606.108L733.101 594.331Z" fill="#F46780"/>
<path d="M692.488 617.886L712.888 629.664V653.22L692.488 664.997L672.088 653.22V629.664L692.488 617.886Z" fill="white"/>
<path d="M651.875 547.22L672.275 558.997V582.553L651.875 594.331L631.475 582.553V558.997L651.875 547.22Z" fill="#F46780"/>
<path d="M651.875 594.331L672.275 606.108V629.664L651.875 641.442L631.475 629.664V606.108L651.875 594.331Z" fill="#FB8275"/>
<path d="M570.649 500.108L591.049 511.886V535.442L570.649 547.22L550.249 535.442V511.886L570.649 500.108Z" fill="#FB8275"/>
<path d="M570.649 547.22L591.049 558.997V582.553L570.649 594.331L550.249 582.553V558.997L570.649 547.22Z" fill="#FB8275"/>
<path d="M489.423 500.108L509.822 511.886V535.442L489.423 547.22L469.023 535.442V511.886L489.423 500.108Z" fill="#FFB5CD"/>
<path d="M530.036 523.664L550.435 535.442V558.997L530.036 570.775L509.636 558.997V535.442L530.036 523.664Z" fill="white"/>
<path d="M530.036 429.442L550.435 441.22V464.775L530.036 476.553L509.636 464.775V441.22L530.036 429.442Z" fill="#FFB5CD"/>
<path d="M489.423 452.997L509.822 464.775V488.331L489.423 500.108L469.023 488.331V464.775L489.423 452.997Z" fill="#F46780"/>
<path d="M489.423 405.886L509.822 417.664V441.22L489.423 452.997L469.023 441.22V417.664L489.423 405.886Z" fill="#FB8275"/>
<path d="M530.036 335.22L550.435 346.997V370.553L530.036 382.331L509.636 370.553V346.997L530.036 335.22Z" fill="white"/>
<path d="M489.423 358.775L509.822 370.553V394.108L489.423 405.886L469.023 394.108V370.553L489.423 358.775Z" fill="#FFB5CD"/>
<path d="M489.423 311.664L509.822 323.442V346.997L489.423 358.775L469.023 346.997V323.442L489.423 311.664Z" fill="#F46780"/>
<rect opacity="0.5" x="1505.57" y="472.886" width="8" height="529.085" transform="rotate(90 1505.57 472.886)" fill="url(#paint0_linear_22_199)"/>
<path d="M976.044 452.997L996.444 464.775V488.331L976.044 500.108L955.644 488.331V464.775L976.044 452.997Z" fill="#FB8275"/>
<g opacity="0.7" filter="url(#filter0_f_22_199)">
<path d="M976.044 452.997L996.444 464.775V488.331L976.044 500.108L955.644 488.331V464.775L976.044 452.997Z" fill="#FFB5CD"/>
<path d="M976.044 452.997L996.444 464.775V488.331L976.044 500.108L955.644 488.331V464.775L976.044 452.997Z" fill="#FB8275"/>
</g>
<rect opacity="0.5" y="6.92822" width="8" height="529.085" transform="rotate(-60 0 6.92822)" fill="url(#paint1_linear_22_199)"/>
<path d="M452.419 240.551L472.819 252.329L472.819 275.885L452.419 287.662L432.02 275.885L432.02 252.329L452.419 240.551Z" fill="white"/>
<g opacity="0.7" filter="url(#filter1_f_22_199)">
<path d="M452.419 240.551L472.819 252.329L472.819 275.885L452.419 287.662L432.02 275.885L432.02 252.329L452.419 240.551Z" fill="white"/>
</g>
<rect opacity="0.3" x="309.25" y="1123.45" width="8" height="529.085" transform="rotate(-150 309.25 1123.45)" fill="url(#paint2_linear_22_199)"/>
<path d="M571.04 637.886L591.44 649.664V673.22L571.04 684.997L550.64 673.22V649.664L571.04 637.886Z" fill="#FFB5CD"/>
<g opacity="0.7" filter="url(#filter2_f_22_199)">
<path d="M571.04 637.886L591.44 649.664V673.22L571.04 684.997L550.64 673.22V649.664L571.04 637.886Z" fill="#FFB5CD"/>
</g>
<defs>
<filter id="filter0_f_22_199" x="935.644" y="432.997" width="80.7994" height="87.1111" filterUnits="userSpaceOnUse" color-interpolation-filters="sRGB">
<feFlood flood-opacity="0" result="BackgroundImageFix"/>
<feBlend mode="normal" in="SourceGraphic" in2="BackgroundImageFix" result="shape"/>
<feGaussianBlur stdDeviation="10" result="effect1_foregroundBlur_22_199"/>
</filter>
<filter id="filter1_f_22_199" x="412.02" y="220.551" width="80.7994" height="87.1111" filterUnits="userSpaceOnUse" color-interpolation-filters="sRGB">
<feFlood flood-opacity="0" result="BackgroundImageFix"/>
<feBlend mode="normal" in="SourceGraphic" in2="BackgroundImageFix" result="shape"/>
<feGaussianBlur stdDeviation="10" result="effect1_foregroundBlur_22_199"/>
</filter>
<filter id="filter2_f_22_199" x="530.64" y="617.886" width="80.7994" height="87.1111" filterUnits="userSpaceOnUse" color-interpolation-filters="sRGB">
<feFlood flood-opacity="0" result="BackgroundImageFix"/>
<feBlend mode="normal" in="SourceGraphic" in2="BackgroundImageFix" result="shape"/>
<feGaussianBlur stdDeviation="10" result="effect1_foregroundBlur_22_199"/>
</filter>
<linearGradient id="paint0_linear_22_199" x1="1511.15" y1="982.668" x2="1500.37" y2="621.541" gradientUnits="userSpaceOnUse">
<stop stop-color="#AD7B7B"/>
<stop offset="1" stop-color="#AD7B7B" stop-opacity="0"/>
</linearGradient>
<linearGradient id="paint1_linear_22_199" x1="5.57526" y1="516.71" x2="-5.20035" y2="155.583" gradientUnits="userSpaceOnUse">
<stop stop-color="#7B8FAD"/>
<stop offset="1" stop-color="#2B4D6C" stop-opacity="0"/>
</linearGradient>
<linearGradient id="paint2_linear_22_199" x1="314.825" y1="1633.24" x2="304.05" y2="1272.11" gradientUnits="userSpaceOnUse">
<stop stop-color="#ECBCCB"/>
<stop offset="1" stop-color="#ECBCCB" stop-opacity="0"/>
</linearGradient>
</defs>
</svg>
