<svg width="120" height="23" viewBox="0 0 120 23" fill="none" xmlns="http://www.w3.org/2000/svg">
<g clip-path="url(#clip0_3987_154442)">
<path d="M55.511 7.24951C56.8323 7.24951 57.8398 7.6459 58.5334 8.43865C59.2437 9.21493 59.5987 10.4784 59.5987 12.2291V18.3236C59.5987 18.8025 59.4501 19.1742 59.1528 19.4384C58.8721 19.6861 58.5005 19.81 58.038 19.81C57.592 19.81 57.2204 19.6861 56.9231 19.4384C56.6424 19.1742 56.502 18.8025 56.502 18.3236V12.2291C56.502 11.3207 56.3368 10.6766 56.0065 10.2967C55.6927 9.90033 55.2055 9.70213 54.5448 9.70213C53.7355 9.70213 53.0914 9.98293 52.6124 10.5445C52.1335 11.0895 51.894 11.841 51.894 12.7989V18.3236C51.894 18.8025 51.7453 19.1742 51.448 19.4384C51.1673 19.6861 50.8039 19.81 50.358 19.81C49.912 19.81 49.5404 19.6861 49.2431 19.4384C48.9458 19.1742 48.7972 18.8025 48.7972 18.3236V12.2291C48.7972 11.3207 48.6321 10.6766 48.3017 10.2967C47.9879 9.90033 47.5007 9.70213 46.84 9.70213C46.0308 9.70213 45.3866 9.98293 44.9076 10.5445C44.4452 11.0895 44.214 11.841 44.214 12.7989V18.3236C44.214 18.8025 44.0653 19.1742 43.768 19.4384C43.4707 19.6861 43.0991 19.81 42.6532 19.81C42.2073 19.81 41.8356 19.6861 41.5383 19.4384C41.2576 19.1742 41.1172 18.8025 41.1172 18.3236V8.73594C41.1172 8.27351 41.2658 7.91841 41.5631 7.67067C41.8604 7.42293 42.232 7.29906 42.678 7.29906C43.1074 7.29906 43.4542 7.42293 43.7185 7.67067C43.9993 7.9019 44.1396 8.24046 44.1396 8.68639V9.28097C44.5195 8.62035 45.0233 8.11659 45.6509 7.76977C46.295 7.42293 47.03 7.24951 47.8558 7.24951C49.6726 7.24951 50.8865 8.00925 51.4976 9.52871C51.861 8.83504 52.3977 8.2818 53.1079 7.86887C53.8181 7.45597 54.6191 7.24951 55.511 7.24951Z" fill="#344054"/>
<path d="M67.9963 7.24951C69.6809 7.24951 70.9279 7.67067 71.7372 8.51297C72.563 9.3388 72.9759 10.6023 72.9759 12.3034V18.3483C72.9759 18.7943 72.8438 19.1494 72.5795 19.4136C72.3153 19.6614 71.9519 19.7852 71.4894 19.7852C71.0601 19.7852 70.7049 19.6532 70.4241 19.3888C70.1599 19.1246 70.0278 18.7778 70.0278 18.3483V17.8033C69.747 18.4474 69.3011 18.9512 68.69 19.3145C68.0954 19.6779 67.4017 19.8596 66.6089 19.8596C65.7997 19.8596 65.0647 19.6944 64.404 19.3641C63.7434 19.0338 63.2231 18.5796 62.8432 18.0015C62.4634 17.4235 62.2734 16.7793 62.2734 16.0691C62.2734 15.1772 62.4964 14.4753 62.9423 13.9633C63.4048 13.4513 64.1481 13.0797 65.172 12.8485C66.196 12.6173 67.6082 12.5016 69.4084 12.5016H70.0278V11.9318C70.0278 11.1225 69.8543 10.5362 69.5075 10.1728C69.1607 9.79302 68.5991 9.60304 67.8229 9.60304C67.3439 9.60304 66.8567 9.67736 66.3612 9.826C65.8657 9.95816 65.2794 10.1564 64.6022 10.4206C64.1728 10.6353 63.859 10.7426 63.6608 10.7426C63.3635 10.7426 63.1158 10.6353 62.9176 10.4206C62.7359 10.2059 62.6451 9.9251 62.6451 9.57826C62.6451 9.29754 62.7112 9.058 62.8432 8.85981C62.9919 8.64513 63.2314 8.44693 63.5617 8.26523C64.1398 7.95145 64.8252 7.70371 65.618 7.52203C66.4273 7.34035 67.2201 7.24951 67.9963 7.24951ZM67.2283 17.6299C68.0541 17.6299 68.723 17.3574 69.235 16.8123C69.7635 16.2508 70.0278 15.5324 70.0278 14.657V14.1367H69.5818C68.4753 14.1367 67.6165 14.1863 67.0053 14.2854C66.3942 14.3845 65.9566 14.5579 65.6923 14.8056C65.428 15.0534 65.2959 15.392 65.2959 15.8214C65.2959 16.3499 65.4776 16.7876 65.8409 17.1344C66.2208 17.4647 66.6832 17.6299 67.2283 17.6299Z" fill="#344054"/>
<path d="M82.8882 7.29909C83.3179 7.26605 83.6562 7.3569 83.9039 7.5716C84.1517 7.78631 84.2756 8.10841 84.2756 8.53777C84.2756 8.98371 84.1687 9.31406 83.9535 9.52874C83.739 9.7435 83.3512 9.88386 82.7891 9.9499L82.0459 10.0242C81.0719 10.1233 80.3535 10.4537 79.8905 11.0152C79.4446 11.5768 79.2216 12.2787 79.2216 13.121V18.3236C79.2216 18.8026 79.073 19.1742 78.7757 19.4384C78.4784 19.6862 78.1068 19.81 77.6608 19.81C77.2151 19.81 76.8435 19.6862 76.5462 19.4384C76.2654 19.1742 76.125 18.8026 76.125 18.3236V8.73597C76.125 8.27354 76.2654 7.91844 76.5462 7.6707C76.8435 7.42296 77.2068 7.29909 77.6361 7.29909C78.0657 7.29909 78.4126 7.42296 78.6766 7.6707C78.9414 7.90193 79.073 8.24048 79.073 8.68642V9.67739C79.3873 8.95073 79.8495 8.38913 80.4603 7.99276C81.0882 7.59638 81.7819 7.37341 82.5414 7.32386L82.8882 7.29909Z" fill="#344054"/>
<path d="M96.3862 17.2583C96.7167 17.5722 96.8816 17.9272 96.8816 18.3236C96.8816 18.7035 96.7415 19.0421 96.4605 19.3394C96.1965 19.6367 95.8829 19.7853 95.5191 19.7853C95.156 19.7853 94.8176 19.6367 94.5033 19.3394L88.7061 14.0872V18.3236C88.7061 18.8026 88.5575 19.1659 88.2602 19.4137C87.9629 19.6614 87.5913 19.7853 87.1454 19.7853C86.6994 19.7853 86.3278 19.6614 86.0305 19.4137C85.7503 19.1659 85.6094 18.8026 85.6094 18.3236V3.53345C85.6094 3.05448 85.7503 2.69113 86.0305 2.44339C86.3278 2.19565 86.6994 2.07178 87.1454 2.07178C87.5913 2.07178 87.9629 2.19565 88.2602 2.44339C88.5575 2.69113 88.7061 3.05448 88.7061 3.53345V12.8485L94.0078 7.76984C94.3051 7.47255 94.6442 7.32391 95.0236 7.32391C95.4037 7.32391 95.7343 7.46429 96.0145 7.74507C96.2956 8.02584 96.4357 8.35619 96.4357 8.73601C96.4357 9.11591 96.2793 9.46275 95.965 9.77653L92.0754 13.3936L96.3862 17.2583Z" fill="#344054"/>
<path d="M108.311 16.3416C108.591 16.3416 108.814 16.449 108.98 16.6637C109.161 16.8784 109.253 17.1674 109.253 17.5308C109.253 18.0428 108.947 18.4722 108.336 18.819C107.774 19.1329 107.138 19.3888 106.428 19.587C105.718 19.7687 105.041 19.8596 104.397 19.8596C102.447 19.8596 100.904 19.298 99.7641 18.1749C98.6245 17.0519 98.0547 15.5159 98.0547 13.5669C98.0547 12.3282 98.3024 11.2299 98.7979 10.2719C99.2934 9.31403 99.9871 8.5708 100.879 8.04229C101.787 7.51377 102.811 7.24951 103.951 7.24951C105.041 7.24951 105.99 7.48899 106.8 7.96796C107.609 8.44693 108.237 9.12412 108.683 9.99942C109.129 10.8748 109.352 11.907 109.352 13.0962C109.352 13.8064 109.037 14.1615 108.41 14.1615H101.102C101.201 15.3011 101.523 16.1434 102.068 16.6885C102.613 17.217 103.406 17.4812 104.446 17.4812C104.974 17.4812 105.437 17.4152 105.834 17.283C106.246 17.151 106.709 16.9693 107.221 16.738C107.717 16.4738 108.08 16.3416 108.311 16.3416ZM104.025 9.42962C103.183 9.42962 102.506 9.69393 101.994 10.2224C101.498 10.7509 101.201 11.5106 101.102 12.5016H106.701C106.668 11.4942 106.42 10.7344 105.958 10.2224C105.495 9.69393 104.851 9.42962 104.025 9.42962Z" fill="#344054"/>
<path d="M118.006 17.5063C118.832 17.5558 119.245 17.9274 119.245 18.6211C119.245 19.0175 119.08 19.3231 118.749 19.5377C118.436 19.7359 117.981 19.8185 117.387 19.7855L116.718 19.7359C113.943 19.5377 112.556 18.0513 112.556 15.2766V9.87581H111.317C110.871 9.87581 110.524 9.77671 110.277 9.57852C110.045 9.38032 109.93 9.09132 109.93 8.71142C109.93 8.3316 110.045 8.04254 110.277 7.84435C110.524 7.64615 110.871 7.54706 111.317 7.54706H112.556V5.26783C112.556 4.82189 112.696 4.4668 112.977 4.20254C113.258 3.93828 113.637 3.80615 114.117 3.80615C114.579 3.80615 114.95 3.93828 115.231 4.20254C115.512 4.4668 115.653 4.82189 115.653 5.26783V7.54706H117.758C118.204 7.54706 118.543 7.64615 118.774 7.84435C119.022 8.04254 119.146 8.3316 119.146 8.71142C119.146 9.09132 119.022 9.38032 118.774 9.57852C118.543 9.77671 118.204 9.87581 117.758 9.87581H115.653V15.4995C115.653 16.7218 116.214 17.3742 117.337 17.4567L118.006 17.5063Z" fill="#344054"/>
<path fill-rule="evenodd" clip-rule="evenodd" d="M10.1302 0.306641H23.0793C24.0546 0.306641 24.8451 1.09248 24.8451 2.06186C24.8451 2.44163 24.7212 2.81116 24.492 3.11499L18.1743 11.488C17.3895 12.5281 15.8199 12.5281 15.0351 11.488L8.7175 3.11499C8.48826 2.81116 8.36439 2.44163 8.36439 2.06186C8.36439 1.09248 9.15492 0.306641 10.1302 0.306641ZM0.0740744 20.0578L3.42557 7.62475C3.73407 6.48032 4.91748 5.80117 6.06881 6.10782C6.51986 6.22795 6.91956 6.49027 7.20789 6.85539L13.7093 15.0883C14.6784 16.3156 14.1909 18.124 12.7342 18.7052L2.96266 22.6039C2.5293 22.7768 2.05121 22.8053 1.60015 22.6852C0.448825 22.3785 -0.234422 21.2022 0.0740744 20.0578ZM29.3883 7.62475L32.7398 20.0578C33.0483 21.2022 32.3651 22.3785 31.2138 22.6852C30.7627 22.8053 30.2846 22.7768 29.8512 22.6039L20.0796 18.7052C18.623 18.124 18.1355 16.3156 19.1046 15.0883L25.606 6.85539C25.8944 6.49027 26.294 6.22795 26.7451 6.10782C27.8964 5.80117 29.0798 6.48032 29.3883 7.62475Z" fill="#344054"/>
</g>
<defs>
<clipPath id="clip0_3987_154442">
<rect width="120" height="22.4516" fill="white" transform="translate(0 0.306641)"/>
</clipPath>
</defs>
</svg>
