<svg width="120" height="25" viewBox="0 0 120 25" fill="none" xmlns="http://www.w3.org/2000/svg">
<g clip-path="url(#clip0_4564_153158)">
<path d="M0.765625 0.983629C0.861779 0.959533 0.959698 0.943127 1.05846 0.93457C3.55959 0.93457 6.06072 0.93457 8.56185 0.93457C8.62298 0.93457 8.68411 0.945136 8.77996 0.953438C11.1951 6.66665 13.6102 12.3829 16.0735 18.201C18.4758 12.3965 20.8426 6.68023 23.2132 0.954194H31.2034V23.9127H24.6434V10.6221L24.5324 10.5942C22.6396 15.0365 20.7465 19.4797 18.8532 23.924H13.1407L7.39506 10.49L7.33317 10.5044V23.93H0.767135L0.765625 0.983629Z" fill="#344054"/>
<path d="M106.888 24.4569C106.268 24.3814 105.648 24.3188 105.03 24.235C103.705 24.0554 102.416 23.7444 101.203 23.1663C98.8396 22.0395 97.6215 20.1157 97.3075 17.5723C97.2411 17.0305 97.2275 16.4818 97.1875 15.912H103.693C103.736 16.2252 103.769 16.5218 103.818 16.8176C104.098 18.4025 105.084 19.3082 106.629 19.6176C107.975 19.9003 109.367 19.882 110.705 19.564C111.261 19.4297 111.772 19.201 112.175 18.7738C112.883 18.0244 112.904 16.8471 112.118 16.1904C111.65 15.7995 111.072 15.4591 110.488 15.3037C108.927 14.8871 107.339 14.5693 105.757 14.2372C104.021 13.8742 102.285 13.5263 100.69 12.7172C99.3815 12.0546 98.3068 11.1429 97.8909 9.68177C97.2117 7.28555 97.7867 3.64404 101.104 1.96177C102.586 1.21158 104.169 0.860641 105.804 0.714226C108.079 0.509697 110.347 0.550451 112.586 1.05988C114.037 1.39045 115.388 1.94366 116.504 2.96102C117.831 4.16856 118.441 5.73309 118.659 7.47347C118.713 7.90441 118.735 8.33913 118.769 8.798H112.309C112.263 8.49611 112.224 8.19423 112.173 7.90366C111.954 6.65158 111.219 5.85158 109.997 5.53158C108.628 5.17512 107.192 5.1733 105.822 5.5263C105.2 5.68177 104.648 5.97913 104.345 6.59498C103.93 7.43649 104.135 8.30366 104.987 8.71875C105.754 9.08464 106.561 9.36312 107.391 9.54894C109.211 9.97083 111.055 10.2863 112.877 10.7021C114.118 10.9726 115.302 11.4579 116.376 12.1361C118.498 13.5037 119.267 15.4976 118.994 17.9225C118.652 20.9482 116.805 22.7323 114.036 23.7059C112.904 24.1044 111.731 24.3097 110.536 24.3965C110.426 24.411 110.316 24.4322 110.209 24.4599L106.888 24.4569Z" fill="#344054"/>
<path d="M79.6549 24.4568C78.8474 24.3586 78.036 24.2824 77.233 24.1549C75.8987 23.9466 74.6104 23.5805 73.4232 22.9156C71.3243 21.7405 70.2904 19.8832 70.0028 17.5571C69.9356 17.0168 69.9228 16.4688 69.8828 15.9005H76.3832C76.4383 16.2515 76.4813 16.5851 76.5432 16.9149C76.8081 18.3194 77.6647 19.1881 79.0338 19.5292C80.584 19.9164 82.147 19.9217 83.6866 19.4651C84.51 19.2213 85.1561 18.7473 85.3432 17.8417C85.4874 17.1466 85.2949 16.5519 84.7485 16.0862C84.0074 15.456 83.0987 15.1858 82.1825 14.9828C80.3711 14.5835 78.5364 14.2726 76.7326 13.8364C75.6457 13.5826 74.5846 13.2289 73.5628 12.7798C71.2081 11.7232 70.2466 10.0568 70.3613 7.48393C70.4926 4.54506 72.0972 2.45147 75.0089 1.43261C77.0421 0.720909 79.1545 0.571476 81.2866 0.606193C83.2036 0.637891 85.0957 0.840155 86.8995 1.55185C89.581 2.60846 90.9953 4.62204 91.3523 7.42959C91.4006 7.81449 91.4157 8.20317 91.4429 8.59034C91.442 8.65766 91.4357 8.7248 91.424 8.7911H85.0089C84.9847 8.6311 84.9515 8.4643 84.9334 8.29525C84.7764 6.74506 84.0142 5.83864 82.4987 5.4794C81.1974 5.16892 79.84 5.18007 78.544 5.51185C77.7681 5.70808 77.1266 6.09449 76.913 6.94959C76.7334 7.67034 76.9334 8.23261 77.5515 8.64921C78.3062 9.16015 79.1787 9.36242 80.0496 9.54732C81.8904 9.93751 83.741 10.2794 85.5749 10.696C86.779 10.9614 87.9299 11.4272 88.9795 12.0741C91.1621 13.4326 91.9697 15.4522 91.6836 17.9239C91.3063 21.179 89.2406 22.9685 86.2496 23.8386C85.2685 24.1247 84.2315 24.2122 83.2202 24.3911C83.11 24.4107 83.0013 24.4341 82.8927 24.4552L79.6549 24.4568Z" fill="#344054"/>
<ellipse cx="63.1048" cy="21.4378" rx="3.0189" ry="3.01887" fill="#344054"/>
<path d="M44.6479 19.0214C41.6388 18.767 39.0629 17.5942 37.3339 14.9904C36.2063 13.2946 35.8848 11.3881 35.9754 9.39116C36.152 5.45757 38.635 2.41832 42.6305 1.37606C43.7128 1.10374 44.8226 0.954872 45.9384 0.932282C48.3867 0.867376 50.8388 0.895301 53.2894 0.917942C55.106 0.933791 56.8637 1.27266 58.4909 2.11191C61.5302 3.67945 63.0192 6.22889 63.1468 9.59569C63.2283 11.7089 62.7739 13.6825 61.4864 15.407C60.0034 17.3889 57.9483 18.4425 55.5603 18.8787C54.7135 19.0342 53.8403 19.0757 52.9769 19.1051C51.8343 19.1421 49.5467 19.1142 49.5467 19.1142C49.5467 19.1142 45.1484 19.0638 44.6479 19.0214ZM49.4846 6.30586C49.4846 6.30586 46.6839 6.34587 45.5978 6.38133C44.8977 6.40419 44.1922 6.49661 43.5286 6.72097C42.0878 7.23191 41.2992 8.43493 41.2773 9.95493C41.2554 11.4749 41.9988 12.7014 43.4328 13.2515C44.0999 13.5058 44.8058 13.6434 45.5196 13.6583C48.1958 13.7044 50.8735 13.6998 53.5505 13.6583C54.2144 13.6438 54.8718 13.5246 55.4984 13.3051C56.9913 12.7874 57.8426 11.5421 57.8547 10.0183C57.8668 8.50889 57.0184 7.24172 55.5233 6.71417C54.8716 6.49388 54.1913 6.3698 53.5037 6.34587C53.0541 6.32759 49.4846 6.30586 49.4846 6.30586Z" fill="#344054"/>
</g>
<defs>
<clipPath id="clip0_4564_153158">
<rect width="118.34" height="24" fill="white" transform="translate(0.765625 0.532227)"/>
</clipPath>
</defs>
</svg>
