<svg width="568" height="563" viewBox="0 0 568 563" fill="none" xmlns="http://www.w3.org/2000/svg">
<mask id="mask0_3987_154317" style="mask-type:alpha" maskUnits="userSpaceOnUse" x="127" y="103" width="295" height="331">
<path d="M261.461 106.547C269.652 101.818 279.744 101.818 287.935 106.547L408.198 175.981C416.389 180.71 421.435 189.45 421.435 198.908V337.775C421.435 347.234 416.389 355.974 408.198 360.703L287.935 430.137C279.744 434.866 269.652 434.866 261.461 430.137L141.198 360.703C133.007 355.974 127.961 347.234 127.961 337.775V198.908C127.961 189.45 133.007 180.71 141.198 175.981L261.461 106.547Z" fill="#C4C4C4" fill-opacity="0.01"/>
</mask>
<g mask="url(#mask0_3987_154317)">
<circle opacity="0.6" cx="284.023" cy="278.023" r="279.047" fill="url(#paint0_linear_3987_154317)"/>
</g>
<path d="M261.469 106.547C269.66 101.818 279.752 101.818 287.943 106.547L408.206 175.981C416.397 180.71 421.443 189.45 421.443 198.908V337.775C421.443 347.234 416.397 355.974 408.206 360.703L287.943 430.137C279.752 434.866 269.66 434.866 261.469 430.137L141.206 360.703C133.015 355.974 127.969 347.234 127.969 337.775V198.908C127.969 189.45 133.015 180.71 141.206 175.981L261.469 106.547Z" fill="url(#paint1_linear_3987_154317)"/>
<path d="M288.356 105.832C279.909 100.955 269.502 100.955 261.056 105.832L140.793 175.266C132.347 180.142 127.143 189.155 127.143 198.908V337.775C127.143 347.529 132.347 356.541 140.793 361.418L261.056 430.852C269.502 435.728 279.909 435.728 288.356 430.852L408.618 361.418C417.065 356.541 422.269 347.529 422.269 337.775V198.908C422.269 189.155 417.065 180.142 408.618 175.266L288.356 105.832Z" stroke="white" stroke-opacity="0.1" stroke-width="1.65116"/>
<g clip-path="url(#clip0_3987_154317)">
<path d="M343 268C343 306.108 312.108 337 274 337C235.892 337 205 306.108 205 268C205 229.892 235.892 199 274 199C312.108 199 343 229.892 343 268Z" fill="white"/>
<circle cx="263" cy="331" r="80" fill="url(#paint2_linear_3987_154317)"/>
<g filter="url(#filter0_d_3987_154317)">
<circle cx="314" cy="315" r="80" fill="url(#paint3_linear_3987_154317)"/>
</g>
<circle cx="274" cy="359" r="80" fill="url(#paint4_linear_3987_154317)"/>
<g filter="url(#filter1_d_3987_154317)">
<circle cx="349" cy="331" r="80" fill="url(#paint5_linear_3987_154317)"/>
</g>
</g>
<defs>
<filter id="filter0_d_3987_154317" x="215.94" y="224.164" width="196.119" height="196.119" filterUnits="userSpaceOnUse" color-interpolation-filters="sRGB">
<feFlood flood-opacity="0" result="BackgroundImageFix"/>
<feColorMatrix in="SourceAlpha" type="matrix" values="0 0 0 0 0 0 0 0 0 0 0 0 0 0 0 0 0 0 127 0" result="hardAlpha"/>
<feOffset dy="7.22384"/>
<feGaussianBlur stdDeviation="9.0298"/>
<feComposite in2="hardAlpha" operator="out"/>
<feColorMatrix type="matrix" values="0 0 0 0 0 0 0 0 0 0 0 0 0 0 0 0 0 0 0.1 0"/>
<feBlend mode="normal" in2="BackgroundImageFix" result="effect1_dropShadow_3987_154317"/>
<feBlend mode="normal" in="SourceGraphic" in2="effect1_dropShadow_3987_154317" result="shape"/>
</filter>
<filter id="filter1_d_3987_154317" x="250.94" y="240.164" width="196.119" height="196.119" filterUnits="userSpaceOnUse" color-interpolation-filters="sRGB">
<feFlood flood-opacity="0" result="BackgroundImageFix"/>
<feColorMatrix in="SourceAlpha" type="matrix" values="0 0 0 0 0 0 0 0 0 0 0 0 0 0 0 0 0 0 127 0" result="hardAlpha"/>
<feOffset dy="7.22384"/>
<feGaussianBlur stdDeviation="9.0298"/>
<feComposite in2="hardAlpha" operator="out"/>
<feColorMatrix type="matrix" values="0 0 0 0 0 0 0 0 0 0 0 0 0 0 0 0 0 0 0.1 0"/>
<feBlend mode="normal" in2="BackgroundImageFix" result="effect1_dropShadow_3987_154317"/>
<feBlend mode="normal" in="SourceGraphic" in2="effect1_dropShadow_3987_154317" result="shape"/>
</filter>
<linearGradient id="paint0_linear_3987_154317" x1="32.7351" y1="-1.02344" x2="529.467" y2="-1.02344" gradientUnits="userSpaceOnUse">
<stop stop-color="#30C976"/>
<stop offset="1" stop-color="#3684CC"/>
</linearGradient>
<linearGradient id="paint1_linear_3987_154317" x1="274.706" y1="97.8393" x2="274.706" y2="438.844" gradientUnits="userSpaceOnUse">
<stop/>
<stop offset="1" stop-color="#2D3749"/>
</linearGradient>
<linearGradient id="paint2_linear_3987_154317" x1="190" y1="282.5" x2="264.068" y2="313.63" gradientUnits="userSpaceOnUse">
<stop stop-color="#30FFB4"/>
<stop offset="1" stop-color="#00B68A"/>
</linearGradient>
<linearGradient id="paint3_linear_3987_154317" x1="239.001" y1="278.997" x2="319.001" y2="318.497" gradientUnits="userSpaceOnUse">
<stop stop-color="#FFE353"/>
<stop offset="1" stop-color="#01E887"/>
</linearGradient>
<linearGradient id="paint4_linear_3987_154317" x1="229" y1="319.5" x2="280.261" y2="334.354" gradientUnits="userSpaceOnUse">
<stop stop-color="#30FFB4"/>
<stop offset="1" stop-color="#00B68A"/>
</linearGradient>
<linearGradient id="paint5_linear_3987_154317" x1="286.5" y1="314.998" x2="349" y2="327.498" gradientUnits="userSpaceOnUse">
<stop stop-color="#FFE353"/>
<stop offset="1" stop-color="#01E887"/>
</linearGradient>
<clipPath id="clip0_3987_154317">
<rect x="205" y="199" width="138" height="138" rx="69" fill="white"/>
</clipPath>
</defs>
</svg>
