<svg width="18" height="17" viewBox="0 0 18 17" fill="none" xmlns="http://www.w3.org/2000/svg">
<path d="M13.5007 5.65059C13.1808 5.46513 12.7696 5.46513 12.404 5.65059L9.8453 7.18064L8.10901 8.1543L5.59595 9.68435C5.27611 9.86981 4.86488 9.86981 4.49935 9.68435L2.5346 8.47886C2.21475 8.2934 1.98629 7.92248 1.98629 7.50519V5.18694C1.98629 4.81602 2.16906 4.4451 2.5346 4.21328L4.49935 3.05415C4.81919 2.86869 5.23042 2.86869 5.59595 3.05415L7.56071 4.25964C7.88055 4.4451 8.10901 4.81602 8.10901 5.23331V6.76335L9.8453 5.74332V4.16691C9.8453 3.79599 9.66253 3.42507 9.297 3.19325L5.64164 1.01409C5.3218 0.828635 4.91057 0.828635 4.54504 1.01409L0.798303 3.23961C0.432768 3.42507 0.25 3.79599 0.25 4.16691V8.52522C0.25 8.89614 0.432768 9.26706 0.798303 9.49889L4.49935 11.678C4.81919 11.8635 5.23042 11.8635 5.59595 11.678L8.10901 10.1944L9.8453 9.17433L12.3584 7.69065C12.6782 7.50519 13.0894 7.50519 13.455 7.69065L15.4197 8.84978C15.7396 9.03524 15.968 9.40616 15.968 9.82344V12.1417C15.968 12.5126 15.7852 12.8835 15.4197 13.1154L13.5007 14.2745C13.1808 14.4599 12.7696 14.4599 12.404 14.2745L10.4393 13.1154C10.1195 12.9299 9.89099 12.559 9.89099 12.1417V10.658L8.1547 11.678V13.2081C8.1547 13.579 8.33747 13.9499 8.703 14.1818L12.404 16.3609C12.7239 16.5464 13.1351 16.5464 13.5007 16.3609L17.2017 14.1818C17.5215 13.9963 17.75 13.6254 17.75 13.2081V8.80341C17.75 8.43249 17.5672 8.06157 17.2017 7.82975L13.5007 5.65059Z" fill="#8247E5"/>
</svg>
