<svg width="65" height="35" viewBox="0 0 65 35" fill="none" xmlns="http://www.w3.org/2000/svg">
<g clip-path="url(#clip0_3987_154505)">
<path d="M3.05505 23.0402C3.5448 23.2325 5.31248 22.565 4.95624 20.2349C4.6 17.9048 2.6035 11.9413 2.67482 8.59084C2.74613 5.24035 3.83986 3.94653 7.04805 3.75759C10.2562 3.56866 14.6528 4.5762 16.529 5.45531C18.4051 6.33442 19.9508 6.66734 17.1711 7.95069C14.3915 9.23403 12.6793 9.82686 10.0176 9.87553C7.35596 9.9242 6.14427 9.35368 5.55008 9.0674C4.9559 8.78112 4.19576 8.44956 3.60158 9.59027C3.0074 10.731 2.48622 11.7051 3.76787 12.2516C5.04952 12.7981 8.7363 13.707 13.0355 12.2993C15.6495 11.4438 18.8577 9.80422 20.7585 7.38016C22.6594 4.9561 21.7553 4.17231 18.6914 2.53272C15.6275 0.893138 11.7336 0.390886 7.83015 0.677839C3.62254 0.986761 0.417393 4.48123 0.203447 8.8298C-0.0105 13.1784 1.27318 16.9165 1.93834 19.1192C2.79413 21.9471 2.38854 22.7789 3.05505 23.0402Z" fill="#344054"/>
<path d="M16.329 13.5668C17.0895 13.947 19.7826 15.2141 19.45 17.9076C19.1174 20.601 17.0736 22.2649 15.4735 23.0717C13.8735 23.8785 11.3545 24.1969 9.88117 23.0717C8.40788 21.9465 9.3583 19.4441 9.75442 18.5427C10.1505 17.6412 11.9564 15.5802 11.9564 15.5802H11.179C10.9732 15.5802 10.6721 15.4217 10.6721 15.1364C10.6721 14.8511 10.8144 14.6135 11.1946 13.6949C11.5748 12.7762 12.9521 12.8384 13.7768 12.8867C14.3798 12.9209 15.5682 13.1865 16.329 13.5668ZM11.1959 20.0305C11.6238 21.2344 13.2239 21.2503 14.7131 20.9968C16.2022 20.7433 17.5329 19.9828 17.4379 18.6363C17.344 17.3053 13.7826 15.7698 13.6673 15.8796C12.6692 16.8301 10.7687 18.8262 11.1959 20.0305Z" fill="#344054"/>
<path d="M23.3508 17.7411C23.3508 17.7411 22.733 15.0318 22.6853 14.7229C22.6376 14.4139 22.424 13.4162 21.5922 14.2716C20.7604 15.1271 20.4279 15.9349 20.5468 16.5291C20.6658 17.1233 21.7014 21.3769 21.7538 21.8758C21.8062 22.3746 22.1151 22.8262 22.734 22.4459C23.3528 22.0657 23.8034 21.1866 23.8983 20.925C23.9933 20.6634 23.827 19.5943 24.5638 18.7618C25.3007 17.9294 27.2002 16.7657 29.2926 16.837C31.3851 16.9083 31.4585 17.0509 31.8614 17.1223C32.2642 17.1936 32.6965 16.7086 32.8831 16.3378C33.1173 15.873 33.5253 15.2447 33.4536 14.7218C33.382 14.199 33.2397 13.9972 32.1226 13.932C31.0056 13.8667 28.517 13.9455 26.4164 14.9845C24.2539 16.0539 23.3508 17.7411 23.3508 17.7411Z" fill="#344054"/>
<path d="M36.759 16.7247C37.0443 16.7362 37.5509 19.386 38.28 20.0369C39.009 20.6879 39.6657 21.1729 41.0623 20.9853C42.0962 20.8468 42.1297 20.5439 42.1297 20.5439C42.1297 20.5439 41.7971 18.7222 42.1138 17.8191C42.4305 16.916 42.6843 15.7597 43.7774 15.7912C44.8704 15.8226 44.0478 18.1199 44.0785 18.6269C44.1093 19.1338 44.2053 19.6408 44.7437 19.4823C45.2821 19.3238 48.2608 17.0268 49.0213 16.7108C49.7818 16.3948 51.7462 15.4116 52.9183 17.0752C54.0905 18.7387 54.0269 20.9387 53.6308 21.8256C53.2347 22.7124 52.3951 23.0457 51.9199 22.9031C51.4447 22.7604 51.6833 21.9256 51.6833 21.2236C51.6833 20.6217 51.3818 19.1318 49.9406 19.0693C48.8476 19.0216 47.2157 19.7503 45.8374 21.0337C44.4392 22.3356 43.6574 22.1338 42.8655 22.0547C42.8655 22.0547 42.4788 23.0139 41.4797 23.3624C40.4806 23.7108 38.137 24.0417 36.7587 22.5931C35.3803 21.1445 35.1934 18.8459 35.2854 18.3406C35.3807 17.8177 35.9668 16.6929 36.759 16.7247Z" fill="#2A385B"/>
<path d="M57.2237 17.3718C57.3142 17.7057 58.0436 20.2826 59.2799 20.7291C60.5643 21.1924 61.8226 21.1448 62.5472 20.5864C63.2718 20.0281 64.0681 20.0159 63.4503 21.4892C62.8325 22.9625 61.5373 23.9001 59.2931 23.7588C57.0489 23.6175 55.8457 21.1684 55.5148 19.8719C55.184 18.5754 55.5267 17.8639 56.3936 17.1034C57.2605 16.3429 57.1885 17.242 57.2237 17.3718Z" fill="#2A385B"/>
<path d="M59.5275 12.763C59.8959 12.7431 60.2754 13.0797 59.9111 13.8084C59.5467 14.5371 59.1979 14.965 59.008 15.1709C58.818 15.3767 58.2644 15.4558 57.5526 15.4548C56.8408 15.4538 55.2137 15.4926 54.7544 15.4886C54.4502 15.4866 53.8347 15.3003 54.2474 14.4766C54.6601 13.653 54.8737 13.4745 54.969 13.3636C55.0643 13.2528 55.3965 12.8114 56.157 12.8273C56.9175 12.8431 58.9377 12.7945 59.5275 12.763Z" fill="#2A385B"/>
<path d="M39.3712 12.763C39.7396 12.7431 40.1191 13.0797 39.7548 13.8084C39.3904 14.5371 39.0416 14.965 38.8517 15.1709C38.6617 15.3767 38.1419 15.4558 37.4294 15.4548C36.717 15.4538 35.0574 15.4926 34.5981 15.4886C34.2939 15.4866 33.6784 15.3003 34.0911 14.4766C34.5038 13.653 34.7174 13.4745 34.8127 13.3636C34.908 13.2528 35.2403 12.8114 36.0008 12.8273C36.7612 12.8431 38.7817 12.7948 39.3712 12.763Z" fill="#2A385B"/>
<path d="M40.5275 12.7274C40.8959 12.7075 41.2754 13.0441 40.9111 13.7728C40.5467 14.5015 40.1979 14.9294 40.008 15.1352C39.818 15.3411 39.2644 15.4543 38.5506 15.4533C37.8367 15.4523 36.2137 15.457 35.7544 15.4533C35.4502 15.4512 34.8347 15.265 35.2474 14.4413C35.6601 13.6177 35.8737 13.4392 35.969 13.3283C36.0643 13.2175 36.3965 12.7761 37.157 12.792C37.9175 12.8078 39.9373 12.7588 40.5275 12.7274Z" fill="#667085"/>
<path d="M37.9227 16.7192C38.208 16.7307 38.7146 19.3808 39.4437 20.0315C40.1727 20.6821 40.8294 21.1671 42.226 20.9798C43.2599 20.8413 43.2934 20.5381 43.2934 20.5381C43.2934 20.5381 42.9608 18.7163 43.2775 17.8132C43.5942 16.9101 43.848 15.7539 44.9411 15.7853C46.0341 15.8167 45.2115 18.114 45.2422 18.621C45.273 19.128 45.369 19.635 45.9074 19.4765C46.4458 19.318 49.4245 17.021 50.185 16.705C50.9454 16.3889 52.9098 15.4061 54.082 17.0693C55.2541 18.7326 55.1909 20.9349 54.7948 21.8221C54.3987 22.7093 53.5591 23.0419 53.0839 22.8993C52.6087 22.7567 52.8473 21.9218 52.8473 21.2202C52.8473 20.6182 52.5458 19.1283 51.1046 19.0655C50.0116 19.0182 48.3798 19.7469 47.0014 21.0299C45.6032 22.3318 44.8214 22.1304 44.0295 22.0509C44.0295 22.0509 43.6432 23.0102 42.6438 23.359C41.6443 23.7078 39.301 24.0383 37.9227 22.5897C36.5444 21.1411 36.3575 18.8424 36.4494 18.3368C36.5444 17.8122 37.1305 16.6881 37.9227 16.7192Z" fill="#667085"/>
<path d="M58.3729 17.366C58.4634 17.7 59.1928 20.2768 60.4292 20.7233C61.7136 21.1867 62.9719 21.1393 63.6965 20.5806C64.4212 20.0219 65.2175 20.0105 64.5996 21.4837C63.9818 22.957 62.6866 23.8946 60.4424 23.753C58.1981 23.6114 56.9966 21.163 56.664 19.8678C56.3314 18.5727 56.6758 17.8598 57.5428 17.0994C58.4097 16.3389 58.3377 17.2363 58.3729 17.366Z" fill="#667085"/>
<path d="M60.6836 12.7274C61.052 12.7075 61.4316 13.0441 61.0672 13.7728C60.7029 14.5015 60.3541 14.9294 60.1641 15.1352C59.9742 15.3411 59.4206 15.4543 58.7067 15.4533C57.9929 15.4523 56.3699 15.457 55.9106 15.4533C55.6064 15.4512 54.9909 15.265 55.4036 14.4413C55.8163 13.6177 56.0299 13.4392 56.1252 13.3283C56.2205 13.2175 56.5528 12.7761 57.3132 12.792C58.0737 12.8078 60.0942 12.7588 60.6836 12.7274Z" fill="#667085"/>
<path d="M3.28622 30.0797V29.8141C3.28622 29.0989 3.43843 28.5658 3.74285 28.2147C4.04726 27.8637 4.41206 27.6883 4.83725 27.6885C5.05707 27.6928 5.27574 27.7215 5.48923 27.774V28.6338C5.35958 28.5846 5.22232 28.5584 5.08365 28.5564C4.7389 28.5564 4.49972 28.6483 4.3661 28.8319C4.23248 29.0155 4.16567 29.3423 4.16567 29.8121V30.0777H4.95792V30.87H4.16567V34.5223H3.2869V30.872H2.64844V30.0797H3.28622Z" fill="#344054"/>
<path d="M9.69297 30.0698C10.3689 30.0698 10.9309 30.2881 11.3789 30.7245C11.8268 31.161 12.0507 31.7096 12.0504 32.3705C12.0504 33.0114 11.8235 33.5435 11.3697 33.9669C10.9159 34.3902 10.3447 34.6017 9.65613 34.6013C8.98938 34.6013 8.43204 34.3864 7.98409 33.9567C7.53614 33.527 7.31227 32.9899 7.3125 32.3455C7.3125 31.695 7.53873 31.1531 7.99118 30.7198C8.44364 30.2865 9.0109 30.0698 9.69297 30.0698ZM9.64497 30.8621C9.22316 30.8621 8.87683 31.0005 8.60599 31.2775C8.33515 31.5544 8.19995 31.9071 8.2004 32.3357C8.2004 32.7609 8.33886 33.1079 8.61579 33.3767C8.89272 33.6455 9.24862 33.7801 9.6835 33.7803C10.1148 33.7803 10.4682 33.6442 10.7438 33.372C11.0194 33.0998 11.1571 32.7505 11.1571 32.3242C11.1571 31.9024 11.0138 31.5532 10.7272 31.2764C10.4406 30.9997 10.0799 30.8616 9.64497 30.8621V30.8621Z" fill="#344054"/>
<path d="M17.8648 34.5241V33.9539C17.685 34.1534 17.4679 34.3159 17.2257 34.4321C17.0022 34.5412 16.7572 34.5989 16.5085 34.6011C16.2358 34.6032 15.9676 34.5306 15.7332 34.3912C15.5026 34.2576 15.3161 34.0594 15.1968 33.8211C15.0762 33.5811 15.0159 33.1825 15.0156 32.6253V30.0796H15.8944V32.6128C15.8944 33.0792 15.9611 33.4048 16.0945 33.5895C16.2279 33.7743 16.4622 33.8668 16.7975 33.867C17.2159 33.867 17.5719 33.6625 17.8655 33.2536V30.0796H18.7443V34.5241H17.8648Z" fill="#344054"/>
<path d="M22.8671 30.0799V30.645C23.2598 30.2104 23.706 29.9929 24.2055 29.9927C24.4781 29.9917 24.7456 30.0661 24.9785 30.2076C25.2129 30.3473 25.4016 30.5521 25.5216 30.7971C25.6455 31.047 25.7076 31.4423 25.7078 31.9831V34.5245H24.8294V31.9929C24.8294 31.5389 24.7603 31.2144 24.6219 31.0195C24.4836 30.8246 24.2516 30.7271 23.926 30.7271C23.5107 30.7271 23.1581 30.9349 22.8681 31.3504V34.5245H21.9688V30.0799H22.8671Z" fill="#344054"/>
<path d="M31.9139 27.7744H32.7977V34.5234H30.9172C30.2601 34.5234 29.7359 34.3156 29.3446 33.9001C28.9532 33.4846 28.7576 32.9275 28.7578 32.2288C28.7578 31.5753 28.963 31.0375 29.3733 30.6152C29.7836 30.193 30.3078 29.9819 30.9459 29.9822C31.2422 29.9822 31.5644 30.0449 31.9126 30.1704L31.9139 27.7744ZM31.9139 33.7697V30.9546C31.6572 30.8203 31.3722 30.749 31.0825 30.7467C30.6444 30.7467 30.2959 30.89 30.0367 31.1766C29.7776 31.4632 29.6481 31.8501 29.6481 32.3373C29.6481 32.7945 29.7607 33.1471 29.986 33.3952C30.1016 33.5299 30.2496 33.6331 30.416 33.695C30.5674 33.7463 30.8396 33.772 31.2325 33.772L31.9139 33.7697Z" fill="#344054"/>
<path d="M38.7903 31.853V33.7417C38.7903 33.8935 38.8417 33.9688 38.9448 33.9688C39.0479 33.9688 39.2172 33.8901 39.4427 33.7322V34.2683C39.2913 34.3712 39.1303 34.4594 38.962 34.5316C38.8411 34.5783 38.7125 34.602 38.5828 34.6015C38.2056 34.6015 37.9833 34.4534 37.916 34.1571C37.5421 34.4475 37.1444 34.5925 36.7229 34.5921C36.4137 34.5921 36.1561 34.4899 35.9499 34.2855C35.7437 34.0812 35.6406 33.8242 35.6406 33.5146C35.6406 33.2347 35.7412 32.9844 35.9424 32.7635C36.1437 32.5427 36.4295 32.368 36.7999 32.2393L37.9258 31.853V31.6164C37.9258 31.0817 37.6584 30.8143 37.1237 30.8143C36.6438 30.8143 36.1768 31.0622 35.7228 31.5579V30.5967C36.0641 30.194 36.5553 29.9927 37.1964 29.9927C37.6761 29.9927 38.061 30.1183 38.351 30.3695C38.4558 30.4608 38.5441 30.5696 38.6119 30.691C38.6851 30.8144 38.7351 30.9503 38.7592 31.0918C38.78 31.2257 38.7903 31.4794 38.7903 31.853ZM37.9258 33.6444V32.3262L37.337 32.5533C37.0375 32.6723 36.8258 32.7923 36.7019 32.9133C36.5842 33.0331 36.5175 33.1938 36.5157 33.3617C36.5138 33.5296 36.5771 33.6917 36.6921 33.814C36.8097 33.9301 36.9618 33.9881 37.1484 33.9881C37.4278 33.9881 37.6867 33.8737 37.9251 33.645L37.9258 33.6444Z" fill="#344054"/>
<path d="M41.6094 30.7854L43.261 29.1631V30.0811H44.6673V30.8733H43.261V33.0469C43.261 33.555 43.4722 33.809 43.8944 33.8088C44.2098 33.8088 44.5431 33.7041 44.8941 33.4948V34.3161C44.5566 34.5061 44.1752 34.6043 43.7879 34.601C43.3851 34.601 43.0501 34.4835 42.7831 34.2485C42.7016 34.1803 42.6314 34.0995 42.5753 34.0092C42.5123 33.9008 42.466 33.7835 42.4377 33.6614C42.4006 33.5183 42.3821 33.2454 42.3823 32.8428V30.8723H41.6094V30.7854Z" fill="#344054"/>
<path d="M47.9808 28.2105C48.0496 28.2093 48.118 28.2219 48.1819 28.2477C48.2457 28.2734 48.3038 28.3117 48.3525 28.3603C48.4026 28.4072 48.4423 28.4641 48.4689 28.5273C48.4956 28.5906 48.5087 28.6587 48.5073 28.7273C48.5081 28.7958 48.4947 28.8638 48.4681 28.9269C48.4414 28.9901 48.4021 29.0471 48.3525 29.0944C48.3044 29.1441 48.2466 29.1835 48.1827 29.2101C48.1187 29.2367 48.05 29.2498 47.9808 29.2488C47.9136 29.2488 47.8471 29.2349 47.7856 29.2079C47.724 29.1809 47.6687 29.1415 47.6232 29.092C47.5742 29.0448 47.5352 28.9881 47.5087 28.9255C47.4821 28.8628 47.4686 28.7954 47.4688 28.7273C47.4689 28.66 47.4826 28.5934 47.5091 28.5315C47.5357 28.4697 47.5745 28.4138 47.6232 28.3674C47.6688 28.318 47.7241 28.2786 47.7856 28.2516C47.8471 28.2246 47.9136 28.2106 47.9808 28.2105ZM47.5458 30.08H48.4245V34.5245H47.5458V30.08Z" fill="#344054"/>
<path d="M53.8339 30.0698C54.5099 30.0698 55.0719 30.2881 55.5198 30.7245C55.9678 31.161 56.1916 31.7096 56.1914 32.3705C56.1914 33.0114 55.9644 33.5435 55.5104 33.9669C55.0563 34.3902 54.485 34.6017 53.7964 34.6013C53.1294 34.6013 52.5721 34.3864 52.1244 33.9567C51.6766 33.527 51.4529 32.9899 51.4531 32.3455C51.4531 31.695 51.6794 31.1531 52.1318 30.7198C52.5843 30.2865 53.1516 30.0698 53.8339 30.0698ZM53.7856 30.8621C53.3638 30.8621 53.0176 31.0005 52.7469 31.2775C52.4763 31.5544 52.3417 31.9075 52.3431 32.3367C52.3431 32.7619 52.4815 33.1089 52.7584 33.3777C53.0354 33.6466 53.3913 33.7811 53.8262 33.7813C54.2574 33.7813 54.6107 33.6452 54.8861 33.373C55.1614 33.1008 55.2992 32.7516 55.2995 32.3252C55.2995 31.9034 55.1561 31.5542 54.8695 31.2775C54.5829 31.0008 54.2216 30.8623 53.7856 30.8621V30.8621Z" fill="#344054"/>
<path d="M60.0543 30.0799V30.645C60.4471 30.2104 60.8933 29.9929 61.3928 29.9927C61.6654 29.9917 61.9329 30.0661 62.1658 30.2076C62.4002 30.3473 62.5889 30.5521 62.709 30.7971C62.8332 31.047 62.8952 31.4423 62.8952 31.9831V34.5245H62.0164V31.9929C62.0164 31.5389 61.9473 31.2144 61.8089 31.0195C61.6705 30.8246 61.4386 30.7271 61.113 30.7271C60.6977 30.7271 60.345 30.9349 60.055 31.3504V34.5245H59.1562V30.0799H60.0543Z" fill="#344054"/>
<path d="M2.97656 25.5982C5.50472 25.4826 8.03288 25.4326 10.561 25.3477L18.1458 25.2058C23.2022 25.1118 28.2585 25.0986 33.3151 25.0854C38.3714 25.0973 43.4277 25.1108 48.4841 25.2041L56.0689 25.3474C58.597 25.4329 61.1252 25.4826 63.6533 25.5995C61.1252 25.7161 58.597 25.7662 56.0689 25.8517L48.4858 25.994C43.4294 26.0873 38.3731 26.1008 33.3168 26.1123C28.2602 26.0994 23.2038 26.0862 18.1475 25.9923L10.561 25.848C8.03288 25.7641 5.50472 25.7128 2.97656 25.5982Z" fill="#344054"/>
</g>
<defs>
<clipPath id="clip0_3987_154505">
<rect width="64.6424" height="34" fill="white" transform="translate(0.179688 0.601562)"/>
</clipPath>
</defs>
</svg>
