<svg width="109" height="49" viewBox="0 0 109 49" fill="none" xmlns="http://www.w3.org/2000/svg">
<g clip-path="url(#clip0_4562_152973)">
<path d="M0.84375 24.1225C1.32451 23.4795 1.80629 22.8375 2.29922 22.1792L17.2413 24.0657L17.2484 24.1499L2.30125 26.145L0.84375 24.1966V24.1225Z" fill="#344054"/>
<path d="M107.739 23.0293C107.675 23.0459 107.609 23.0571 107.544 23.0628C106.69 23.0628 105.836 23.0628 104.931 23.0628L101.289 16.673V23.0253H99.0625V13.4385H101.902L105.531 19.8091V13.4253H107.743L107.739 23.0293Z" fill="#344054"/>
<path d="M66.6376 19.1952L69.1053 23.0311H66.2786L64.243 19.5623H62.7794V23.0362H60.2812V13.4321C60.407 13.424 60.5247 13.4098 60.6433 13.4098C62.1303 13.4098 63.6172 13.4007 65.1061 13.4098C66.0047 13.4169 66.8374 13.633 67.5687 14.1989C68.9948 15.3024 68.9157 18.2276 66.9602 19.0278C66.8577 19.0714 66.7644 19.1313 66.6376 19.1952ZM62.8007 17.7286C63.1547 17.7286 63.4741 17.7367 63.7926 17.7286C64.2369 17.7133 64.6872 17.7286 65.1213 17.6505C65.7035 17.549 65.9601 17.1768 65.9692 16.5632C65.9784 15.9262 65.7278 15.5489 65.1355 15.4241C64.8018 15.3542 64.4489 15.3663 64.104 15.3582C63.675 15.3481 63.2459 15.3582 62.8007 15.3582V17.7286Z" fill="#344054"/>
<path d="M83.6515 19.5432V17.8575H87.9976V23.0302H86.2825C86.248 22.6996 86.2125 22.372 86.1811 22.0454C86.1445 22.0454 86.109 22.0362 86.1009 22.0454C85.3565 23.0018 84.3179 23.2473 83.1859 23.2077C81.9201 23.1621 80.8136 22.731 79.9941 21.7157C79.417 21.0007 79.1319 20.1619 79.0163 19.2643C78.8966 18.3372 78.9149 17.4071 79.1745 16.5034C79.6878 14.7234 80.8876 13.6777 82.6981 13.3481C83.6648 13.1678 84.6602 13.2161 85.6049 13.489C86.1568 13.6487 86.6623 13.9383 87.0792 14.3336C87.496 14.7289 87.812 15.2184 88.0006 15.761L85.7013 16.6738C85.6557 16.615 85.6333 16.5988 85.6273 16.5775C85.3656 15.6433 84.6444 15.2589 83.7478 15.2782C82.8279 15.2985 82.1453 15.7478 81.8289 16.6434C81.4455 17.7147 81.4556 18.8874 81.8573 19.9519C82.1473 20.7512 82.764 21.169 83.6099 21.2279C84.1079 21.2654 84.5998 21.2492 85.0583 21.0088C85.6273 20.7096 85.9102 20.1751 85.7977 19.5442L83.6515 19.5432Z" fill="#344054"/>
<path d="M92.4357 15.3725V17.2641H96.3589V19.1436H92.4448V21.0585H97.5658V23.0343H89.8828V13.4424H97.3812V15.3695L92.4357 15.3725Z" fill="#344054"/>
<path d="M70.3203 23.0291V13.4312H77.7914V15.3725H72.8692V17.2641H76.7741V19.1425H72.8692V21.0696H78.0034V23.0322L70.3203 23.0291Z" fill="#344054"/>
<path d="M46.9341 38.8152L44.5728 39.5789L33.6016 29.3684L33.6472 29.2974L46.9341 36.3577V38.8152Z" fill="#344054"/>
<path d="M23.6011 32.5419C22.6974 37.4236 21.7947 42.3052 20.8859 47.2193L18.5176 47.9841C18.0236 47.3167 17.5449 46.6726 17.0469 46.0012C19.2106 41.506 21.3727 37.0114 23.5331 32.5176L23.6011 32.5419Z" fill="#344054"/>
<path d="M23.4586 15.6554L16.9531 2.27826L18.4106 0.296387L20.785 1.04187C21.7053 5.89546 22.6276 10.7575 23.5519 15.628L23.4586 15.6554Z" fill="#344054"/>
<path d="M44.5292 8.62646L46.8732 9.37296V11.8518L33.6563 18.9223L33.6016 18.8513L44.5292 8.62646Z" fill="#344054"/>
<path d="M78.7969 27.9897H79.7178C80.2338 29.9216 80.7497 31.8514 81.2656 33.7792L81.3346 33.7873L82.856 27.9938H83.8266C84.3371 29.9473 84.8443 31.8943 85.348 33.8349H85.4007C85.9221 31.8916 86.4424 29.9493 86.9668 27.9918H87.837C87.1787 30.2313 86.5286 32.4434 85.8754 34.6636H84.8226C84.3266 32.8187 83.8317 30.9768 83.3215 29.0851L81.8326 34.6636H80.7747C80.1185 32.4576 79.4643 30.2445 78.7969 27.9897Z" fill="#344054"/>
<path d="M65.6222 34.674H64.5887L61.1838 29.1625V34.6578H60.3906V28.0072H61.4424C62.5581 29.8147 63.7032 31.6586 64.8412 33.5025V27.9961H65.6222V34.674Z" fill="#344054"/>
<path d="M88.5019 31.2681C88.4843 30.6998 88.5913 30.1345 88.8153 29.6119C89.369 28.3308 90.5172 27.8176 91.7718 27.8704C93.7091 27.9515 94.63 29.3765 94.7132 30.971C94.7487 31.6444 94.702 32.3037 94.4474 32.9366C94.0539 33.9194 93.3439 34.5483 92.2972 34.7207C90.9523 34.9459 89.8103 34.597 89.083 33.535C88.6783 32.9478 88.5008 32.2378 88.5019 31.2681ZM89.6003 32.5816C89.9198 33.5157 90.6886 34.0016 91.6937 33.9803C92.641 33.9559 93.3612 33.4245 93.6502 32.4964C93.9269 31.6659 93.8999 30.7642 93.5742 29.9516C93.2395 29.122 92.494 28.6544 91.5832 28.6666C90.6724 28.6787 89.932 29.1565 89.6317 30.0013C89.3231 30.8985 89.294 31.6785 89.6003 32.5816Z" fill="#344054"/>
<path d="M97.0454 34.669H96.2188V27.9951C97.3519 27.9951 99.3804 27.9431 99.8368 28.092C101.005 28.4731 101.338 29.833 100.812 30.8686C100.559 31.3645 100.12 31.6242 99.5831 31.8321L101.438 34.672H100.424L98.6195 31.9477H97.0423L97.0454 34.669ZM97.0565 31.0765C97.1053 31.0885 97.1547 31.0973 97.2046 31.1029C97.7006 31.1029 98.1955 31.1089 98.6905 31.1029C98.8637 31.1072 99.037 31.0947 99.2078 31.0653C99.863 30.9304 100.156 30.5257 100.121 29.834C100.089 29.2255 99.7098 28.8045 99.0698 28.8045C98.569 28.8045 97.7156 28.8045 97.0454 28.8045L97.0565 31.0765Z" fill="#344054"/>
<path d="M67.5567 27.9922H72.2122V28.7742H68.4036V30.8778H71.345V31.677H68.4036V33.8648H72.3735V34.664H67.5547L67.5567 27.9922Z" fill="#344054"/>
<path d="M107.959 34.6748H106.932L104.729 31.4484L103.483 32.6148V34.6616H102.672V28.003H103.467V31.2486L103.549 31.2973L106.795 27.9888H107.92C107.007 28.927 106.146 29.8144 105.27 30.711C106.16 32.0245 107.039 33.3207 107.959 34.6748Z" fill="#344054"/>
<path d="M72.9609 27.9951H78.4004V28.7761H76.1275V34.6497H75.2704V28.7964H72.9609V27.9951Z" fill="#344054"/>
<path d="M13.4844 33.0269V31.4893L18.936 29.1504L18.9989 29.2346L14.9104 33.5279L13.4844 33.0269Z" fill="#344054"/>
<path d="M30.6172 16.3525C31.2068 14.4951 31.7961 12.6356 32.385 10.7741L33.9247 10.6118L34.5667 11.9983L30.6851 16.3992L30.6172 16.3525Z" fill="#344054"/>
<path d="M18.5518 36.4999H16.9756C16.8326 35.9927 16.6977 35.5252 16.5547 35.0231L20.9363 31.1831L21.0124 31.2298L18.5518 36.4999Z" fill="#344054"/>
<path d="M17.7355 26.8113L12.576 29.6878L11.3203 28.7932C11.4806 28.3043 11.6368 27.8286 11.797 27.3377L17.7071 26.7383L17.7355 26.8113Z" fill="#344054"/>
<path d="M27.5962 38.6275L26.3426 39.5251L25.0859 38.6315C25.4768 36.7382 25.8669 34.845 26.2564 32.9517H26.3467C26.7615 34.8402 27.1773 36.7278 27.5962 38.6275Z" fill="#344054"/>
<path d="M25.0547 9.6127L26.2718 8.66943L27.567 9.51127C27.1502 11.4242 26.7373 13.3219 26.3245 15.2195H26.2231C25.8347 13.3503 25.4462 11.4881 25.0547 9.6127Z" fill="#344054"/>
<path d="M41.9638 24.1308L41.0581 25.3692L35.2656 24.1237V24.0446L41.054 22.8984L41.9638 24.1308Z" fill="#344054"/>
<path d="M15.1806 13.2069L16.7142 12.9614L19.9456 17.8126L19.8939 17.8806L14.9453 14.7141C15.0224 14.2252 15.0995 13.7292 15.1806 13.2069Z" fill="#344054"/>
<path d="M29.2509 32.5601C30.2286 34.19 31.2054 35.8199 32.1973 37.4752L31.2926 38.7166L29.8128 38.242C29.5896 36.3483 29.3695 34.473 29.1484 32.5976L29.2509 32.5601Z" fill="#344054"/>
</g>
<defs>
<clipPath id="clip0_4562_152973">
<rect width="107.237" height="48" fill="white" transform="translate(0.84375 0.266113)"/>
</clipPath>
</defs>
</svg>
