<svg width="64" height="33" viewBox="0 0 64 33" fill="none" xmlns="http://www.w3.org/2000/svg">
<g clip-path="url(#clip0_3987_154490)">
<path fill-rule="evenodd" clip-rule="evenodd" d="M10.526 17.7629C7.49172 16.5874 6.21481 15.9298 6.21481 14.4421C6.21481 13.2659 7.31927 12.1949 9.59534 12.1949C11.8372 12.1949 13.5274 12.8512 14.4239 13.3005L15.5962 9.08046C14.2166 8.42348 12.3196 7.9043 9.66379 7.9043C4.21453 7.9043 0.868879 10.9143 0.868879 14.8921C0.868879 18.3174 3.42205 20.462 7.28373 21.8445C10.0778 22.813 11.181 23.679 11.181 25.0961C11.181 26.653 9.90535 27.6561 7.49172 27.6561C5.24922 27.6561 3.04161 26.9299 1.66333 26.2037L0.59375 30.5276C1.90423 31.2538 4.5252 31.9807 7.18105 31.9807C13.561 31.9807 16.5269 28.6599 16.5269 24.7507C16.5269 21.4298 14.6306 19.2852 10.526 17.7629ZM51.7355 19.6378C52.9835 17.7309 53.7127 15.8063 53.7127 14.0267C53.7127 11.8827 52.5747 10.2919 50.9536 9.42658C49.2639 8.42348 47.2972 8.11262 44.0911 8.11262C41.4353 8.11262 38.6761 8.71213 37.2965 8.98838V24.1714C39.1428 23.2911 40.9357 22.1763 42.5042 20.9329V12.125C42.9175 12.0205 43.5731 11.952 44.746 11.952C47.1254 11.952 48.4708 12.8852 48.4708 14.6491C48.4708 20.6605 37.3814 28.0493 30.1622 28.0493C25.5054 28.0493 22.7759 24.6462 22.7759 19.9774C22.7759 14.7543 26.0175 12.2282 30.1563 12.2282C32.0539 12.2282 33.5368 12.6436 34.5715 13.0942L35.6753 8.94201C34.7433 8.45875 32.6739 7.9043 29.9496 7.9043C22.9147 7.9043 17.2581 12.2981 17.2581 20.2537C17.2581 26.9299 21.3673 31.9807 29.4033 31.9807C36.1571 31.9807 43.7528 28.1048 48.6288 23.3505C48.794 23.5268 48.9724 23.8566 48.9757 24.1557C49.0013 26.8378 43.0005 30.19 39.3573 31.6215C45.8742 32.5972 50.4566 30.9352 52.1456 29.5859C53.5943 28.4437 54.5592 26.7836 54.5592 24.639C54.5592 22.3624 53.433 20.641 51.7355 19.6378Z" fill="#344054"/>
<path fill-rule="evenodd" clip-rule="evenodd" d="M55.309 6.1471C54.764 6.30057 50.0625 7.62628 50.0625 7.62628C50.0625 7.62628 54.6456 9.31575 55.1774 9.51102C55.1544 10.0785 54.9576 14.9726 54.9576 14.9726C54.9576 14.9726 57.9767 11.1221 58.3262 10.6761C58.8574 10.8726 63.4372 12.5732 63.4372 12.5732C63.4372 12.5732 60.7195 8.504 60.4042 8.03249C60.755 7.58645 63.7828 3.74318 63.7828 3.74318C63.7828 3.74318 59.0832 5.07869 58.5388 5.23412C58.2255 4.7613 55.5157 0.685547 55.5157 0.685547C55.5157 0.685547 55.3301 5.57959 55.309 6.1471ZM56.193 6.84587C56.193 6.84587 56.2694 4.8351 56.3181 3.53681C57.0368 4.61828 58.1492 6.29338 58.1492 6.29338C58.1492 6.29338 60.0797 5.74416 61.3263 5.38955C60.5233 6.40898 59.2793 7.98742 59.2793 7.98742C59.2793 7.98742 60.3963 9.65926 61.117 10.7388C59.9026 10.2875 58.0208 9.58938 58.0208 9.58938C58.0208 9.58938 56.7808 11.1711 55.9804 12.1925C56.0324 10.8949 56.1127 8.88408 56.1127 8.88408C56.1127 8.88408 54.2296 8.18987 53.0145 7.74122C54.2612 7.38987 56.193 6.84587 56.193 6.84587Z" fill="#344054"/>
</g>
<defs>
<clipPath id="clip0_3987_154490">
<rect width="63.4074" height="32" fill="white" transform="translate(0.59375 0.532227)"/>
</clipPath>
</defs>
</svg>
