<svg width="560" height="390" viewBox="0 0 560 390" fill="none" xmlns="http://www.w3.org/2000/svg">
<g filter="url(#filter0_d_3994_144567)">
<path d="M264.151 35.1505C273.958 29.4881 286.042 29.4881 295.849 35.1505L506.638 156.85C516.445 162.512 522.487 172.976 522.487 184.301V427.699C522.487 439.024 516.445 449.488 506.638 455.15L295.849 576.85C286.042 582.512 273.958 582.512 264.151 576.85L53.3619 455.15C43.5545 449.488 37.5129 439.024 37.5129 427.699V184.301C37.5129 172.976 43.5545 162.512 53.3619 156.85L264.151 35.1505Z" fill="white"/>
</g>
<path d="M98.6147 170.539C99.7044 169.91 101.047 169.91 102.137 170.539L113.865 177.31C114.955 177.939 115.626 179.102 115.626 180.36V193.904C115.626 195.162 114.955 196.325 113.865 196.954L102.137 203.725C101.047 204.355 99.7044 204.355 98.6147 203.725L86.8859 196.954C85.7962 196.325 85.1249 195.162 85.1249 193.904V180.36C85.1249 179.102 85.7962 177.939 86.8859 177.31L98.6147 170.539Z" stroke="#D0D5DD" stroke-width="2.64151" stroke-linecap="round" stroke-linejoin="round"/>
<path d="M105.353 182.151C108.104 184.902 108.104 189.362 105.353 192.113C102.602 194.864 98.1421 194.864 95.3913 192.113C92.6404 189.362 92.6404 184.902 95.3913 182.151C98.1421 179.4 102.602 179.4 105.353 182.151Z" fill="#F46780"/>
<path d="M98.6147 218.086C99.7044 217.457 101.047 217.457 102.137 218.086L113.865 224.857C114.955 225.487 115.626 226.649 115.626 227.908V241.451C115.626 242.709 114.955 243.872 113.865 244.501L102.137 251.272C101.047 251.902 99.7044 251.902 98.6147 251.272L86.8859 244.501C85.7962 243.872 85.1249 242.709 85.1249 241.451V227.908C85.1249 226.649 85.7962 225.487 86.8859 224.857L98.6147 218.086Z" stroke="#D0D5DD" stroke-width="2.64151" stroke-linecap="round" stroke-linejoin="round"/>
<path d="M105.353 229.698C108.104 232.449 108.104 236.909 105.353 239.66C102.602 242.411 98.1421 242.411 95.3913 239.66C92.6404 236.909 92.6404 232.449 95.3913 229.698C98.1421 226.948 102.602 226.948 105.353 229.698Z" fill="#FB8275"/>
<path d="M98.6147 265.633C99.7044 265.004 101.047 265.004 102.137 265.633L113.865 272.405C114.955 273.034 115.626 274.196 115.626 275.455V288.998C115.626 290.256 114.955 291.419 113.865 292.048L102.137 298.82C101.047 299.449 99.7044 299.449 98.6147 298.82L86.8859 292.048C85.7962 291.419 85.1249 290.256 85.1249 288.998V275.455C85.1249 274.196 85.7962 273.034 86.8859 272.405L98.6147 265.633Z" stroke="#D0D5DD" stroke-width="2.64151" stroke-linecap="round" stroke-linejoin="round"/>
<path d="M105.353 277.246C108.104 279.996 108.104 284.456 105.353 287.207C102.602 289.958 98.1421 289.958 95.3913 287.207C92.6404 284.456 92.6404 279.996 95.3913 277.246C98.1421 274.495 102.602 274.495 105.353 277.246Z" fill="#F46780"/>
<path d="M98.6147 313.18C99.7044 312.551 101.047 312.551 102.137 313.18L113.865 319.952C114.955 320.581 115.626 321.744 115.626 323.002V336.545C115.626 337.804 114.955 338.966 113.865 339.595L102.137 346.367C101.047 346.996 99.7044 346.996 98.6147 346.367L86.8859 339.595C85.7962 338.966 85.1249 337.804 85.1249 336.545V323.002C85.1249 321.744 85.7962 320.581 86.8859 319.952L98.6147 313.18Z" stroke="#D0D5DD" stroke-width="2.64151" stroke-linecap="round" stroke-linejoin="round"/>
<path d="M105.353 324.793C108.104 327.544 108.104 332.004 105.353 334.755C102.602 337.506 98.1421 337.506 95.3913 334.755C92.6404 332.004 92.6404 327.544 95.3913 324.793C98.1421 322.042 102.602 322.042 105.353 324.793Z" fill="#FFB5CD"/>
<path d="M98.6147 360.727C99.7044 360.098 101.047 360.098 102.137 360.727L113.865 367.499C114.955 368.128 115.626 369.291 115.626 370.549V384.092C115.626 385.351 114.955 386.513 113.865 387.143L102.137 393.914C101.047 394.543 99.7044 394.543 98.6147 393.914L86.8859 387.143C85.7962 386.513 85.1249 385.351 85.1249 384.092V370.549C85.1249 369.291 85.7962 368.128 86.8859 367.499L98.6147 360.727Z" stroke="#D0D5DD" stroke-width="2.64151" stroke-linecap="round" stroke-linejoin="round"/>
<path d="M105.353 372.34C108.104 375.091 108.104 379.551 105.353 382.302C102.602 385.053 98.1421 385.053 95.3913 382.302C92.6404 379.551 92.6404 375.091 95.3913 372.34C98.1421 369.589 102.602 369.589 105.353 372.34Z" fill="#FB8275"/>
<path d="M143.521 146.765C144.611 146.136 145.953 146.136 147.043 146.765L158.772 153.537C159.861 154.166 160.533 155.329 160.533 156.587V170.13C160.533 171.388 159.861 172.551 158.772 173.18L147.043 179.952C145.953 180.581 144.611 180.581 143.521 179.952L131.792 173.18C130.702 172.551 130.031 171.388 130.031 170.13V156.587C130.031 155.329 130.702 154.166 131.792 153.537L143.521 146.765Z" stroke="#D0D5DD" stroke-width="2.64151" stroke-linecap="round" stroke-linejoin="round"/>
<path d="M150.259 158.378C153.01 161.129 153.01 165.589 150.259 168.34C147.508 171.09 143.048 171.09 140.298 168.34C137.547 165.589 137.547 161.129 140.298 158.378C143.048 155.627 147.508 155.627 150.259 158.378Z" fill="#FFB5CD"/>
<path d="M143.521 194.312C144.611 193.683 145.953 193.683 147.043 194.312L158.772 201.084C159.861 201.713 160.533 202.876 160.533 204.134V217.677C160.533 218.936 159.861 220.098 158.772 220.727L147.043 227.499C145.953 228.128 144.611 228.128 143.521 227.499L131.792 220.727C130.702 220.098 130.031 218.936 130.031 217.677V204.134C130.031 202.876 130.702 201.713 131.792 201.084L143.521 194.312Z" stroke="#D0D5DD" stroke-width="2.64151" stroke-linecap="round" stroke-linejoin="round"/>
<path d="M150.259 205.925C153.01 208.676 153.01 213.136 150.259 215.887C147.508 218.638 143.048 218.638 140.298 215.887C137.547 213.136 137.547 208.676 140.298 205.925C143.048 203.174 147.508 203.174 150.259 205.925Z" fill="#FFB5CD"/>
<path d="M143.521 241.859C144.611 241.23 145.953 241.23 147.043 241.859L158.772 248.631C159.861 249.26 160.533 250.423 160.533 251.681V265.224C160.533 266.483 159.861 267.645 158.772 268.275L147.043 275.046C145.953 275.675 144.611 275.675 143.521 275.046L131.792 268.275C130.702 267.645 130.031 266.483 130.031 265.224V251.681C130.031 250.423 130.702 249.26 131.792 248.631L143.521 241.859Z" stroke="#D0D5DD" stroke-width="2.64151" stroke-linecap="round" stroke-linejoin="round"/>
<path d="M150.259 253.472C153.01 256.223 153.01 260.683 150.259 263.434C147.508 266.185 143.048 266.185 140.298 263.434C137.547 260.683 137.547 256.223 140.298 253.472C143.048 250.721 147.508 250.721 150.259 253.472Z" fill="#FB8275"/>
<path d="M143.521 289.407C144.611 288.778 145.953 288.778 147.043 289.407L158.772 296.178C159.861 296.808 160.533 297.97 160.533 299.229V312.772C160.533 314.03 159.861 315.193 158.772 315.822L147.043 322.594C145.953 323.223 144.611 323.223 143.521 322.594L131.792 315.822C130.702 315.193 130.031 314.03 130.031 312.772V299.229C130.031 297.97 130.702 296.808 131.792 296.178L143.521 289.407Z" stroke="#D0D5DD" stroke-width="2.64151" stroke-linecap="round" stroke-linejoin="round"/>
<path d="M150.259 301.019C153.01 303.77 153.01 308.23 150.259 310.981C147.508 313.732 143.048 313.732 140.298 310.981C137.547 308.23 137.547 303.77 140.298 301.019C143.048 298.269 147.508 298.269 150.259 301.019Z" fill="#FB8275"/>
<path d="M143.521 336.954C144.611 336.325 145.953 336.325 147.043 336.954L158.772 343.726C159.861 344.355 160.533 345.517 160.533 346.776V360.319C160.533 361.577 159.861 362.74 158.772 363.369L147.043 370.141C145.953 370.77 144.611 370.77 143.521 370.141L131.792 363.369C130.702 362.74 130.031 361.577 130.031 360.319V346.776C130.031 345.517 130.702 344.355 131.792 343.726L143.521 336.954Z" stroke="#D0D5DD" stroke-width="2.64151" stroke-linecap="round" stroke-linejoin="round"/>
<path d="M150.259 348.567C153.01 351.317 153.01 355.777 150.259 358.528C147.508 361.279 143.048 361.279 140.298 358.528C137.547 355.777 137.547 351.317 140.298 348.567C143.048 345.816 147.508 345.816 150.259 348.567Z" fill="#FFB5CD"/>
<path d="M143.521 384.501C144.611 383.872 145.953 383.872 147.043 384.501L158.772 391.273C159.861 391.902 160.533 393.065 160.533 394.323V407.866C160.533 409.124 159.861 410.287 158.772 410.916L147.043 417.688C145.953 418.317 144.611 418.317 143.521 417.688L131.792 410.916C130.702 410.287 130.031 409.124 130.031 407.866V394.323C130.031 393.065 130.702 391.902 131.792 391.273L143.521 384.501Z" stroke="#D0D5DD" stroke-width="2.64151" stroke-linecap="round" stroke-linejoin="round"/>
<path d="M188.427 122.992C189.517 122.362 190.859 122.362 191.949 122.992L203.678 129.763C204.768 130.392 205.439 131.555 205.439 132.813V146.357C205.439 147.615 204.768 148.778 203.678 149.407L191.949 156.178C190.859 156.807 189.517 156.807 188.427 156.178L176.698 149.407C175.609 148.778 174.937 147.615 174.937 146.357V132.813C174.937 131.555 175.609 130.392 176.698 129.763L188.427 122.992Z" stroke="#D0D5DD" stroke-width="2.64151" stroke-linecap="round" stroke-linejoin="round"/>
<path d="M195.166 134.604C197.916 137.355 197.916 141.815 195.166 144.566C192.415 147.317 187.955 147.317 185.204 144.566C182.453 141.815 182.453 137.355 185.204 134.604C187.955 131.853 192.415 131.853 195.166 134.604Z" fill="#FB8275"/>
<path d="M188.427 170.539C189.517 169.91 190.859 169.91 191.949 170.539L203.678 177.31C204.768 177.939 205.439 179.102 205.439 180.36V193.904C205.439 195.162 204.768 196.325 203.678 196.954L191.949 203.725C190.859 204.355 189.517 204.355 188.427 203.725L176.698 196.954C175.609 196.325 174.937 195.162 174.937 193.904V180.36C174.937 179.102 175.609 177.939 176.698 177.31L188.427 170.539Z" stroke="#D0D5DD" stroke-width="2.64151" stroke-linecap="round" stroke-linejoin="round"/>
<path d="M195.166 182.151C197.916 184.902 197.916 189.362 195.166 192.113C192.415 194.864 187.955 194.864 185.204 192.113C182.453 189.362 182.453 184.902 185.204 182.151C187.955 179.4 192.415 179.4 195.166 182.151Z" fill="#FB8275"/>
<path d="M188.427 218.086C189.517 217.457 190.859 217.457 191.949 218.086L203.678 224.857C204.768 225.487 205.439 226.649 205.439 227.908V241.451C205.439 242.709 204.768 243.872 203.678 244.501L191.949 251.272C190.859 251.902 189.517 251.902 188.427 251.272L176.698 244.501C175.609 243.872 174.937 242.709 174.937 241.451V227.908C174.937 226.649 175.609 225.487 176.698 224.857L188.427 218.086Z" stroke="#D0D5DD" stroke-width="2.64151" stroke-linecap="round" stroke-linejoin="round"/>
<path d="M195.166 229.698C197.916 232.449 197.916 236.909 195.166 239.66C192.415 242.411 187.955 242.411 185.204 239.66C182.453 236.909 182.453 232.449 185.204 229.698C187.955 226.948 192.415 226.948 195.166 229.698Z" fill="#F46780"/>
<path d="M188.427 265.633C189.517 265.004 190.859 265.004 191.949 265.633L203.678 272.405C204.768 273.034 205.439 274.197 205.439 275.455V288.998C205.439 290.256 204.768 291.419 203.678 292.048L191.949 298.82C190.859 299.449 189.517 299.449 188.427 298.82L176.698 292.048C175.609 291.419 174.937 290.256 174.937 288.998V275.455C174.937 274.197 175.609 273.034 176.698 272.405L188.427 265.633Z" stroke="#D0D5DD" stroke-width="2.64151" stroke-linecap="round" stroke-linejoin="round"/>
<path d="M195.166 277.246C197.916 279.997 197.916 284.457 195.166 287.208C192.415 289.958 187.955 289.958 185.204 287.208C182.453 284.457 182.453 279.997 185.204 277.246C187.955 274.495 192.415 274.495 195.166 277.246Z" fill="#FFB5CD"/>
<path d="M188.427 313.18C189.517 312.551 190.859 312.551 191.949 313.18L203.678 319.952C204.768 320.581 205.439 321.744 205.439 323.002V336.545C205.439 337.804 204.768 338.966 203.678 339.595L191.949 346.367C190.859 346.996 189.517 346.996 188.427 346.367L176.698 339.595C175.609 338.966 174.937 337.804 174.937 336.545V323.002C174.937 321.744 175.609 320.581 176.698 319.952L188.427 313.18Z" stroke="#D0D5DD" stroke-width="2.64151" stroke-linecap="round" stroke-linejoin="round"/>
<path d="M195.166 324.793C197.916 327.544 197.916 332.004 195.166 334.755C192.415 337.506 187.955 337.506 185.204 334.755C182.453 332.004 182.453 327.544 185.204 324.793C187.955 322.042 192.415 322.042 195.166 324.793Z" fill="#F46780"/>
<path d="M188.427 360.727C189.517 360.098 190.859 360.098 191.949 360.727L203.678 367.499C204.768 368.128 205.439 369.291 205.439 370.549V384.092C205.439 385.351 204.768 386.513 203.678 387.143L191.949 393.914C190.859 394.543 189.517 394.543 188.427 393.914L176.698 387.143C175.609 386.513 174.937 385.351 174.937 384.092V370.549C174.937 369.291 175.609 368.128 176.698 367.499L188.427 360.727Z" stroke="#D0D5DD" stroke-width="2.64151" stroke-linecap="round" stroke-linejoin="round"/>
<path d="M195.166 372.34C197.916 375.091 197.916 379.551 195.166 382.302C192.415 385.053 187.955 385.053 185.204 382.302C182.453 379.551 182.453 375.091 185.204 372.34C187.955 369.589 192.415 369.589 195.166 372.34Z" fill="#FB8275"/>
<path d="M233.333 99.2181C234.423 98.589 235.766 98.589 236.855 99.2181L248.584 105.99C249.674 106.619 250.345 107.782 250.345 109.04V122.583C250.345 123.841 249.674 125.004 248.584 125.633L236.855 132.405C235.766 133.034 234.423 133.034 233.333 132.405L221.605 125.633C220.515 125.004 219.844 123.841 219.844 122.583V109.04C219.844 107.782 220.515 106.619 221.605 105.99L233.333 99.2181Z" stroke="#D0D5DD" stroke-width="2.64151" stroke-linecap="round" stroke-linejoin="round"/>
<path d="M240.072 110.831C242.823 113.582 242.823 118.042 240.072 120.792C237.321 123.543 232.861 123.543 230.11 120.792C227.359 118.042 227.359 113.582 230.11 110.831C232.861 108.08 237.321 108.08 240.072 110.831Z" fill="#FB8275"/>
<path d="M233.333 146.765C234.423 146.136 235.766 146.136 236.855 146.765L248.584 153.537C249.674 154.166 250.345 155.329 250.345 156.587V170.13C250.345 171.388 249.674 172.551 248.584 173.18L236.855 179.952C235.766 180.581 234.423 180.581 233.333 179.952L221.605 173.18C220.515 172.551 219.844 171.388 219.844 170.13V156.587C219.844 155.329 220.515 154.166 221.605 153.537L233.333 146.765Z" stroke="#D0D5DD" stroke-width="2.64151" stroke-linecap="round" stroke-linejoin="round"/>
<path d="M240.072 158.378C242.823 161.129 242.823 165.589 240.072 168.34C237.321 171.09 232.861 171.09 230.11 168.34C227.359 165.589 227.359 161.129 230.11 158.378C232.861 155.627 237.321 155.627 240.072 158.378Z" fill="#FFB5CD"/>
<path d="M233.333 194.312C234.423 193.683 235.766 193.683 236.855 194.312L248.584 201.084C249.674 201.713 250.345 202.876 250.345 204.134V217.677C250.345 218.936 249.674 220.098 248.584 220.727L236.855 227.499C235.766 228.128 234.423 228.128 233.333 227.499L221.605 220.727C220.515 220.098 219.844 218.936 219.844 217.677V204.134C219.844 202.876 220.515 201.713 221.605 201.084L233.333 194.312Z" stroke="#D0D5DD" stroke-width="2.64151" stroke-linecap="round" stroke-linejoin="round"/>
<path d="M240.072 205.925C242.823 208.676 242.823 213.136 240.072 215.887C237.321 218.638 232.861 218.638 230.11 215.887C227.359 213.136 227.359 208.676 230.11 205.925C232.861 203.174 237.321 203.174 240.072 205.925Z" fill="#FFB5CD"/>
<path d="M233.333 241.86C234.423 241.231 235.766 241.231 236.855 241.86L248.584 248.631C249.674 249.26 250.345 250.423 250.345 251.681V265.225C250.345 266.483 249.674 267.646 248.584 268.275L236.855 275.046C235.766 275.676 234.423 275.676 233.333 275.046L221.605 268.275C220.515 267.646 219.844 266.483 219.844 265.225V251.681C219.844 250.423 220.515 249.26 221.605 248.631L233.333 241.86Z" stroke="#D0D5DD" stroke-width="2.64151" stroke-linecap="round" stroke-linejoin="round"/>
<path d="M240.072 253.472C242.823 256.223 242.823 260.683 240.072 263.434C237.321 266.185 232.861 266.185 230.11 263.434C227.359 260.683 227.359 256.223 230.11 253.472C232.861 250.721 237.321 250.721 240.072 253.472Z" fill="#FB8275"/>
<path d="M233.333 289.407C234.423 288.778 235.766 288.778 236.855 289.407L248.584 296.178C249.674 296.808 250.345 297.97 250.345 299.229V312.772C250.345 314.03 249.674 315.193 248.584 315.822L236.855 322.594C235.766 323.223 234.423 323.223 233.333 322.594L221.605 315.822C220.515 315.193 219.844 314.03 219.844 312.772V299.229C219.844 297.97 220.515 296.808 221.605 296.178L233.333 289.407Z" stroke="#D0D5DD" stroke-width="2.64151" stroke-linecap="round" stroke-linejoin="round"/>
<path d="M240.072 301.019C242.823 303.77 242.823 308.23 240.072 310.981C237.321 313.732 232.861 313.732 230.11 310.981C227.359 308.23 227.359 303.77 230.11 301.019C232.861 298.269 237.321 298.269 240.072 301.019Z" fill="#FFB5CD"/>
<path d="M233.333 336.954C234.423 336.325 235.766 336.325 236.855 336.954L248.584 343.726C249.674 344.355 250.345 345.517 250.345 346.776V360.319C250.345 361.577 249.674 362.74 248.584 363.369L236.855 370.141C235.766 370.77 234.423 370.77 233.333 370.141L221.605 363.369C220.515 362.74 219.844 361.577 219.844 360.319V346.776C219.844 345.517 220.515 344.355 221.605 343.726L233.333 336.954Z" stroke="#D0D5DD" stroke-width="2.64151" stroke-linecap="round" stroke-linejoin="round"/>
<path d="M240.072 348.567C242.823 351.317 242.823 355.777 240.072 358.528C237.321 361.279 232.861 361.279 230.11 358.528C227.359 355.777 227.359 351.317 230.11 348.567C232.861 345.816 237.321 345.816 240.072 348.567Z" fill="#F46780"/>
<path d="M233.333 384.501C234.423 383.872 235.766 383.872 236.855 384.501L248.584 391.273C249.674 391.902 250.345 393.065 250.345 394.323V407.866C250.345 409.124 249.674 410.287 248.584 410.916L236.855 417.688C235.766 418.317 234.423 418.317 233.333 417.688L221.605 410.916C220.515 410.287 219.844 409.124 219.844 407.866V394.323C219.844 393.065 220.515 391.902 221.605 391.273L233.333 384.501Z" stroke="#D0D5DD" stroke-width="2.64151" stroke-linecap="round" stroke-linejoin="round"/>
<path d="M278.24 75.4445C279.329 74.8153 280.672 74.8153 281.762 75.4445L293.49 82.216C294.58 82.8452 295.251 84.0079 295.251 85.2662V98.8094C295.251 100.068 294.58 101.23 293.49 101.86L281.762 108.631C280.672 109.26 279.329 109.26 278.24 108.631L266.511 101.86C265.421 101.23 264.75 100.068 264.75 98.8094V85.2662C264.75 84.0079 265.421 82.8452 266.511 82.216L278.24 75.4445Z" stroke="#D0D5DD" stroke-width="2.64151" stroke-linecap="round" stroke-linejoin="round"/>
<path d="M284.978 87.057C287.729 89.8079 287.729 94.2679 284.978 97.0188C282.227 99.7697 277.767 99.7697 275.016 97.0188C272.265 94.2679 272.265 89.8079 275.016 87.057C277.767 84.3062 282.227 84.3062 284.978 87.057Z" fill="#F46780"/>
<path d="M278.24 122.992C279.329 122.362 280.672 122.362 281.762 122.992L293.49 129.763C294.58 130.392 295.251 131.555 295.251 132.813V146.357C295.251 147.615 294.58 148.778 293.49 149.407L281.762 156.178C280.672 156.807 279.329 156.807 278.24 156.178L266.511 149.407C265.421 148.778 264.75 147.615 264.75 146.357V132.813C264.75 131.555 265.421 130.392 266.511 129.763L278.24 122.992Z" stroke="#D0D5DD" stroke-width="2.64151" stroke-linecap="round" stroke-linejoin="round"/>
<path d="M284.978 134.604C287.729 137.355 287.729 141.815 284.978 144.566C282.227 147.317 277.767 147.317 275.016 144.566C272.265 141.815 272.265 137.355 275.016 134.604C277.767 131.853 282.227 131.853 284.978 134.604Z" fill="#F46780"/>
<path d="M278.24 170.539C279.329 169.91 280.672 169.91 281.762 170.539L293.49 177.31C294.58 177.939 295.251 179.102 295.251 180.36V193.904C295.251 195.162 294.58 196.325 293.49 196.954L281.762 203.725C280.672 204.355 279.329 204.355 278.24 203.725L266.511 196.954C265.421 196.325 264.75 195.162 264.75 193.904V180.36C264.75 179.102 265.421 177.939 266.511 177.31L278.24 170.539Z" stroke="#D0D5DD" stroke-width="2.64151" stroke-linecap="round" stroke-linejoin="round"/>
<path d="M284.978 182.151C287.729 184.902 287.729 189.362 284.978 192.113C282.227 194.864 277.767 194.864 275.016 192.113C272.265 189.362 272.265 184.902 275.016 182.151C277.767 179.4 282.227 179.4 284.978 182.151Z" fill="#FB8275"/>
<path d="M278.24 218.086C279.329 217.457 280.672 217.457 281.762 218.086L293.49 224.858C294.58 225.487 295.251 226.65 295.251 227.908V241.451C295.251 242.709 294.58 243.872 293.49 244.501L281.762 251.273C280.672 251.902 279.329 251.902 278.24 251.273L266.511 244.501C265.421 243.872 264.75 242.709 264.75 241.451V227.908C264.75 226.65 265.421 225.487 266.511 224.858L278.24 218.086Z" stroke="#D0D5DD" stroke-width="2.64151" stroke-linecap="round" stroke-linejoin="round"/>
<path d="M284.978 229.699C287.729 232.45 287.729 236.91 284.978 239.66C282.227 242.411 277.767 242.411 275.016 239.66C272.265 236.91 272.265 232.45 275.016 229.699C277.767 226.948 282.227 226.948 284.978 229.699Z" fill="#F46780"/>
<path d="M278.24 265.633C279.329 265.004 280.672 265.004 281.762 265.633L293.49 272.405C294.58 273.034 295.251 274.197 295.251 275.455V288.998C295.251 290.256 294.58 291.419 293.49 292.048L281.762 298.82C280.672 299.449 279.329 299.449 278.24 298.82L266.511 292.048C265.421 291.419 264.75 290.256 264.75 288.998V275.455C264.75 274.197 265.421 273.034 266.511 272.405L278.24 265.633Z" stroke="#D0D5DD" stroke-width="2.64151" stroke-linecap="round" stroke-linejoin="round"/>
<path d="M284.978 277.246C287.729 279.997 287.729 284.457 284.978 287.208C282.227 289.958 277.767 289.958 275.016 287.208C272.265 284.457 272.265 279.997 275.016 277.246C277.767 274.495 282.227 274.495 284.978 277.246Z" fill="#FB8275"/>
<path d="M278.24 313.18C279.329 312.551 280.672 312.551 281.762 313.18L293.49 319.952C294.58 320.581 295.251 321.744 295.251 323.002V336.545C295.251 337.804 294.58 338.966 293.49 339.595L281.762 346.367C280.672 346.996 279.329 346.996 278.24 346.367L266.511 339.595C265.421 338.966 264.75 337.804 264.75 336.545V323.002C264.75 321.744 265.421 320.581 266.511 319.952L278.24 313.18Z" stroke="#D0D5DD" stroke-width="2.64151" stroke-linecap="round" stroke-linejoin="round"/>
<path d="M284.978 324.793C287.729 327.544 287.729 332.004 284.978 334.755C282.227 337.506 277.767 337.506 275.016 334.755C272.265 332.004 272.265 327.544 275.016 324.793C277.767 322.042 282.227 322.042 284.978 324.793Z" fill="#FB8275"/>
<path d="M278.24 360.727C279.329 360.098 280.672 360.098 281.762 360.727L293.49 367.499C294.58 368.128 295.251 369.291 295.251 370.549V384.092C295.251 385.351 294.58 386.513 293.49 387.143L281.762 393.914C280.672 394.543 279.329 394.543 278.24 393.914L266.511 387.143C265.421 386.513 264.75 385.351 264.75 384.092V370.549C264.75 369.291 265.421 368.128 266.511 367.499L278.24 360.727Z" stroke="#D0D5DD" stroke-width="2.64151" stroke-linecap="round" stroke-linejoin="round"/>
<path d="M284.978 372.34C287.729 375.091 287.729 379.551 284.978 382.302C282.227 385.053 277.767 385.053 275.016 382.302C272.265 379.551 272.265 375.091 275.016 372.34C277.767 369.589 282.227 369.589 284.978 372.34Z" fill="#FFB5CD"/>
<path d="M326.667 99.2181C325.577 98.589 324.234 98.589 323.145 99.2181L311.416 105.99C310.326 106.619 309.655 107.782 309.655 109.04V122.583C309.655 123.841 310.326 125.004 311.416 125.633L323.145 132.405C324.234 133.034 325.577 133.034 326.667 132.405L338.395 125.633C339.485 125.004 340.156 123.841 340.156 122.583V109.04C340.156 107.782 339.485 106.619 338.395 105.99L326.667 99.2181Z" stroke="#D0D5DD" stroke-width="2.64151" stroke-linecap="round" stroke-linejoin="round"/>
<path d="M319.928 110.831C317.177 113.582 317.177 118.042 319.928 120.792C322.679 123.543 327.139 123.543 329.89 120.792C332.641 118.042 332.641 113.582 329.89 110.831C327.139 108.08 322.679 108.08 319.928 110.831Z" fill="#FFB5CD"/>
<path d="M326.667 146.765C325.577 146.136 324.234 146.136 323.145 146.765L311.416 153.537C310.326 154.166 309.655 155.329 309.655 156.587V170.13C309.655 171.388 310.326 172.551 311.416 173.18L323.145 179.952C324.234 180.581 325.577 180.581 326.667 179.952L338.395 173.18C339.485 172.551 340.156 171.388 340.156 170.13V156.587C340.156 155.329 339.485 154.166 338.395 153.537L326.667 146.765Z" stroke="#D0D5DD" stroke-width="2.64151" stroke-linecap="round" stroke-linejoin="round"/>
<path d="M319.928 158.378C317.177 161.129 317.177 165.589 319.928 168.34C322.679 171.09 327.139 171.09 329.89 168.34C332.641 165.589 332.641 161.129 329.89 158.378C327.139 155.627 322.679 155.627 319.928 158.378Z" fill="#FB8275"/>
<path d="M326.667 194.312C325.577 193.683 324.234 193.683 323.145 194.312L311.416 201.084C310.326 201.713 309.655 202.876 309.655 204.134V217.677C309.655 218.936 310.326 220.098 311.416 220.727L323.145 227.499C324.234 228.128 325.577 228.128 326.667 227.499L338.395 220.727C339.485 220.098 340.156 218.936 340.156 217.677V204.134C340.156 202.876 339.485 201.713 338.395 201.084L326.667 194.312Z" stroke="#D0D5DD" stroke-width="2.64151" stroke-linecap="round" stroke-linejoin="round"/>
<path d="M319.928 205.925C317.177 208.676 317.177 213.136 319.928 215.887C322.679 218.638 327.139 218.638 329.89 215.887C332.641 213.136 332.641 208.676 329.89 205.925C327.139 203.174 322.679 203.174 319.928 205.925Z" fill="#F46780"/>
<path d="M326.667 241.86C325.577 241.231 324.234 241.231 323.145 241.86L311.416 248.631C310.326 249.26 309.655 250.423 309.655 251.681V265.225C309.655 266.483 310.326 267.646 311.416 268.275L323.145 275.046C324.234 275.676 325.577 275.676 326.667 275.046L338.395 268.275C339.485 267.646 340.156 266.483 340.156 265.225V251.681C340.156 250.423 339.485 249.26 338.395 248.631L326.667 241.86Z" stroke="#D0D5DD" stroke-width="2.64151" stroke-linecap="round" stroke-linejoin="round"/>
<path d="M319.928 253.472C317.177 256.223 317.177 260.683 319.928 263.434C322.679 266.185 327.139 266.185 329.89 263.434C332.641 260.683 332.641 256.223 329.89 253.472C327.139 250.721 322.679 250.721 319.928 253.472Z" fill="#FFB5CD"/>
<path d="M326.667 289.407C325.577 288.778 324.234 288.778 323.145 289.407L311.416 296.178C310.326 296.808 309.655 297.97 309.655 299.229V312.772C309.655 314.03 310.326 315.193 311.416 315.822L323.145 322.594C324.234 323.223 325.577 323.223 326.667 322.594L338.395 315.822C339.485 315.193 340.156 314.03 340.156 312.772V299.229C340.156 297.97 339.485 296.808 338.395 296.178L326.667 289.407Z" stroke="#D0D5DD" stroke-width="2.64151" stroke-linecap="round" stroke-linejoin="round"/>
<path d="M319.928 301.019C317.177 303.77 317.177 308.23 319.928 310.981C322.679 313.732 327.139 313.732 329.89 310.981C332.641 308.23 332.641 303.77 329.89 301.019C327.139 298.269 322.679 298.269 319.928 301.019Z" fill="#FB8275"/>
<path d="M326.667 336.954C325.577 336.325 324.234 336.325 323.145 336.954L311.416 343.726C310.326 344.355 309.655 345.517 309.655 346.776V360.319C309.655 361.577 310.326 362.74 311.416 363.369L323.145 370.141C324.234 370.77 325.577 370.77 326.667 370.141L338.395 363.369C339.485 362.74 340.156 361.577 340.156 360.319V346.776C340.156 345.517 339.485 344.355 338.395 343.726L326.667 336.954Z" stroke="#D0D5DD" stroke-width="2.64151" stroke-linecap="round" stroke-linejoin="round"/>
<path d="M319.928 348.567C317.177 351.317 317.177 355.777 319.928 358.528C322.679 361.279 327.139 361.279 329.89 358.528C332.641 355.777 332.641 351.317 329.89 348.567C327.139 345.816 322.679 345.816 319.928 348.567Z" fill="#FFB5CD"/>
<path d="M326.667 384.501C325.577 383.872 324.234 383.872 323.145 384.501L311.416 391.273C310.326 391.902 309.655 393.065 309.655 394.323V407.866C309.655 409.124 310.326 410.287 311.416 410.916L323.145 417.688C324.234 418.317 325.577 418.317 326.667 417.688L338.395 410.916C339.485 410.287 340.156 409.124 340.156 407.866V394.323C340.156 393.065 339.485 391.902 338.395 391.273L326.667 384.501Z" stroke="#D0D5DD" stroke-width="2.64151" stroke-linecap="round" stroke-linejoin="round"/>
<path d="M371.573 122.992C370.483 122.362 369.141 122.362 368.051 122.992L356.322 129.763C355.232 130.392 354.561 131.555 354.561 132.813V146.357C354.561 147.615 355.232 148.778 356.322 149.407L368.051 156.178C369.141 156.807 370.483 156.807 371.573 156.178L383.302 149.407C384.391 148.778 385.063 147.615 385.063 146.357V132.813C385.063 131.555 384.391 130.392 383.302 129.763L371.573 122.992Z" stroke="#D0D5DD" stroke-width="2.64151" stroke-linecap="round" stroke-linejoin="round"/>
<path d="M364.834 134.604C362.084 137.355 362.084 141.815 364.834 144.566C367.585 147.317 372.045 147.317 374.796 144.566C377.547 141.815 377.547 137.355 374.796 134.604C372.045 131.853 367.585 131.853 364.834 134.604Z" fill="#F46780"/>
<path d="M371.573 170.539C370.483 169.91 369.141 169.91 368.051 170.539L356.322 177.31C355.232 177.939 354.561 179.102 354.561 180.36V193.904C354.561 195.162 355.232 196.325 356.322 196.954L368.051 203.725C369.141 204.355 370.483 204.355 371.573 203.725L383.302 196.954C384.391 196.325 385.063 195.162 385.063 193.904V180.36C385.063 179.102 384.391 177.939 383.302 177.31L371.573 170.539Z" stroke="#D0D5DD" stroke-width="2.64151" stroke-linecap="round" stroke-linejoin="round"/>
<path d="M364.834 182.151C362.084 184.902 362.084 189.362 364.834 192.113C367.585 194.864 372.045 194.864 374.796 192.113C377.547 189.362 377.547 184.902 374.796 182.151C372.045 179.4 367.585 179.4 364.834 182.151Z" fill="#FFB5CD"/>
<path d="M371.573 218.086C370.483 217.457 369.141 217.457 368.051 218.086L356.322 224.857C355.232 225.487 354.561 226.649 354.561 227.908V241.451C354.561 242.709 355.232 243.872 356.322 244.501L368.051 251.272C369.141 251.902 370.483 251.902 371.573 251.272L383.302 244.501C384.391 243.872 385.063 242.709 385.063 241.451V227.908C385.063 226.649 384.391 225.487 383.302 224.857L371.573 218.086Z" stroke="#D0D5DD" stroke-width="2.64151" stroke-linecap="round" stroke-linejoin="round"/>
<path d="M364.834 229.698C362.084 232.449 362.084 236.909 364.834 239.66C367.585 242.411 372.045 242.411 374.796 239.66C377.547 236.909 377.547 232.449 374.796 229.698C372.045 226.948 367.585 226.948 364.834 229.698Z" fill="#FB8275"/>
<path d="M371.573 265.633C370.483 265.004 369.141 265.004 368.051 265.633L356.322 272.405C355.232 273.034 354.561 274.197 354.561 275.455V288.998C354.561 290.256 355.232 291.419 356.322 292.048L368.051 298.82C369.141 299.449 370.483 299.449 371.573 298.82L383.302 292.048C384.391 291.419 385.063 290.256 385.063 288.998V275.455C385.063 274.197 384.391 273.034 383.302 272.405L371.573 265.633Z" stroke="#D0D5DD" stroke-width="2.64151" stroke-linecap="round" stroke-linejoin="round"/>
<path d="M364.834 277.246C362.084 279.997 362.084 284.457 364.834 287.208C367.585 289.958 372.045 289.958 374.796 287.208C377.547 284.457 377.547 279.997 374.796 277.246C372.045 274.495 367.585 274.495 364.834 277.246Z" fill="#FFB5CD"/>
<path d="M371.573 313.18C370.483 312.551 369.141 312.551 368.051 313.18L356.322 319.952C355.232 320.581 354.561 321.744 354.561 323.002V336.545C354.561 337.804 355.232 338.966 356.322 339.595L368.051 346.367C369.141 346.996 370.483 346.996 371.573 346.367L383.302 339.595C384.391 338.966 385.063 337.804 385.063 336.545V323.002C385.063 321.744 384.391 320.581 383.302 319.952L371.573 313.18Z" stroke="#D0D5DD" stroke-width="2.64151" stroke-linecap="round" stroke-linejoin="round"/>
<path d="M364.834 324.793C362.084 327.544 362.084 332.004 364.834 334.755C367.585 337.506 372.045 337.506 374.796 334.755C377.547 332.004 377.547 327.544 374.796 324.793C372.045 322.042 367.585 322.042 364.834 324.793Z" fill="#F46780"/>
<path d="M371.573 360.727C370.483 360.098 369.141 360.098 368.051 360.727L356.322 367.499C355.232 368.128 354.561 369.291 354.561 370.549V384.092C354.561 385.351 355.232 386.513 356.322 387.143L368.051 393.914C369.141 394.543 370.483 394.543 371.573 393.914L383.302 387.143C384.391 386.513 385.063 385.351 385.063 384.092V370.549C385.063 369.291 384.391 368.128 383.302 367.499L371.573 360.727Z" stroke="#D0D5DD" stroke-width="2.64151" stroke-linecap="round" stroke-linejoin="round"/>
<path d="M364.834 372.34C362.084 375.091 362.084 379.551 364.834 382.302C367.585 385.053 372.045 385.053 374.796 382.302C377.547 379.551 377.547 375.091 374.796 372.34C372.045 369.589 367.585 369.589 364.834 372.34Z" fill="#FB8275"/>
<path d="M416.471 146.765C415.382 146.136 414.039 146.136 412.949 146.765L401.22 153.537C400.131 154.166 399.459 155.329 399.459 156.587V170.13C399.459 171.388 400.131 172.551 401.22 173.18L412.949 179.952C414.039 180.581 415.382 180.581 416.471 179.952L428.2 173.18C429.29 172.551 429.961 171.388 429.961 170.13V156.587C429.961 155.329 429.29 154.166 428.2 153.537L416.471 146.765Z" stroke="#D0D5DD" stroke-width="2.64151" stroke-linecap="round" stroke-linejoin="round"/>
<path d="M409.733 158.378C406.982 161.129 406.982 165.589 409.733 168.34C412.484 171.09 416.944 171.09 419.695 168.34C422.446 165.589 422.446 161.129 419.695 158.378C416.944 155.627 412.484 155.627 409.733 158.378Z" fill="#FB8275"/>
<path d="M416.471 194.312C415.382 193.683 414.039 193.683 412.949 194.312L401.22 201.084C400.131 201.713 399.459 202.876 399.459 204.134V217.677C399.459 218.936 400.131 220.098 401.22 220.727L412.949 227.499C414.039 228.128 415.382 228.128 416.471 227.499L428.2 220.727C429.29 220.098 429.961 218.936 429.961 217.677V204.134C429.961 202.876 429.29 201.713 428.2 201.084L416.471 194.312Z" stroke="#D0D5DD" stroke-width="2.64151" stroke-linecap="round" stroke-linejoin="round"/>
<path d="M409.733 205.925C406.982 208.676 406.982 213.136 409.733 215.887C412.484 218.638 416.944 218.638 419.695 215.887C422.446 213.136 422.446 208.676 419.695 205.925C416.944 203.174 412.484 203.174 409.733 205.925Z" fill="#F46780"/>
<path d="M416.471 241.859C415.382 241.23 414.039 241.23 412.949 241.859L401.22 248.631C400.131 249.26 399.459 250.423 399.459 251.681V265.224C399.459 266.483 400.131 267.645 401.22 268.275L412.949 275.046C414.039 275.675 415.382 275.675 416.471 275.046L428.2 268.275C429.29 267.645 429.961 266.483 429.961 265.224V251.681C429.961 250.423 429.29 249.26 428.2 248.631L416.471 241.859Z" stroke="#D0D5DD" stroke-width="2.64151" stroke-linecap="round" stroke-linejoin="round"/>
<path d="M409.733 253.472C406.982 256.223 406.982 260.683 409.733 263.434C412.484 266.185 416.944 266.185 419.695 263.434C422.446 260.683 422.446 256.223 419.695 253.472C416.944 250.721 412.484 250.721 409.733 253.472Z" fill="#FB8275"/>
<path d="M416.471 289.407C415.382 288.778 414.039 288.778 412.949 289.407L401.22 296.178C400.131 296.808 399.459 297.97 399.459 299.229V312.772C399.459 314.03 400.131 315.193 401.22 315.822L412.949 322.594C414.039 323.223 415.382 323.223 416.471 322.594L428.2 315.822C429.29 315.193 429.961 314.03 429.961 312.772V299.229C429.961 297.97 429.29 296.808 428.2 296.178L416.471 289.407Z" stroke="#D0D5DD" stroke-width="2.64151" stroke-linecap="round" stroke-linejoin="round"/>
<path d="M409.733 301.019C406.982 303.77 406.982 308.23 409.733 310.981C412.484 313.732 416.944 313.732 419.695 310.981C422.446 308.23 422.446 303.77 419.695 301.019C416.944 298.269 412.484 298.269 409.733 301.019Z" fill="#F46780"/>
<path d="M416.471 336.954C415.382 336.325 414.039 336.325 412.949 336.954L401.22 343.726C400.131 344.355 399.459 345.517 399.459 346.776V360.319C399.459 361.577 400.131 362.74 401.22 363.369L412.949 370.141C414.039 370.77 415.382 370.77 416.471 370.141L428.2 363.369C429.29 362.74 429.961 361.577 429.961 360.319V346.776C429.961 345.517 429.29 344.355 428.2 343.726L416.471 336.954Z" stroke="#D0D5DD" stroke-width="2.64151" stroke-linecap="round" stroke-linejoin="round"/>
<path d="M409.733 348.567C406.982 351.317 406.982 355.777 409.733 358.528C412.484 361.279 416.944 361.279 419.695 358.528C422.446 355.777 422.446 351.317 419.695 348.567C416.944 345.816 412.484 345.816 409.733 348.567Z" fill="#FFB5CD"/>
<path d="M416.471 384.501C415.382 383.872 414.039 383.872 412.949 384.501L401.22 391.273C400.131 391.902 399.459 393.065 399.459 394.323V407.866C399.459 409.124 400.131 410.287 401.22 410.916L412.949 417.688C414.039 418.317 415.382 418.317 416.471 417.688L428.2 410.916C429.29 410.287 429.961 409.124 429.961 407.866V394.323C429.961 393.065 429.29 391.902 428.2 391.273L416.471 384.501Z" stroke="#D0D5DD" stroke-width="2.64151" stroke-linecap="round" stroke-linejoin="round"/>
<path d="M461.378 170.539C460.288 169.91 458.945 169.91 457.855 170.539L446.127 177.31C445.037 177.939 444.366 179.102 444.366 180.36V193.904C444.366 195.162 445.037 196.325 446.127 196.954L457.855 203.725C458.945 204.355 460.288 204.355 461.378 203.725L473.106 196.954C474.196 196.325 474.867 195.162 474.867 193.904V180.36C474.867 179.102 474.196 177.939 473.106 177.31L461.378 170.539Z" stroke="#D0D5DD" stroke-width="2.64151" stroke-linecap="round" stroke-linejoin="round"/>
<path d="M454.639 182.151C451.888 184.902 451.888 189.362 454.639 192.113C457.39 194.864 461.85 194.864 464.601 192.113C467.352 189.362 467.352 184.902 464.601 182.151C461.85 179.4 457.39 179.4 454.639 182.151Z" fill="#FFB5CD"/>
<path d="M461.378 218.086C460.288 217.457 458.945 217.457 457.855 218.086L446.127 224.857C445.037 225.487 444.366 226.649 444.366 227.908V241.451C444.366 242.709 445.037 243.872 446.127 244.501L457.855 251.272C458.945 251.902 460.288 251.902 461.378 251.272L473.106 244.501C474.196 243.872 474.867 242.709 474.867 241.451V227.908C474.867 226.649 474.196 225.487 473.106 224.857L461.378 218.086Z" stroke="#D0D5DD" stroke-width="2.64151" stroke-linecap="round" stroke-linejoin="round"/>
<path d="M454.639 229.698C451.888 232.449 451.888 236.909 454.639 239.66C457.39 242.411 461.85 242.411 464.601 239.66C467.352 236.909 467.352 232.449 464.601 229.698C461.85 226.948 457.39 226.948 454.639 229.698Z" fill="#FB8275"/>
<path d="M461.378 265.633C460.288 265.004 458.945 265.004 457.855 265.633L446.127 272.405C445.037 273.034 444.366 274.196 444.366 275.455V288.998C444.366 290.256 445.037 291.419 446.127 292.048L457.855 298.82C458.945 299.449 460.288 299.449 461.378 298.82L473.106 292.048C474.196 291.419 474.867 290.256 474.867 288.998V275.455C474.867 274.196 474.196 273.034 473.106 272.405L461.378 265.633Z" stroke="#D0D5DD" stroke-width="2.64151" stroke-linecap="round" stroke-linejoin="round"/>
<path d="M454.639 277.246C451.888 279.996 451.888 284.456 454.639 287.207C457.39 289.958 461.85 289.958 464.601 287.207C467.352 284.456 467.352 279.996 464.601 277.246C461.85 274.495 457.39 274.495 454.639 277.246Z" fill="#FFB5CD"/>
<path d="M461.378 313.18C460.288 312.551 458.945 312.551 457.855 313.18L446.127 319.952C445.037 320.581 444.366 321.744 444.366 323.002V336.545C444.366 337.804 445.037 338.966 446.127 339.595L457.855 346.367C458.945 346.996 460.288 346.996 461.378 346.367L473.106 339.595C474.196 338.966 474.867 337.804 474.867 336.545V323.002C474.867 321.744 474.196 320.581 473.106 319.952L461.378 313.18Z" stroke="#D0D5DD" stroke-width="2.64151" stroke-linecap="round" stroke-linejoin="round"/>
<path d="M454.639 324.793C451.888 327.544 451.888 332.004 454.639 334.755C457.39 337.506 461.85 337.506 464.601 334.755C467.352 332.004 467.352 327.544 464.601 324.793C461.85 322.042 457.39 322.042 454.639 324.793Z" fill="#FB8275"/>
<path d="M461.378 360.727C460.288 360.098 458.945 360.098 457.855 360.727L446.127 367.499C445.037 368.128 444.366 369.291 444.366 370.549V384.092C444.366 385.351 445.037 386.513 446.127 387.143L457.855 393.914C458.945 394.543 460.288 394.543 461.378 393.914L473.106 387.143C474.196 386.513 474.867 385.351 474.867 384.092V370.549C474.867 369.291 474.196 368.128 473.106 367.499L461.378 360.727Z" stroke="#D0D5DD" stroke-width="2.64151" stroke-linecap="round" stroke-linejoin="round"/>
<path d="M454.639 372.34C451.888 375.091 451.888 379.551 454.639 382.302C457.39 385.053 461.85 385.053 464.601 382.302C467.352 379.551 467.352 375.091 464.601 372.34C461.85 369.589 457.39 369.589 454.639 372.34Z" fill="#F46780"/>
<defs>
<filter id="filter0_d_3994_144567" x="7.50059" y="0.888771" width="544.999" height="610.222" filterUnits="userSpaceOnUse" color-interpolation-filters="sRGB">
<feFlood flood-opacity="0" result="BackgroundImageFix"/>
<feColorMatrix in="SourceAlpha" type="matrix" values="0 0 0 0 0 0 0 0 0 0 0 0 0 0 0 0 0 0 127 0" result="hardAlpha"/>
<feMorphology radius="9.98496" operator="erode" in="SourceAlpha" result="effect1_dropShadow_3994_144567"/>
<feOffset/>
<feGaussianBlur stdDeviation="20"/>
<feColorMatrix type="matrix" values="0 0 0 0 0.0823529 0 0 0 0 0.133333 0 0 0 0 0.223529 0 0 0 0.1 0"/>
<feBlend mode="normal" in2="BackgroundImageFix" result="effect1_dropShadow_3994_144567"/>
<feBlend mode="normal" in="SourceGraphic" in2="effect1_dropShadow_3994_144567" result="shape"/>
</filter>
</defs>
</svg>
