<svg width="568" height="395" viewBox="0 0 568 395" fill="none" xmlns="http://www.w3.org/2000/svg">
<g filter="url(#filter0_d_3994_145195)">
</g>
<g filter="url(#filter1_d_3994_145195)">
<path d="M29.0703 34.7559C33.0959 32.4317 38.0556 32.4317 42.0812 34.7559L77.8972 55.4343C81.9228 57.7585 84.4026 62.0537 84.4026 66.702V108.059C84.4026 112.707 81.9228 117.002 77.8972 119.327L42.0812 140.005C38.0556 142.329 33.0959 142.329 29.0703 140.005L-6.74571 119.327C-10.7713 117.002 -13.2511 112.707 -13.2511 108.059V66.702C-13.2511 62.0537 -10.7713 57.7585 -6.74571 55.4343L29.0703 34.7559Z" fill="white"/>
<path d="M7.66761 74.225H6.13281M35.9197 74.225H37.4545M21.794 88.3514V89.8862M21.794 60.0985V58.5637M11.8021 84.2166L10.7058 85.3129M31.7873 64.233L32.8835 63.1367M31.7873 84.2166L32.8835 85.3129M11.8021 64.233L10.7058 63.1367M9.49728 96.1507L9.28742 98.7191C8.99679 102.188 11.5729 105.235 15.0413 105.525C15.2111 105.54 15.3815 105.547 15.5519 105.547H59.3564C62.8369 105.539 65.6515 102.71 65.6429 99.2298C65.6424 99.0593 65.6351 98.889 65.6209 98.7191L63.5849 73.7582C63.3255 70.489 60.5999 67.9665 57.3204 67.9605H43.7202M44.1908 105.547L45.2871 116.51M29.6247 116.51L30.7209 105.547M49.2012 116.51H25.7094M28.3185 74.2249C28.3185 77.8283 25.3974 80.7494 21.794 80.7494C18.1907 80.7494 15.2696 77.8283 15.2696 74.2249C15.2696 70.6216 18.1907 67.7005 21.794 67.7005C25.3974 67.7005 28.3185 70.6216 28.3185 74.2249Z" stroke="#F46780" stroke-width="2.16848" stroke-linecap="round" stroke-linejoin="round"/>
</g>
<g filter="url(#filter2_d_3994_145195)">
<path d="M141.828 34.7559C145.854 32.4317 150.813 32.4317 154.839 34.7559L190.655 55.4343C194.681 57.7585 197.16 62.0537 197.16 66.702V108.059C197.16 112.707 194.681 117.002 190.655 119.327L154.839 140.005C150.813 142.329 145.854 142.329 141.828 140.005L106.012 119.327C101.987 117.002 99.5067 112.707 99.5067 108.059V66.702C99.5067 62.0537 101.987 57.7585 106.012 55.4343L141.828 34.7559Z" fill="white"/>
<path d="M153.031 104.295V113.691M143.635 113.691V104.295M157.73 113.691H138.936M134.513 88.6333L124.199 98.9475C123.761 99.3856 123.462 99.9437 123.341 100.551C123.221 101.159 123.283 101.789 123.52 102.361C123.757 102.933 124.158 103.422 124.673 103.767C125.188 104.111 125.794 104.295 126.413 104.295H170.252C170.872 104.295 171.477 104.111 171.992 103.767C172.507 103.422 172.909 102.933 173.146 102.361C173.383 101.789 173.445 101.159 173.324 100.551C173.203 99.9437 172.905 99.3856 172.467 98.9475L162.153 88.6333M137.855 75.8948L130.463 83.2866C130.025 83.7247 129.727 84.2828 129.606 84.8904C129.485 85.4979 129.547 86.1277 129.784 86.7C130.021 87.2724 130.423 87.7616 130.938 88.1057C131.453 88.4499 132.058 88.6336 132.678 88.6337H163.988C164.607 88.6336 165.213 88.4499 165.728 88.1058C166.243 87.7616 166.644 87.2724 166.882 86.7001C167.119 86.1277 167.181 85.498 167.06 84.8904C166.939 84.2828 166.641 83.7247 166.203 83.2866L158.811 75.8948M146.118 61.3603L136.728 70.7508C136.29 71.1889 135.991 71.747 135.87 72.3546C135.75 72.9622 135.812 73.5919 136.049 74.1643C136.286 74.7366 136.687 75.2258 137.202 75.57C137.717 75.9142 138.323 76.0979 138.942 76.0979H157.723C158.343 76.0979 158.948 75.9142 159.463 75.57C159.978 75.2258 160.38 74.7366 160.617 74.1643C160.854 73.592 160.916 72.9623 160.795 72.3547C160.674 71.7472 160.376 71.1891 159.938 70.751L150.548 61.3606C149.96 60.7732 149.164 60.4432 148.333 60.4431C147.502 60.4431 146.706 60.773 146.118 61.3603Z" stroke="#FFB5CD" stroke-width="2.16848" stroke-linecap="round" stroke-linejoin="round"/>
</g>
<g filter="url(#filter3_d_3994_145195)">
<path d="M254.594 34.7559C258.619 32.4317 263.579 32.4317 267.605 34.7559L303.421 55.4343C307.446 57.7585 309.926 62.0537 309.926 66.702V108.059C309.926 112.707 307.446 117.002 303.421 119.327L267.605 140.005C263.579 142.329 258.619 142.329 254.594 140.005L218.778 119.327C214.752 117.002 212.272 112.707 212.272 108.059V66.702C212.272 62.0537 214.752 57.7585 218.778 55.4343L254.594 34.7559Z" fill="white"/>
<path d="M254.891 76.7999L238.278 87.8429C237.218 88.5472 236.466 89.629 236.176 90.8679C235.886 92.1069 236.079 93.4098 236.716 94.5114C237.353 95.613 238.386 96.4305 239.604 96.7974C240.822 97.1642 242.135 97.053 243.274 96.4862L261.098 87.6182M254.89 76.7994L256.119 56.9911C256.197 55.7212 256.757 54.529 257.684 53.6573C258.611 52.7856 259.835 52.3 261.108 52.2993C262.38 52.2986 263.605 52.7829 264.533 53.6535C265.461 54.5242 266.022 55.7157 266.102 56.9856L267.355 76.8326M267.354 76.8327L283.923 87.8196C284.984 88.5231 285.736 89.6045 286.028 90.8436C286.319 92.0828 286.127 93.3863 285.49 94.4887C284.854 95.5902 283.822 96.4082 282.605 96.7759C281.387 97.1436 280.075 97.0337 278.936 96.4684L261.096 87.6177M289.287 114.901H232.906M268.203 114.85L266.657 90.3758M255.504 90.401L253.985 114.901M267.361 80.4185C267.361 83.8783 264.556 86.683 261.096 86.683C257.636 86.683 254.832 83.8783 254.832 80.4185C254.832 76.9587 257.636 74.154 261.096 74.154C264.556 74.154 267.361 76.9587 267.361 80.4185Z" stroke="#FB8275" stroke-width="2.16848" stroke-linecap="round" stroke-linejoin="round"/>
</g>
<g filter="url(#filter4_d_3994_145195)">
<path d="M367.352 34.7559C371.377 32.4317 376.337 32.4317 380.362 34.7559L416.178 55.4343C420.204 57.7585 422.684 62.0537 422.684 66.702V108.059C422.684 112.707 420.204 117.002 416.178 119.327L380.362 140.005C376.337 142.329 371.377 142.329 367.352 140.005L331.536 119.327C327.51 117.002 325.03 112.707 325.03 108.059V66.702C325.03 62.0537 327.51 57.7585 331.536 55.4343L367.352 34.7559Z" fill="white"/>
<path d="M345.949 74.225H344.414M374.201 74.225H375.736M360.075 88.3514V89.8862M360.075 60.0985V58.5637M350.083 84.2166L348.987 85.3129M370.069 64.233L371.165 63.1367M370.069 84.2166L371.165 85.3129M350.083 64.233L348.987 63.1367M347.779 96.1507L347.569 98.7191C347.278 102.188 349.854 105.235 353.323 105.525C353.492 105.54 353.663 105.547 353.833 105.547H397.638C401.118 105.539 403.933 102.71 403.924 99.2298C403.924 99.0593 403.916 98.889 403.902 98.7191L401.866 73.7582C401.607 70.489 398.881 67.9665 395.602 67.9605H382.001M382.472 105.547L383.568 116.51M367.906 116.51L369.002 105.547M387.482 116.51H363.991M366.6 74.2249C366.6 77.8283 363.679 80.7494 360.075 80.7494C356.472 80.7494 353.551 77.8283 353.551 74.2249C353.551 70.6216 356.472 67.7005 360.075 67.7005C363.679 67.7005 366.6 70.6216 366.6 74.2249Z" stroke="#FFB5CD" stroke-width="2.16848" stroke-linecap="round" stroke-linejoin="round"/>
</g>
<g filter="url(#filter5_d_3994_145195)">
<path d="M480.109 34.7559C484.135 32.4317 489.095 32.4317 493.12 34.7559L528.936 55.4343C532.962 57.7585 535.442 62.0537 535.442 66.702V108.059C535.442 112.707 532.962 117.002 528.936 119.327L493.12 140.005C489.095 142.329 484.135 142.329 480.109 140.005L444.293 119.327C440.268 117.002 437.788 112.707 437.788 108.059V66.702C437.788 62.0537 440.268 57.7585 444.293 55.4343L480.109 34.7559Z" fill="white"/>
<path d="M491.313 104.295V113.691M481.916 113.691V104.295M496.011 113.691H477.218M472.794 88.6333L462.48 98.9475C462.042 99.3856 461.744 99.9437 461.623 100.551C461.502 101.159 461.564 101.789 461.801 102.361C462.038 102.933 462.439 103.422 462.954 103.767C463.47 104.111 464.075 104.295 464.695 104.295H508.534C509.153 104.295 509.759 104.111 510.274 103.767C510.789 103.422 511.19 102.933 511.427 102.361C511.664 101.789 511.726 101.159 511.605 100.551C511.485 99.9437 511.186 99.3856 510.748 98.9475L500.434 88.6333M476.136 75.8948L468.744 83.2866C468.306 83.7247 468.008 84.2828 467.887 84.8904C467.766 85.4979 467.828 86.1277 468.065 86.7C468.302 87.2724 468.704 87.7616 469.219 88.1057C469.734 88.4499 470.34 88.6336 470.959 88.6337H502.269C502.889 88.6336 503.494 88.4499 504.009 88.1058C504.524 87.7616 504.926 87.2724 505.163 86.7001C505.4 86.1277 505.462 85.498 505.341 84.8904C505.22 84.2828 504.922 83.7247 504.484 83.2866L497.092 75.8948M484.399 61.3603L475.009 70.7508C474.571 71.1889 474.273 71.747 474.152 72.3546C474.031 72.9622 474.093 73.5919 474.33 74.1643C474.567 74.7366 474.968 75.2258 475.484 75.57C475.999 75.9142 476.604 76.0979 477.224 76.0979H496.005C496.624 76.0979 497.23 75.9142 497.745 75.57C498.26 75.2258 498.661 74.7366 498.898 74.1643C499.135 73.592 499.197 72.9623 499.076 72.3547C498.956 71.7472 498.657 71.1891 498.219 70.751L488.829 61.3606C488.242 60.7732 487.445 60.4432 486.614 60.4431C485.784 60.4431 484.987 60.773 484.399 61.3603Z" stroke="#FB8275" stroke-width="2.16848" stroke-linecap="round" stroke-linejoin="round"/>
</g>
<g filter="url(#filter6_d_3994_145195)">
</g>
<g filter="url(#filter7_d_3994_145195)">
<path d="M29.0703 225.582C33.0959 223.258 38.0556 223.258 42.0812 225.582L77.8972 246.26C81.9228 248.585 84.4026 252.88 84.4026 257.528V298.885C84.4026 303.533 81.9228 307.829 77.8972 310.153L42.0812 330.831C38.0556 333.155 33.0959 333.155 29.0703 330.831L-6.74571 310.153C-10.7713 307.829 -13.2511 303.533 -13.2511 298.885V257.528C-13.2511 252.88 -10.7713 248.585 -6.74571 246.26L29.0703 225.582Z" fill="white"/>
<path d="M7.66761 265.051H6.13281M35.9197 265.051H37.4545M21.794 279.178V280.712M21.794 250.925V249.39M11.8021 275.043L10.7058 276.139M31.7873 255.059L32.8835 253.963M31.7873 275.043L32.8835 276.139M11.8021 255.059L10.7058 253.963M9.49728 286.977L9.28742 289.545C8.99679 293.014 11.5729 296.061 15.0413 296.352C15.2111 296.366 15.3815 296.373 15.5519 296.374H59.3564C62.8369 296.365 65.6515 293.536 65.6429 290.056C65.6424 289.886 65.6351 289.715 65.6209 289.545L63.5849 264.584C63.3255 261.315 60.5999 258.793 57.3204 258.787H43.7202M44.1908 296.374L45.2871 307.336M29.6247 307.336L30.7209 296.374M49.2012 307.336H25.7094M28.3185 265.051C28.3185 268.654 25.3974 271.576 21.794 271.576C18.1907 271.576 15.2696 268.654 15.2696 265.051C15.2696 261.448 18.1907 258.527 21.794 258.527C25.3974 258.527 28.3185 261.448 28.3185 265.051Z" stroke="#FFB5CD" stroke-width="2.16848" stroke-linecap="round" stroke-linejoin="round"/>
</g>
<g filter="url(#filter8_d_3994_145195)">
<path d="M141.828 225.582C145.854 223.258 150.813 223.258 154.839 225.582L190.655 246.26C194.681 248.585 197.16 252.88 197.16 257.528V298.885C197.16 303.533 194.681 307.829 190.655 310.153L154.839 330.831C150.813 333.155 145.854 333.155 141.828 330.831L106.012 310.153C101.987 307.829 99.5067 303.533 99.5067 298.885V257.528C99.5067 252.88 101.987 248.585 106.012 246.26L141.828 225.582Z" fill="white"/>
<path d="M153.031 295.121V304.517M143.635 304.517V295.121M157.73 304.517H138.936M134.513 279.46L124.199 289.774C123.761 290.212 123.462 290.77 123.341 291.377C123.221 291.985 123.283 292.615 123.52 293.187C123.757 293.759 124.158 294.249 124.673 294.593C125.188 294.937 125.794 295.121 126.413 295.121H170.252C170.872 295.121 171.477 294.937 171.992 294.593C172.507 294.249 172.909 293.759 173.146 293.187C173.383 292.615 173.445 291.985 173.324 291.377C173.203 290.77 172.905 290.212 172.467 289.774L162.153 279.46M137.855 266.721L130.463 274.113C130.025 274.551 129.727 275.109 129.606 275.717C129.485 276.324 129.547 276.954 129.784 277.526C130.021 278.099 130.423 278.588 130.938 278.932C131.453 279.276 132.058 279.46 132.678 279.46H163.988C164.607 279.46 165.213 279.276 165.728 278.932C166.243 278.588 166.644 278.099 166.882 277.526C167.119 276.954 167.181 276.324 167.06 275.717C166.939 275.109 166.641 274.551 166.203 274.113L158.811 266.721M146.118 252.187L136.728 261.577C136.29 262.015 135.991 262.573 135.87 263.181C135.75 263.788 135.812 264.418 136.049 264.99C136.286 265.563 136.687 266.052 137.202 266.396C137.717 266.74 138.323 266.924 138.942 266.924H157.723C158.343 266.924 158.948 266.74 159.463 266.396C159.978 266.052 160.38 265.563 160.617 264.991C160.854 264.418 160.916 263.788 160.795 263.181C160.674 262.573 160.376 262.015 159.938 261.577L150.548 252.187C149.96 251.599 149.164 251.269 148.333 251.269C147.502 251.269 146.706 251.599 146.118 252.187Z" stroke="#FB8275" stroke-width="2.16848" stroke-linecap="round" stroke-linejoin="round"/>
</g>
<g filter="url(#filter9_d_3994_145195)">
<path d="M254.594 225.582C258.619 223.258 263.579 223.258 267.605 225.582L303.421 246.26C307.446 248.585 309.926 252.88 309.926 257.528V298.885C309.926 303.533 307.446 307.829 303.421 310.153L267.605 330.831C263.579 333.155 258.619 333.155 254.594 330.831L218.778 310.153C214.752 307.829 212.272 303.533 212.272 298.885V257.528C212.272 252.88 214.752 248.585 218.778 246.26L254.594 225.582Z" fill="white"/>
<path d="M254.891 267.626L238.278 278.669C237.218 279.373 236.466 280.455 236.176 281.694C235.886 282.933 236.079 284.236 236.716 285.338C237.353 286.439 238.386 287.257 239.604 287.624C240.822 287.99 242.135 287.879 243.274 287.312L261.098 278.444M254.89 267.626L256.119 247.817C256.197 246.547 256.757 245.355 257.684 244.483C258.611 243.612 259.835 243.126 261.108 243.125C262.38 243.125 263.605 243.609 264.533 244.48C265.461 245.35 266.022 246.542 266.102 247.812L267.355 267.659M267.354 267.659L283.923 278.646C284.984 279.349 285.736 280.431 286.028 281.67C286.319 282.909 286.127 284.212 285.49 285.315C284.854 286.416 283.822 287.234 282.605 287.602C281.387 287.97 280.075 287.86 278.936 287.295L261.096 278.444M289.287 305.728H232.906M268.203 305.676L266.657 281.202M255.504 281.227L253.985 305.728M267.361 271.245C267.361 274.704 264.556 277.509 261.096 277.509C257.636 277.509 254.832 274.704 254.832 271.245C254.832 267.785 257.636 264.98 261.096 264.98C264.556 264.98 267.361 267.785 267.361 271.245Z" stroke="#FFB5CD" stroke-width="2.16848" stroke-linecap="round" stroke-linejoin="round"/>
</g>
<g filter="url(#filter10_d_3994_145195)">
<path d="M367.352 225.582C371.377 223.258 376.337 223.258 380.362 225.582L416.178 246.26C420.204 248.585 422.684 252.88 422.684 257.528V298.885C422.684 303.533 420.204 307.829 416.178 310.153L380.362 330.831C376.337 333.155 371.377 333.155 367.352 330.831L331.536 310.153C327.51 307.829 325.03 303.533 325.03 298.885V257.528C325.03 252.88 327.51 248.585 331.536 246.26L367.352 225.582Z" fill="white"/>
<path d="M345.949 265.051H344.414M374.201 265.051H375.736M360.075 279.178V280.712M360.075 250.925V249.39M350.083 275.043L348.987 276.139M370.069 255.059L371.165 253.963M370.069 275.043L371.165 276.139M350.083 255.059L348.987 253.963M347.779 286.977L347.569 289.545C347.278 293.014 349.854 296.061 353.323 296.352C353.492 296.366 353.663 296.373 353.833 296.374H397.638C401.118 296.365 403.933 293.536 403.924 290.056C403.924 289.886 403.916 289.715 403.902 289.545L401.866 264.584C401.607 261.315 398.881 258.793 395.602 258.787H382.001M382.472 296.374L383.568 307.336M367.906 307.336L369.002 296.374M387.482 307.336H363.991M366.6 265.051C366.6 268.654 363.679 271.576 360.075 271.576C356.472 271.576 353.551 268.654 353.551 265.051C353.551 261.448 356.472 258.527 360.075 258.527C363.679 258.527 366.6 261.448 366.6 265.051Z" stroke="#FB8275" stroke-width="2.16848" stroke-linecap="round" stroke-linejoin="round"/>
</g>
<g filter="url(#filter11_d_3994_145195)">
<path d="M480.109 225.582C484.135 223.258 489.095 223.258 493.12 225.582L528.936 246.26C532.962 248.585 535.442 252.88 535.442 257.528V298.885C535.442 303.533 532.962 307.829 528.936 310.153L493.12 330.831C489.095 333.155 484.135 333.155 480.109 330.831L444.293 310.153C440.268 307.829 437.788 303.533 437.788 298.885V257.528C437.788 252.88 440.268 248.585 444.293 246.26L480.109 225.582Z" fill="white"/>
<path d="M491.313 295.121V304.517M481.916 304.517V295.121M496.011 304.517H477.218M472.794 279.46L462.48 289.774C462.042 290.212 461.744 290.77 461.623 291.377C461.502 291.985 461.564 292.615 461.801 293.187C462.038 293.759 462.439 294.249 462.954 294.593C463.47 294.937 464.075 295.121 464.695 295.121H508.534C509.153 295.121 509.759 294.937 510.274 294.593C510.789 294.249 511.19 293.759 511.427 293.187C511.664 292.615 511.726 291.985 511.605 291.377C511.485 290.77 511.186 290.212 510.748 289.774L500.434 279.46M476.136 266.721L468.744 274.113C468.306 274.551 468.008 275.109 467.887 275.717C467.766 276.324 467.828 276.954 468.065 277.526C468.302 278.099 468.704 278.588 469.219 278.932C469.734 279.276 470.34 279.46 470.959 279.46H502.269C502.889 279.46 503.494 279.276 504.009 278.932C504.524 278.588 504.926 278.099 505.163 277.526C505.4 276.954 505.462 276.324 505.341 275.717C505.22 275.109 504.922 274.551 504.484 274.113L497.092 266.721M484.399 252.187L475.009 261.577C474.571 262.015 474.273 262.573 474.152 263.181C474.031 263.788 474.093 264.418 474.33 264.99C474.567 265.563 474.968 266.052 475.484 266.396C475.999 266.74 476.604 266.924 477.224 266.924H496.005C496.624 266.924 497.23 266.74 497.745 266.396C498.26 266.052 498.661 265.563 498.898 264.991C499.135 264.418 499.197 263.788 499.076 263.181C498.956 262.573 498.657 262.015 498.219 261.577L488.829 252.187C488.242 251.599 487.445 251.269 486.614 251.269C485.784 251.269 484.987 251.599 484.399 252.187Z" stroke="#F46780" stroke-width="2.16848" stroke-linecap="round" stroke-linejoin="round"/>
</g>
<g filter="url(#filter12_d_3994_145195)">
<path d="M-27.3125 130.169C-23.2869 127.845 -18.3272 127.845 -14.3016 130.169L21.5144 150.847C25.54 153.172 28.0198 157.467 28.0198 162.115V203.472C28.0198 208.12 25.54 212.415 21.5144 214.74L-14.3016 235.418C-18.3272 237.742 -23.2869 237.742 -27.3125 235.418L-63.1285 214.74C-67.1541 212.415 -69.634 208.12 -69.634 203.472V162.115C-69.634 157.467 -67.1541 153.172 -63.1285 150.847L-27.3125 130.169Z" fill="white"/>
<path d="M-16.1092 199.708V209.104M-25.5059 209.104V199.708M-11.4108 209.104H-30.2043M-34.6278 184.046L-44.942 194.361C-45.38 194.799 -45.6783 195.357 -45.7992 195.964C-45.92 196.572 -45.858 197.202 -45.621 197.774C-45.3839 198.346 -44.9825 198.836 -44.4674 199.18C-43.9523 199.524 -43.3467 199.708 -42.7273 199.708H1.11166C1.73114 199.708 2.33671 199.524 2.85178 199.18C3.36686 198.836 3.76832 198.346 4.00538 197.774C4.24244 197.202 4.30447 196.572 4.18362 195.964C4.06277 195.357 3.76447 194.799 3.32644 194.361L-6.9878 184.046M-31.2856 171.308L-38.6775 178.7C-39.1155 179.138 -39.4138 179.696 -39.5347 180.303C-39.6556 180.911 -39.5935 181.541 -39.3565 182.113C-39.1194 182.685 -38.718 183.175 -38.2029 183.519C-37.6878 183.863 -37.0823 184.047 -36.4628 184.047H-5.15284C-4.53335 184.047 -3.92778 183.863 -3.41271 183.519C-2.89763 183.175 -2.49618 182.685 -2.25911 182.113C-2.02205 181.541 -1.96002 180.911 -2.08087 180.303C-2.20172 179.696 -2.50002 179.138 -2.93805 178.7L-10.33 171.308M-23.0225 156.773L-32.4129 166.164C-32.851 166.602 -33.1493 167.16 -33.2702 167.768C-33.3911 168.375 -33.329 169.005 -33.092 169.577C-32.8549 170.15 -32.4535 170.639 -31.9384 170.983C-31.4233 171.327 -30.8177 171.511 -30.1982 171.511H-11.4172C-10.7978 171.511 -10.1922 171.327 -9.6772 170.983C-9.16216 170.639 -8.76073 170.15 -8.52367 169.577C-8.28662 169.005 -8.22459 168.375 -8.34541 167.768C-8.46624 167.16 -8.7645 166.602 -9.20249 166.164L-18.593 156.774C-19.1803 156.186 -19.977 155.856 -20.8077 155.856C-21.6383 155.856 -22.435 156.186 -23.0225 156.773Z" stroke="#FB8275" stroke-width="2.16848" stroke-linecap="round" stroke-linejoin="round"/>
</g>
<g filter="url(#filter13_d_3994_145195)">
<path d="M85.4453 130.169C89.4709 127.845 94.4306 127.845 98.4562 130.169L134.272 150.847C138.298 153.172 140.778 157.467 140.778 162.115V203.472C140.778 208.12 138.298 212.415 134.272 214.74L98.4562 235.418C94.4306 237.742 89.4709 237.742 85.4453 235.418L49.6293 214.74C45.6037 212.415 43.1239 208.12 43.1239 203.472V162.115C43.1239 157.467 45.6037 153.172 49.6293 150.847L85.4453 130.169Z" fill="white"/>
<path d="M85.7425 172.213L69.1291 183.256C68.0694 183.96 67.318 185.042 67.0279 186.281C66.7378 187.52 66.9308 188.823 67.5677 189.924C68.2045 191.026 69.2372 191.844 70.4556 192.21C71.674 192.577 72.9864 192.466 74.1257 191.899L91.9499 183.031M85.7419 172.213L86.9702 152.404C87.049 151.134 87.6088 149.942 88.5357 149.07C89.4627 148.199 90.6869 147.713 91.9593 147.712C93.2317 147.712 94.4565 148.196 95.3844 149.067C96.3123 149.937 96.8735 151.129 96.9537 152.399L98.2066 172.246M98.2054 172.246L114.774 183.233C115.835 183.936 116.588 185.018 116.879 186.257C117.171 187.496 116.978 188.799 116.342 189.902C115.706 191.003 114.674 191.821 113.456 192.189C112.239 192.557 110.927 192.447 109.787 191.882L91.948 183.031M120.138 210.315H63.7578M99.0541 210.263L97.509 185.789M86.3555 185.814L84.8362 210.314M98.2123 175.832C98.2123 179.291 95.4076 182.096 91.9478 182.096C88.488 182.096 85.6833 179.291 85.6833 175.832C85.6833 172.372 88.488 169.567 91.9478 169.567C95.4076 169.567 98.2123 172.372 98.2123 175.832Z" stroke="#F46780" stroke-width="2.16848" stroke-linecap="round" stroke-linejoin="round"/>
</g>
<g filter="url(#filter14_d_3994_145195)">
<path d="M198.211 130.169C202.237 127.845 207.196 127.845 211.222 130.169L247.038 150.847C251.063 153.172 253.543 157.467 253.543 162.115V203.472C253.543 208.12 251.063 212.415 247.038 214.74L211.222 235.418C207.196 237.742 202.237 237.742 198.211 235.418L162.395 214.74C158.369 212.415 155.889 208.12 155.889 203.472V162.115C155.889 157.467 158.369 153.172 162.395 150.847L198.211 130.169Z" fill="white"/>
<path d="M176.808 169.638H175.273M205.06 169.638H206.595M190.935 183.764V185.299M190.935 155.512V153.977M180.943 179.63L179.846 180.726M200.928 159.646L202.024 158.55M200.928 179.63L202.024 180.726M180.943 159.646L179.846 158.55M178.638 191.564L178.428 194.132C178.137 197.601 180.713 200.648 184.182 200.939C184.352 200.953 184.522 200.96 184.693 200.961H228.497C231.978 200.952 234.792 198.123 234.783 194.643C234.783 194.472 234.776 194.302 234.762 194.132L232.726 169.171C232.466 165.902 229.741 163.38 226.461 163.374H212.861M213.331 200.96L214.428 211.923M198.765 211.923L199.862 200.96M218.342 211.923H194.85M197.459 169.638C197.459 173.241 194.538 176.162 190.935 176.162C187.331 176.162 184.41 173.241 184.41 169.638C184.41 166.035 187.331 163.114 190.935 163.114C194.538 163.114 197.459 166.035 197.459 169.638Z" stroke="#FB8275" stroke-width="2.16848" stroke-linecap="round" stroke-linejoin="round"/>
</g>
<g filter="url(#filter15_d_3994_145195)">
<path d="M310.969 130.169C314.994 127.845 319.954 127.845 323.98 130.169L359.796 150.847C363.821 153.172 366.301 157.467 366.301 162.115V203.472C366.301 208.12 363.821 212.415 359.796 214.74L323.98 235.418C319.954 237.742 314.994 237.742 310.969 235.418L275.153 214.74C271.127 212.415 268.647 208.12 268.647 203.472V162.115C268.647 157.467 271.127 153.172 275.153 150.847L310.969 130.169Z" fill="white"/>
<path d="M322.172 199.708V209.104M312.775 209.104V199.708M326.87 209.104H308.077M303.653 184.046L293.339 194.361C292.901 194.799 292.603 195.357 292.482 195.964C292.361 196.572 292.423 197.202 292.66 197.774C292.897 198.346 293.299 198.836 293.814 199.18C294.329 199.524 294.935 199.708 295.554 199.708H339.393C340.012 199.708 340.618 199.524 341.133 199.18C341.648 198.836 342.05 198.346 342.287 197.774C342.524 197.202 342.586 196.572 342.465 195.964C342.344 195.357 342.046 194.799 341.608 194.361L331.293 184.046M306.996 171.308L299.604 178.7C299.166 179.138 298.867 179.696 298.747 180.303C298.626 180.911 298.688 181.541 298.925 182.113C299.162 182.685 299.563 183.175 300.078 183.519C300.593 183.863 301.199 184.047 301.818 184.047H333.128C333.748 184.047 334.353 183.863 334.869 183.519C335.384 183.175 335.785 182.685 336.022 182.113C336.259 181.541 336.321 180.911 336.2 180.303C336.08 179.696 335.781 179.138 335.343 178.7L327.951 171.308M315.259 156.773L305.868 166.164C305.43 166.602 305.132 167.16 305.011 167.768C304.89 168.375 304.952 169.005 305.189 169.577C305.426 170.15 305.828 170.639 306.343 170.983C306.858 171.327 307.464 171.511 308.083 171.511H326.864C327.483 171.511 328.089 171.327 328.604 170.983C329.119 170.639 329.521 170.15 329.758 169.577C329.995 169.005 330.057 168.375 329.936 167.768C329.815 167.16 329.517 166.602 329.079 166.164L319.688 156.774C319.101 156.186 318.304 155.856 317.474 155.856C316.643 155.856 315.846 156.186 315.259 156.773Z" stroke="#F46780" stroke-width="2.16848" stroke-linecap="round" stroke-linejoin="round"/>
</g>
<g filter="url(#filter16_d_3994_145195)">
<path d="M423.727 130.169C427.752 127.845 432.712 127.845 436.737 130.169L472.553 150.847C476.579 153.172 479.059 157.467 479.059 162.115V203.472C479.059 208.12 476.579 212.415 472.553 214.74L436.737 235.418C432.712 237.742 427.752 237.742 423.727 235.418L387.911 214.74C383.885 212.415 381.405 208.12 381.405 203.472V162.115C381.405 157.467 383.885 153.172 387.911 150.847L423.727 130.169Z" fill="white"/>
<path d="M424.024 172.213L407.41 183.256C406.351 183.96 405.599 185.042 405.309 186.281C405.019 187.52 405.212 188.823 405.849 189.924C406.486 191.026 407.518 191.844 408.737 192.21C409.955 192.577 411.268 192.466 412.407 191.899L430.231 183.031M424.023 172.213L425.251 152.404C425.33 151.134 425.89 149.942 426.817 149.07C427.744 148.199 428.968 147.713 430.241 147.712C431.513 147.712 432.738 148.196 433.666 149.067C434.594 149.937 435.155 151.129 435.235 152.399L436.488 172.246M436.487 172.246L453.056 183.233C454.117 183.936 454.869 185.018 455.161 186.257C455.452 187.496 455.26 188.799 454.623 189.902C453.987 191.003 452.955 191.821 451.738 192.189C450.52 192.557 449.208 192.447 448.069 191.882L430.229 183.031M458.419 210.315H402.039M437.335 210.263L435.79 185.789M424.637 185.814L423.117 210.314M436.494 175.832C436.494 179.291 433.689 182.096 430.229 182.096C426.769 182.096 423.965 179.291 423.965 175.832C423.965 172.372 426.769 169.567 430.229 169.567C433.689 169.567 436.494 172.372 436.494 175.832Z" stroke="#FFB5CD" stroke-width="2.16848" stroke-linecap="round" stroke-linejoin="round"/>
</g>
<g filter="url(#filter17_d_3994_145195)">
<path d="M-27.3125 320.995C-23.2869 318.671 -18.3272 318.671 -14.3016 320.995L21.5144 341.674C25.54 343.998 28.0198 348.293 28.0198 352.941V394.298C28.0198 398.946 25.54 403.242 21.5144 405.566L-14.3016 426.244C-18.3272 428.568 -23.2869 428.568 -27.3125 426.244L-63.1285 405.566C-67.1541 403.242 -69.634 398.946 -69.634 394.298V352.941C-69.634 348.293 -67.1541 343.998 -63.1285 341.674L-27.3125 320.995Z" fill="white"/>
<path d="M-16.1092 390.534V399.931M-25.5059 399.931V390.534M-11.4108 399.931H-30.2043M-34.6278 374.873L-44.942 385.187C-45.38 385.625 -45.6783 386.183 -45.7992 386.791C-45.92 387.398 -45.858 388.028 -45.621 388.6C-45.3839 389.173 -44.9825 389.662 -44.4674 390.006C-43.9523 390.35 -43.3467 390.534 -42.7273 390.534H1.11166C1.73114 390.534 2.33671 390.35 2.85178 390.006C3.36686 389.662 3.76832 389.173 4.00538 388.6C4.24244 388.028 4.30447 387.398 4.18362 386.791C4.06277 386.183 3.76447 385.625 3.32644 385.187L-6.9878 374.873M-31.2856 362.134L-38.6775 369.526C-39.1155 369.964 -39.4138 370.522 -39.5347 371.13C-39.6556 371.737 -39.5935 372.367 -39.3565 372.939C-39.1194 373.512 -38.718 374.001 -38.2029 374.345C-37.6878 374.689 -37.0823 374.873 -36.4628 374.873H-5.15284C-4.53335 374.873 -3.92778 374.689 -3.41271 374.345C-2.89763 374.001 -2.49618 373.512 -2.25911 372.939C-2.02205 372.367 -1.96002 371.737 -2.08087 371.13C-2.20172 370.522 -2.50002 369.964 -2.93805 369.526L-10.33 362.134M-23.0225 347.6L-32.4129 356.99C-32.851 357.428 -33.1493 357.986 -33.2702 358.594C-33.3911 359.201 -33.329 359.831 -33.092 360.404C-32.8549 360.976 -32.4535 361.465 -31.9384 361.809C-31.4233 362.153 -30.8177 362.337 -30.1982 362.337H-11.4172C-10.7978 362.337 -10.1922 362.153 -9.6772 361.809C-9.16216 361.465 -8.76073 360.976 -8.52367 360.404C-8.28662 359.831 -8.22459 359.202 -8.34541 358.594C-8.46624 357.986 -8.7645 357.428 -9.20249 356.99L-18.593 347.6C-19.1803 347.012 -19.977 346.682 -20.8077 346.682C-21.6383 346.682 -22.435 347.012 -23.0225 347.6Z" stroke="#F46780" stroke-width="2.16848" stroke-linecap="round" stroke-linejoin="round"/>
</g>
<g filter="url(#filter18_d_3994_145195)">
<path d="M85.4453 320.995C89.4709 318.671 94.4306 318.671 98.4562 320.995L134.272 341.674C138.298 343.998 140.778 348.293 140.778 352.941V394.298C140.778 398.946 138.298 403.242 134.272 405.566L98.4562 426.244C94.4306 428.568 89.4709 428.568 85.4453 426.244L49.6293 405.566C45.6037 403.242 43.1239 398.946 43.1239 394.298V352.941C43.1239 348.293 45.6037 343.998 49.6293 341.674L85.4453 320.995Z" fill="white"/>
<path d="M85.7425 363.039L69.1291 374.082C68.0694 374.786 67.318 375.868 67.0279 377.107C66.7378 378.346 66.9308 379.649 67.5677 380.751C68.2045 381.852 69.2372 382.67 70.4556 383.037C71.674 383.404 72.9864 383.292 74.1257 382.725L91.9499 373.857M85.7419 363.039L86.9702 343.23C87.049 341.96 87.6088 340.768 88.5357 339.897C89.4627 339.025 90.6869 338.539 91.9593 338.539C93.2317 338.538 94.4565 339.022 95.3844 339.893C96.3123 340.763 96.8735 341.955 96.9537 343.225L98.2066 363.072M98.2054 363.072L114.774 374.059C115.835 374.762 116.588 375.844 116.879 377.083C117.171 378.322 116.978 379.626 116.342 380.728C115.706 381.829 114.674 382.647 113.456 383.015C112.239 383.383 110.927 383.273 109.787 382.708L91.948 373.857M120.138 401.141H63.7578M99.0541 401.089L97.509 376.615M86.3555 376.64L84.8362 401.141M98.2123 366.658C98.2123 370.118 95.4076 372.922 91.9478 372.922C88.488 372.922 85.6833 370.118 85.6833 366.658C85.6833 363.198 88.488 360.393 91.9478 360.393C95.4076 360.393 98.2123 363.198 98.2123 366.658Z" stroke="#FB8275" stroke-width="2.16848" stroke-linecap="round" stroke-linejoin="round"/>
</g>
<g filter="url(#filter19_d_3994_145195)">
<path d="M198.211 320.995C202.237 318.671 207.196 318.671 211.222 320.995L247.038 341.674C251.063 343.998 253.543 348.293 253.543 352.941V394.298C253.543 398.946 251.063 403.242 247.038 405.566L211.222 426.244C207.196 428.568 202.237 428.568 198.211 426.244L162.395 405.566C158.369 403.242 155.889 398.946 155.889 394.298V352.941C155.889 348.293 158.369 343.998 162.395 341.674L198.211 320.995Z" fill="white"/>
<path d="M176.808 360.464H175.273M205.06 360.464H206.595M190.935 374.591V376.125M190.935 346.338V344.803M180.943 370.456L179.846 371.552M200.928 350.472L202.024 349.376M200.928 370.456L202.024 371.552M180.943 350.472L179.846 349.376M178.638 382.39L178.428 384.958C178.137 388.427 180.713 391.474 184.182 391.765C184.352 391.779 184.522 391.786 184.693 391.787H228.497C231.978 391.778 234.792 388.95 234.783 385.469C234.783 385.299 234.776 385.128 234.762 384.958L232.726 359.998C232.466 356.728 229.741 354.206 226.461 354.2H212.861M213.331 391.787L214.428 402.75M198.765 402.75L199.862 391.787M218.342 402.75H194.85M197.459 360.464C197.459 364.068 194.538 366.989 190.935 366.989C187.331 366.989 184.41 364.068 184.41 360.464C184.41 356.861 187.331 353.94 190.935 353.94C194.538 353.94 197.459 356.861 197.459 360.464Z" stroke="#F46780" stroke-width="2.16848" stroke-linecap="round" stroke-linejoin="round"/>
</g>
<g filter="url(#filter20_d_3994_145195)">
<path d="M310.969 320.995C314.994 318.671 319.954 318.671 323.98 320.995L359.796 341.674C363.821 343.998 366.301 348.293 366.301 352.941V394.298C366.301 398.946 363.821 403.242 359.796 405.566L323.98 426.244C319.954 428.568 314.994 428.568 310.969 426.244L275.153 405.566C271.127 403.242 268.647 398.946 268.647 394.298V352.941C268.647 348.293 271.127 343.998 275.153 341.674L310.969 320.995Z" fill="white"/>
<path d="M322.172 390.534V399.931M312.775 399.931V390.534M326.87 399.931H308.077M303.653 374.873L293.339 385.187C292.901 385.625 292.603 386.183 292.482 386.791C292.361 387.398 292.423 388.028 292.66 388.6C292.897 389.173 293.299 389.662 293.814 390.006C294.329 390.35 294.935 390.534 295.554 390.534H339.393C340.012 390.534 340.618 390.35 341.133 390.006C341.648 389.662 342.05 389.173 342.287 388.6C342.524 388.028 342.586 387.398 342.465 386.791C342.344 386.183 342.046 385.625 341.608 385.187L331.293 374.873M306.996 362.134L299.604 369.526C299.166 369.964 298.867 370.522 298.747 371.13C298.626 371.737 298.688 372.367 298.925 372.939C299.162 373.512 299.563 374.001 300.078 374.345C300.593 374.689 301.199 374.873 301.818 374.873H333.128C333.748 374.873 334.353 374.689 334.869 374.345C335.384 374.001 335.785 373.512 336.022 372.939C336.259 372.367 336.321 371.737 336.2 371.13C336.08 370.522 335.781 369.964 335.343 369.526L327.951 362.134M315.259 347.6L305.868 356.99C305.43 357.428 305.132 357.986 305.011 358.594C304.89 359.201 304.952 359.831 305.189 360.404C305.426 360.976 305.828 361.465 306.343 361.809C306.858 362.153 307.464 362.337 308.083 362.337H326.864C327.483 362.337 328.089 362.153 328.604 361.809C329.119 361.465 329.521 360.976 329.758 360.404C329.995 359.831 330.057 359.202 329.936 358.594C329.815 357.986 329.517 357.428 329.079 356.99L319.688 347.6C319.101 347.012 318.304 346.682 317.474 346.682C316.643 346.682 315.846 347.012 315.259 347.6Z" stroke="#FB8275" stroke-width="2.16848" stroke-linecap="round" stroke-linejoin="round"/>
</g>
<g filter="url(#filter21_d_3994_145195)">
<path d="M423.727 320.995C427.752 318.671 432.712 318.671 436.737 320.995L472.553 341.674C476.579 343.998 479.059 348.293 479.059 352.941V394.298C479.059 398.946 476.579 403.242 472.553 405.566L436.737 426.244C432.712 428.568 427.752 428.568 423.727 426.244L387.911 405.566C383.885 403.242 381.405 398.946 381.405 394.298V352.941C381.405 348.293 383.885 343.998 387.911 341.674L423.727 320.995Z" fill="white"/>
<path d="M424.024 363.039L407.41 374.082C406.351 374.786 405.599 375.868 405.309 377.107C405.019 378.346 405.212 379.649 405.849 380.751C406.486 381.852 407.518 382.67 408.737 383.037C409.955 383.404 411.268 383.292 412.407 382.725L430.231 373.857M424.023 363.039L425.251 343.23C425.33 341.96 425.89 340.768 426.817 339.897C427.744 339.025 428.968 338.539 430.241 338.539C431.513 338.538 432.738 339.022 433.666 339.893C434.594 340.763 435.155 341.955 435.235 343.225L436.488 363.072M436.487 363.072L453.056 374.059C454.117 374.762 454.869 375.844 455.161 377.083C455.452 378.322 455.26 379.626 454.623 380.728C453.987 381.829 452.955 382.647 451.738 383.015C450.52 383.383 449.208 383.273 448.069 382.708L430.229 373.857M458.419 401.141H402.039M437.335 401.089L435.79 376.615M424.637 376.64L423.117 401.141M436.494 366.658C436.494 370.118 433.689 372.922 430.229 372.922C426.769 372.922 423.965 370.118 423.965 366.658C423.965 363.198 426.769 360.393 430.229 360.393C433.689 360.393 436.494 363.198 436.494 366.658Z" stroke="#FFB5CD" stroke-width="2.16848" stroke-linecap="round" stroke-linejoin="round"/>
</g>
<defs>
<filter id="filter0_d_3994_145195" x="-158.559" y="0.469218" width="162.743" height="173.822" filterUnits="userSpaceOnUse" color-interpolation-filters="sRGB">
<feFlood flood-opacity="0" result="BackgroundImageFix"/>
<feColorMatrix in="SourceAlpha" type="matrix" values="0 0 0 0 0 0 0 0 0 0 0 0 0 0 0 0 0 0 127 0" result="hardAlpha"/>
<feMorphology radius="10.8261" operator="erode" in="SourceAlpha" result="effect1_dropShadow_3994_145195"/>
<feOffset/>
<feGaussianBlur stdDeviation="21.6848"/>
<feColorMatrix type="matrix" values="0 0 0 0 0.0823529 0 0 0 0 0.133333 0 0 0 0 0.223529 0 0 0 0.1 0"/>
<feBlend mode="normal" in2="BackgroundImageFix" result="effect1_dropShadow_3994_145195"/>
<feBlend mode="normal" in="SourceGraphic" in2="effect1_dropShadow_3994_145195" result="shape"/>
</filter>
<filter id="filter1_d_3994_145195" x="-45.7935" y="0.469218" width="162.743" height="173.822" filterUnits="userSpaceOnUse" color-interpolation-filters="sRGB">
<feFlood flood-opacity="0" result="BackgroundImageFix"/>
<feColorMatrix in="SourceAlpha" type="matrix" values="0 0 0 0 0 0 0 0 0 0 0 0 0 0 0 0 0 0 127 0" result="hardAlpha"/>
<feMorphology radius="10.8261" operator="erode" in="SourceAlpha" result="effect1_dropShadow_3994_145195"/>
<feOffset/>
<feGaussianBlur stdDeviation="21.6848"/>
<feColorMatrix type="matrix" values="0 0 0 0 0.0823529 0 0 0 0 0.133333 0 0 0 0 0.223529 0 0 0 0.1 0"/>
<feBlend mode="normal" in2="BackgroundImageFix" result="effect1_dropShadow_3994_145195"/>
<feBlend mode="normal" in="SourceGraphic" in2="effect1_dropShadow_3994_145195" result="shape"/>
</filter>
<filter id="filter2_d_3994_145195" x="66.9643" y="0.469218" width="162.743" height="173.822" filterUnits="userSpaceOnUse" color-interpolation-filters="sRGB">
<feFlood flood-opacity="0" result="BackgroundImageFix"/>
<feColorMatrix in="SourceAlpha" type="matrix" values="0 0 0 0 0 0 0 0 0 0 0 0 0 0 0 0 0 0 127 0" result="hardAlpha"/>
<feMorphology radius="10.8261" operator="erode" in="SourceAlpha" result="effect1_dropShadow_3994_145195"/>
<feOffset/>
<feGaussianBlur stdDeviation="21.6848"/>
<feColorMatrix type="matrix" values="0 0 0 0 0.0823529 0 0 0 0 0.133333 0 0 0 0 0.223529 0 0 0 0.1 0"/>
<feBlend mode="normal" in2="BackgroundImageFix" result="effect1_dropShadow_3994_145195"/>
<feBlend mode="normal" in="SourceGraphic" in2="effect1_dropShadow_3994_145195" result="shape"/>
</filter>
<filter id="filter3_d_3994_145195" x="179.73" y="0.469218" width="162.743" height="173.822" filterUnits="userSpaceOnUse" color-interpolation-filters="sRGB">
<feFlood flood-opacity="0" result="BackgroundImageFix"/>
<feColorMatrix in="SourceAlpha" type="matrix" values="0 0 0 0 0 0 0 0 0 0 0 0 0 0 0 0 0 0 127 0" result="hardAlpha"/>
<feMorphology radius="10.8261" operator="erode" in="SourceAlpha" result="effect1_dropShadow_3994_145195"/>
<feOffset/>
<feGaussianBlur stdDeviation="21.6848"/>
<feColorMatrix type="matrix" values="0 0 0 0 0.0823529 0 0 0 0 0.133333 0 0 0 0 0.223529 0 0 0 0.1 0"/>
<feBlend mode="normal" in2="BackgroundImageFix" result="effect1_dropShadow_3994_145195"/>
<feBlend mode="normal" in="SourceGraphic" in2="effect1_dropShadow_3994_145195" result="shape"/>
</filter>
<filter id="filter4_d_3994_145195" x="292.488" y="0.469218" width="162.743" height="173.822" filterUnits="userSpaceOnUse" color-interpolation-filters="sRGB">
<feFlood flood-opacity="0" result="BackgroundImageFix"/>
<feColorMatrix in="SourceAlpha" type="matrix" values="0 0 0 0 0 0 0 0 0 0 0 0 0 0 0 0 0 0 127 0" result="hardAlpha"/>
<feMorphology radius="10.8261" operator="erode" in="SourceAlpha" result="effect1_dropShadow_3994_145195"/>
<feOffset/>
<feGaussianBlur stdDeviation="21.6848"/>
<feColorMatrix type="matrix" values="0 0 0 0 0.0823529 0 0 0 0 0.133333 0 0 0 0 0.223529 0 0 0 0.1 0"/>
<feBlend mode="normal" in2="BackgroundImageFix" result="effect1_dropShadow_3994_145195"/>
<feBlend mode="normal" in="SourceGraphic" in2="effect1_dropShadow_3994_145195" result="shape"/>
</filter>
<filter id="filter5_d_3994_145195" x="405.246" y="0.469218" width="162.743" height="173.822" filterUnits="userSpaceOnUse" color-interpolation-filters="sRGB">
<feFlood flood-opacity="0" result="BackgroundImageFix"/>
<feColorMatrix in="SourceAlpha" type="matrix" values="0 0 0 0 0 0 0 0 0 0 0 0 0 0 0 0 0 0 127 0" result="hardAlpha"/>
<feMorphology radius="10.8261" operator="erode" in="SourceAlpha" result="effect1_dropShadow_3994_145195"/>
<feOffset/>
<feGaussianBlur stdDeviation="21.6848"/>
<feColorMatrix type="matrix" values="0 0 0 0 0.0823529 0 0 0 0 0.133333 0 0 0 0 0.223529 0 0 0 0.1 0"/>
<feBlend mode="normal" in2="BackgroundImageFix" result="effect1_dropShadow_3994_145195"/>
<feBlend mode="normal" in="SourceGraphic" in2="effect1_dropShadow_3994_145195" result="shape"/>
</filter>
<filter id="filter6_d_3994_145195" x="-158.559" y="191.295" width="162.743" height="173.822" filterUnits="userSpaceOnUse" color-interpolation-filters="sRGB">
<feFlood flood-opacity="0" result="BackgroundImageFix"/>
<feColorMatrix in="SourceAlpha" type="matrix" values="0 0 0 0 0 0 0 0 0 0 0 0 0 0 0 0 0 0 127 0" result="hardAlpha"/>
<feMorphology radius="10.8261" operator="erode" in="SourceAlpha" result="effect1_dropShadow_3994_145195"/>
<feOffset/>
<feGaussianBlur stdDeviation="21.6848"/>
<feColorMatrix type="matrix" values="0 0 0 0 0.0823529 0 0 0 0 0.133333 0 0 0 0 0.223529 0 0 0 0.1 0"/>
<feBlend mode="normal" in2="BackgroundImageFix" result="effect1_dropShadow_3994_145195"/>
<feBlend mode="normal" in="SourceGraphic" in2="effect1_dropShadow_3994_145195" result="shape"/>
</filter>
<filter id="filter7_d_3994_145195" x="-45.7935" y="191.295" width="162.743" height="173.822" filterUnits="userSpaceOnUse" color-interpolation-filters="sRGB">
<feFlood flood-opacity="0" result="BackgroundImageFix"/>
<feColorMatrix in="SourceAlpha" type="matrix" values="0 0 0 0 0 0 0 0 0 0 0 0 0 0 0 0 0 0 127 0" result="hardAlpha"/>
<feMorphology radius="10.8261" operator="erode" in="SourceAlpha" result="effect1_dropShadow_3994_145195"/>
<feOffset/>
<feGaussianBlur stdDeviation="21.6848"/>
<feColorMatrix type="matrix" values="0 0 0 0 0.0823529 0 0 0 0 0.133333 0 0 0 0 0.223529 0 0 0 0.1 0"/>
<feBlend mode="normal" in2="BackgroundImageFix" result="effect1_dropShadow_3994_145195"/>
<feBlend mode="normal" in="SourceGraphic" in2="effect1_dropShadow_3994_145195" result="shape"/>
</filter>
<filter id="filter8_d_3994_145195" x="66.9643" y="191.295" width="162.743" height="173.822" filterUnits="userSpaceOnUse" color-interpolation-filters="sRGB">
<feFlood flood-opacity="0" result="BackgroundImageFix"/>
<feColorMatrix in="SourceAlpha" type="matrix" values="0 0 0 0 0 0 0 0 0 0 0 0 0 0 0 0 0 0 127 0" result="hardAlpha"/>
<feMorphology radius="10.8261" operator="erode" in="SourceAlpha" result="effect1_dropShadow_3994_145195"/>
<feOffset/>
<feGaussianBlur stdDeviation="21.6848"/>
<feColorMatrix type="matrix" values="0 0 0 0 0.0823529 0 0 0 0 0.133333 0 0 0 0 0.223529 0 0 0 0.1 0"/>
<feBlend mode="normal" in2="BackgroundImageFix" result="effect1_dropShadow_3994_145195"/>
<feBlend mode="normal" in="SourceGraphic" in2="effect1_dropShadow_3994_145195" result="shape"/>
</filter>
<filter id="filter9_d_3994_145195" x="179.73" y="191.295" width="162.743" height="173.822" filterUnits="userSpaceOnUse" color-interpolation-filters="sRGB">
<feFlood flood-opacity="0" result="BackgroundImageFix"/>
<feColorMatrix in="SourceAlpha" type="matrix" values="0 0 0 0 0 0 0 0 0 0 0 0 0 0 0 0 0 0 127 0" result="hardAlpha"/>
<feMorphology radius="10.8261" operator="erode" in="SourceAlpha" result="effect1_dropShadow_3994_145195"/>
<feOffset/>
<feGaussianBlur stdDeviation="21.6848"/>
<feColorMatrix type="matrix" values="0 0 0 0 0.0823529 0 0 0 0 0.133333 0 0 0 0 0.223529 0 0 0 0.1 0"/>
<feBlend mode="normal" in2="BackgroundImageFix" result="effect1_dropShadow_3994_145195"/>
<feBlend mode="normal" in="SourceGraphic" in2="effect1_dropShadow_3994_145195" result="shape"/>
</filter>
<filter id="filter10_d_3994_145195" x="292.488" y="191.295" width="162.743" height="173.822" filterUnits="userSpaceOnUse" color-interpolation-filters="sRGB">
<feFlood flood-opacity="0" result="BackgroundImageFix"/>
<feColorMatrix in="SourceAlpha" type="matrix" values="0 0 0 0 0 0 0 0 0 0 0 0 0 0 0 0 0 0 127 0" result="hardAlpha"/>
<feMorphology radius="10.8261" operator="erode" in="SourceAlpha" result="effect1_dropShadow_3994_145195"/>
<feOffset/>
<feGaussianBlur stdDeviation="21.6848"/>
<feColorMatrix type="matrix" values="0 0 0 0 0.0823529 0 0 0 0 0.133333 0 0 0 0 0.223529 0 0 0 0.1 0"/>
<feBlend mode="normal" in2="BackgroundImageFix" result="effect1_dropShadow_3994_145195"/>
<feBlend mode="normal" in="SourceGraphic" in2="effect1_dropShadow_3994_145195" result="shape"/>
</filter>
<filter id="filter11_d_3994_145195" x="405.246" y="191.295" width="162.743" height="173.822" filterUnits="userSpaceOnUse" color-interpolation-filters="sRGB">
<feFlood flood-opacity="0" result="BackgroundImageFix"/>
<feColorMatrix in="SourceAlpha" type="matrix" values="0 0 0 0 0 0 0 0 0 0 0 0 0 0 0 0 0 0 127 0" result="hardAlpha"/>
<feMorphology radius="10.8261" operator="erode" in="SourceAlpha" result="effect1_dropShadow_3994_145195"/>
<feOffset/>
<feGaussianBlur stdDeviation="21.6848"/>
<feColorMatrix type="matrix" values="0 0 0 0 0.0823529 0 0 0 0 0.133333 0 0 0 0 0.223529 0 0 0 0.1 0"/>
<feBlend mode="normal" in2="BackgroundImageFix" result="effect1_dropShadow_3994_145195"/>
<feBlend mode="normal" in="SourceGraphic" in2="effect1_dropShadow_3994_145195" result="shape"/>
</filter>
<filter id="filter12_d_3994_145195" x="-102.176" y="95.8823" width="162.743" height="173.822" filterUnits="userSpaceOnUse" color-interpolation-filters="sRGB">
<feFlood flood-opacity="0" result="BackgroundImageFix"/>
<feColorMatrix in="SourceAlpha" type="matrix" values="0 0 0 0 0 0 0 0 0 0 0 0 0 0 0 0 0 0 127 0" result="hardAlpha"/>
<feMorphology radius="10.8261" operator="erode" in="SourceAlpha" result="effect1_dropShadow_3994_145195"/>
<feOffset/>
<feGaussianBlur stdDeviation="21.6848"/>
<feColorMatrix type="matrix" values="0 0 0 0 0.0823529 0 0 0 0 0.133333 0 0 0 0 0.223529 0 0 0 0.1 0"/>
<feBlend mode="normal" in2="BackgroundImageFix" result="effect1_dropShadow_3994_145195"/>
<feBlend mode="normal" in="SourceGraphic" in2="effect1_dropShadow_3994_145195" result="shape"/>
</filter>
<filter id="filter13_d_3994_145195" x="10.5815" y="95.8823" width="162.743" height="173.822" filterUnits="userSpaceOnUse" color-interpolation-filters="sRGB">
<feFlood flood-opacity="0" result="BackgroundImageFix"/>
<feColorMatrix in="SourceAlpha" type="matrix" values="0 0 0 0 0 0 0 0 0 0 0 0 0 0 0 0 0 0 127 0" result="hardAlpha"/>
<feMorphology radius="10.8261" operator="erode" in="SourceAlpha" result="effect1_dropShadow_3994_145195"/>
<feOffset/>
<feGaussianBlur stdDeviation="21.6848"/>
<feColorMatrix type="matrix" values="0 0 0 0 0.0823529 0 0 0 0 0.133333 0 0 0 0 0.223529 0 0 0 0.1 0"/>
<feBlend mode="normal" in2="BackgroundImageFix" result="effect1_dropShadow_3994_145195"/>
<feBlend mode="normal" in="SourceGraphic" in2="effect1_dropShadow_3994_145195" result="shape"/>
</filter>
<filter id="filter14_d_3994_145195" x="123.347" y="95.8823" width="162.743" height="173.822" filterUnits="userSpaceOnUse" color-interpolation-filters="sRGB">
<feFlood flood-opacity="0" result="BackgroundImageFix"/>
<feColorMatrix in="SourceAlpha" type="matrix" values="0 0 0 0 0 0 0 0 0 0 0 0 0 0 0 0 0 0 127 0" result="hardAlpha"/>
<feMorphology radius="10.8261" operator="erode" in="SourceAlpha" result="effect1_dropShadow_3994_145195"/>
<feOffset/>
<feGaussianBlur stdDeviation="21.6848"/>
<feColorMatrix type="matrix" values="0 0 0 0 0.0823529 0 0 0 0 0.133333 0 0 0 0 0.223529 0 0 0 0.1 0"/>
<feBlend mode="normal" in2="BackgroundImageFix" result="effect1_dropShadow_3994_145195"/>
<feBlend mode="normal" in="SourceGraphic" in2="effect1_dropShadow_3994_145195" result="shape"/>
</filter>
<filter id="filter15_d_3994_145195" x="236.105" y="95.8823" width="162.743" height="173.822" filterUnits="userSpaceOnUse" color-interpolation-filters="sRGB">
<feFlood flood-opacity="0" result="BackgroundImageFix"/>
<feColorMatrix in="SourceAlpha" type="matrix" values="0 0 0 0 0 0 0 0 0 0 0 0 0 0 0 0 0 0 127 0" result="hardAlpha"/>
<feMorphology radius="10.8261" operator="erode" in="SourceAlpha" result="effect1_dropShadow_3994_145195"/>
<feOffset/>
<feGaussianBlur stdDeviation="21.6848"/>
<feColorMatrix type="matrix" values="0 0 0 0 0.0823529 0 0 0 0 0.133333 0 0 0 0 0.223529 0 0 0 0.1 0"/>
<feBlend mode="normal" in2="BackgroundImageFix" result="effect1_dropShadow_3994_145195"/>
<feBlend mode="normal" in="SourceGraphic" in2="effect1_dropShadow_3994_145195" result="shape"/>
</filter>
<filter id="filter16_d_3994_145195" x="348.863" y="95.8823" width="162.743" height="173.822" filterUnits="userSpaceOnUse" color-interpolation-filters="sRGB">
<feFlood flood-opacity="0" result="BackgroundImageFix"/>
<feColorMatrix in="SourceAlpha" type="matrix" values="0 0 0 0 0 0 0 0 0 0 0 0 0 0 0 0 0 0 127 0" result="hardAlpha"/>
<feMorphology radius="10.8261" operator="erode" in="SourceAlpha" result="effect1_dropShadow_3994_145195"/>
<feOffset/>
<feGaussianBlur stdDeviation="21.6848"/>
<feColorMatrix type="matrix" values="0 0 0 0 0.0823529 0 0 0 0 0.133333 0 0 0 0 0.223529 0 0 0 0.1 0"/>
<feBlend mode="normal" in2="BackgroundImageFix" result="effect1_dropShadow_3994_145195"/>
<feBlend mode="normal" in="SourceGraphic" in2="effect1_dropShadow_3994_145195" result="shape"/>
</filter>
<filter id="filter17_d_3994_145195" x="-102.176" y="286.708" width="162.743" height="173.822" filterUnits="userSpaceOnUse" color-interpolation-filters="sRGB">
<feFlood flood-opacity="0" result="BackgroundImageFix"/>
<feColorMatrix in="SourceAlpha" type="matrix" values="0 0 0 0 0 0 0 0 0 0 0 0 0 0 0 0 0 0 127 0" result="hardAlpha"/>
<feMorphology radius="10.8261" operator="erode" in="SourceAlpha" result="effect1_dropShadow_3994_145195"/>
<feOffset/>
<feGaussianBlur stdDeviation="21.6848"/>
<feColorMatrix type="matrix" values="0 0 0 0 0.0823529 0 0 0 0 0.133333 0 0 0 0 0.223529 0 0 0 0.1 0"/>
<feBlend mode="normal" in2="BackgroundImageFix" result="effect1_dropShadow_3994_145195"/>
<feBlend mode="normal" in="SourceGraphic" in2="effect1_dropShadow_3994_145195" result="shape"/>
</filter>
<filter id="filter18_d_3994_145195" x="10.5815" y="286.708" width="162.743" height="173.822" filterUnits="userSpaceOnUse" color-interpolation-filters="sRGB">
<feFlood flood-opacity="0" result="BackgroundImageFix"/>
<feColorMatrix in="SourceAlpha" type="matrix" values="0 0 0 0 0 0 0 0 0 0 0 0 0 0 0 0 0 0 127 0" result="hardAlpha"/>
<feMorphology radius="10.8261" operator="erode" in="SourceAlpha" result="effect1_dropShadow_3994_145195"/>
<feOffset/>
<feGaussianBlur stdDeviation="21.6848"/>
<feColorMatrix type="matrix" values="0 0 0 0 0.0823529 0 0 0 0 0.133333 0 0 0 0 0.223529 0 0 0 0.1 0"/>
<feBlend mode="normal" in2="BackgroundImageFix" result="effect1_dropShadow_3994_145195"/>
<feBlend mode="normal" in="SourceGraphic" in2="effect1_dropShadow_3994_145195" result="shape"/>
</filter>
<filter id="filter19_d_3994_145195" x="123.347" y="286.708" width="162.743" height="173.822" filterUnits="userSpaceOnUse" color-interpolation-filters="sRGB">
<feFlood flood-opacity="0" result="BackgroundImageFix"/>
<feColorMatrix in="SourceAlpha" type="matrix" values="0 0 0 0 0 0 0 0 0 0 0 0 0 0 0 0 0 0 127 0" result="hardAlpha"/>
<feMorphology radius="10.8261" operator="erode" in="SourceAlpha" result="effect1_dropShadow_3994_145195"/>
<feOffset/>
<feGaussianBlur stdDeviation="21.6848"/>
<feColorMatrix type="matrix" values="0 0 0 0 0.0823529 0 0 0 0 0.133333 0 0 0 0 0.223529 0 0 0 0.1 0"/>
<feBlend mode="normal" in2="BackgroundImageFix" result="effect1_dropShadow_3994_145195"/>
<feBlend mode="normal" in="SourceGraphic" in2="effect1_dropShadow_3994_145195" result="shape"/>
</filter>
<filter id="filter20_d_3994_145195" x="236.105" y="286.708" width="162.743" height="173.822" filterUnits="userSpaceOnUse" color-interpolation-filters="sRGB">
<feFlood flood-opacity="0" result="BackgroundImageFix"/>
<feColorMatrix in="SourceAlpha" type="matrix" values="0 0 0 0 0 0 0 0 0 0 0 0 0 0 0 0 0 0 127 0" result="hardAlpha"/>
<feMorphology radius="10.8261" operator="erode" in="SourceAlpha" result="effect1_dropShadow_3994_145195"/>
<feOffset/>
<feGaussianBlur stdDeviation="21.6848"/>
<feColorMatrix type="matrix" values="0 0 0 0 0.0823529 0 0 0 0 0.133333 0 0 0 0 0.223529 0 0 0 0.1 0"/>
<feBlend mode="normal" in2="BackgroundImageFix" result="effect1_dropShadow_3994_145195"/>
<feBlend mode="normal" in="SourceGraphic" in2="effect1_dropShadow_3994_145195" result="shape"/>
</filter>
<filter id="filter21_d_3994_145195" x="348.863" y="286.708" width="162.743" height="173.822" filterUnits="userSpaceOnUse" color-interpolation-filters="sRGB">
<feFlood flood-opacity="0" result="BackgroundImageFix"/>
<feColorMatrix in="SourceAlpha" type="matrix" values="0 0 0 0 0 0 0 0 0 0 0 0 0 0 0 0 0 0 127 0" result="hardAlpha"/>
<feMorphology radius="10.8261" operator="erode" in="SourceAlpha" result="effect1_dropShadow_3994_145195"/>
<feOffset/>
<feGaussianBlur stdDeviation="21.6848"/>
<feColorMatrix type="matrix" values="0 0 0 0 0.0823529 0 0 0 0 0.133333 0 0 0 0 0.223529 0 0 0 0.1 0"/>
<feBlend mode="normal" in2="BackgroundImageFix" result="effect1_dropShadow_3994_145195"/>
<feBlend mode="normal" in="SourceGraphic" in2="effect1_dropShadow_3994_145195" result="shape"/>
</filter>
</defs>
</svg>
