<svg width="121" height="33" viewBox="0 0 121 33" fill="none" xmlns="http://www.w3.org/2000/svg">
<g clip-path="url(#clip0_4568_152979)">
<path fill-rule="evenodd" clip-rule="evenodd" d="M0.4375 5.64111V30.5783C0.4375 32.0667 2.01007 33.0285 3.33579 32.3501L24.5033 21.5095C25.9479 20.7698 25.9479 18.7053 24.5033 17.9666L0.4375 5.64111Z" fill="#344054"/>
<path opacity="0.4" fill-rule="evenodd" clip-rule="evenodd" d="M0.4375 5.64206L12.3296 11.7321V2.80686C12.3296 1.31841 10.757 0.356577 9.43224 1.03498L0.4375 5.64206Z" fill="#667085"/>
<path fill-rule="evenodd" clip-rule="evenodd" d="M46.3549 10.7849L42.632 21.6274L38.8276 10.7849H33.6016L40.1643 27.7632H40.5254H44.7851L51.3442 10.7849H46.3549ZM52.7083 27.7477H57.0859V10.7849H52.7083V27.7477ZM79.4987 27.7477V20.0256C79.4987 14.1376 73.2432 13.7993 70.9382 16.8L70.7499 15.1616H66.8578V27.7467H71.2345V21.8158C71.2345 19.1936 72.2402 18.9175 73.2733 18.9111C74.1739 18.9056 75.1211 19.1945 75.1211 21.7774V27.7477H79.4987V27.7477ZM59.816 27.7477H64.1926V15.1616H59.816V27.7477ZM62.0075 14.197C63.4374 14.197 64.5968 13.1118 64.5968 11.7723C64.5968 10.4329 63.4374 9.34766 62.0075 9.34766C60.5766 9.34766 59.4173 10.4329 59.4173 11.7723C59.4173 13.1118 60.5766 14.197 62.0075 14.197V14.197ZM88.1305 24.0073C86.7216 24.0073 85.5796 22.8645 85.5796 21.4546C85.5796 20.0448 86.7216 18.9019 88.1305 18.9019C89.5403 18.9019 90.6832 20.0448 90.6832 21.4546C90.6832 22.8635 89.5403 24.0064 88.1305 24.0064V24.0073ZM90.5643 10.8087V15.8464C89.5211 15.2869 88.327 14.9595 87.0809 14.9595C83.8351 14.9595 81.2057 17.867 81.2057 21.4546C81.2057 25.0414 83.8361 27.9497 87.0809 27.9497C88.7796 27.9497 90.002 27.2887 90.9785 26.3707L91.2957 27.7477H94.941V10.8087H90.5643V10.8087ZM103.321 18.08C104.433 18.08 105.364 18.8416 105.629 19.8702H101.015C101.28 18.8416 102.21 18.08 103.322 18.08H103.321ZM109.629 22.3991C109.763 21.9109 109.834 21.3934 109.834 20.8539C109.834 17.6137 106.988 14.9733 103.426 14.8562C99.5956 14.9742 96.5264 17.867 96.5264 21.4208C96.5264 25.0487 99.3817 27.9899 103.326 27.9899C105.719 27.9899 107.739 27.1515 109.076 25.7673L106.505 23.1936C103.906 25.2233 101.316 23.9643 101.037 22.3982H109.629V22.3991ZM115.515 17.3083L115.229 15.1506H111.337V27.7376H115.714V22.3378L115.715 22.2647C115.748 20.6674 117.052 19.3911 118.648 19.3911H119.856V14.9038C117.015 14.9038 115.829 16.7141 115.515 17.3083Z" fill="#344054"/>
</g>
<defs>
<clipPath id="clip0_4568_152979">
<rect width="119.771" height="32" fill="white" transform="translate(0.4375 0.601562)"/>
</clipPath>
</defs>
</svg>
