<svg width="202" height="200" viewBox="0 0 202 200" fill="none" xmlns="http://www.w3.org/2000/svg">
<path fill-rule="evenodd" clip-rule="evenodd" d="M94.6623 6.33133C98.3751 4.18773 102.949 4.18774 106.662 6.33133L199.834 60.1242C202.419 61.6162 200.76 64.8028 197.775 64.8028H177.744C175.535 64.8028 173.744 66.5936 173.744 68.8028V187.078C152.13 185.755 127.134 185 100.5 185C74.0007 185 49.1226 185.748 27.5845 187.058V68.8028C27.5845 66.5936 25.7936 64.8028 23.5845 64.8028H3.54914C0.565042 64.8028 -1.09395 61.6162 1.49035 60.1242L94.6623 6.33133Z" fill="url(#paint0_linear_4175_195710)"/>
<path d="M157.664 20.5774C158.283 20.2201 159.045 20.2201 159.664 20.5774L174.985 29.4226C175.603 29.7799 175.985 30.4402 175.985 31.1547V48.8453C175.985 49.5598 175.603 50.2201 174.985 50.5774L159.664 59.4226C159.045 59.7799 158.283 59.7799 157.664 59.4226L142.344 50.5774C141.725 50.2201 141.344 49.5598 141.344 48.8453V31.1547C141.344 30.4402 141.725 29.7799 142.344 29.4226L157.664 20.5774Z" fill="#344054"/>
<path d="M157.664 20.5774C158.283 20.2201 159.045 20.2201 159.664 20.5774L174.985 29.4226C175.603 29.7799 175.985 30.4402 175.985 31.1547V48.8453C175.985 49.5598 175.603 50.2201 174.985 50.5774L159.664 59.4226C159.045 59.7799 158.283 59.7799 157.664 59.4226L142.344 50.5774C141.725 50.2201 141.344 49.5598 141.344 48.8453V31.1547C141.344 30.4402 141.725 29.7799 142.344 29.4226L157.664 20.5774Z" fill="url(#paint1_radial_4175_195710)"/>
<path d="M130.664 0.57735C131.283 0.220084 132.045 0.220085 132.664 0.57735L141.922 5.92265C142.541 6.27992 142.922 6.94017 142.922 7.6547V18.3453C142.922 19.0598 142.541 19.7201 141.922 20.0774L132.664 25.4226C132.045 25.7799 131.283 25.7799 130.664 25.4226L121.406 20.0774C120.787 19.7201 120.406 19.0598 120.406 18.3453V7.6547C120.406 6.94017 120.787 6.27992 121.406 5.92265L130.664 0.57735Z" fill="#344054"/>
<path d="M130.664 0.57735C131.283 0.220084 132.045 0.220085 132.664 0.57735L141.922 5.92265C142.541 6.27992 142.922 6.94017 142.922 7.6547V18.3453C142.922 19.0598 142.541 19.7201 141.922 20.0774L132.664 25.4226C132.045 25.7799 131.283 25.7799 130.664 25.4226L121.406 20.0774C120.787 19.7201 120.406 19.0598 120.406 18.3453V7.6547C120.406 6.94017 120.787 6.27992 121.406 5.92265L130.664 0.57735Z" fill="url(#paint2_radial_4175_195710)"/>
<path d="M50.667 163.5L53.167 162L54.4076 176.867L55.167 188H49.667L50.667 182V163.5Z" fill="url(#paint3_linear_4175_195710)"/>
<path d="M46.6641 159.5C46.6641 155.91 49.5742 153 53.1641 153H55.1641C58.7539 153 61.6641 155.91 61.6641 159.5C61.6641 163.09 58.7539 166 55.1641 166H53.1641C49.5742 166 46.6641 163.09 46.6641 159.5Z" fill="url(#paint4_linear_4175_195710)"/>
<path d="M42.6641 153.5C42.6641 151.015 44.6788 149 47.1641 149H48.1641C50.6493 149 52.6641 151.015 52.6641 153.5C52.6641 155.985 50.6493 158 48.1641 158H47.1641C44.6788 158 42.6641 155.985 42.6641 153.5Z" fill="url(#paint5_linear_4175_195710)"/>
<path d="M50.6641 154.5C50.6641 152.015 52.6788 150 55.1641 150H56.1641C58.6493 150 60.6641 152.015 60.6641 154.5C60.6641 156.985 58.6493 159 56.1641 159H55.1641C52.6788 159 50.6641 156.985 50.6641 154.5Z" fill="url(#paint6_linear_4175_195710)"/>
<path d="M39.6641 160.5C39.6641 158.015 41.6788 156 44.1641 156H47.1641C49.6493 156 51.6641 158.015 51.6641 160.5C51.6641 162.985 49.6493 165 47.1641 165H44.1641C41.6788 165 39.6641 162.985 39.6641 160.5Z" fill="url(#paint7_linear_4175_195710)"/>
<path d="M66.9799 131.894V127.592L81.1671 137.057L82.9405 82.9985L87.374 82.138L89.1474 130.724L102.448 110.072L104.221 111.793L90.0341 141.05L92.6942 186.966H79.3937L81.1671 146.523L66.9799 131.894Z" fill="url(#paint8_linear_4175_195710)"/>
<path d="M47.6641 75.2414C47.6641 66.1001 55.0745 58.6897 64.2158 58.6897H97.3192C106.46 58.6897 113.871 66.1001 113.871 75.2414C113.871 84.3827 106.46 91.7931 97.3192 91.7931H64.2158C55.0745 91.7931 47.6641 84.3827 47.6641 75.2414Z" fill="url(#paint9_linear_4175_195710)"/>
<path d="M49.1484 120.086C49.1484 114.839 53.4017 110.586 58.6484 110.586H69.6484C74.8951 110.586 79.1484 114.839 79.1484 120.086C79.1484 125.333 74.8951 129.586 69.6484 129.586H58.6484C53.4017 129.586 49.1484 125.333 49.1484 120.086Z" fill="url(#paint10_linear_4175_195710)"/>
<path d="M54.1484 109.483C54.1484 105.674 57.2361 102.586 61.045 102.586H65.1829C68.9918 102.586 72.0795 105.674 72.0795 109.483C72.0795 113.292 68.9918 116.379 65.1829 116.379H61.045C57.2361 116.379 54.1484 113.292 54.1484 109.483Z" fill="url(#paint11_linear_4175_195710)"/>
<path d="M59.1484 129.586C59.1484 126.272 61.8347 123.586 65.1484 123.586H66.1484C69.4621 123.586 72.1484 126.272 72.1484 129.586C72.1484 132.9 69.4621 135.586 66.1484 135.586H65.1484C61.8347 135.586 59.1484 132.9 59.1484 129.586Z" fill="url(#paint12_linear_4175_195710)"/>
<path d="M62.8414 53.8621C62.8414 45.1017 69.9431 38 78.7035 38C87.4639 38 94.5656 45.1017 94.5656 53.8621C94.5656 62.6224 87.4639 69.7241 78.7035 69.7241C69.9431 69.7241 62.8414 62.6224 62.8414 53.8621Z" fill="url(#paint13_linear_4175_195710)"/>
<path d="M62.8414 81.4482C62.8414 72.6879 69.9431 65.5862 78.7035 65.5862C87.4639 65.5862 94.5656 72.6879 94.5656 81.4482C94.5656 90.2086 87.4639 97.3103 78.7035 97.3103C69.9431 97.3103 62.8414 90.2086 62.8414 81.4482Z" fill="url(#paint14_linear_4175_195710)"/>
<path d="M79.387 70.4138C79.387 58.6063 88.9589 49.0345 100.766 49.0345C112.574 49.0345 122.146 58.6063 122.146 70.4138C122.146 82.2213 112.574 91.7931 100.766 91.7931C88.9589 91.7931 79.387 82.2213 79.387 70.4138Z" fill="url(#paint15_linear_4175_195710)"/>
<path d="M89.0492 49.0345C89.0492 44.4639 92.7544 40.7587 97.3251 40.7587H98.7044C103.275 40.7587 106.98 44.4639 106.98 49.0345C106.98 53.6052 103.275 57.3104 98.7044 57.3104H97.3251C92.7544 57.3104 89.0492 53.6052 89.0492 49.0345Z" fill="url(#paint16_linear_4175_195710)"/>
<path d="M94.5644 112.483C94.5644 107.912 98.2696 104.207 102.84 104.207H104.22C108.79 104.207 112.495 107.912 112.495 112.483C112.495 117.053 108.79 120.759 104.22 120.759H102.84C98.2696 120.759 94.5644 117.053 94.5644 112.483Z" fill="url(#paint17_linear_4175_195710)"/>
<path d="M91.8026 105.586C91.8026 101.016 95.5078 97.3103 100.078 97.3103H101.458C106.028 97.3103 109.734 101.016 109.734 105.586C109.734 110.157 106.028 113.862 101.458 113.862H100.078C95.5078 113.862 91.8026 110.157 91.8026 105.586Z" fill="url(#paint18_linear_4175_195710)"/>
<path d="M100.08 108.345C100.08 103.774 103.785 100.069 108.355 100.069H109.735C114.305 100.069 118.011 103.774 118.011 108.345C118.011 112.915 114.305 116.621 109.735 116.621H108.355C103.785 116.621 100.08 112.915 100.08 108.345Z" fill="url(#paint19_linear_4175_195710)"/>
<path d="M140.101 158.963L141.121 127.876L143.671 127.382L144.69 155.321L155.148 133.51L156.167 134.5L145.2 161.259L146.73 187.663H139.081L140.101 164.406V158.963Z" fill="url(#paint20_linear_4175_195710)"/>
<path d="M125.664 127C125.664 121.477 130.141 117 135.664 117H156.664C162.187 117 166.664 121.477 166.664 127C166.664 132.523 162.187 137 156.664 137H135.664C130.141 137 125.664 132.523 125.664 127Z" fill="url(#paint21_linear_4175_195710)"/>
<path d="M142.664 132.5C142.664 127.806 146.47 124 151.164 124H152.164C156.858 124 160.664 127.806 160.664 132.5C160.664 137.194 156.858 141 152.164 141H151.164C146.47 141 142.664 137.194 142.664 132.5Z" fill="url(#paint22_linear_4175_195710)"/>
<path d="M134.664 116.5C134.664 111.806 138.47 108 143.164 108C147.858 108 151.664 111.806 151.664 116.5C151.664 121.194 147.858 125 143.164 125C138.47 125 134.664 121.194 134.664 116.5Z" fill="url(#paint23_linear_4175_195710)"/>
<path d="M146.664 118C146.664 115.239 148.903 113 151.664 113H152.664C155.425 113 157.664 115.239 157.664 118C157.664 120.761 155.425 123 152.664 123H151.664C148.903 123 146.664 120.761 146.664 118Z" fill="url(#paint24_linear_4175_195710)"/>
<path d="M112.659 168.867L109.664 153.617L112.659 153L115.164 163.097L118.664 153H120.675L117.408 168.867L117.664 186.597L112.659 186.097V168.867Z" fill="url(#paint25_linear_4175_195710)"/>
<path d="M109.664 146C109.664 142.134 112.798 139 116.664 139H118.664C122.53 139 125.664 142.134 125.664 146C125.664 149.866 122.53 153 118.664 153L116.664 153C112.798 153 109.664 149.866 109.664 146Z" fill="url(#paint26_linear_4175_195710)"/>
<path d="M114.664 152.5C114.664 150.015 116.679 148 119.164 148H120.164C122.649 148 124.664 150.015 124.664 152.5C124.664 154.985 122.649 157 120.164 157H119.164C116.679 157 114.664 154.985 114.664 152.5Z" fill="url(#paint27_linear_4175_195710)"/>
<path d="M105.664 146.5C105.664 144.015 107.679 142 110.164 142H111.164C113.649 142 115.664 144.015 115.664 146.5C115.664 148.985 113.649 151 111.164 151H110.164C107.679 151 105.664 148.985 105.664 146.5Z" fill="url(#paint28_linear_4175_195710)"/>
<path d="M103.664 152.5C103.664 150.015 105.679 148 108.164 148H111.164C113.649 148 115.664 150.015 115.664 152.5C115.664 154.985 113.649 157 111.164 157H108.164C105.679 157 103.664 154.985 103.664 152.5Z" fill="url(#paint29_linear_4175_195710)"/>
<defs>
<linearGradient id="paint0_linear_4175_195710" x1="55.9611" y1="163.372" x2="97.7006" y2="18.6904" gradientUnits="userSpaceOnUse">
<stop stop-color="#FFB5CC"/>
<stop offset="0.5" stop-color="#F46780"/>
<stop offset="1" stop-color="#FB8275"/>
</linearGradient>
<radialGradient id="paint1_radial_4175_195710" cx="0" cy="0" r="1" gradientUnits="userSpaceOnUse" gradientTransform="translate(157.886 60) rotate(-112.092) scale(97.4913 105.98)">
<stop stop-color="#2D4165"/>
<stop offset="1" stop-color="#0C111D"/>
</radialGradient>
<radialGradient id="paint2_radial_4175_195710" cx="0" cy="0" r="1" gradientUnits="userSpaceOnUse" gradientTransform="translate(131.159 26) rotate(-112.092) scale(63.3694 68.887)">
<stop stop-color="#2D4165"/>
<stop offset="1" stop-color="#0C111D"/>
</radialGradient>
<linearGradient id="paint3_linear_4175_195710" x1="50.8588" y1="150.5" x2="50.8593" y2="188" gradientUnits="userSpaceOnUse">
<stop stop-color="#FFE7EF"/>
<stop offset="1" stop-color="white"/>
</linearGradient>
<linearGradient id="paint4_linear_4175_195710" x1="50.8588" y1="150.5" x2="50.8593" y2="188" gradientUnits="userSpaceOnUse">
<stop stop-color="#FFE7EF"/>
<stop offset="1" stop-color="white"/>
</linearGradient>
<linearGradient id="paint5_linear_4175_195710" x1="50.8588" y1="150.5" x2="50.8593" y2="188" gradientUnits="userSpaceOnUse">
<stop stop-color="#FFE7EF"/>
<stop offset="1" stop-color="white"/>
</linearGradient>
<linearGradient id="paint6_linear_4175_195710" x1="50.8588" y1="150.5" x2="50.8593" y2="188" gradientUnits="userSpaceOnUse">
<stop stop-color="#FFE7EF"/>
<stop offset="1" stop-color="white"/>
</linearGradient>
<linearGradient id="paint7_linear_4175_195710" x1="50.8588" y1="150.5" x2="50.8593" y2="188" gradientUnits="userSpaceOnUse">
<stop stop-color="#FFE7EF"/>
<stop offset="1" stop-color="white"/>
</linearGradient>
<linearGradient id="paint8_linear_4175_195710" x1="85.564" y1="43.7293" x2="85.5662" y2="186.966" gradientUnits="userSpaceOnUse">
<stop stop-color="#FFE7EF"/>
<stop offset="1" stop-color="white"/>
</linearGradient>
<linearGradient id="paint9_linear_4175_195710" x1="85.564" y1="43.7293" x2="85.5662" y2="186.966" gradientUnits="userSpaceOnUse">
<stop stop-color="#FFE7EF"/>
<stop offset="1" stop-color="white"/>
</linearGradient>
<linearGradient id="paint10_linear_4175_195710" x1="85.564" y1="43.7293" x2="85.5662" y2="186.966" gradientUnits="userSpaceOnUse">
<stop stop-color="#FFE7EF"/>
<stop offset="1" stop-color="white"/>
</linearGradient>
<linearGradient id="paint11_linear_4175_195710" x1="85.564" y1="43.7293" x2="85.5662" y2="186.966" gradientUnits="userSpaceOnUse">
<stop stop-color="#FFE7EF"/>
<stop offset="1" stop-color="white"/>
</linearGradient>
<linearGradient id="paint12_linear_4175_195710" x1="85.564" y1="43.7293" x2="85.5662" y2="186.966" gradientUnits="userSpaceOnUse">
<stop stop-color="#FFE7EF"/>
<stop offset="1" stop-color="white"/>
</linearGradient>
<linearGradient id="paint13_linear_4175_195710" x1="85.564" y1="43.7293" x2="85.5662" y2="186.966" gradientUnits="userSpaceOnUse">
<stop stop-color="#FFE7EF"/>
<stop offset="1" stop-color="white"/>
</linearGradient>
<linearGradient id="paint14_linear_4175_195710" x1="85.564" y1="43.7293" x2="85.5662" y2="186.966" gradientUnits="userSpaceOnUse">
<stop stop-color="#FFE7EF"/>
<stop offset="1" stop-color="white"/>
</linearGradient>
<linearGradient id="paint15_linear_4175_195710" x1="85.564" y1="43.7293" x2="85.5662" y2="186.966" gradientUnits="userSpaceOnUse">
<stop stop-color="#FFE7EF"/>
<stop offset="1" stop-color="white"/>
</linearGradient>
<linearGradient id="paint16_linear_4175_195710" x1="85.564" y1="43.7293" x2="85.5662" y2="186.966" gradientUnits="userSpaceOnUse">
<stop stop-color="#FFE7EF"/>
<stop offset="1" stop-color="white"/>
</linearGradient>
<linearGradient id="paint17_linear_4175_195710" x1="85.564" y1="43.7293" x2="85.5662" y2="186.966" gradientUnits="userSpaceOnUse">
<stop stop-color="#FFE7EF"/>
<stop offset="1" stop-color="white"/>
</linearGradient>
<linearGradient id="paint18_linear_4175_195710" x1="85.564" y1="43.7293" x2="85.5662" y2="186.966" gradientUnits="userSpaceOnUse">
<stop stop-color="#FFE7EF"/>
<stop offset="1" stop-color="white"/>
</linearGradient>
<linearGradient id="paint19_linear_4175_195710" x1="85.564" y1="43.7293" x2="85.5662" y2="186.966" gradientUnits="userSpaceOnUse">
<stop stop-color="#FFE7EF"/>
<stop offset="1" stop-color="white"/>
</linearGradient>
<linearGradient id="paint20_linear_4175_195710" x1="146.527" y1="111.064" x2="146.528" y2="187.663" gradientUnits="userSpaceOnUse">
<stop stop-color="#FFE7EF"/>
<stop offset="1" stop-color="white"/>
</linearGradient>
<linearGradient id="paint21_linear_4175_195710" x1="146.527" y1="111.064" x2="146.528" y2="187.663" gradientUnits="userSpaceOnUse">
<stop stop-color="#FFE7EF"/>
<stop offset="1" stop-color="white"/>
</linearGradient>
<linearGradient id="paint22_linear_4175_195710" x1="146.527" y1="111.064" x2="146.528" y2="187.663" gradientUnits="userSpaceOnUse">
<stop stop-color="#FFE7EF"/>
<stop offset="1" stop-color="white"/>
</linearGradient>
<linearGradient id="paint23_linear_4175_195710" x1="146.527" y1="111.064" x2="146.528" y2="187.663" gradientUnits="userSpaceOnUse">
<stop stop-color="#FFE7EF"/>
<stop offset="1" stop-color="white"/>
</linearGradient>
<linearGradient id="paint24_linear_4175_195710" x1="146.527" y1="111.064" x2="146.528" y2="187.663" gradientUnits="userSpaceOnUse">
<stop stop-color="#FFE7EF"/>
<stop offset="1" stop-color="white"/>
</linearGradient>
<linearGradient id="paint25_linear_4175_195710" x1="114.859" y1="140.831" x2="114.86" y2="186.597" gradientUnits="userSpaceOnUse">
<stop stop-color="#FFE7EF"/>
<stop offset="1" stop-color="white"/>
</linearGradient>
<linearGradient id="paint26_linear_4175_195710" x1="114.859" y1="140.831" x2="114.86" y2="186.597" gradientUnits="userSpaceOnUse">
<stop stop-color="#FFE7EF"/>
<stop offset="1" stop-color="white"/>
</linearGradient>
<linearGradient id="paint27_linear_4175_195710" x1="114.859" y1="140.831" x2="114.86" y2="186.597" gradientUnits="userSpaceOnUse">
<stop stop-color="#FFE7EF"/>
<stop offset="1" stop-color="white"/>
</linearGradient>
<linearGradient id="paint28_linear_4175_195710" x1="114.859" y1="140.831" x2="114.86" y2="186.597" gradientUnits="userSpaceOnUse">
<stop stop-color="#FFE7EF"/>
<stop offset="1" stop-color="white"/>
</linearGradient>
<linearGradient id="paint29_linear_4175_195710" x1="114.859" y1="140.831" x2="114.86" y2="186.597" gradientUnits="userSpaceOnUse">
<stop stop-color="#FFE7EF"/>
<stop offset="1" stop-color="white"/>
</linearGradient>
</defs>
</svg>
