<?xml version="1.0" standalone="no"?>
<!DOCTYPE svg PUBLIC "-//W3C//DTD SVG 20010904//EN"
 "http://www.w3.org/TR/2001/REC-SVG-20010904/DTD/svg10.dtd">
<svg version="1.0" xmlns="http://www.w3.org/2000/svg"
 width="622.000000pt" height="622.000000pt" viewBox="0 0 622.000000 622.000000"
 preserveAspectRatio="xMidYMid meet">
<metadata>
Created by potrace 1.11, written by Peter Selinger 2001-2013
</metadata>
<g transform="translate(0.000000,622.000000) scale(0.100000,-0.100000)"
fill="#000000" stroke="none">
<path d="M727 6204 c-2 -2 -20 -6 -40 -8 -69 -9 -107 -18 -113 -27 -3 -5 -12
-9 -19 -9 -27 0 -144 -59 -199 -100 -54 -41 -133 -122 -173 -178 -44 -61 -104
-188 -117 -247 -4 -17 -10 -43 -14 -60 -9 -41 -9 -4858 1 -4917 32 -194 157
-389 321 -501 89 -61 214 -112 306 -125 60 -9 4855 -9 4900 0 63 12 85 18 110
28 14 5 39 15 55 21 17 7 35 13 40 14 17 4 85 50 150 101 85 67 154 152 209
259 3 6 19 48 36 95 l30 85 -3 2490 c-2 2402 -3 2492 -21 2540 -32 86 -69 165
-78 165 -4 0 -8 6 -8 13 0 16 -29 54 -95 125 -90 97 -201 166 -342 209 l-88
27 -2422 2 c-1332 1 -2423 0 -2426 -2z"/>
</g>
</svg>
